<svg width="25" height="25" viewBox="0 0 25 25" fill="none" xmlns="http://www.w3.org/2000/svg">
<path d="M14.9916 14.9916L5.64809 19.3519L10.0084 10.0084L19.3519 5.64809L14.9916 14.9916ZM11.6015 13.3985C11.8433 13.6403 12.143 13.7612 12.5 13.7612C12.857 13.7612 13.1567 13.6403 13.3985 13.3985C13.6403 13.1567 13.7612 12.857 13.7612 12.5C13.7612 12.143 13.6403 11.8433 13.3985 11.6015C13.1567 11.3597 12.857 11.2388 12.5 11.2388C12.143 11.2388 11.8433 11.3597 11.6015 11.6015C11.3597 11.8433 11.2388 12.143 11.2388 12.5C11.2388 12.857 11.3597 13.1567 11.6015 13.3985ZM12.5 24.9888C10.7723 24.9888 9.1488 24.661 7.62942 24.0054C6.10983 23.3497 4.7881 22.4598 3.66414 21.3359C2.54018 20.2119 1.65034 18.8902 0.994622 17.3706C0.339001 15.8512 0.0111607 14.2277 0.0111607 12.5C0.0111607 10.7723 0.339001 9.1488 0.994622 7.62942C1.65034 6.10983 2.54018 4.7881 3.66414 3.66414C4.7881 2.54018 6.10983 1.65034 7.62942 0.994622C9.1488 0.339001 10.7723 0.0111607 12.5 0.0111607C14.2277 0.0111607 15.8512 0.339001 17.3706 0.994622C18.8902 1.65034 20.2119 2.54018 21.3359 3.66414C22.4598 4.7881 23.3497 6.10983 24.0054 7.62942C24.661 9.1488 24.9888 10.7723 24.9888 12.5C24.9888 14.2277 24.661 15.8512 24.0054 17.3706C23.3497 18.8902 22.4598 20.2119 21.3359 21.3359C20.2119 22.4598 18.8902 23.3497 17.3706 24.0054C15.8512 24.661 14.2277 24.9888 12.5 24.9888ZM12.5 22.5112C15.2946 22.5112 17.662 21.5413 19.6016 19.6016C21.5413 17.662 22.5112 15.2946 22.5112 12.5C22.5112 9.70544 21.5413 7.338 19.6016 5.39836C17.662 3.45872 15.2946 2.48884 12.5 2.48884C9.70544 2.48884 7.338 3.45872 5.39836 5.39836C3.45872 7.338 2.48884 9.70544 2.48884 12.5C2.48884 15.2946 3.45872 17.662 5.39836 19.6016C7.338 21.5413 9.70544 22.5112 12.5 22.5112Z" fill="white" fill-opacity="0.45" stroke="url(#paint0_linear_1348_42675)" stroke-width="0.0223214"/>
<defs>
<linearGradient id="paint0_linear_1348_42675" x1="-1.46658" y1="1.98027e-07" x2="19.7028" y2="14.4422" gradientUnits="userSpaceOnUse">
<stop stop-color="#F2F2F2" stop-opacity="0.22"/>
<stop offset="1" stop-color="#8C8C8C" stop-opacity="0.12"/>
</linearGradient>
</defs>
</svg>
