<svg width="19" height="20" viewBox="0 0 19 20" fill="none" xmlns="http://www.w3.org/2000/svg">
<circle cx="9.5" cy="10.3823" r="9.5" fill="#FFD200"/>
<path d="M8.5342 7.52794C8.73683 7.54665 8.93759 7.4764 9.08435 7.33544L11.7245 4.79954C12.2033 4.33971 12.9905 4.76301 12.8708 5.41595L12.4013 7.97824C12.3354 8.33787 12.5569 8.68777 12.9102 8.78202L14.8024 9.28686C15.6239 9.50604 15.6591 10.6587 14.8526 10.9277L12.7652 11.6239C12.479 11.7193 12.2859 11.9872 12.2859 12.289V15.1722C12.2859 15.8126 11.4846 16.1016 11.0758 15.6087L9.21445 13.3644C9.00326 13.1098 8.64281 13.0374 8.34969 13.1908L5.18664 14.8462C4.5826 15.1623 3.93859 14.4966 4.27457 13.9034L5.88443 11.061C6.02788 10.8077 5.99992 10.4921 5.81417 10.268L4.18099 8.29758C3.7925 7.82886 4.16413 7.12433 4.77035 7.18032L8.5342 7.52794Z" fill="#152D76" stroke="#FFD200" stroke-width="0.0173114"/>
<path d="M9.57324 9.44548C10.3335 7.44001 10.9756 6.4551 12.4328 4.90747" stroke="#FFD200" stroke-width="0.173114"/>
<path d="M9.44646 9.55571C11.5522 9.14886 12.7276 9.17773 14.8101 9.60445" stroke="#FFD200" stroke-width="0.173114"/>
<path d="M4.78752 7.71625C6.89994 8.08714 7.98774 8.5333 9.78106 9.67462" stroke="#FFD200" stroke-width="0.173114"/>
<path d="M5.31576 13.0138C6.66066 11.3431 7.57667 10.606 9.44211 9.58686" stroke="#FFD200" stroke-width="0.173114"/>
<path d="M9.64948 9.56969C10.8651 11.3366 11.3091 12.4253 11.7515 14.5045" stroke="#FFD200" stroke-width="0.173114"/>
</svg>
