<svg width="25" height="25" viewBox="0 0 25 25" fill="none" xmlns="http://www.w3.org/2000/svg">
<path d="M12.1951 25C10.5081 25 8.92276 24.6719 7.43902 24.0156C5.95528 23.3594 4.66463 22.4688 3.56707 21.3438C2.46951 20.2188 1.60061 18.8958 0.960366 17.375C0.320122 15.8542 0 14.2292 0 12.5C0 10.7708 0.320122 9.14583 0.960366 7.625C1.60061 6.10417 2.46951 4.78125 3.56707 3.65625C4.66463 2.53125 5.95528 1.64062 7.43902 0.984375C8.92276 0.328125 10.5081 0 12.1951 0C15.1626 0 17.7591 0.953125 19.9848 2.85938C22.2104 4.76562 23.5976 7.15625 24.1463 10.0312H21.6463C21.2602 8.51042 20.564 7.15104 19.5579 5.95312C18.5518 4.75521 17.3171 3.85417 15.8537 3.25V3.75C15.8537 4.4375 15.6148 5.02604 15.1372 5.51562C14.6596 6.00521 14.0854 6.25 13.4146 6.25H10.9756V8.75C10.9756 9.10417 10.8587 9.40104 10.625 9.64062C10.3913 9.88021 10.1016 10 9.7561 10H7.31707V12.5H9.7561V16.25H8.53659L2.68293 10.25C2.62195 10.625 2.56606 11 2.51524 11.375C2.46443 11.75 2.43902 12.125 2.43902 12.5C2.43902 15.2292 3.37398 17.5729 5.2439 19.5312C7.11382 21.4896 9.43089 22.4792 12.1951 22.5V25ZM23.2927 24.375L19.3902 20.375C18.9634 20.625 18.5061 20.8333 18.0183 21C17.5305 21.1667 17.0122 21.25 16.4634 21.25C14.939 21.25 13.6433 20.7031 12.5762 19.6094C11.5091 18.5156 10.9756 17.1875 10.9756 15.625C10.9756 14.0625 11.5091 12.7344 12.5762 11.6406C13.6433 10.5469 14.939 10 16.4634 10C17.9878 10 19.2835 10.5469 20.3506 11.6406C21.4177 12.7344 21.9512 14.0625 21.9512 15.625C21.9512 16.1875 21.8699 16.7188 21.7073 17.2188C21.5447 17.7188 21.3415 18.1875 21.0976 18.625L25 22.625L23.2927 24.375ZM16.4634 18.75C17.3171 18.75 18.0386 18.4479 18.628 17.8438C19.2175 17.2396 19.5122 16.5 19.5122 15.625C19.5122 14.75 19.2175 14.0104 18.628 13.4062C18.0386 12.8021 17.3171 12.5 16.4634 12.5C15.6098 12.5 14.8882 12.8021 14.2988 13.4062C13.7093 14.0104 13.4146 14.75 13.4146 15.625C13.4146 16.5 13.7093 17.2396 14.2988 17.8438C14.8882 18.4479 15.6098 18.75 16.4634 18.75Z" fill="white" fill-opacity="0.45"/>
</svg>
