<svg width="19" height="19" viewBox="0 0 19 19" fill="none" xmlns="http://www.w3.org/2000/svg">
    <circle cx="9.5" cy="9.5" r="9.5" fill="white" fill-opacity="0.3"/>
    <path d="M8.49436 6.82177C8.66224 6.83727 8.82857 6.77907 8.95015 6.66229L11.1375 4.56135C11.5341 4.18038 12.1863 4.53108 12.0872 5.07203L11.6982 7.19483C11.6436 7.49278 11.8271 7.78266 12.1198 7.86075L13.6874 8.279C14.368 8.46059 14.3972 9.41557 13.729 9.63842L11.9997 10.2152C11.7625 10.2943 11.6026 10.5162 11.6026 10.7662V13.1549C11.6026 13.6854 10.9387 13.9249 10.6 13.5166L9.05794 11.6572C8.88297 11.4462 8.58434 11.3863 8.3415 11.5134L5.72098 12.8848C5.22054 13.1467 4.68699 12.5952 4.96534 12.1037L6.29908 9.74882C6.41792 9.53899 6.39476 9.27755 6.24087 9.09189L4.88781 7.45941C4.56595 7.07108 4.87385 6.48739 5.37609 6.53378L8.49436 6.82177Z" fill="#FFCE07" stroke="white" stroke-width="0.0143422"/>
    <path d="M9.35547 8.41029C9.98531 6.74879 10.5173 5.93282 11.7246 4.65063" stroke="white" stroke-width="0.143422"/>
    <path d="M9.25032 8.50173C10.9949 8.16466 11.9687 8.18859 13.694 8.54211" stroke="white" stroke-width="0.143422"/>
    <path d="M5.39095 6.97784C7.14105 7.28511 8.04227 7.65475 9.52801 8.60031" stroke="white" stroke-width="0.143422"/>
    <path d="M5.82775 11.3664C6.94197 9.98227 7.70086 9.3716 9.24634 8.52722" stroke="white" stroke-width="0.143422"/>
    <path d="M9.41822 8.51316C10.4254 9.97703 10.7932 10.879 11.1597 12.6015" stroke="white" stroke-width="0.143422"/>
    </svg>
    