<svg xmlns="http://www.w3.org/2000/svg" width="40" height="40" viewBox="0 0 40 40">
  <g id="Grupo_2869" data-name="Grupo 2869" transform="translate(-261 9758)">
    <g id="Grupo_2516" data-name="Grupo 2516" transform="translate(-1374.962 -10926.55)">
      <rect id="Rect치ngulo_2583" data-name="Rect치ngulo 2583" width="29.435" height="18.397" rx="1" transform="translate(1640.962 1179.55)" fill="#15a2dc"/>
      <path id="Trazado_3292" data-name="Trazado 3292" d="M202.245,363.208l-.331.775h-2.971l2.344-4.915h5.6l.565,1.085.528-1.085h7.549l.645.675.693-.675h3.506l-2.489,2.452,2.382,2.463h-3.393l-.759-.724-.753.724h-12.11l-.364-.775m0,.052Zm7.176-3.49H208.59l-1.109,2.352-1.194-2.352h-1.475v3.4l-1.524-3.4H201.9l-1.629,3.511h1l.33-.8h1.9l.379.8h1.833v-2.858l1.3,2.858h.857l1.292-2.809v2.809h.906Zm6.088,1.137L215.1,359.77h-4.227v3.511h4.086l1.159-1.152,1.166,1.152h1.088l-1.664-1.776,1.713-1.734h-1.137l-1.13,1.137Zm-2.226,1.671h-2.149v-.772h2.149v-.7h-2.149v-.632h2.149v-.6l1.594,1.594-1.594,1.6Zm-11.354-2.233.618,1.425H201.9Z" transform="translate(1446.185 827.029)" fill="#fff"/>
    </g>
    <rect id="Rect치ngulo_2899" data-name="Rect치ngulo 2899" width="40" height="40" transform="translate(261 -9758)" fill="none"/>
  </g>
</svg>
