<svg width="303" height="44" viewBox="0 0 303 44" fill="none" xmlns="http://www.w3.org/2000/svg">
<g clip-path="url(#clip0_10_14)">
<path d="M73.4546 13.1765C70.4975 13.1757 67.6066 14.0575 65.1475 15.7106C62.6884 17.3637 60.7715 19.7137 59.6393 22.4634C58.5071 25.2132 58.2104 28.2392 58.7868 31.1587C59.3632 34.0781 60.7867 36.76 62.8773 38.8651C64.968 40.9701 67.6318 42.4039 70.532 42.9849C73.4322 43.5659 76.4384 43.2681 79.1705 42.1292C81.9025 40.9904 84.2377 39.0615 85.8806 36.5866C87.5235 34.1117 88.4005 31.202 88.4005 28.2254C88.3959 24.2364 86.8199 20.412 84.0181 17.5909C81.2164 14.7698 77.4175 13.1823 73.4546 13.1765V13.1765ZM73.4546 34.8552C72.1509 34.8552 70.8765 34.466 69.7926 33.7368C68.7087 33.0077 67.864 31.9713 67.3653 30.7588C66.8666 29.5463 66.7363 28.2122 66.991 26.9252C67.2456 25.6382 67.8737 24.4561 68.7959 23.5285C69.718 22.6009 70.8928 21.9694 72.1715 21.7139C73.4502 21.4584 74.7755 21.5904 75.9797 22.0932C77.1839 22.596 78.2129 23.447 78.9366 24.5385C79.6602 25.6301 80.046 26.9132 80.0452 28.2254C80.0429 29.9838 79.3476 31.6694 78.112 32.9123C76.8764 34.1553 75.2014 34.854 73.4546 34.8552V34.8552Z" fill="#EC111A"/>
<path d="M107.431 13.8923H103.351V5.0105H94.4144V13.8923H90.3343V22.0322H94.4144V42.5542H103.351V22.0322H107.431V13.8923Z" fill="#EC111A"/>
<path d="M120.46 13.8923H111.528V42.5542H120.46V13.8923Z" fill="#EC111A"/>
<path d="M115.998 0C115.014 0 114.052 0.293857 113.233 0.844417C112.415 1.39498 111.777 2.17751 111.4 3.09305C111.023 4.0086 110.924 5.01604 111.117 5.98798C111.309 6.95992 111.783 7.8527 112.479 8.55343C113.175 9.25416 114.062 9.73136 115.027 9.92469C115.993 10.118 116.994 10.0188 117.903 9.63957C118.813 9.26034 119.59 8.61813 120.137 7.79416C120.684 6.97019 120.976 6.00146 120.976 5.01048C120.974 3.68233 120.449 2.40924 119.516 1.47009C118.583 0.530938 117.318 0.00230783 115.998 0V0Z" fill="#EC111A"/>
<path d="M244.138 21.6132C245.549 21.6155 246.902 22.1809 247.9 23.1855C248.898 24.1901 249.46 25.5521 249.462 26.9728V42.5542H258.394V25.742C258.394 18.1084 254.019 13.1765 247.121 13.1765C244.281 13.1765 241.284 14.4291 238.817 18.414V13.8923H229.885V42.5542H238.817V26.9728C238.82 25.5528 239.381 24.1916 240.378 23.1871C241.375 22.1825 242.727 21.6166 244.138 21.6132V21.6132Z" fill="#EC111A"/>
<path d="M290.961 42.5542L279.982 28.2342L290.189 13.8923H279.748L271.545 25.4889V0.71579H262.609V42.5542H271.545V30.7394L280.551 42.5542H290.961Z" fill="#EC111A"/>
<path d="M27.7325 34.8413C28.3975 33.1636 28.7104 31.3656 28.6517 29.5603C28.6517 26.6666 27.7498 24.0828 26.1108 22.2802C24.203 20.1765 20.9424 18.4307 16.4201 17.0864C15.5477 16.8392 14.6977 16.5179 13.8792 16.1262C13.1646 15.7796 12.5229 15.2981 11.9888 14.7077C11.7071 14.3942 11.4899 14.0276 11.35 13.629C11.2101 13.2304 11.1501 12.8079 11.1736 12.3858C11.1736 11.0546 11.8847 10.1512 13.0337 9.42228C14.4776 8.50573 17.2569 8.41844 20.0969 9.47903C21.0976 9.84625 22.0628 10.305 22.9803 10.8495L26.7786 3.2421C25.0847 2.17055 23.2521 1.33927 21.3327 0.771772C19.3501 0.25565 17.3102 -0.00394538 15.2624 -0.000745542C13.331 -0.0277512 11.4103 0.292994 9.59104 0.946358C7.96861 1.58638 6.49315 2.55324 5.25513 3.78767C4.01788 5.0381 3.03671 6.52102 2.3674 8.1522C1.71206 9.83968 1.38811 11.6391 1.4135 13.4507C1.52087 16.3241 2.72625 19.0447 4.77817 21.045C7.37971 23.5023 10.3325 24.3752 11.5205 24.8378C12.7085 25.3005 14.0137 25.6889 14.8462 26.0206C15.7074 26.3449 16.5293 26.7666 17.2959 27.2776C17.8449 27.6451 18.2924 28.1466 18.5967 28.7353C18.8612 29.3056 18.9576 29.9403 18.8742 30.5641C18.7828 31.5216 18.3277 32.4066 17.6038 33.0344C16.8363 33.7589 15.4358 34.1736 13.4977 34.1736C11.7719 34.125 10.0751 33.7147 8.51572 32.969C7.1211 32.3371 5.76839 31.6155 4.46599 30.8085L1.52588e-05 38.6385C3.11753 41.4231 8.16885 43.2824 12.6695 43.2824C14.9556 43.2844 17.2273 42.919 19.3989 42.1999C21.266 41.5803 22.9982 40.607 24.5022 39.3324C25.879 38.0792 26.9795 36.5492 27.7325 34.8413V34.8413Z" fill="#EC111A"/>
<path d="M297.252 32.5376C296.268 32.5376 295.305 32.8316 294.487 33.3823C293.668 33.9331 293.03 34.7159 292.653 35.6317C292.277 36.5475 292.178 37.5551 292.371 38.5272C292.563 39.4992 293.038 40.392 293.734 41.0926C294.431 41.7931 295.318 42.27 296.284 42.4628C297.25 42.6557 298.251 42.5558 299.16 42.1759C300.07 41.796 300.847 41.1531 301.393 40.3286C301.94 39.504 302.231 38.5349 302.23 37.5437C302.23 36.8859 302.101 36.2346 301.851 35.627C301.601 35.0193 301.234 34.4672 300.772 34.0023C300.31 33.5374 299.761 33.1687 299.157 32.9174C298.553 32.6661 297.906 32.537 297.252 32.5376ZM297.252 41.546C296.466 41.546 295.697 41.3113 295.043 40.8715C294.39 40.4317 293.88 39.8066 293.579 39.0753C293.278 38.344 293.199 37.5393 293.353 36.7629C293.506 35.9865 293.885 35.2734 294.441 34.7137C294.997 34.1539 295.705 33.7728 296.477 33.6183C297.248 33.4639 298.047 33.5432 298.774 33.8461C299.5 34.149 300.121 34.662 300.558 35.3202C300.995 35.9783 301.228 36.7521 301.228 37.5437C301.229 38.0695 301.127 38.5902 300.927 39.076C300.727 39.5618 300.434 40.0033 300.065 40.375C299.696 40.7468 299.257 41.0416 298.775 41.2425C298.292 41.4434 297.775 41.5466 297.252 41.546Z" fill="#EC111A"/>
<path d="M297.244 38.3817H296.446V40.2672H295.453V34.8115H297.539C297.775 34.811 298.01 34.8574 298.229 34.9481C298.448 35.0388 298.647 35.172 298.815 35.3402C298.983 35.5084 299.116 35.7083 299.208 35.9283C299.299 36.1484 299.346 36.3844 299.347 36.6228C299.34 36.9613 299.238 37.2909 299.052 37.5731C298.866 37.8552 298.605 38.0782 298.297 38.2159L299.442 40.2803H298.267L297.244 38.3817ZM296.446 37.4652H297.591C297.797 37.444 297.988 37.3465 298.127 37.1917C298.265 37.0369 298.342 36.8358 298.342 36.6272C298.342 36.4186 298.265 36.2174 298.127 36.0626C297.988 35.9078 297.797 35.8104 297.591 35.7892H296.446V37.4652Z" fill="#EC111A"/>
<path d="M52.2086 32.3805C51.3537 33.4507 50.19 34.2274 48.8779 34.6036C47.5658 34.9798 46.1701 34.9368 44.8833 34.4806C43.5965 34.0244 42.482 33.1775 41.6937 32.0567C40.9054 30.936 40.482 29.5965 40.482 28.2233C40.482 26.85 40.9054 25.5105 41.6937 24.3898C42.482 23.269 43.5965 22.4221 44.8833 21.9659C46.1701 21.5097 47.5658 21.4667 48.8779 21.8429C50.19 22.2191 51.3537 22.9958 52.2086 24.066L58.1315 18.1041C56.7329 16.5518 55.027 15.3114 53.1235 14.4628C51.22 13.6141 49.1611 13.176 47.0793 13.1765C38.841 13.1765 31.6608 19.0817 31.6608 28.2254C31.6608 37.3691 38.8367 43.27 47.0793 43.27C49.1611 43.2705 51.22 42.8324 53.1235 41.9837C55.027 41.1351 56.7329 39.8947 58.1315 38.3424L52.2086 32.3805Z" fill="#EC111A"/>
<path d="M155.403 42.5542V13.8923H146.705V16.9038L145.899 16.1793C143.873 14.2482 141.188 13.1734 138.398 13.1765C130.71 13.1765 124.215 20.0681 124.215 28.2254C124.215 36.3828 130.719 43.27 138.398 43.27C141.188 43.2731 143.873 42.1983 145.899 40.2672L146.705 39.5427V42.5542H155.403ZM139.794 34.9948C138.463 34.9957 137.161 34.599 136.054 33.8551C134.946 33.1111 134.083 32.0532 133.573 30.8153C133.064 29.5774 132.93 28.215 133.189 26.9007C133.449 25.5863 134.09 24.3789 135.031 23.4313C135.973 22.4837 137.172 21.8385 138.478 21.5773C139.784 21.316 141.137 21.4505 142.367 21.9638C143.597 22.477 144.648 23.3459 145.387 24.4605C146.126 25.5751 146.52 26.8853 146.519 28.2254C146.517 30.0201 145.807 31.7406 144.547 33.0096C143.286 34.2786 141.577 34.9925 139.794 34.9948Z" fill="#EC111A"/>
<path d="M225.602 42.5542V13.8923H216.891V16.9038L216.084 16.1793C214.058 14.2482 211.373 13.1734 208.583 13.1765C200.896 13.1765 194.4 20.0681 194.4 28.2254C194.4 36.3828 200.904 43.27 208.583 43.27C211.381 43.2787 214.074 42.2035 216.106 40.2672L216.912 39.5427V42.5542H225.602ZM209.971 34.9948C208.639 34.9957 207.338 34.599 206.23 33.8551C205.123 33.1111 204.26 32.0532 203.75 30.8153C203.24 29.5774 203.106 28.215 203.366 26.9007C203.626 25.5863 204.267 24.3789 205.208 23.4313C206.149 22.4837 207.349 21.8385 208.655 21.5773C209.96 21.316 211.314 21.4505 212.543 21.9638C213.773 22.477 214.824 23.3459 215.563 24.4605C216.302 25.5751 216.696 26.8853 216.696 28.2254C216.693 30.0201 215.984 31.7406 214.723 33.0096C213.463 34.2786 211.753 34.9925 209.971 34.9948V34.9948Z" fill="#EC111A"/>
<path d="M168.749 42.5542V39.5427L169.556 40.2672C171.582 42.1983 174.267 43.2732 177.057 43.27C184.744 43.27 191.24 36.3828 191.24 28.2255C191.24 20.0681 184.736 13.1765 177.057 13.1765C174.267 13.1734 171.582 14.2482 169.556 16.1793L168.749 16.9038V0.71579H160.038V42.5542H168.749ZM168.944 28.2255C168.944 26.8866 169.339 25.5778 170.078 24.4646C170.817 23.3514 171.867 22.4837 173.096 21.9713C174.325 21.459 175.677 21.3249 176.981 21.5861C178.286 21.8473 179.484 22.4921 180.425 23.4388C181.365 24.3855 182.006 25.5917 182.265 26.9048C182.525 28.2179 182.391 29.579 181.882 30.816C181.373 32.0529 180.511 33.1102 179.405 33.854C178.3 34.5978 176.999 34.9949 175.669 34.9949C173.886 34.9925 172.177 34.2786 170.917 33.0096C169.656 31.7406 168.947 30.0201 168.944 28.2255V28.2255Z" fill="#EC111A"/>
</g>
<defs>
<clipPath id="clip0_10_14">
<rect width="302.23" height="43.27" fill="white"/>
</clipPath>
</defs>
</svg>
