<?xml version="1.0" encoding="utf-8"?>
<!-- Generator: Adobe Illustrator 19.1.0, SVG Export Plug-In . SVG Version: 6.00 Build 0)  -->
<svg version="1.1" id="Layer_1" xmlns="http://www.w3.org/2000/svg" xmlns:xlink="http://www.w3.org/1999/xlink" x="0px" y="0px"
	 viewBox="-173 372 264 50" style="enable-background:new -173 372 264 50;" xml:space="preserve">
<style type="text/css">
	.st0{filter:url(#Adobe_OpacityMaskFilter);}
	.st1{fill:#FFFFFF;}
	.st2{mask:url(#b);fill:#EC0000;}
</style>
<g transform="translate(1 2)">
	<defs>
		<filter id="Adobe_OpacityMaskFilter" filterUnits="userSpaceOnUse" x="-173" y="372" width="262.3" height="46">
			<feColorMatrix  type="matrix" values="1 0 0 0 0  0 1 0 0 0  0 0 1 0 0  0 0 0 1 0"/>
		</filter>
	</defs>
	<mask maskUnits="userSpaceOnUse" x="-173" y="372" width="262.3" height="46" id="b">
		<g class="st0">
			<path id="a" class="st1" d="M-173,372H89.3v46H-173V372z"/>
		</g>
	</mask>
	<path class="st2" d="M89.3,392.6c0,1.5-0.2,3.3-0.5,4.3c-1.2-0.1-2.4-0.2-3.8-0.2c-1.2,0-2.4,0.1-3.7,0.3v19.4h-5v-22.7
		c2.1-0.7,5.7-1.3,8.5-1.3C86.5,392.5,88.2,392.5,89.3,392.6 M55.8,402.5h11.3c0-3.7-2-5.9-5.4-5.9
		C58.1,396.6,56.3,398.7,55.8,402.5 M71.9,406.7H55.9c0.6,4,3,6,7.4,6c2.7,0,5.5-0.6,8-1.7c-0.2,1.5-0.5,3-0.8,4.5
		c-2.3,1-4.7,1.5-7.4,1.5c-8.4,0-12.4-4.6-12.4-12.4c0-6.8,3.1-12.1,11.1-12.1c7.1,0,10.2,4.7,10.2,10.4
		C72.1,404.3,72,405.4,71.9,406.7 M41.8,411.2v-14c-1.3-0.3-2.7-0.5-4-0.5c-4.9,0-7.3,3.1-7.3,8.3c0,4.6,1.9,7.9,6.3,7.9
		C38.8,412.9,40.5,412.2,41.8,411.2 M46.8,384.7v31.8h-4.6l-0.3-2.9c-1.3,2.1-3.2,3.4-6.5,3.4c-6,0-10-4.4-10-12
		c0-8,4.3-12.5,12.7-12.5c1.3,0,2.5,0.1,3.7,0.4v-7.5C43.4,384.8,45.1,384.7,46.8,384.7 M21.5,401.2v15.2h-5V402
		c0-3.6-1.2-5.3-6.2-5.3c-1.2,0-2.6,0.1-3.9,0.4v19.3h-5v-22.7c3.2-0.8,6.7-1.3,9.1-1.3C18.8,392.5,21.5,395.7,21.5,401.2
		 M-9.1,411.2V397c-1-0.2-2.2-0.3-3.6-0.3c-5.2,0-7.6,3.2-7.6,8.3c0,4.6,1.9,7.9,6.3,7.9C-12,412.9-10.4,412.2-9.1,411.2
		 M-4.1,393.7v22.7h-4.6l-0.3-2.7c-1.3,2-3.2,3.3-6.4,3.3c-6,0-10-4.4-10-12c0-8,4.3-12.5,12.7-12.5C-9.4,392.5-6.7,392.8-4.1,393.7
		 M-30.9,412.7c1.5,0,2.8-0.3,3.9-0.7c-0.1,1.4-0.3,2.9-0.6,4.2c-1.4,0.5-2.8,0.7-4.2,0.7c-4.9,0-7.9-2.2-7.9-7.8v-23.8
		c1.5-0.5,3.4-0.7,5-0.7v8.6h7.9c-0.1,1.5-0.2,2.9-0.5,4.3h-7.4v11.1C-34.7,411.6-33.3,412.7-30.9,412.7 M-44.7,401.2v15.2h-5V402
		c0-3.6-1.2-5.3-6.2-5.3c-1.2,0-2.6,0.1-3.9,0.4v19.3h-5v-22.7c3.2-0.8,6.7-1.3,9.1-1.3C-47.4,392.5-44.7,395.7-44.7,401.2
		 M-75.2,411.2V397c-1-0.2-2.2-0.3-3.6-0.3c-5.2,0-7.6,3.2-7.6,8.3c0,4.6,1.9,7.9,6.3,7.9C-78.1,412.9-76.6,412.2-75.2,411.2
		 M-70.2,393.7v22.7h-4.6l-0.3-2.7c-1.3,2-3.2,3.3-6.4,3.3c-6,0-10-4.4-10-12c0-8,4.3-12.5,12.7-12.5
		C-75.6,392.5-72.9,392.8-70.2,393.7 M-115.6,415.4c0.1-1.9,0.4-3.1,0.9-4.6c2.5,1.2,5.8,1.8,8.3,1.8c4.2,0,6.6-1.4,6.6-4
		c0-2.6-1.7-3.9-6-5.7l-2.3-1c-4.3-1.9-7.2-4.3-7.2-9.1c0-5.2,3.6-8.5,10.9-8.5c2.9,0,5.7,0.4,8.3,1.3c-0.1,1.8-0.5,3.2-0.9,4.5
		c-2.4-0.9-5.4-1.3-7.4-1.3c-3.9,0-5.8,1.5-5.8,3.9c0,2.4,1.8,3.7,4.9,5.1l2.4,1c5.8,2.5,8.2,5,8.2,9.4c0,5.2-3.9,8.8-11.7,8.8
		C-110,417.1-113,416.6-115.6,415.4 M-138.4,393.1c-0.1-1.7-0.6-3.3-1.4-4.8l-7.6-13.1c-0.6-1-1-2.1-1.2-3.2l-0.3,0.5
		c-1.9,3.2-1.9,7.2,0,10.5l6.1,10.5c1.9,3.2,1.9,7.2,0,10.5l-0.3,0.5c-0.2-1.1-0.6-2.2-1.2-3.2l-5.5-9.6l-3.5-6.1
		c-0.6-1-1-2.1-1.2-3.2l-0.3,0.5c-1.9,3.2-1.9,7.2,0,10.4l6.1,10.5c1.9,3.2,1.9,7.2,0,10.5l-0.3,0.5c-0.2-1.1-0.6-2.2-1.2-3.2
		l-7.6-13.1c-1-1.7-1.5-3.7-1.4-5.7c-8.1,2.1-13.7,6.6-13.7,11.8c0,7.2,10.8,13.1,24.2,13.1s24.2-5.9,24.2-13.1
		C-124.7,399.7-130.3,395.2-138.4,393.1"/>
</g>
</svg>
