<svg xmlns="http://www.w3.org/2000/svg" xmlns:xlink="http://www.w3.org/1999/xlink"  viewBox="0 0 40 40">
  <defs>
    <clipPath id="clip-path">
      <path id="Trazado_3289" data-name="Trazado 3289" d="M50.283,120.775c-.013,1.049.935,1.634,1.649,1.982.734.357.98.586.977.9-.006.489-.585.7-1.128.713a3.937,3.937,0,0,1-1.935-.46l-.341,1.6a5.673,5.673,0,0,0,2.1.387c1.979,0,3.274-.977,3.281-2.491.008-1.922-2.659-2.028-2.641-2.888.006-.26.255-.538.8-.609a3.547,3.547,0,0,1,1.858.326l.331-1.544a5.05,5.05,0,0,0-1.763-.324c-1.863,0-3.173.99-3.183,2.407m8.129-2.274a.859.859,0,0,0-.8.534l-2.827,6.749h1.977l.394-1.087h2.417l.228,1.087h1.743L60.021,118.5H58.412m.277,1.968.571,2.735H57.7l.992-2.735m-10.8-1.968-1.559,7.284h1.884l1.558-7.284h-1.89m-2.788,0-1.961,4.958-.793-4.215a.878.878,0,0,0-.869-.742H38.267l-.045.211a7.846,7.846,0,0,1,1.859.62.8.8,0,0,1,.447.64l1.5,5.812h1.991l3.053-7.284H45.1" transform="translate(-38.222 -118.368)" fill="none"/>
    </clipPath>
  </defs>
  <g id="Grupo_2882" data-name="Grupo 2882" transform="translate(-404 9604)">
    <rect id="Rect치ngulo_2900" data-name="Rect치ngulo 2900"  transform="translate(404 -9604)" fill="none"/>
    <g id="Grupo_2501" data-name="Grupo 2501" transform="translate(409 -9593)">
      <rect id="Rect치ngulo_2580" data-name="Rect치ngulo 2580" width="29.435" height="18.397" rx="1" fill="#fafafa"/>
      <g id="visa" transform="translate(2.944 5.519)">
        <g id="Layer_1" data-name="Layer 1">
          <g id="Grupo_2493" data-name="Grupo 2493" clip-path="url(#clip-path)">
            <path id="Trazado_3288" data-name="Trazado 3288" d="M0,8.461,22.976,0,28.2,14.193,5.227,22.654" transform="translate(-2.442 -7.562)" fill="#254aa5"/>
          </g>
        </g>
      </g>
    </g>
  </g>
</svg>
