<svg  viewBox="0 0 49 48" fill="none" xmlns="http://www.w3.org/2000/svg">
    <circle cx="24.4001" cy="23.8" r="23.1" stroke="white" stroke-width="1.4"/>
    <path d="M35.7371 20.3711C35.6861 19.2534 35.5085 18.4901 35.249 17.8224C34.9854 17.1218 34.5721 16.4871 34.0379 15.9626C33.5134 15.4284 32.8787 15.015 32.1781 14.7512C31.5101 14.4918 30.747 14.3144 29.6294 14.2636C28.5096 14.2124 28.1518 14.2002 25.3003 14.2002C22.4488 14.2002 22.091 14.2124 20.9712 14.2634C19.8535 14.3144 19.0904 14.4919 18.4225 14.7515C17.7218 15.0151 17.0871 15.4284 16.5627 15.9626C16.0284 16.487 15.615 17.1217 15.3513 17.8223C15.0918 18.4902 14.9145 19.2535 14.8637 20.371C14.8125 21.4909 14.8003 21.8485 14.8003 24.7C14.8003 27.5517 14.8125 27.9095 14.8637 29.0292C14.9147 30.1468 15.0922 30.91 15.3517 31.578C15.6154 32.2786 16.0287 32.9133 16.5629 33.4377C17.0873 33.9719 17.722 34.3852 18.4226 34.6487C19.0904 34.9085 19.8537 35.0858 20.9714 35.1369C22.0913 35.188 22.4489 35.2001 25.3005 35.2001C28.152 35.2001 28.5098 35.188 29.6295 35.1369C30.7472 35.0858 31.5103 34.9085 32.1782 34.6487C32.8758 34.379 33.5092 33.9665 34.038 33.4377C34.5668 32.9089 34.9793 32.2755 35.249 31.578C35.5087 30.91 35.6861 30.1468 35.7372 29.0293C35.7881 27.9093 35.8003 27.5517 35.8003 24.7002C35.8003 21.8485 35.7881 21.4909 35.7371 20.3711ZM33.8471 28.9433C33.8005 29.9671 33.6294 30.523 33.4857 30.8929C33.311 31.3458 33.0434 31.7571 32.7002 32.1003C32.357 32.4435 31.9457 32.711 31.4929 32.8857C31.1229 33.0294 30.567 33.2006 29.5432 33.2472C28.4363 33.2978 28.1041 33.3084 25.3003 33.3084C22.4964 33.3084 22.1644 33.2978 21.0573 33.2472C20.0337 33.2006 19.4778 33.0294 19.1076 32.8857C18.6516 32.7173 18.2391 32.4489 17.9004 32.1002C17.5516 31.7615 17.2832 31.349 17.1148 30.8929C16.9711 30.523 16.8 29.9671 16.7534 28.9433C16.7029 27.8362 16.6922 27.504 16.6922 24.7004C16.6922 21.8966 16.7029 21.5646 16.7534 20.4573C16.8001 19.4336 16.9711 18.8776 17.1148 18.5077C17.2832 18.0516 17.5517 17.639 17.9004 17.3003C18.2391 16.9515 18.6517 16.6831 19.1078 16.5149C19.4778 16.371 20.0337 16.2001 21.0575 16.1533C22.1646 16.1028 22.4967 16.0921 25.3003 16.0921C28.104 16.0921 28.4359 16.1028 29.5432 16.1534C30.567 16.2001 31.1228 16.3712 31.4929 16.5149C31.9489 16.6833 32.3614 16.9516 32.7001 17.3003C33.0489 17.639 33.3173 18.0516 33.4855 18.5077C33.6294 18.8777 33.8005 19.4336 33.8471 20.4574C33.8976 21.5645 33.9083 21.8966 33.9083 24.7002C33.9083 27.5041 33.8977 27.836 33.8471 28.9433Z" fill="white"/>
    <path d="M25.3001 19.3083C22.3224 19.3083 19.9083 21.7224 19.9083 24.7002C19.9083 27.678 22.3224 30.092 25.3001 30.092C28.2781 30.092 30.6921 27.678 30.6921 24.7002C30.6921 21.7224 28.2781 19.3083 25.3001 19.3083ZM25.3001 28.2001C23.3673 28.2 21.8002 26.6331 21.8003 24.7C21.8003 22.7672 23.3673 21.2001 25.3003 21.2001C27.2333 21.2003 28.8002 22.7672 28.8002 24.7C28.8002 26.6331 27.2332 28.2001 25.3001 28.2001Z" fill="white"/>
    <path d="M32.1651 19.0953C32.1651 19.7912 31.601 20.3552 30.9052 20.3552C30.2092 20.3552 29.6451 19.7911 29.6451 19.0953C29.6451 18.3993 30.2092 17.8352 30.9052 17.8352C31.601 17.8352 32.1651 18.3993 32.1651 19.0953Z" fill="white"/>
    </svg>
    