<svg  viewBox="0 0 49 48" fill="none" xmlns="http://www.w3.org/2000/svg">
    <circle cx="24.5998" cy="23.8" r="23.1" stroke="white" stroke-width="1.4"/>
    <g clip-path="url(#clip0_3596_135379)">
    <path d="M27.1935 28.8164V31.7704C27.1935 32.3957 27.0115 32.7084 26.6475 32.7084C26.4329 32.7084 26.2229 32.6057 26.0175 32.4004V28.1864C26.2229 27.9811 26.4329 27.8784 26.6475 27.8784C27.0115 27.8784 27.1935 28.1911 27.1935 28.8164ZM31.9255 28.8304V29.4744H30.6655V28.8304C30.6655 28.1957 30.8755 27.8784 31.2955 27.8784C31.7155 27.8784 31.9255 28.1957 31.9255 28.8304ZM18.4015 25.7784H19.8995V24.4624H15.5315V25.7784H17.0015V33.7444H18.4015V25.7784ZM22.4335 33.7444H23.6795V26.8284H22.4335V32.1204C22.1535 32.5124 21.8875 32.7084 21.6355 32.7084C21.4675 32.7084 21.3695 32.6104 21.3415 32.4144C21.3322 32.3864 21.3275 32.2231 21.3275 31.9244V26.8284H20.0815V32.3024C20.0815 32.7597 20.1189 33.1004 20.1935 33.3244C20.3055 33.6697 20.5762 33.8424 21.0055 33.8424C21.4535 33.8424 21.9295 33.5577 22.4335 32.9884V33.7444ZM28.4395 31.6724V28.9144C28.4395 28.2331 28.3975 27.7711 28.3135 27.5284C28.1549 27.0057 27.8235 26.7444 27.3195 26.7444C26.8529 26.7444 26.4189 26.9964 26.0175 27.5004V24.4624H24.7715V33.7444H26.0175V33.0724C26.4375 33.5857 26.8715 33.8424 27.3195 33.8424C27.8235 33.8424 28.1549 33.5857 28.3135 33.0724C28.3975 32.8204 28.4395 32.3537 28.4395 31.6724ZM33.1715 31.5324V31.3504H31.8975C31.8975 31.8264 31.8882 32.1111 31.8695 32.2044C31.8042 32.5404 31.6175 32.7084 31.3095 32.7084C30.8802 32.7084 30.6655 32.3864 30.6655 31.7424V30.5244H33.1715V29.0824C33.1715 28.3451 33.0455 27.8037 32.7935 27.4584C32.4295 26.9824 31.9349 26.7444 31.3095 26.7444C30.6749 26.7444 30.1755 26.9824 29.8115 27.4584C29.5502 27.8037 29.4195 28.3451 29.4195 29.0824V31.5044C29.4195 32.2417 29.5549 32.7831 29.8255 33.1284C30.1895 33.6044 30.6935 33.8424 31.3375 33.8424C32.0095 33.8424 32.5135 33.5951 32.8495 33.1004C33.0175 32.8484 33.1155 32.5964 33.1435 32.3444C33.1622 32.2604 33.1715 31.9897 33.1715 31.5324ZM24.6595 18.7504V15.8104C24.6595 15.1664 24.4589 14.8444 24.0575 14.8444C23.6562 14.8444 23.4555 15.1664 23.4555 15.8104V18.7504C23.4555 19.4037 23.6562 19.7304 24.0575 19.7304C24.4589 19.7304 24.6595 19.4037 24.6595 18.7504ZM34.7255 29.2644C34.7255 31.4484 34.6042 33.0817 34.3615 34.1644C34.2309 34.7151 33.9602 35.1771 33.5495 35.5504C33.1389 35.9237 32.6629 36.1384 32.1215 36.1944C30.4042 36.3904 27.8142 36.4884 24.3515 36.4884C20.8889 36.4884 18.2989 36.3904 16.5815 36.1944C16.0402 36.1384 15.5619 35.9237 15.1465 35.5504C14.7312 35.1771 14.4629 34.7151 14.3415 34.1644C14.0989 33.1191 13.9775 31.4857 13.9775 29.2644C13.9775 27.0804 14.0989 25.4471 14.3415 24.3644C14.4722 23.8137 14.7429 23.3517 15.1535 22.9784C15.5642 22.6051 16.0449 22.3857 16.5955 22.3204C18.3035 22.1337 20.8889 22.0404 24.3515 22.0404C27.8142 22.0404 30.4042 22.1337 32.1215 22.3204C32.6629 22.3857 33.1412 22.6051 33.5565 22.9784C33.9719 23.3517 34.2402 23.8137 34.3615 24.3644C34.6042 25.4097 34.7255 27.0431 34.7255 29.2644ZM20.7535 11.4004H22.1815L20.4875 16.9864V20.7804H19.0875V16.9864C18.9569 16.2957 18.6722 15.3064 18.2335 14.0184C17.8882 13.0571 17.5849 12.1844 17.3235 11.4004H18.8075L19.8015 15.0824L20.7535 11.4004ZM25.9335 16.0624V18.5124C25.9335 19.2684 25.8029 19.8191 25.5415 20.1644C25.1869 20.6404 24.6922 20.8784 24.0575 20.8784C23.4322 20.8784 22.9422 20.6404 22.5875 20.1644C22.3262 19.8097 22.1955 19.2591 22.1955 18.5124V16.0624C22.1955 15.3157 22.3262 14.7697 22.5875 14.4244C22.9422 13.9484 23.4322 13.7104 24.0575 13.7104C24.6922 13.7104 25.1869 13.9484 25.5415 14.4244C25.8029 14.7697 25.9335 15.3157 25.9335 16.0624ZM30.6235 13.7944V20.7804H29.3495V20.0104C28.8549 20.5891 28.3742 20.8784 27.9075 20.8784C27.4782 20.8784 27.2029 20.7057 27.0815 20.3604C27.0069 20.1364 26.9695 19.7864 26.9695 19.3104V13.7944H28.2435V18.9324C28.2435 19.2404 28.2482 19.4037 28.2575 19.4224C28.2855 19.6277 28.3835 19.7304 28.5515 19.7304C28.8035 19.7304 29.0695 19.5297 29.3495 19.1284V13.7944H30.6235Z" fill="white"/>
    </g>
    <defs>
    <clipPath id="clip0_3596_135379">
    <rect width="21.504" height="25.088" fill="white" transform="translate(13.6001 11.4004)"/>
    </clipPath>
    </defs>
    </svg>
    