<svg  viewBox="0 0 98 97" fill="none" xmlns="http://www.w3.org/2000/svg">
    <g opacity="0.48">
    <path fill-rule="evenodd" clip-rule="evenodd" d="M19.7742 83.8992L21.2299 85.355L22.6902 83.8952L23.3142 84.519L21.8536 85.9786L23.3102 87.4343L22.6845 88.0598L21.2278 86.6043L19.7685 88.0638L19.1445 87.44L20.604 85.9807L19.1485 84.5247L19.7742 83.8992Z" fill="url(#paint0_linear_5158_83828)"/>
    <path opacity="0.48" fill-rule="evenodd" clip-rule="evenodd" d="M71.018 10.3203L72.1947 11.4971L73.3751 10.3171L73.8795 10.8213L72.6989 12.0012L73.8763 13.1778L73.3705 13.6835L72.193 12.5069L71.0134 13.6868L70.509 13.1825L71.6888 12.0029L70.5122 10.826L71.018 10.3203Z" fill="#919EAB"/>
    <path opacity="0.72" d="M50.1957 84.7418C50.4171 84.521 50.717 84.397 51.0297 84.397C51.3424 84.397 51.6424 84.521 51.8638 84.7418L52.7036 85.5814C52.8136 85.6909 52.9016 85.8216 52.9612 85.9649C53.0209 86.1083 53.0517 86.2623 53.0517 86.4178C53.0517 86.5733 53.0209 86.7272 52.9612 86.8707C52.9016 87.014 52.8143 87.1441 52.7043 87.2536L51.8638 88.0938C51.6424 88.3146 51.3424 88.4386 51.0297 88.4386C50.717 88.4386 50.4171 88.3146 50.1957 88.0938L49.3558 87.2542C49.2458 87.1447 49.1579 87.014 49.0983 86.8707C49.0385 86.7272 49.0078 86.5732 49.0078 86.4178C49.0078 86.2623 49.0386 86.1084 49.0983 85.9649C49.1579 85.8216 49.2452 85.6915 49.3552 85.5821L50.1957 84.7418Z" fill="#919EAB"/>
    <path fill-rule="evenodd" clip-rule="evenodd" d="M78.6651 31.5578C78.665 31.5578 78.6651 31.5577 78.6651 31.5578L77.825 32.3977L77.4702 32.0429L77.8239 32.3988C77.8075 32.4151 77.7944 32.4345 77.7855 32.4559C77.7766 32.4772 77.7721 32.5001 77.7721 32.5233C77.7721 32.5464 77.7766 32.5693 77.7855 32.5907C77.7944 32.6121 77.8075 32.6315 77.8239 32.6478L77.825 32.6489L78.6651 33.4888C78.665 33.4887 78.6651 33.4888 78.6651 33.4888C78.6984 33.5219 78.7435 33.5406 78.7905 33.5406C78.8374 33.5406 78.8824 33.522 78.9157 33.4889C78.9156 33.489 78.9157 33.4889 78.9157 33.4889L79.7571 32.6478C79.7735 32.6315 79.7865 32.6121 79.7954 32.5907C79.8043 32.5693 79.8089 32.5463 79.8089 32.5233C79.8089 32.5002 79.8043 32.4773 79.7954 32.4559C79.7865 32.4345 79.7735 32.4151 79.7571 32.3988L79.756 32.3977L78.9159 31.5578C78.9158 31.5577 78.9159 31.5578 78.9159 31.5578C78.8826 31.5247 78.8374 31.506 78.7905 31.506C78.7435 31.506 78.6984 31.5247 78.6651 31.5578ZM77.1159 31.6875L77.9565 30.8472C78.1778 30.6265 78.4778 30.5024 78.7905 30.5024C79.1032 30.5024 79.4031 30.6264 79.6245 30.8472L79.6249 30.8477L80.4644 31.6869C80.4646 31.6871 80.4648 31.6873 80.465 31.6875C80.575 31.797 80.6623 31.9271 80.7219 32.0703C80.7816 32.2138 80.8124 32.3677 80.8124 32.5233C80.8124 32.6788 80.7816 32.8327 80.7219 32.9762C80.6623 33.1194 80.575 33.2496 80.465 33.359C80.4648 33.3592 80.4646 33.3594 80.4644 33.3596L79.6245 34.1993C79.4031 34.4201 79.1032 34.5441 78.7905 34.5441C78.4778 34.5441 78.1778 34.4201 77.9565 34.1993L77.1166 33.3596C77.1163 33.3594 77.1161 33.3592 77.1159 33.359C77.0059 33.2495 76.9186 33.1194 76.859 32.9762C76.7993 32.8326 76.7686 32.6787 76.7686 32.5233C76.7686 32.3678 76.7993 32.2139 76.859 32.0703C76.9186 31.9271 77.0059 31.797 77.1159 31.6875Z" fill="#919EAB"/>
    <path opacity="0.48" fill-rule="evenodd" clip-rule="evenodd" d="M85.0144 53.6066C85.135 53.5755 85.2618 53.5748 85.3832 53.6049C85.516 53.6379 85.637 53.7064 85.7334 53.8028C85.83 53.8994 85.8985 54.0205 85.9314 54.1531C85.9615 54.2745 85.9608 54.4013 85.9297 54.5219L85.4643 57.0207C85.4265 57.217 85.3031 57.4995 84.9899 57.5957C84.6768 57.6919 84.4162 57.5273 84.2751 57.3862L82.1503 55.262C82.0063 55.1193 81.8422 54.8577 81.9394 54.5442C82.0366 54.231 82.3197 54.1078 82.5184 54.0712C82.5186 54.0712 82.5189 54.0711 82.5191 54.0711L85.0144 53.6066ZM84.9301 54.6061L83.1869 54.9306L84.6055 56.3489L84.9301 54.6061Z" fill="#919EAB"/>
    <path opacity="0.8" fill-rule="evenodd" clip-rule="evenodd" d="M83.322 76.1984C83.4426 76.1673 83.5694 76.1666 83.6908 76.1967C83.8236 76.2297 83.9446 76.2982 84.041 76.3946C84.1377 76.4912 84.2061 76.6123 84.239 76.7449C84.2692 76.8663 84.2684 76.9931 84.2373 77.1137L83.7719 79.6125C83.7341 79.8088 83.6107 80.0913 83.2975 80.1875C82.9844 80.2837 82.7238 80.1191 82.5827 79.978L80.4579 77.8538C80.3139 77.7111 80.1498 77.4495 80.247 77.136C80.3442 76.8228 80.6274 76.6996 80.826 76.663C80.8262 76.663 80.8265 76.6629 80.8267 76.6629L83.322 76.1984ZM83.2377 77.1979L81.4945 77.5224L82.9132 78.9407L83.2377 77.1979Z" fill="#637381"/>
    <path opacity="0.8" fill-rule="evenodd" clip-rule="evenodd" d="M10.6052 58.5822C10.4582 58.5822 10.3145 58.6258 10.1922 58.7075C10.0699 58.7891 9.97473 58.9051 9.91853 59.0408C9.86231 59.1765 9.84759 59.3259 9.87625 59.47C9.90492 59.614 9.97567 59.7464 10.0796 59.8503C10.1835 59.9541 10.3159 60.0249 10.4602 60.0536C10.6045 60.0823 10.754 60.0676 10.8896 60.0114C11.0254 59.9552 11.1415 59.8599 11.2232 59.7377C11.3048 59.6155 11.3484 59.4719 11.3484 59.325C11.3484 59.1281 11.2701 58.9391 11.1307 58.7998C10.9914 58.6605 10.8024 58.5822 10.6052 58.5822ZM9.48232 57.6448C9.81466 57.4228 10.2054 57.3042 10.6052 57.3042C11.1411 57.3042 11.6552 57.517 12.0343 57.896C12.4134 58.275 12.6264 58.789 12.6264 59.325C12.6264 59.7248 12.5078 60.1155 12.2857 60.4478C12.0636 60.7801 11.748 61.0392 11.3786 61.1921C11.0091 61.3451 10.6028 61.3849 10.2109 61.307C9.81894 61.2291 9.45878 61.0367 9.17603 60.7541C8.89335 60.4715 8.70083 60.1114 8.62283 59.7193C8.54483 59.3273 8.58485 58.9209 8.73786 58.5516C8.89089 58.1822 9.15001 57.8668 9.48232 57.6448Z" fill="#637381"/>
    <path opacity="0.8" fill-rule="evenodd" clip-rule="evenodd" d="M44.5896 14.8747C44.4426 14.8747 44.2989 14.9183 44.1766 14.9999C44.0543 15.0816 43.9591 15.1976 43.9029 15.3333C43.8467 15.469 43.832 15.6184 43.8606 15.7624C43.8893 15.9065 43.96 16.0389 44.064 16.1428C44.1678 16.2466 44.3002 16.3174 44.4445 16.346C44.5889 16.3748 44.7383 16.36 44.874 16.3039C45.0098 16.2476 45.1258 16.1524 45.2075 16.0301C45.2892 15.908 45.3327 15.7644 45.3327 15.6175C45.3327 15.4205 45.2545 15.2316 45.1151 15.0923C44.9758 14.953 44.7867 14.8747 44.5896 14.8747ZM43.4667 13.9372C43.799 13.7152 44.1898 13.5967 44.5896 13.5967C45.1255 13.5967 45.6396 13.8095 46.0187 14.1885C46.3978 14.5675 46.6107 15.0815 46.6107 15.6175C46.6107 16.0172 46.4922 16.408 46.2701 16.7403C46.048 17.0725 45.7324 17.3316 45.363 17.4846C44.9935 17.6376 44.5872 17.6774 44.1953 17.5995C43.8033 17.5216 43.4432 17.3292 43.1604 17.0466C42.8777 16.7639 42.6852 16.4039 42.6072 16.0118C42.5292 15.6198 42.5692 15.2134 42.7222 14.8441C42.8753 14.4747 43.1344 14.1592 43.4667 13.9372Z" fill="#637381"/>
    </g>
    <path d="M37.1217 26.8236C37.1217 26.0036 36.457 25.3389 35.637 25.3389C34.8171 25.3389 34.1523 26.0036 34.1523 26.8236V31.2776H37.1217V26.8236Z" fill="#919EAB"/>
    <path d="M63.8462 26.8236C63.8462 26.0036 63.1815 25.3389 62.3615 25.3389C61.5416 25.3389 60.8768 26.0036 60.8768 26.8236V31.2776H63.8462V26.8236Z" fill="#919EAB"/>
    <path opacity="0.24" d="M22.2744 37.2163C22.2744 34.7564 24.2686 32.7622 26.7285 32.7622H71.2693C73.7292 32.7622 75.7234 34.7564 75.7234 37.2163V66.9102C75.7234 69.3701 73.7292 71.3643 71.2693 71.3643H26.7285C24.2686 71.3643 22.2744 69.3701 22.2744 66.9102V37.2163Z" fill="#919EAB"/>
    <g opacity="0.24">
    <path d="M31.1826 55.4038C31.1826 54.1738 32.1797 53.1768 33.4097 53.1768H39.3484C40.5784 53.1768 41.5755 54.1738 41.5755 55.4038V58.3732C41.5755 59.6031 40.5784 60.6002 39.3484 60.6002H33.4097C32.1797 60.6002 31.1826 59.6031 31.1826 58.3732V55.4038Z" fill="#919EAB"/>
    <path d="M43.8025 55.4038C43.8025 54.1738 44.7996 53.1768 46.0296 53.1768H51.9683C53.1983 53.1768 54.1954 54.1738 54.1954 55.4038V58.3732C54.1954 59.6031 53.1983 60.6002 51.9683 60.6002H46.0296C44.7996 60.6002 43.8025 59.6031 43.8025 58.3732V55.4038Z" fill="#919EAB"/>
    </g>
    <g opacity="0.48">
    <path d="M31.1826 45.7534C31.1826 44.5234 32.1797 43.5264 33.4097 43.5264H39.3484C40.5784 43.5264 41.5755 44.5234 41.5755 45.7534V48.7228C41.5755 49.9528 40.5784 50.9498 39.3484 50.9498H33.4097C32.1797 50.9498 31.1826 49.9528 31.1826 48.7228V45.7534Z" fill="#919EAB"/>
    <path d="M43.8025 45.7534C43.8025 44.5234 44.7996 43.5264 46.0296 43.5264H51.9683C53.1983 43.5264 54.1954 44.5234 54.1954 45.7534V48.7228C54.1954 49.9528 53.1983 50.9498 51.9683 50.9498H46.0296C44.7996 50.9498 43.8025 49.9528 43.8025 48.7228V45.7534Z" fill="#919EAB"/>
    <path d="M56.4224 45.7534C56.4224 44.5234 57.4195 43.5264 58.6495 43.5264H64.5882C65.8182 43.5264 66.8153 44.5234 66.8153 45.7534V48.7228C66.8153 49.9528 65.8182 50.9498 64.5882 50.9498H58.6495C57.4195 50.9498 56.4224 49.9528 56.4224 48.7228V45.7534Z" fill="#919EAB"/>
    </g>
    <g opacity="0.48">
    <path d="M37.1217 36.474C37.1217 37.2939 36.457 37.9586 35.637 37.9586C34.8171 37.9586 34.1523 37.2939 34.1523 36.474C34.1523 35.654 34.8171 34.9893 35.637 34.9893C36.457 34.9893 37.1217 35.654 37.1217 36.474Z" fill="#919EAB"/>
    <path d="M63.8462 36.474C63.8462 37.2939 63.1815 37.9586 62.3615 37.9586C61.5416 37.9586 60.8768 37.2939 60.8768 36.474C60.8768 35.654 61.5416 34.9893 62.3615 34.9893C63.1815 34.9893 63.8462 35.654 63.8462 36.474Z" fill="#919EAB"/>
    </g>
    <defs>
    <linearGradient id="paint0_linear_5158_83828" x1="19.8637" y1="88.0711" x2="23.9876" y2="86.4544" gradientUnits="userSpaceOnUse">
    <stop stop-color="white" stop-opacity="0.16"/>
    <stop offset="1" stop-color="white" stop-opacity="0.64"/>
    </linearGradient>
    </defs>
    </svg>
    