<svg width="274" height="273" viewBox="0 0 274 273" fill="none" xmlns="http://www.w3.org/2000/svg">
<g style="mix-blend-mode:multiply" opacity="0.2">
<path d="M165.508 229.665C170.192 230.127 174.468 228.704 177.811 224.342C178.837 222.318 179.098 219.652 174.231 218.616C170.371 218.918 166.943 219.013 163.791 218.644C167.307 219.381 172.919 221.07 174.286 224.414C174.286 224.414 170.856 228.155 165.514 229.666L165.508 229.665Z" fill="#231F20"/>
</g>
<path d="M103.055 119.716C103.389 119.505 105.221 118.577 107.885 117.259C117.487 112.522 137.889 102.696 137.889 102.696C137.889 102.696 148.069 87.7521 146.254 86.7729C144.443 85.791 129.385 77.503 129.385 77.503L111.65 81.5607L87.6464 87.0497C87.6464 87.0497 101.228 100.638 95.4568 110.822C95.3417 111.026 101.526 120.686 103.049 119.709L103.055 119.716Z" fill="#215287"/>
<path d="M97.7042 109.177L107.886 117.263C117.487 112.526 137.889 102.7 137.889 102.7C137.889 102.7 148.07 87.7557 146.255 86.7765C144.444 85.7946 129.386 77.5066 129.386 77.5066L111.651 81.5643C108.053 83.3014 90.2557 89.0505 90.2557 89.0505C90.2557 89.0505 123.811 88.7451 115.281 101.531C114.124 103.267 97.7042 109.177 97.7042 109.177Z" fill="#153754"/>
<path d="M105.199 113.677L109.101 112.526L119.942 109.332L135.064 99.893L138.73 92.8791C138.73 92.8791 134.558 93.3629 129.003 94.7406C119.958 96.983 107.236 101.572 102.914 110.228L105.202 113.68L105.199 113.677Z" fill="#DA75AE"/>
<path d="M105.097 109.283L109.1 112.522L119.941 109.329L135.063 99.8899L138.729 92.876C138.729 92.876 134.557 93.3598 129.001 94.7375C126.808 98.8457 120.786 106.173 105.097 109.283Z" fill="#C95097"/>
<path d="M28.464 119.964C28.464 119.964 40.3706 119.526 48.1731 120.461C48.1861 120.456 48.2015 120.461 48.2231 120.467C49.1281 120.569 49.98 120.702 50.7547 120.85C50.7547 120.85 57.4639 124.121 66.309 128.726C66.4031 128.774 66.5 128.824 66.5878 128.871C74.1183 132.791 83.1565 137.657 90.919 142.281C91.0245 142.342 91.1209 142.399 91.2235 142.457C92.6294 143.297 93.9859 144.124 95.2865 144.938C101.21 148.643 105.887 152.024 107.766 154.422L107.998 141.155L103.875 133.91C103.875 133.91 102.36 133.358 99.9644 132.478C97.793 131.681 94.8921 130.611 91.7348 129.432C89.43 128.567 86.9942 127.644 84.5896 126.725C84.5708 126.722 84.5589 126.715 84.5406 126.706C81.6741 125.603 78.8697 124.514 76.4425 123.525C76.4026 123.51 76.3719 123.5 76.3383 123.486C73.2811 122.244 70.8159 121.18 69.5759 120.511C69.5759 120.511 61.0042 114.073 55.7206 109.746C55.7 109.727 55.6794 109.708 55.6521 109.695C53.7567 108.131 52.2922 106.857 51.8264 106.266C51.8264 106.266 50.3614 95.628 44.847 98.971C44.847 98.971 42.4002 102.675 39.1534 104.076C38.2154 104.481 27.0023 105.737 22.4394 110.287C22.4394 110.287 20.9335 112.493 21.2771 114.847C21.5613 116.891 23.2367 119.043 28.4669 119.968L28.464 119.964Z" fill="#ED1C24"/>
<path d="M28.4642 119.965C28.4642 119.965 40.3708 119.527 48.1732 120.461C48.1862 120.457 48.2016 120.462 48.2232 120.468C49.1537 118.187 50.1987 116.277 51.2804 114.683C52.7727 112.489 54.3224 110.892 55.7173 109.749C55.6967 109.73 55.6762 109.712 55.6488 109.698C53.7535 108.134 52.2889 106.86 51.8231 106.269C51.8231 106.269 50.3582 95.6311 44.8437 98.9741C44.8437 98.9741 42.3969 102.678 39.1502 104.079C38.2122 104.484 26.999 105.74 22.4362 110.29C22.4362 110.29 20.9303 112.496 21.2739 114.85C21.558 116.894 23.2335 119.046 28.4637 119.971L28.4642 119.965Z" fill="#FFDE17"/>
<path d="M48.1721 120.455C48.1721 120.455 48.2005 120.456 48.2222 120.462C49.1272 120.563 49.9791 120.696 50.7538 120.845C50.7538 120.845 57.463 124.115 66.3081 128.721C66.4021 128.768 66.499 128.819 66.5868 128.865C68.0076 128.281 69.3271 127.661 70.5271 127.033C70.924 126.824 71.3208 126.615 71.6892 126.405C71.6954 126.406 71.7056 126.398 71.7124 126.393C73.5653 125.366 75.1139 124.351 76.3311 123.48C73.2739 122.237 70.8087 121.174 69.5687 120.504C69.5687 120.504 60.9971 114.066 55.7134 109.739C55.6928 109.721 55.6722 109.702 55.6449 109.689C53.8685 111.123 52.4117 112.855 51.2272 114.62C49.8582 116.662 48.8588 118.747 48.1693 120.452L48.1721 120.455Z" fill="#ED1C24"/>
<path d="M66.3046 128.723C66.3987 128.77 66.4956 128.821 66.5834 128.868C74.1139 132.788 83.1521 137.654 90.9146 142.277C91.0201 142.339 91.1165 142.396 91.2191 142.454C91.0176 139.346 89.9073 136.181 88.518 133.329C88.5151 133.325 88.5094 133.318 88.5099 133.312C88.5014 133.301 88.4956 133.294 88.4961 133.288C87.2504 130.759 85.7882 128.476 84.53 126.702C81.6635 125.599 78.859 124.51 76.4318 123.521C75.0133 124.607 73.3553 125.57 71.7089 126.395C71.6987 126.403 71.692 126.409 71.6857 126.408C71.2764 126.615 70.8681 126.81 70.4609 126.992C68.9569 127.702 67.5053 128.276 66.3018 128.72L66.3046 128.723Z" fill="#5887C6"/>
<path d="M90.917 142.277C91.0225 142.339 91.1189 142.396 91.2216 142.454C92.6275 143.294 93.9839 144.121 95.2846 144.935C96.9517 141.785 99.9397 135.693 99.9562 132.474C97.7848 131.677 94.8838 130.608 91.7266 129.429C89.4218 128.564 86.9859 127.64 84.5814 126.721C85.4094 127.782 87.0707 130.104 88.4923 133.287C88.4918 133.293 88.5004 133.304 88.5061 133.311C88.5056 133.317 88.5113 133.324 88.5142 133.328C89.6286 135.839 90.6068 138.883 90.9108 142.277L90.917 142.277Z" fill="#F7941D"/>
<g style="mix-blend-mode:multiply" opacity="0.2">
<path d="M28.4609 119.964C28.4609 119.964 40.3675 119.526 48.1699 120.461C48.1829 120.456 48.1983 120.461 48.2199 120.467C49.125 120.569 49.9768 120.702 50.7515 120.85C50.7515 120.85 57.4608 124.121 66.3059 128.726C66.3999 128.774 66.4968 128.824 66.5846 128.871C74.1151 132.791 83.1534 137.657 90.9158 142.28C91.0213 142.342 91.1177 142.399 91.2203 142.457C92.6263 143.297 93.9827 144.124 95.2834 144.938C101.207 148.643 105.884 152.024 107.763 154.422L107.995 141.155L103.872 133.91C103.872 133.91 102.356 133.358 99.9612 132.478C97.7898 131.681 94.8889 130.611 91.7316 129.432C91.0938 130.633 90.0275 132.232 88.5112 133.315C87.1362 134.296 85.3949 134.857 83.2499 134.35C82.3605 134.136 76.7868 130.857 70.5249 127.038C70.5072 127.023 70.4827 127.014 70.4621 126.995C63.1382 122.533 54.9141 117.344 52.168 115.482C51.9198 115.313 51.6174 115.035 51.2771 114.683C51.2627 114.665 51.2484 114.648 51.2307 114.633C49.7614 113.076 47.6557 110.134 46.2445 108.337C46.2445 108.337 44.2843 104.638 40.3026 112.329C40.3026 112.329 32.8921 120.426 25.4579 117.735C25.4579 117.735 23.3212 116.523 21.2706 114.849C21.5547 116.894 23.2302 119.046 28.4604 119.97L28.4609 119.964Z" fill="#231F20"/>
</g>
<path d="M180.012 125.684L171.418 120.308C171.418 120.308 173.497 117.598 175.383 112.138C177.088 107.176 178.626 99.9391 178.287 90.3907C178.287 90.3907 175.646 90.7051 173.25 90.9686C172.21 91.0812 171.221 91.1878 170.509 91.2413C170.509 91.2413 170.77 90.2746 171.222 88.8372C172.163 85.8211 173.926 80.7008 175.816 77.827C176.168 77.2914 176.058 76.6068 176.11 76.0608C176.11 76.0608 175.746 72.6623 174.383 67.5678C174.37 67.5312 174.367 67.499 174.357 67.4596C174.296 67.2452 174.238 67.028 174.174 66.8101C174.117 66.5929 174.053 66.3687 173.987 66.1472C173.923 65.9229 173.853 65.6978 173.791 65.4673C173.659 65.0054 173.511 64.5384 173.358 64.0642C172.978 62.8649 172.552 61.6088 172.066 60.3131C171.872 59.7955 171.669 59.2736 171.458 58.7411C171.361 58.4966 171.264 58.2585 171.168 58.014C171.13 57.9329 171.099 57.8526 171.068 57.7723C170.978 57.5574 170.885 57.3515 170.795 57.1366C170.446 56.3225 170.086 55.4941 169.697 54.6653C169.468 54.1814 169.228 53.6896 168.985 53.1942C167.984 51.1772 166.842 49.1164 165.548 47.0837C165.219 46.5581 164.877 46.0371 164.523 45.5146C163.268 43.6552 161.883 41.8138 160.344 40.0256C160.276 39.9404 160.197 39.8572 160.128 39.7783C159.877 39.4884 159.617 39.2004 159.357 38.9125C159.169 38.7006 158.975 38.488 158.774 38.2808C158.565 38.0567 158.35 37.8318 158.129 37.6061C157.87 37.3406 157.613 37.0785 157.351 36.8157L157.271 36.745C157.09 36.569 156.909 36.393 156.728 36.2169C155.996 35.512 155.238 34.8289 154.451 34.1516C154.058 33.8179 153.659 33.4896 153.253 33.1606C153.049 32.9974 152.848 32.8315 152.636 32.6738C152.245 32.3625 151.843 32.0657 151.439 31.7653C150.989 31.4368 150.533 31.1075 150.065 30.799C149.416 30.3557 148.751 29.9261 148.075 29.5047C145.964 28.2076 143.701 27.0272 141.263 25.9892C140.728 25.7641 140.196 25.5488 139.652 25.3319C139.64 25.324 139.63 25.3259 139.624 25.3251C139.078 25.1208 138.523 24.9121 137.959 24.7116C137.384 24.5131 136.799 24.3227 136.205 24.1406C135.619 23.9565 135.03 23.7878 134.421 23.6229C134.421 23.6229 140.548 46.3154 130.792 50.8956L132.674 55.1903L132.751 55.3687L142.439 77.4789L142.478 77.5762L142.919 78.5738L142.935 78.6139L156.71 110.061L156.846 110.368L158.175 113.409L158.504 114.157L168.077 136.02L180.001 125.705L180.012 125.684Z" fill="#5887C6"/>
<path d="M132.76 55.3504C145.144 50.9116 153.539 41.7328 157.359 36.8037C151.606 31.0973 144.13 26.2598 134.43 23.6045C134.43 23.6045 140.557 46.2971 130.801 50.8773L132.76 55.3504Z" fill="#ED1C24"/>
<path d="M142.489 77.5557C148.749 65.4533 160.502 42.2955 160.05 39.7653L160.349 40.0106C159.406 38.9193 158.411 37.8529 157.361 36.8016L157.282 36.7309C153.69 40.8543 141.813 53.7514 132.682 55.1726L132.758 55.351L142.489 77.5557Z" fill="#F7941D"/>
<path d="M142.946 78.5957C147.548 77.5707 160.16 74.5592 168.998 70.5268C171.049 69.5926 172.892 68.6028 174.386 67.5676C174.373 67.531 174.369 67.4987 174.36 67.4594C174.299 67.245 174.241 67.0278 174.177 66.8099C174.119 66.5927 174.056 66.3685 173.989 66.1469C173.926 65.9227 173.856 65.6976 173.793 65.4671C173.661 65.0052 173.514 64.5381 173.36 64.064C172.98 62.8647 172.554 61.6085 172.069 60.3129C171.875 59.7953 171.672 59.2734 171.46 58.7408C171.364 58.4964 171.267 58.2583 171.17 58.0138C171.133 57.9327 171.102 57.8524 171.07 57.7721C170.981 57.5572 170.887 57.3513 170.798 57.1363C170.449 56.3222 170.088 55.4939 169.699 54.6651C169.471 54.1812 169.231 53.6894 168.988 53.194C167.987 51.177 166.844 49.1162 165.551 47.0835C165.222 46.5579 164.88 46.0369 164.525 45.5143C163.271 43.655 161.885 41.8136 160.347 40.0254C160.278 39.9402 160.2 39.857 160.131 39.7781L160.045 39.7765C160.045 39.7765 156.023 49.727 151.555 59.6512C151.543 59.672 151.538 59.6936 151.524 59.7108C148.444 66.5626 145.148 73.3896 142.823 76.9184C142.697 77.1085 142.568 77.295 142.449 77.4669L142.488 77.5642L142.929 78.5618L142.945 78.6019L142.946 78.5957Z" fill="#FFDE17"/>
<path d="M156.854 110.35C157.164 110.13 157.509 109.851 157.893 109.529C159.461 108.176 161.596 105.855 164.174 101.905C164.202 101.871 164.231 101.83 164.253 101.788C166.32 98.6199 168.661 94.4101 171.223 88.8378C172.682 85.6381 174.22 81.988 175.817 77.8277C175.961 77.2016 176.058 76.6075 176.11 76.0615C176.11 76.0615 175.747 72.6629 174.384 67.5684C174.371 67.5318 174.367 67.4996 174.358 67.4603L173.801 67.3942C173.801 67.3942 172.271 68.3358 169.141 69.784C164.316 72.0192 155.676 75.4642 142.928 78.5564L142.944 78.5965L156.719 110.043L156.854 110.35Z" fill="#ED1C24"/>
<path d="M158.516 114.136L175.387 112.135C177.092 107.173 178.63 99.9362 178.291 90.3878C178.291 90.3878 175.65 90.7022 173.254 90.9657C172.277 91.1214 171.346 91.2227 170.513 91.2384C170.513 91.2384 167.795 96.6379 164.257 101.785C164.234 101.826 164.203 101.864 164.177 101.902C162.216 104.756 160.003 107.515 157.872 109.224C157.482 109.538 157.102 109.803 156.722 110.04L156.858 110.347L158.187 113.388L158.516 114.136Z" fill="#F7941D"/>
<g style="mix-blend-mode:multiply" opacity="0.2">
<path d="M180.013 125.684L171.419 120.307C171.419 120.307 173.498 117.597 175.384 112.137C177.089 107.175 178.627 99.9382 178.288 90.3898C178.288 90.3898 175.647 90.7042 173.251 90.9677C172.211 91.0804 171.222 91.1869 170.51 91.2404C170.51 91.2404 170.771 90.2737 171.223 88.8363C172.683 85.6366 174.221 81.9865 175.818 77.8262C176.169 77.2905 176.059 76.6059 176.111 76.06C176.111 76.06 175.747 72.6614 174.384 67.5669C174.371 67.5303 174.368 67.4981 174.358 67.4588C174.297 67.2443 174.24 67.0272 174.176 66.8092C174.118 66.5921 174.055 66.3678 173.988 66.1463C173.924 65.922 173.855 65.697 173.792 65.4664C173.66 65.0046 173.512 64.5375 173.359 64.0633C172.979 62.864 172.553 61.6079 172.067 60.3122C171.873 59.7947 171.67 59.2728 171.459 58.7402C171.362 58.4958 171.265 58.2576 171.169 58.0132C170.801 60.5543 170.138 64.7819 169.141 69.7888C169.092 70.0334 169.049 70.2788 168.993 70.5289C166.818 81.3039 163.138 95.3617 157.634 103.941C157.533 104.093 157.645 106.16 157.865 109.228C157.873 109.328 157.88 109.427 157.89 109.53C157.97 110.697 158.076 112 158.184 113.39L158.513 114.138L168.086 136.001L180.01 125.686L180.013 125.684Z" fill="#231F20"/>
</g>
<path d="M87.0552 83.8116C82.7401 85.8406 77.5841 84.1373 75.5388 80.0072C73.4936 75.8771 75.3337 70.8841 79.6488 68.855C83.9638 66.826 89.1199 68.5293 91.1652 72.6594C93.2104 76.7895 91.3703 81.7825 87.0552 83.8116Z" fill="#D1D3D4"/>
<path d="M86.2429 82.4034C82.3753 84.222 77.7582 82.7042 75.9305 79.0132C74.1027 75.3222 75.7563 70.8557 79.624 69.0371C83.4916 67.2184 88.1087 68.7363 89.9364 72.4273C91.7642 76.1183 90.1106 80.5847 86.2429 82.4034Z" fill="white"/>
<path d="M84.7907 79.0342C83.5307 80.0203 81.6307 79.7001 80.547 78.3191C79.4632 76.9381 79.6061 75.0191 80.8661 74.033C82.126 73.0469 84.026 73.3671 85.1098 74.7481C86.1935 76.1292 86.0507 78.0481 84.7907 79.0342Z" fill="#2B3990" stroke="#262262" stroke-width="0.530573" stroke-miterlimit="10"/>
<path d="M83.6625 77.7108C83.1224 78.1334 82.3052 77.9925 81.8372 77.3961C81.3691 76.7997 81.4275 75.9735 81.9675 75.5509C82.5075 75.1283 83.3247 75.2691 83.7928 75.8656C84.2608 76.462 84.2025 77.2881 83.6625 77.7108Z" fill="#231F20"/>
<path d="M84.7104 75.1217L83.3935 75.786L80.8613 75.2568C80.8613 75.2568 82.529 72.2523 84.7133 75.1252L84.7104 75.1217Z" fill="white"/>
<path d="M107.951 163.539C109.004 163.644 110.262 163.725 111.671 163.765C112.488 163.792 113.35 163.799 114.257 163.8C114.567 163.795 114.878 163.791 115.191 163.784C115.593 163.776 115.995 163.768 116.414 163.753C123.492 163.526 132.198 162.313 138.005 159.062L109.971 137.388L106.981 135.078L106.966 135.143L106.919 135.327C106.639 136.479 105.43 141.493 104.039 147.913C105.639 153.004 107.043 158.405 107.953 163.543L107.951 163.539Z" fill="#F7941D"/>
<path d="M117.166 199.094C117.185 199.049 117.208 199.001 117.225 198.953C119.91 192.596 128.331 176.839 133.594 167.135C133.654 167.022 133.714 166.909 133.78 166.797C133.866 166.634 133.956 166.474 134.038 166.319C134.31 165.824 134.575 165.341 134.822 164.884C136.686 161.457 137.932 159.192 138.005 159.068L138.009 159.065C131.176 162.44 122.943 163.518 116.415 163.753C116 163.765 115.594 163.776 115.192 163.784C114.872 163.797 114.562 163.801 114.258 163.799C113.35 163.812 112.481 163.804 111.673 163.788C110.241 163.76 108.988 163.699 107.966 163.633C108.883 168.876 109.289 173.852 108.858 177.945L108.857 177.993C108.896 178.096 108.937 178.203 108.978 178.323C111.187 184.105 116.865 198.347 117.155 199.068L117.152 199.07L117.166 199.094Z" fill="#ED1C24"/>
<path d="M117.129 199.23C117.129 199.23 117.212 199.257 117.364 199.292C118.453 199.574 123.008 200.709 123.639 200.353C123.656 200.339 123.682 200.323 123.719 200.306C123.839 200.226 124.055 200.064 124.354 199.845C126.177 198.462 131 194.657 134.612 191.801C135.14 191.387 135.644 190.985 136.108 190.617C137.208 189.746 138.085 189.057 138.56 188.674C139.397 179.612 146.069 173.992 150.481 169.956C150.486 169.935 150.494 169.917 150.492 169.901L150.496 169.898C150.496 169.898 150.507 169.877 150.505 169.867C150.514 169.837 150.518 169.821 150.518 169.821C150.505 169.826 150.493 169.818 150.472 169.806C150.426 169.79 150.362 169.76 150.281 169.702C150.269 169.694 150.257 169.692 150.242 169.681C149.57 169.25 147.789 167.869 145.77 166.234C142.964 163.951 139.713 161.171 138.443 159.799C138.212 159.547 138.048 159.351 137.959 159.2L137.956 159.202C137.885 159.33 136.799 161.285 135.155 164.264C135.046 164.469 134.931 164.679 134.815 164.89C134.566 165.343 134.301 165.827 134.031 166.326C133.945 166.483 133.86 166.64 133.773 166.803C133.71 166.913 133.65 167.026 133.587 167.141C129.112 175.289 122.376 187.717 119.074 194.531C118.081 196.581 117.402 198.119 117.186 198.885C117.171 198.956 117.16 199.012 117.148 199.074L117.145 199.077C117.13 199.141 117.12 199.191 117.122 199.236L117.129 199.23Z" fill="#F7941D"/>
<path d="M138.005 159.062C141.159 159.107 147.027 156.299 152.806 153C158.171 149.936 163.46 146.459 166.43 144.437C166.48 144.402 166.537 144.362 166.587 144.327C169.61 137.674 171.731 131.022 172.487 124.557C171.817 120.697 170.113 119.036 170.113 119.036C170.02 119.44 166.443 123.991 161.707 129.894C160.649 131.205 159.537 132.588 158.394 134.009C158.268 134.158 158.154 134.308 158.028 134.457C149.172 145.437 138.592 158.348 138.03 159.031C138.019 159.039 138.015 159.048 138.005 159.056L138.005 159.062Z" fill="#FFDE17"/>
<path d="M94.3346 202.582C94.7706 202.623 95.3247 202.651 95.9689 202.658C99.3128 202.702 105.192 202.141 110.875 198.445C110.875 198.445 107.996 197.681 104.228 196.133C98.5128 193.789 90.7393 189.637 87.8743 183.604C86.7224 184.036 85.9254 184.72 85.6708 185.799C84.0831 192.232 93.1919 197.199 94.3352 202.576L94.3346 202.582Z" fill="#5887C6"/>
<path d="M83.563 214.089C85.391 213.739 91.5299 212.869 96.2773 215.747C97.2617 216.336 98.1785 217.09 98.991 218.035C100.783 216.87 102.512 215.509 104.07 213.965C104.349 213.687 104.626 213.405 104.897 213.11L104.9 213.107C104.441 212.101 103.755 210.696 102.891 209.237C101.146 206.298 98.6865 203.16 95.96 202.765L95.9485 202.751C95.9314 202.729 95.9009 202.678 95.8884 202.676C95.8259 202.668 95.7383 202.656 95.6406 202.653L95.6218 202.651C95.3109 202.626 94.8512 202.605 94.3534 202.585C94.3472 202.584 94.3347 202.582 94.3284 202.581C94.3222 202.58 94.3063 202.582 94.3 202.581C94.7089 204.683 93.9452 206.934 90.7872 209.278C89.87 210.153 86.5633 211.931 83.5539 214.084L83.563 214.089Z" fill="#ED1C24"/>
<path d="M89.3558 186.043L89.4303 186.135C90.2971 187.223 91.4299 188.342 92.6498 189.479C92.6761 189.505 92.6967 189.523 92.7264 189.546C93.19 189.975 93.6882 190.405 94.2182 190.833C97.2482 193.269 101.374 195.571 106.969 197.197C106.981 197.205 106.994 197.201 107.006 197.209C107.018 197.217 107.03 197.218 107.046 197.223C107.046 197.223 107.064 197.226 107.067 197.229C107.073 197.23 107.089 197.235 107.088 197.242C107.1 197.25 107.113 197.245 107.125 197.253C107.372 197.323 107.616 197.39 107.87 197.454C108.151 197.532 108.43 197.607 108.721 197.676C109.575 197.895 110.466 198.09 111.386 198.274C111.697 198.333 112.009 198.393 112.323 198.449C112.638 198.506 112.955 198.566 113.28 198.615C113.598 198.669 113.925 198.721 114.253 198.767L116.063 199.129L117.409 199.402L117.367 199.295L117.228 198.956L117.196 198.882L115.091 193.596L109.006 178.323L108.86 177.955L108.853 177.995C108.84 178.118 108.827 178.233 108.805 178.351C108.779 178.618 108.742 178.877 108.705 179.129C105.933 184.824 93.2617 181.712 87.9257 183.639C87.9738 183.782 88.0293 183.913 88.0927 184.061C88.0956 184.065 88.1008 184.078 88.1037 184.082C88.3881 184.726 88.8168 185.382 89.3495 186.042L89.3558 186.043Z" fill="#FFDE17"/>
<path d="M95.9583 202.771C98.682 203.163 101.145 206.297 102.89 209.243C103.754 210.696 104.439 212.107 104.899 213.113C109.359 209.185 107.066 201.19 115.366 199.197L115.983 199.309L116.058 199.131L114.248 198.769C113.917 198.72 113.593 198.671 113.275 198.617C112.947 198.565 112.633 198.508 112.318 198.452C112.004 198.395 111.692 198.335 111.381 198.276C110.461 198.093 109.573 197.895 108.716 197.679C108.425 197.609 108.146 197.535 107.865 197.457C107.596 197.387 107.327 197.311 107.065 197.235C107.071 197.236 107.087 197.241 107.086 197.248C107.105 197.25 107.114 197.254 107.123 197.259C108.013 197.578 108.782 197.83 109.392 198.024C109.527 198.067 109.651 198.102 109.768 198.142C109.9 198.182 110.014 198.219 110.116 198.248C110.209 198.273 110.292 198.299 110.366 198.322C110.696 198.419 110.879 198.465 110.879 198.465C107.198 200.861 103.438 201.932 100.334 202.386C98.6443 202.631 97.1536 202.691 95.9724 202.677L95.9521 202.77L95.9419 202.778C95.9419 202.778 95.9539 202.786 95.9635 202.784L95.9583 202.771Z" fill="#F7941D"/>
<path d="M98.9913 218.034C98.1789 217.09 97.2558 216.335 96.2776 215.747C91.5303 212.868 85.3913 213.738 83.5633 214.088C81.0917 215.86 78.8171 217.884 78.2391 219.88C78.0926 220.385 78.0544 220.879 78.1452 221.38C78.3945 225.163 89.6546 224.14 98.9942 218.038L98.9913 218.034Z" fill="#FFDE17"/>
<path d="M138.448 159.793C139.624 161.27 142.854 164.101 145.693 166.37C147.719 167.999 149.535 169.334 150.25 169.678C150.264 169.689 150.274 169.694 150.289 169.699C150.386 169.743 150.46 169.766 150.508 169.769C150.497 169.777 150.49 169.789 150.479 169.803C150.451 169.838 150.432 169.876 150.427 169.898L150.515 169.868L150.551 169.857C152.02 168.507 153.27 167.247 153.915 166.18C158.791 159.098 163.192 151.795 166.519 144.487L166.434 144.444C163.464 146.466 158.173 149.939 152.811 153.007C147.031 156.306 141.167 159.111 138.009 159.069C138.055 159.243 138.211 159.492 138.454 159.8L138.448 159.793Z" fill="#5887C6"/>
<path d="M123.906 200.752L124.594 200.876L124.859 200.92C126.139 202.103 128.63 204.745 131.905 207.957C131.977 208.033 132.057 208.104 132.136 208.181C135.21 208.202 138.335 207.837 141.01 207.371C142.454 207.12 143.77 206.843 144.866 206.592C144.872 206.593 144.879 206.587 144.882 206.585C144.911 206.579 144.937 206.569 144.963 206.566C144.897 206.485 144.831 206.403 144.765 206.322C143.311 204.395 141.836 202.192 140.301 199.674C138.764 195.535 138.308 191.912 138.582 188.714L136.105 190.625L134.605 191.783L130.245 195.149L130.096 195.27L124.311 199.734L123.672 200.226L123.715 200.314L123.905 200.764L123.906 200.752Z" fill="#5887C6"/>
<path d="M131.906 207.954C135.459 211.434 139.927 215.604 144.756 219.36C148.45 212.506 144.733 206.305 144.733 206.305C140.402 207.896 134.476 208.072 131.906 207.954Z" fill="#ED1C24"/>
<path d="M144.597 219.502C144.685 219.507 144.802 219.506 144.929 219.497C147.138 219.39 154.371 217.726 156.499 217.221C156.715 217.169 156.88 217.131 156.98 217.109L157.095 217.085L157.141 216.955C152.961 215.195 149.08 212.016 144.958 206.569C144.892 206.487 144.826 206.406 144.76 206.324L144.729 206.32C144.729 206.32 144.737 206.337 144.74 206.341C144.787 206.426 144.824 206.513 144.861 206.595C145.905 208.776 146.316 210.777 146.378 212.526C146.383 212.586 146.381 212.64 146.387 212.689C146.392 212.82 146.39 212.95 146.39 213.067C146.389 213.156 146.388 213.238 146.384 213.33C146.384 213.511 146.373 213.691 146.361 213.864C146.348 214.021 146.345 214.176 146.326 214.326C146.318 214.414 146.308 214.505 146.297 214.596C146.266 214.89 146.221 215.167 146.166 215.446C146.145 215.58 146.115 215.716 146.081 215.848C146.009 216.188 145.918 216.513 145.824 216.812C145.779 216.971 145.732 217.121 145.679 217.263C145.647 217.37 145.604 217.469 145.57 217.573C145.517 217.722 145.451 217.869 145.388 218.019C145.116 218.661 144.854 219.113 144.714 219.349C144.641 219.466 144.601 219.521 144.601 219.521L144.597 219.502Z" fill="#F7941D"/>
<path d="M144.862 219.451C144.88 219.466 144.903 219.488 144.928 219.498C149.826 223.298 155.087 226.647 160.135 228.421C160.676 228.612 161.217 228.784 161.751 228.939C162.947 226.967 161.624 221.013 160.884 218.153C160.66 218.105 160.44 218.054 160.226 217.998C159.252 217.747 158.292 217.432 157.354 217.047L157.094 217.086L156.979 217.109L156.445 217.211L144.862 219.451Z" fill="#FFDE17"/>
<path d="M161.751 228.933C163.027 229.292 164.279 229.547 165.503 229.662C170.187 230.124 174.463 228.701 177.805 224.339C178.831 222.315 179.092 219.649 174.226 218.613C170.366 218.915 166.938 219.01 163.785 218.641C162.799 218.529 161.829 218.368 160.887 218.144C161.625 221 162.95 226.957 161.755 228.93L161.751 228.933Z" fill="#5887C6"/>
<path d="M106.978 135.074C106.978 135.074 107.002 135.061 107.051 135.039C112.773 132.044 121.994 129.214 131.648 126.796C131.67 126.796 131.68 126.794 131.696 126.787C144.137 123.667 157.276 121.233 164.503 119.971C167.56 119.444 169.553 119.124 170.011 119.054C170.04 119.048 170.075 119.043 170.107 119.041C157.831 101.674 140.483 89.2507 136.116 86.2753C136.238 86.523 136.361 86.7868 136.471 87.0616C136.497 87.1285 136.522 87.2017 136.551 87.2721C136.823 87.9904 137.048 88.8107 137.185 89.7147C134.287 99.824 126.843 104.501 118.327 106.698C117.44 107.707 116.617 108.7 115.862 109.678C115.677 109.921 115.489 110.167 115.305 110.403C115.12 110.646 114.945 110.887 114.77 111.128C104.767 124.739 106.727 134.075 106.959 135.001C106.971 135.05 106.975 135.076 106.975 135.076L106.978 135.074Z" fill="#FFDE17"/>
<path d="M162.106 109.053C164.881 112.152 167.602 115.495 170.109 119.038C170.109 119.038 171.813 120.699 172.482 124.56C172.991 120.258 172.895 116.04 172.058 111.951C172.434 112.403 171.398 104.543 168.596 94.0865C168.59 94.0857 168.574 94.0868 168.565 94.0825C167.292 93.9964 165.835 93.807 164.255 93.5287C164.202 93.5187 164.159 93.5067 164.115 93.5073C163.628 93.425 163.127 93.3313 162.623 93.234C162.573 93.2275 162.527 93.2183 162.483 93.2126C160.187 92.7681 157.713 92.1924 155.215 91.5533C146.96 89.4607 138.5 86.7126 135.9 85.8569C135.894 85.8561 135.888 85.849 135.879 85.8509L135.893 85.8687C135.952 85.997 136.011 86.1191 136.068 86.2376C136.082 86.2491 136.097 86.2605 136.118 86.2728C139.597 88.6404 151.286 96.9924 162.109 109.056L162.106 109.053Z" fill="#F7941D"/>
<path d="M135.887 85.8683C135.887 85.8683 135.899 85.8762 135.909 85.8743C138.503 86.7865 146.889 89.6648 155.3 91.7141C157.738 92.3073 160.179 92.8279 162.48 93.2095C162.524 93.2215 162.574 93.228 162.621 93.2309C163.12 93.3148 163.621 93.4085 164.112 93.5042C164.159 93.5071 164.2 93.5155 164.253 93.5256C165.793 93.8179 167.266 94.1174 168.584 94.1616C168.58 94.1356 168.566 94.1053 168.562 94.0793C166.161 85.1873 162.446 74.1677 157.274 65.0967C157.232 65.1547 157.195 65.2134 157.146 65.2706C157.127 65.3094 157.102 65.3411 157.071 65.372C155.002 68.1558 151.403 72.256 146.288 76.3783L146.091 76.537C146.014 76.5936 145.938 76.6601 145.855 76.716C144.913 77.4703 143.927 78.2189 142.885 78.9602L142.855 78.9849C140.697 80.5151 138.318 82.0134 135.643 83.4161C135.554 83.4648 135.464 83.5135 135.379 83.5532C135.137 83.6838 134.932 83.7906 134.755 83.8755C134.954 84.0603 135.449 84.9854 135.871 85.8344L135.885 85.8585L135.887 85.8683Z" fill="#F7941D"/>
<path d="M134.192 84.1733C134.241 84.1512 134.362 84.094 134.564 83.9838C134.439 84.0437 134.311 84.1064 134.192 84.1733Z" fill="#F7941D"/>
<path d="M97.2295 66.0377C97.2295 66.0377 97.2381 66.0484 97.2558 66.0634C97.7576 66.6019 105.988 75.2668 118.82 80.4638C118.845 80.467 118.866 80.4793 118.885 80.488C123.435 82.3246 128.552 83.7266 134.113 84.173C134.138 84.1763 134.154 84.1814 134.173 84.1776C134.173 84.1776 134.176 84.1749 134.189 84.1702C134.239 84.148 134.36 84.0908 134.562 83.9804C134.625 83.9536 134.691 83.9177 134.761 83.8791C134.938 83.7942 135.14 83.6839 135.385 83.5569C135.468 83.5136 135.557 83.4649 135.649 83.4197C137.199 82.5855 139.841 81.0801 142.861 78.9885L142.891 78.9639C143.861 78.2926 144.877 77.5606 145.904 76.7728C146.011 76.6978 146.109 76.6185 146.217 76.5372L146.414 76.3785C150.199 73.4238 154.138 69.7109 157.08 65.3792C157.111 65.3483 157.133 65.313 157.155 65.2778C157.198 65.2198 157.238 65.1583 157.28 65.1003C151.215 54.436 143.091 46.0486 132.55 45.5776C130.574 45.4669 128.06 45.4388 125.231 45.5539C125.212 45.5515 125.206 45.5507 125.196 45.5526L125.193 45.5554C123.037 47.1017 120.583 48.8602 118.023 50.7035C110.332 56.2541 101.694 62.5456 97.2295 66.0377Z" fill="#5887C6"/>
<path d="M86.1856 89.2714C99.0446 89.1256 124.483 88.4387 133.559 84.4658C133.778 84.3705 133.982 84.2763 134.174 84.1804C134.151 84.1807 134.139 84.1791 134.114 84.1758C128.865 84.0463 123.656 82.5594 118.885 80.4908C118.871 80.4794 118.846 80.4698 118.821 80.4666C106.609 75.1501 97.2302 66.0406 97.2302 66.0406C87.6492 73.064 83.132 80.6948 81.3668 84.3758C81.1483 88.0449 82.4108 90.1086 86.1885 89.2749L86.1856 89.2714Z" fill="#F7941D"/>
<path d="M97.2263 66.0373L118.106 50.762L125.228 45.5535C125.228 45.5535 125.203 45.5503 125.193 45.5522L125.19 45.5549C121.181 45.7137 116.555 46.148 111.958 47.0277C103.963 48.5457 96.0646 51.3979 91.6924 56.4268C92.1962 58.1886 93.9787 63.6712 97.2292 66.0409L97.2263 66.0373Z" fill="#ED1C24"/>
<path d="M81.3609 84.3692C83.129 80.6917 87.6433 73.0574 97.2243 66.034C93.9738 63.6643 92.1947 58.179 91.6875 56.4199C90.4981 57.7901 89.5728 59.328 88.9776 61.0391C85.4531 69.4628 81.6869 78.7731 81.3609 84.3692Z" fill="#5887C6"/>
<path d="M94.2976 127.657L94.5178 127.708C94.5178 127.708 95.0062 128.029 95.8677 128.576C97.9305 129.877 102.142 132.473 106.976 135.077L106.979 135.074C106.979 135.074 106.968 135.054 106.966 135.038C106.967 135.031 106.962 135.012 106.957 134.998C106.846 134.431 106.254 130.895 107.686 125.449C108.614 121.875 110.405 117.476 113.76 112.547C114.722 111.138 115.811 109.685 117.045 108.197C117.454 107.697 117.881 107.2 118.325 106.695C98.814 111.723 73.6386 103.718 84.3293 118.039C84.4842 118.266 84.6487 118.491 84.8042 118.711C88.2177 123.363 91.6669 125.549 94.2942 127.66L94.2976 127.657Z" fill="#ED1C24"/>
<path d="M104.035 147.909L106.916 135.323L106.963 135.139L106.977 135.074L95.8696 128.573L94.2995 127.654C95.7571 128.822 96.9571 129.969 97.7644 131.504C99.7756 135.764 102.057 141.594 104.039 147.907L104.035 147.909Z" fill="#5887C6"/>
<path d="M170.11 119.038C170.11 119.038 143.488 153.294 138.002 159.058L106.978 135.073C106.978 135.073 131.854 124.11 170.114 119.035L170.11 119.038Z" fill="#5887C6"/>
<path d="M133.176 49.452C132.89 48.3348 132.362 47.2783 131.691 46.3142C131.016 45.3529 130.18 44.4566 129.13 43.8214C128.093 43.1815 126.81 42.8337 125.618 43.0282C124.426 43.1877 123.403 43.814 122.644 44.608C123.679 44.212 124.707 43.9041 125.72 43.9246C126.732 43.9226 127.692 44.2729 128.574 44.8037C129.459 45.338 130.26 46.068 131.013 46.8614C131.761 47.6639 132.466 48.5369 133.176 49.452Z" fill="#231F20"/>
<path d="M83.9763 61.5764C83.332 61.229 82.6489 60.9306 81.9057 60.8213C81.1693 60.7065 80.3817 60.7503 79.6512 61.0175C78.915 61.2776 78.291 61.8223 77.8931 62.4599C77.4702 63.0942 77.3184 63.8496 77.3143 64.5797C77.7757 64.0139 78.1225 63.4586 78.5992 63.0504C79.0485 62.6291 79.5314 62.298 80.0919 62.0976C80.6467 61.8902 81.2566 61.7789 81.9095 61.7208C82.5577 61.643 83.2459 61.6912 83.9796 61.5737L83.9763 61.5764Z" fill="#231F20"/>
<path d="M136.478 87.0553C136.504 87.1219 136.53 87.1949 136.558 87.265L136.58 87.2773C136.58 87.2773 136.542 87.1965 136.476 87.0518L136.478 87.0553Z" fill="#5887C6"/>
<path d="M134.19 84.1728C134.239 84.1506 134.361 84.0934 134.563 83.983C134.625 83.9562 134.692 83.9203 134.761 83.8817C134.744 83.8667 134.729 83.8552 134.713 83.8501C134.713 83.8501 134.448 83.9998 134.114 84.1693L134.111 84.1721C133.932 84.2695 133.734 84.3708 133.559 84.4656C133.778 84.3702 133.982 84.276 134.174 84.1802C134.174 84.1802 134.177 84.1774 134.19 84.1728Z" fill="#5887C6"/>
<g style="mix-blend-mode:multiply" opacity="0.2">
<path d="M140.964 207.314L141.007 207.367C142.476 209.229 144.242 210.973 146.376 212.515C149.104 214.48 152.414 216.105 156.444 217.207C156.463 217.209 156.481 217.218 156.497 217.217C157.875 217.593 159.335 217.903 160.879 218.145C160.656 218.097 160.436 218.046 160.222 217.99C159.248 217.739 158.288 217.424 157.349 217.038L157.09 217.078L157.136 216.947C152.956 215.187 149.074 212.008 144.953 206.561C144.887 206.48 144.821 206.398 144.755 206.316C143.301 204.39 141.826 202.187 140.291 199.669C138.754 195.53 138.298 191.907 138.572 188.709L136.095 190.62C137.195 189.75 138.072 189.06 138.546 188.677C139.383 179.615 146.056 173.995 150.468 169.96C150.473 169.938 150.481 169.92 150.479 169.904L150.482 169.901C150.482 169.901 150.494 169.88 150.491 169.87L150.527 169.859C151.996 168.51 153.246 167.249 153.891 166.183C158.767 159.101 163.168 151.798 166.495 144.489L166.41 144.446C166.461 144.411 166.518 144.371 166.568 144.336C169.591 137.683 171.712 131.031 172.468 124.566C172.976 120.265 172.88 116.046 172.043 111.957C172.42 112.41 171.383 104.549 168.581 94.0933C168.575 94.0925 168.559 94.0936 168.55 94.0893C166.149 85.1972 162.434 74.1776 157.262 65.1066C157.219 65.1646 157.183 65.2234 157.134 65.2805C157.177 65.2225 157.217 65.161 157.259 65.1031C151.194 54.4388 143.07 46.0513 132.529 45.5804C130.553 45.4697 128.039 45.4416 125.21 45.5567C125.191 45.5543 125.185 45.5535 125.175 45.5554L125.172 45.5581C121.163 45.7169 116.537 46.1512 111.94 47.0308C113.095 47.6575 115.225 48.8745 118.002 50.7062C118.032 50.7291 118.055 50.745 118.089 50.7651C125.097 55.4116 136.148 63.9445 145.839 76.7286L145.879 76.7783C149.221 81.1897 152.4 86.1137 155.198 91.5566C155.225 91.6109 155.255 91.6688 155.285 91.7204C157.988 97.005 160.322 102.781 162.091 109.06C163.065 112.499 163.873 116.096 164.47 119.845C164.479 119.891 164.481 119.936 164.49 119.981C164.49 119.981 163.595 123.81 161.746 129.733C161.723 129.787 161.708 129.845 161.688 129.903C159.765 136.032 156.818 144.359 152.784 153.005C150.725 157.41 148.388 161.91 145.757 166.237C145.727 166.284 145.704 166.332 145.672 166.376C142.343 171.829 138.551 177.016 134.271 181.444C134.271 181.444 133.691 185.921 134.585 191.78C134.588 191.784 134.593 191.797 134.589 191.806C135.327 196.626 137.065 202.372 140.944 207.324L140.964 207.314Z" fill="#231F20"/>
</g>
<path d="M164.702 137.672C167.867 133.131 172.908 128.119 176.979 124.382C174.266 124.62 171.662 124.154 169.349 123.384C166.534 122.456 164.143 121.081 162.473 119.955C162.442 119.945 162.422 119.926 162.401 119.908C162.366 119.878 162.321 119.85 162.281 119.829C162.249 119.802 162.222 119.783 162.21 119.775C162.198 119.767 162.195 119.763 162.186 119.759C161.677 120.106 161.398 120.301 161.398 120.301C157.128 127.205 157.213 131.397 158.665 133.917C160.539 137.181 164.705 137.669 164.705 137.669L164.702 137.672Z" fill="#ED1C24"/>
<path d="M162.184 119.755C162.184 119.755 162.196 119.763 162.208 119.771C162.223 119.783 162.243 119.801 162.279 119.825C162.319 119.846 162.357 119.873 162.399 119.904C162.42 119.923 162.44 119.941 162.471 119.952C163.319 120.545 166.01 122.311 169.179 123.498C171.705 124.443 174.532 125.032 176.977 124.378C178.52 122.968 179.92 121.733 181.03 120.779C181.087 120.662 181.135 120.541 181.183 120.42C181.242 120.285 181.294 120.155 181.35 120.016C181.361 120.002 181.366 119.98 181.373 119.962C181.587 119.415 181.769 118.857 181.925 118.287C181.939 118.263 181.942 118.226 181.951 118.201C182.299 116.989 182.527 115.738 182.677 114.468C182.959 112.16 182.967 109.798 182.87 107.514C182.877 107.502 182.872 107.489 182.869 107.485C182.865 107.237 182.848 106.987 182.837 106.738C173.457 112.151 164.781 117.993 162.186 119.765L162.184 119.755Z" fill="#FFDE17"/>
<path d="M181.258 120.583C182.681 119.364 183.573 118.644 183.573 118.644C188.931 115.24 193.685 112.786 197.862 111.032C197.841 111.026 197.823 111.017 197.798 111.008C196.594 110.556 195.109 109.972 193.564 109.327C190.574 108.077 187.356 106.566 185.505 105.217C185.492 105.222 185.489 105.225 185.482 105.23C184.61 105.717 183.744 106.211 182.88 106.709C182.878 106.845 182.881 107.112 182.872 107.483C182.875 107.486 182.88 107.5 182.873 107.512C182.864 108.943 182.799 111.832 182.519 114.578C182.388 115.873 182.204 117.135 181.956 118.202C181.951 118.23 181.948 118.262 181.93 118.288C181.777 118.945 181.597 119.518 181.379 119.963C181.374 119.985 181.366 120.003 181.356 120.018C181.297 120.147 181.234 120.262 181.168 120.368C181.168 120.368 181.176 120.385 181.189 120.422C181.208 120.465 181.231 120.522 181.261 120.587L181.258 120.583Z" fill="#F7941D"/>
<path d="M185.499 105.356C186.94 106.649 190.458 108.234 193.338 109.402C195.698 110.363 197.63 111.037 197.63 111.037L197.798 111.001L198.058 110.949C199.885 110.189 201.597 109.564 203.205 109.052C203.23 108.985 203.251 108.921 203.269 108.853C203.525 108.096 203.694 107.327 203.793 106.555C203.997 105.025 203.94 103.483 203.721 102.013C203.722 101.965 203.719 101.927 203.703 101.893C203.343 99.581 202.597 97.4288 201.86 95.7383C200.206 97.442 198.589 98.7058 198.589 98.7058C194.564 100.349 190.015 102.684 185.502 105.207C185.489 105.212 185.486 105.214 185.479 105.22L185.502 105.353L185.499 105.356Z" fill="#ED1C24"/>
<path d="M203.369 109.009C217.486 104.595 223.341 109.117 223.341 109.117C231.448 115.86 232.795 111.204 232.795 111.204C236.388 107.408 234.775 100.165 234.775 100.165C234.032 98.01 232.944 96.3978 231.663 95.1926C225.74 89.6231 215.619 92.9042 215.619 92.9042C216.923 90.58 214.375 87.3328 214.375 87.3328C204.837 78.768 205.263 90.8721 205.263 90.8721C204.785 92.4237 203.387 94.1671 201.989 95.6118C202.961 97.9744 203.47 100.089 203.702 101.895C203.714 101.932 203.718 101.97 203.72 102.015C203.958 103.892 203.893 105.433 203.747 106.571C203.555 108.026 203.236 108.817 203.236 108.817L203.265 108.852C203.284 108.89 203.321 108.936 203.369 109.003L203.369 109.009Z" fill="#5887C6"/>
<path d="M42.1458 102.303C41.2173 102.859 40.3503 103.512 39.5028 104.196C38.6758 104.898 37.8822 105.656 37.1636 106.5C36.4546 107.341 35.7193 108.234 35.381 109.368C35.0419 110.474 35.019 111.805 35.6372 112.842L35.7467 112.818C35.7657 111.683 36.0377 110.737 36.4531 109.816C36.8827 108.912 37.2949 107.952 37.8952 107.087C38.4864 106.217 39.1711 105.401 39.9027 104.629C40.6229 103.842 41.399 103.105 42.2101 102.403L42.1424 102.305L42.1458 102.303Z" fill="#231F20"/>
<path d="M215.594 92.952C216.216 93.4871 216.814 94.0476 217.358 94.652C217.919 95.2363 218.423 95.8672 218.848 96.5261C219.279 97.1857 219.548 97.9067 219.828 98.5657C220.11 99.2409 220.281 99.9174 220.366 100.78L220.477 100.82C221.02 100.147 221.126 99.1474 220.922 98.2632C220.733 97.3491 220.122 96.6408 219.573 95.9881C219.011 95.3338 218.389 94.7511 217.734 94.2308C217.066 93.7214 216.385 93.2454 215.656 92.8552L215.597 92.9492L215.594 92.952Z" fill="#231F20"/>
<path d="M127.592 199.995C125.646 200.06 123.686 199.948 121.747 199.738C119.806 199.539 117.874 199.212 115.978 198.75C114.081 198.265 112.271 197.534 110.46 196.844C108.661 196.099 106.954 195.191 105.221 194.14L105.15 194.226C106.498 195.764 108.214 196.975 110.037 197.895C111.885 198.783 113.865 199.253 115.821 199.65C117.788 200.014 119.762 200.226 121.73 200.314C123.698 200.372 125.667 200.33 127.608 200.112L127.592 199.995Z" fill="#231F20"/>
<g style="mix-blend-mode:multiply" opacity="0.2">
<path d="M164.703 137.672C167.868 133.131 172.909 128.119 176.98 124.382C178.524 122.972 179.923 121.737 181.034 120.782C181.091 120.666 181.139 120.545 181.187 120.424C181.202 120.464 181.226 120.521 181.256 120.585C182.679 119.366 183.57 118.647 183.57 118.647C188.929 115.242 193.683 112.788 197.86 111.034C197.839 111.029 197.82 111.02 197.796 111.01L198.056 110.958C199.884 110.198 201.596 109.573 203.203 109.061C203.228 108.994 203.249 108.93 203.267 108.862C203.29 108.897 203.323 108.946 203.372 109.013C217.489 104.599 223.344 109.121 223.344 109.121C231.451 115.864 232.798 111.207 232.798 111.207C236.391 107.411 234.777 100.169 234.777 100.169C234.035 98.0137 232.946 96.4015 231.666 95.1963C232.526 99.39 233.46 106.389 230.328 107.252C229.037 107.609 220.425 103.167 215.381 104.554C214.294 104.851 209.651 105.334 203.795 106.561C203.782 106.566 203.766 106.567 203.75 106.574C200.583 107.243 197.066 108.13 193.565 109.326C193.493 109.355 193.412 109.38 193.343 109.406C189.606 110.699 185.896 112.351 182.681 114.465C182.625 114.499 182.571 114.537 182.52 114.578C181.208 115.449 179.978 116.395 178.867 117.432C178.867 117.432 174.23 119.968 169.357 123.385C169.3 123.418 169.246 123.462 169.192 123.5C164.698 126.67 160.031 130.571 158.673 133.918C160.546 137.182 164.713 137.67 164.713 137.67L164.703 137.672Z" fill="#231F20"/>
</g>
<g style="mix-blend-mode:multiply" opacity="0.2">
<path d="M107.95 163.539C109.003 163.644 110.261 163.725 111.67 163.765C110.388 156.232 108.164 148.544 108.164 148.544C107.758 143.387 108.608 139.841 109.967 137.384C112.576 132.654 117.046 131.935 117.894 131.439C118.505 131.08 119.081 130.738 119.636 130.407C119.939 130.221 120.239 130.038 120.529 129.863C136.679 120.04 127.468 121.314 127.468 121.314C125.161 121.16 116.941 124.647 116.941 124.647C114.051 125.45 110.88 125.642 107.683 125.439L107.547 125.431C98.1267 124.794 88.4741 120.735 84.8038 118.698C88.2173 123.351 91.6666 125.536 94.2938 127.647C95.7514 128.815 96.9515 129.962 97.7588 131.497C99.7699 135.757 102.051 141.587 104.033 147.9C105.633 152.99 107.037 158.391 107.948 163.529L107.95 163.539Z" fill="#231F20"/>
</g>
<g style="mix-blend-mode:multiply" opacity="0.2">
<path d="M108.805 178.348C108.862 178.343 108.917 178.328 108.975 178.322C108.981 178.323 108.997 178.322 109.003 178.323C109.862 178.18 110.533 178.026 110.827 177.871C113.16 176.627 112.763 170.267 111.667 163.79C110.234 163.763 108.981 163.701 107.959 163.635C108.877 168.878 109.282 173.855 108.851 177.947L108.85 177.995C108.837 178.117 108.824 178.233 108.802 178.351L108.805 178.348Z" fill="#231F20"/>
</g>
<g style="mix-blend-mode:lighten" opacity="0.32">
<path d="M111.876 59.5829C113.2 47.614 92.7387 56.7145 92.7981 69.1903C93.0616 70.8764 93.8697 77.3505 97.8236 75.1674C100.661 73.5984 108.407 71.203 111.879 59.5864L111.876 59.5829Z" fill="white"/>
</g>
<g style="mix-blend-mode:lighten" opacity="0.32">
<path d="M123.37 172.718C130.043 166.829 133.544 146.82 125.803 139.712C125.803 139.712 115.556 130.366 118.428 143.865C118.647 144.884 121.298 151.693 118.014 168.62C118.014 168.62 114.448 180.599 123.367 172.721L123.37 172.718Z" fill="white"/>
</g>
<g style="mix-blend-mode:multiply" opacity="0.2">
<path d="M98.9898 218.034C100.782 216.869 102.511 215.509 104.069 213.964C104.348 213.686 104.625 213.404 104.896 213.109L104.899 213.106C109.359 209.178 107.066 201.183 115.367 199.19L115.983 199.302L116.058 199.125L117.404 199.398L117.362 199.291C118.452 199.572 123.007 200.707 123.637 200.351C123.654 200.337 123.681 200.322 123.717 200.304L123.907 200.755L124.595 200.879C124.546 200.561 124.464 200.211 124.353 199.844C124.34 199.807 124.328 199.764 124.316 199.721C123.751 197.974 122.398 195.854 119.233 194.582C119.187 194.56 119.135 194.537 119.079 194.524C118.14 194.151 117.027 193.86 115.731 193.669C115.553 193.643 115.334 193.614 115.089 193.589C115.049 193.581 115.011 193.582 114.973 193.577C111.28 193.176 101.336 192.564 99.1724 190.917C99.1724 190.917 95.7973 189.884 94.2974 190.772C94.2674 190.791 94.2379 190.803 94.2108 190.825C93.0719 191.591 93.1848 193.604 97.1909 198.353C97.1909 198.353 98.8148 200.101 100.326 202.369C101.791 204.545 103.158 207.203 102.884 209.236C102.808 209.801 102.606 210.327 102.237 210.772C102.237 210.772 99.7416 213.166 96.2699 215.746C91.8072 219.06 85.7288 222.683 81.2707 221.938C81.2707 221.938 79.6313 221.433 78.2285 219.875C78.0819 220.38 78.0438 220.874 78.1346 221.375C78.3839 225.159 89.644 224.135 98.9836 218.033L98.9898 218.034Z" fill="#231F20"/>
</g>
<g style="mix-blend-mode:lighten" opacity="0.32">
<path d="M97.5834 185.298C95.9625 184.496 89.6257 184.33 87.6517 186.199C87.6517 186.199 85.0435 187.261 89.6376 191.517C89.6376 191.517 93.7697 192.191 92.6534 189.476C92.6534 189.476 92.0472 187.011 94.5535 187.016C94.5535 187.016 100.145 186.565 97.5834 185.298Z" fill="white"/>
</g>
<g style="mix-blend-mode:lighten" opacity="0.44">
<path d="M90.1218 212.075C90.1218 212.075 83.2288 214.855 81.7678 216.978C81.7678 216.978 80.2377 219.812 83.9375 218.549C83.9375 218.549 92.0269 214.505 92.3635 212.939C92.7001 211.372 93.3115 210.562 90.1218 212.075Z" fill="white"/>
</g>
<path d="M134.804 77.243C129.624 79.6784 123.587 77.9395 121.319 73.359C119.05 68.7784 121.41 63.0909 126.59 60.6554C131.769 58.2199 137.807 59.9589 140.075 64.5394C142.343 69.1199 139.983 74.8075 134.804 77.243Z" fill="#D1D3D4"/>
<path d="M134.058 76.916C129.398 79.1072 123.888 77.3857 121.751 73.0709C119.615 68.7561 121.66 63.4819 126.32 61.2908C130.98 59.0996 136.49 60.8211 138.627 65.1359C140.763 69.4507 138.718 74.7248 134.058 76.916Z" fill="white"/>
<path d="M135.9 70.6663C134.401 71.8392 132.141 71.4585 130.852 69.8159C129.563 68.1734 129.733 65.891 131.232 64.718C132.73 63.5451 134.99 63.9258 136.279 65.5684C137.568 67.211 137.398 69.4934 135.9 70.6663Z" fill="#2B3990" stroke="#262262" stroke-width="0.530573" stroke-miterlimit="10"/>
<path d="M134.561 69.0905C133.919 69.5932 132.947 69.4256 132.39 68.7163C131.833 68.0069 131.903 67.0243 132.545 66.5216C133.187 66.0189 134.159 66.1864 134.716 66.8958C135.273 67.6052 135.203 68.5878 134.561 69.0905Z" fill="#231F20"/>
<path d="M136.389 65.9713L134.445 66.9481L130.704 66.1696C130.704 66.1696 133.168 61.7311 136.389 65.9713Z" fill="white"/>
<g style="mix-blend-mode:lighten" opacity="0.32">
<path d="M28.8139 113.355C27.3151 114.528 25.5305 114.753 24.8277 113.857C24.1249 112.961 24.7701 111.285 26.2688 110.112C27.7675 108.939 29.5522 108.714 30.255 109.609C30.9578 110.505 30.3126 112.182 28.8139 113.355Z" fill="white"/>
</g>
</svg>
