<svg xmlns="http://www.w3.org/2000/svg" width="27" height="25" viewBox="0 0 27 25" fill="none">
    <path opacity="0.48" d="M18.7013 4.52453C18.3243 4.08173 17.9473 3.87959 17.3723 3.87959H4.6435C4.34189 3.87959 4.09683 3.64856 4.06855 3.33956L3.88947 1.18332C3.8612 0.856033 3.62557 0.587465 3.30511 0.528746L1.05718 0.183169C0.670739 0.12445 0.303153 0.385317 0.237176 0.779024C0.171199 1.16407 0.435107 1.53948 0.812118 1.60687C1.65065 1.75433 2.28423 2.44879 2.35434 3.29729L3.10246 12.3505C3.20614 13.6212 4.24292 14.6021 5.49648 14.6021H15.7795C16.9765 14.6021 17.9944 13.7078 18.1641 12.494L19.0595 6.17926C19.1443 5.60265 19.0783 4.96733 18.7013 4.52453Z" fill="#2DCDFF"/>
    <path d="M7.83367 8.01342C7.20848 8.01342 6.79852 8.23324 6.38855 8.71474C5.97859 9.19624 5.90685 9.88708 5.99909 10.5141L6.97275 17.3807C7.15723 18.7006 8.26413 19.673 9.56576 19.673H20.7475C22.1106 19.673 23.238 18.6064 23.3507 17.2247L24.2936 5.81423L25.8412 5.54207C26.2512 5.4688 26.5382 5.06057 26.4664 4.64188C26.3947 4.21376 25.995 3.9301 25.5747 3.99395L23.1304 4.36973C22.7819 4.43358 22.5257 4.72562 22.4949 5.08151L22.3002 7.4262C22.2694 7.76221 22.003 8.01342 21.675 8.01342H7.83367Z" fill="#2DCDFF"/>
    <path d="M20.9118 21.3276C21.7727 21.3276 22.4696 22.0394 22.4696 22.9186C22.4696 23.7874 21.7727 24.4992 20.9118 24.4992C20.0611 24.4992 19.3642 23.7874 19.3642 22.9186C19.3642 22.0394 20.0611 21.3276 20.9118 21.3276Z" fill="#2DCDFF"/>
    <path d="M9.3817 21.3276C10.2426 21.3276 10.9396 22.0394 10.9396 22.9186C10.9396 23.7874 10.2426 24.4992 9.3817 24.4992C8.53103 24.4992 7.8341 23.7874 7.8341 22.9186C7.8341 22.0394 8.53103 21.3276 9.3817 21.3276Z" fill="#2DCDFF"/>
    <path opacity="0.04" d="M6.23115 10.4812L6.23097 10.48C6.14324 9.8836 6.21998 9.27426 6.56701 8.86668C6.7586 8.64165 6.93963 8.49027 7.13464 8.39344C7.3282 8.29733 7.54998 8.2478 7.83367 8.2478H21.675C22.1304 8.2478 22.4924 7.89791 22.5336 7.44756L22.5337 7.4456L22.7284 5.10168C22.7284 5.10163 22.7284 5.10158 22.7284 5.10154C22.7504 4.84741 22.931 4.64595 23.1696 4.60082L25.61 4.22566C25.61 4.22566 25.61 4.22565 25.6101 4.22564C25.9045 4.18098 26.1848 4.37972 26.2353 4.68062L26.2354 4.68146C26.2856 4.97459 26.0818 5.26087 25.8002 5.31132C25.8001 5.31133 25.8 5.31134 25.8 5.31135L24.253 5.58339L24.0749 5.61471L24.06 5.79492L23.1171 17.2054L23.1171 17.2057C23.0139 18.4704 21.9839 19.4387 20.7474 19.4387H9.56576C8.38394 19.4387 7.37357 18.5553 7.20487 17.3482L7.2048 17.3478L6.23115 10.4812ZM20.9118 21.562C21.6386 21.562 22.2353 22.1641 22.2353 22.9186C22.2353 23.6617 21.6396 24.2648 20.9118 24.2648C20.1952 24.2648 19.5985 23.6627 19.5985 22.9186C19.5985 22.1631 20.1962 21.562 20.9118 21.562ZM9.3817 21.562C10.1085 21.562 10.7052 22.1641 10.7052 22.9186C10.7052 23.6617 10.1095 24.2648 9.3817 24.2648C8.66511 24.2648 8.06847 23.6627 8.06847 22.9186C8.06847 22.1631 8.6661 21.562 9.3817 21.562Z" stroke="black" stroke-width="0.46875"/>
    <path fill-rule="evenodd" clip-rule="evenodd" d="M11.2048 13.455H14.0438C14.4743 13.455 14.8125 13.0991 14.8125 12.6699C14.8125 12.2303 14.4743 11.8849 14.0438 11.8849H11.2048C10.7744 11.8849 10.4362 12.2303 10.4362 12.6699C10.4362 13.0991 10.7744 13.455 11.2048 13.455Z" fill="url(#paint0_linear_4503_38837)"/>
    <defs>
      <linearGradient id="paint0_linear_4503_38837" x1="14.7583" y1="12.8312" x2="13.0533" y2="14.9015" gradientUnits="userSpaceOnUse">
        <stop stop-color="white" stop-opacity="0.16"/>
        <stop offset="1" stop-color="white" stop-opacity="0.64"/>
      </linearGradient>
    </defs>
  </svg>