<svg xmlns="http://www.w3.org/2000/svg" width="22" height="25" viewBox="0 0 22 25" fill="none">
    <g clip-path="url(#clip0_2914_29679)">
      <path d="M13.4084 20.1168C13.6103 20.1168 13.7807 20.1115 13.9492 20.1168C14.5129 20.1396 14.9484 20.5821 14.9572 21.1317C14.9659 21.6936 14.5252 22.1607 13.9492 22.1765C13.4435 22.1906 12.9395 22.1835 12.4338 22.18C11.7771 22.173 11.3486 21.7428 11.3469 21.0825C11.3434 19.6093 11.3521 18.1378 11.3363 16.6645C11.3346 16.4924 11.2538 16.287 11.1414 16.157C10.2371 15.1052 9.31521 14.0692 8.40211 13.0261C7.68216 12.2043 7.61016 11.2947 8.1949 10.3606C8.9289 9.18581 9.66992 8.01458 10.4057 6.83983C10.4619 6.75027 10.5163 6.65721 10.5883 6.5378C9.9579 6.26738 9.3117 6.16027 8.6497 6.11461C7.6207 6.04437 6.65316 6.35167 5.67508 6.5975C5.34847 6.68004 5.02888 6.7573 4.70402 6.58521C4.31244 6.37976 4.10699 6.05842 4.1228 5.62294C4.1386 5.18746 4.3581 4.84153 4.77075 4.70632C7.33799 3.86872 9.87361 3.69488 12.3618 5.02415C13.9615 5.87931 15.5876 6.6853 17.2136 7.48954C17.491 7.62651 17.8247 7.70201 18.1372 7.7143C18.9309 7.74591 19.7281 7.72308 20.5236 7.72484C21.2032 7.72484 21.672 8.15505 21.6685 8.76613C21.6632 9.36316 21.1979 9.78635 20.5394 9.78987C19.765 9.79338 18.9906 9.78811 18.218 9.78987C17.5068 9.79338 16.8343 9.6529 16.2057 9.30873C15.8685 9.12435 15.5191 8.95753 15.1573 8.77491C15.0994 8.84866 15.0432 8.91012 14.9975 8.97861C13.9896 10.501 12.987 12.0287 11.9702 13.5459C11.8385 13.7408 11.8631 13.8514 12.0106 14.0112C12.3618 14.3888 12.6867 14.7909 13.0379 15.1684C13.3013 15.4529 13.4189 15.7707 13.4154 16.1605C13.4031 17.3528 13.4119 18.5469 13.4119 19.741V20.115L13.4084 20.1168Z" fill="white" fill-opacity="0.8"/>
      <path d="M19.0854 3.09255C19.0802 4.51665 17.9124 5.67032 16.4866 5.66154C15.0642 5.65276 13.9141 4.48153 13.9264 3.05392C13.9369 1.64387 15.0976 0.500732 16.5094 0.500732C17.9353 0.500732 19.0907 1.66319 19.0854 3.09255Z" fill="white" fill-opacity="0.8"/>
      <path d="M10.2545 16.6992C8.6285 17.2418 7.04461 17.7686 5.43262 18.3059C5.48706 18.478 5.53798 18.6273 5.58188 18.7783C5.74519 19.3455 5.47477 19.9109 4.95324 20.0935C4.40713 20.2849 3.83644 20.0145 3.62924 19.4438C3.45013 18.9504 3.28507 18.4499 3.13581 17.9459C2.97426 17.4104 3.22712 16.8766 3.75918 16.6957C5.37292 16.1443 6.99544 15.6123 8.61621 15.0802C8.6882 15.0574 8.81639 15.0749 8.86204 15.1241C9.32211 15.6316 9.77164 16.1478 10.2563 16.6992H10.2545Z" fill="white" fill-opacity="0.8"/>
      <path d="M3.62396 22.9086C3.56074 22.8893 3.42202 22.8612 3.2991 22.8015C2.91103 22.6171 2.51067 22.4485 2.15245 22.2167C1.94349 22.0815 1.72926 21.8638 1.64849 21.6355C1.20422 20.394 0.798594 19.1385 0.38594 17.8848C0.229659 17.4071 0.433352 16.9699 0.854786 16.8364C1.28676 16.6995 1.69239 16.9225 1.85569 17.4054C2.2262 18.5029 2.58266 19.6056 2.9602 20.7013C3.00585 20.8348 3.13053 20.9665 3.25169 21.042C3.52562 21.2106 3.82941 21.3282 4.10509 21.4915C4.42293 21.6794 4.54409 22.0429 4.43346 22.3871C4.33513 22.6979 4.03486 22.9103 3.6222 22.9086H3.62396Z" fill="white" fill-opacity="0.8"/>
      <path d="M13.4083 24.7628C12.7533 24.7628 12.0983 24.7663 11.4433 24.7628C10.9165 24.7593 10.5653 24.4397 10.5724 23.9797C10.5776 23.5319 10.9236 23.2193 11.4328 23.2176C12.5812 23.2141 13.7314 23.2246 14.8798 23.207C15.0396 23.2053 15.2204 23.114 15.3486 23.0104C15.5734 22.8295 15.7578 22.5995 15.972 22.4063C16.3056 22.106 16.7464 22.1148 17.0449 22.4098C17.3469 22.7083 17.368 23.1544 17.066 23.4827C16.7235 23.8532 16.3724 24.2202 15.9896 24.5468C15.835 24.6785 15.5839 24.7488 15.3732 24.7576C14.72 24.7839 14.0632 24.7663 13.4083 24.7663V24.7628Z" fill="white" fill-opacity="0.8"/>
    </g>
    <defs>
      <clipPath id="clip0_2914_29679">
        <rect width="21.3333" height="24.2676" fill="white" transform="translate(0.333374 0.500244)"/>
      </clipPath>
    </defs>
  </svg>