<svg xmlns="http://www.w3.org/2000/svg" width="16" height="17" viewBox="0 0 16 17" fill="none">
    <path d="M3.53915 15.0277C3.20237 15.0277 2.91732 14.9111 2.68398 14.6777C2.45065 14.4444 2.33398 14.1594 2.33398 13.8226V4.89957C2.33398 4.5628 2.45065 4.27774 2.68398 4.04441C2.91732 3.81107 3.20237 3.69441 3.53915 3.69441H4.46215V2.79691C4.46215 2.6508 4.5111 2.5288 4.60898 2.43091C4.70687 2.33313 4.82887 2.28424 4.97498 2.28424C5.12121 2.28424 5.24321 2.33313 5.34099 2.43091C5.43887 2.5288 5.48782 2.6508 5.48782 2.79691V3.69441H10.5392V2.78424C10.5392 2.64235 10.587 2.52352 10.6827 2.42774C10.7784 2.33207 10.8973 2.28424 11.0392 2.28424C11.181 2.28424 11.2998 2.33207 11.3955 2.42774C11.4913 2.52352 11.5392 2.64235 11.5392 2.78424V3.69441H12.4622C12.7989 3.69441 13.084 3.81107 13.3173 4.04441C13.5507 4.27774 13.6673 4.5628 13.6673 4.89957V13.8226C13.6673 14.1594 13.5507 14.4444 13.3173 14.6777C13.084 14.9111 12.7989 15.0277 12.4622 15.0277H3.53915ZM3.53915 14.0277H12.4622C12.5135 14.0277 12.5605 14.0064 12.6032 13.9636C12.6459 13.9209 12.6673 13.8739 12.6673 13.8226V7.56624H3.33398V13.8226C3.33398 13.8739 3.35537 13.9209 3.39815 13.9636C3.44082 14.0064 3.48782 14.0277 3.53915 14.0277ZM3.33398 6.56624H12.6673V4.89957C12.6673 4.84824 12.6459 4.80124 12.6032 4.75857C12.5605 4.7158 12.5135 4.69441 12.4622 4.69441H3.53915C3.48782 4.69441 3.44082 4.7158 3.39815 4.75857C3.35537 4.80124 3.33398 4.84824 3.33398 4.89957V6.56624ZM8.00065 10.0791C7.83743 10.0791 7.69832 10.0216 7.58332 9.90657C7.46843 9.79169 7.41098 9.65257 7.41098 9.48924C7.41098 9.32602 7.46843 9.18691 7.58332 9.07191C7.69832 8.95702 7.83743 8.89957 8.00065 8.89957C8.16387 8.89957 8.30299 8.95702 8.41799 9.07191C8.53287 9.18691 8.59032 9.32602 8.59032 9.48924C8.59032 9.65257 8.53287 9.79169 8.41799 9.90657C8.30299 10.0216 8.16387 10.0791 8.00065 10.0791ZM5.33398 10.0791C5.17076 10.0791 5.03165 10.0216 4.91665 9.90657C4.80176 9.79169 4.74432 9.65257 4.74432 9.48924C4.74432 9.32602 4.80176 9.18691 4.91665 9.07191C5.03165 8.95702 5.17076 8.89957 5.33398 8.89957C5.49721 8.89957 5.63632 8.95702 5.75132 9.07191C5.86621 9.18691 5.92365 9.32602 5.92365 9.48924C5.92365 9.65257 5.86621 9.79169 5.75132 9.90657C5.63632 10.0216 5.49721 10.0791 5.33398 10.0791ZM10.6673 10.0791C10.5041 10.0791 10.365 10.0216 10.25 9.90657C10.1351 9.79169 10.0777 9.65257 10.0777 9.48924C10.0777 9.32602 10.1351 9.18691 10.25 9.07191C10.365 8.95702 10.5041 8.89957 10.6673 8.89957C10.8305 8.89957 10.9697 8.95702 11.0847 9.07191C11.1995 9.18691 11.257 9.32602 11.257 9.48924C11.257 9.65257 11.1995 9.79169 11.0847 9.90657C10.9697 10.0216 10.8305 10.0791 10.6673 10.0791ZM8.00065 12.6944C7.83743 12.6944 7.69832 12.6369 7.58332 12.5219C7.46843 12.407 7.41098 12.268 7.41098 12.1047C7.41098 11.9414 7.46843 11.8023 7.58332 11.6874C7.69832 11.5724 7.83743 11.5149 8.00065 11.5149C8.16387 11.5149 8.30299 11.5724 8.41799 11.6874C8.53287 11.8023 8.59032 11.9414 8.59032 12.1047C8.59032 12.268 8.53287 12.407 8.41799 12.5219C8.30299 12.6369 8.16387 12.6944 8.00065 12.6944ZM5.33398 12.6944C5.17076 12.6944 5.03165 12.6369 4.91665 12.5219C4.80176 12.407 4.74432 12.268 4.74432 12.1047C4.74432 11.9414 4.80176 11.8023 4.91665 11.6874C5.03165 11.5724 5.17076 11.5149 5.33398 11.5149C5.49721 11.5149 5.63632 11.5724 5.75132 11.6874C5.86621 11.8023 5.92365 11.9414 5.92365 12.1047C5.92365 12.268 5.86621 12.407 5.75132 12.5219C5.63632 12.6369 5.49721 12.6944 5.33398 12.6944ZM10.6673 12.6944C10.5041 12.6944 10.365 12.6369 10.25 12.5219C10.1351 12.407 10.0777 12.268 10.0777 12.1047C10.0777 11.9414 10.1351 11.8023 10.25 11.6874C10.365 11.5724 10.5041 11.5149 10.6673 11.5149C10.8305 11.5149 10.9697 11.5724 11.0847 11.6874C11.1995 11.8023 11.257 11.9414 11.257 12.1047C11.257 12.268 11.1995 12.407 11.0847 12.5219C10.9697 12.6369 10.8305 12.6944 10.6673 12.6944Z" fill="#1E2B62"/>
  </svg>