<svg xmlns="http://www.w3.org/2000/svg" width="17" height="16" viewBox="0 0 17 16" fill="none">
    <path fill-rule="evenodd" clip-rule="evenodd" d="M2.90229 1.52847C2.7771 1.48454 2.63959 1.49213 2.52001 1.54958C2.40042 1.60702 2.30856 1.70962 2.26462 1.83481C2.22068 1.95999 2.22827 2.0975 2.28572 2.21708C2.34317 2.33667 2.44577 2.42854 2.57095 2.47247L2.74495 2.53314C3.19029 2.68981 3.48295 2.79314 3.69829 2.89914C3.90029 2.99847 3.98895 3.07914 4.04762 3.16447C4.10762 3.25247 4.15429 3.37381 4.18095 3.61581C4.20762 3.86914 4.20895 4.19914 4.20895 4.69247V6.42714C4.20895 8.38847 4.25095 9.03514 4.82895 9.64447C5.40629 10.2538 6.33562 10.2538 8.19562 10.2538H11.7303C12.771 10.2538 13.2916 10.2538 13.659 9.95381C14.027 9.65381 14.1323 9.14447 14.3423 8.12581L14.6756 6.50914C14.907 5.34914 15.0223 4.76981 14.7263 4.38514C14.4303 4.00047 13.4196 4.00047 12.2963 4.00047H5.20362C5.20078 3.83615 5.19122 3.67201 5.17495 3.50847C5.13895 3.17714 5.06162 2.87514 4.87362 2.60047C4.68429 2.32314 4.43229 2.14581 4.13829 2.00114C3.86362 1.86647 3.51429 1.74381 3.10362 1.59914L2.90229 1.52847ZM9.54229 5.50047C9.67489 5.50047 9.80207 5.55315 9.89584 5.64692C9.98961 5.74069 10.0423 5.86787 10.0423 6.00047V6.83381H10.8756C11.0082 6.83381 11.1354 6.88649 11.2292 6.98025C11.3229 7.07402 11.3756 7.2012 11.3756 7.33381C11.3756 7.46642 11.3229 7.59359 11.2292 7.68736C11.1354 7.78113 11.0082 7.83381 10.8756 7.83381H10.0423V8.66714C10.0423 8.79975 9.98961 8.92693 9.89584 9.02069C9.80207 9.11446 9.67489 9.16714 9.54229 9.16714C9.40968 9.16714 9.2825 9.11446 9.18873 9.02069C9.09496 8.92693 9.04229 8.79975 9.04229 8.66714V7.83381H8.20895C8.07634 7.83381 7.94917 7.78113 7.8554 7.68736C7.76163 7.59359 7.70895 7.46642 7.70895 7.33381C7.70895 7.2012 7.76163 7.07402 7.8554 6.98025C7.94917 6.88649 8.07634 6.83381 8.20895 6.83381H9.04229V6.00047C9.04229 5.86787 9.09496 5.74069 9.18873 5.64692C9.2825 5.55315 9.40968 5.50047 9.54229 5.50047Z" fill="#1E2B62"/>
    <path d="M5.87562 12.0005C6.14084 12.0005 6.39519 12.1058 6.58273 12.2934C6.77026 12.4809 6.87562 12.7353 6.87562 13.0005C6.87562 13.2657 6.77026 13.52 6.58273 13.7076C6.39519 13.8951 6.14084 14.0005 5.87562 14.0005C5.6104 14.0005 5.35605 13.8951 5.16851 13.7076C4.98098 13.52 4.87562 13.2657 4.87562 13.0005C4.87562 12.7353 4.98098 12.4809 5.16851 12.2934C5.35605 12.1058 5.6104 12.0005 5.87562 12.0005ZM11.8756 12.0005C12.1408 12.0005 12.3952 12.1058 12.5827 12.2934C12.7703 12.4809 12.8756 12.7353 12.8756 13.0005C12.8756 13.2657 12.7703 13.52 12.5827 13.7076C12.3952 13.8951 12.1408 14.0005 11.8756 14.0005C11.6104 14.0005 11.356 13.8951 11.1685 13.7076C10.981 13.52 10.8756 13.2657 10.8756 13.0005C10.8756 12.7353 10.981 12.4809 11.1685 12.2934C11.356 12.1058 11.6104 12.0005 11.8756 12.0005Z" fill="#1E2B62"/>
    </svg>