<svg xmlns="http://www.w3.org/2000/svg" width="16" height="17" viewBox="0 0 16 17" fill="none">
    <path d="M8.50106 8.49204V5.86121C8.50106 5.71954 8.45311 5.60076 8.35722 5.50487C8.26134 5.4091 8.14256 5.36121 8.00089 5.36121C7.85911 5.36121 7.74039 5.4091 7.64472 5.50487C7.54895 5.60076 7.50106 5.71954 7.50106 5.86121V8.64587C7.50106 8.72432 7.51561 8.80032 7.54472 8.87387C7.57372 8.94743 7.61945 9.01543 7.68189 9.07787L9.96522 11.3612C10.0574 11.4535 10.1734 11.5008 10.3132 11.5029C10.453 11.505 10.5712 11.4578 10.6677 11.3612C10.7643 11.2647 10.8126 11.1475 10.8126 11.0099C10.8126 10.8723 10.7643 10.7553 10.6677 10.6587L8.50106 8.49204ZM8.00222 15.0279C7.12622 15.0279 6.30284 14.8617 5.53206 14.5292C4.76128 14.1968 4.09084 13.7456 3.52072 13.1757C2.95061 12.6058 2.49922 11.9357 2.16656 11.1652C1.834 10.3948 1.66772 9.5716 1.66772 8.69571C1.66772 7.81971 1.83395 6.99632 2.16639 6.22554C2.49884 5.45476 2.95 4.78432 3.51989 4.21421C4.08978 3.64409 4.75995 3.19271 5.53039 2.86004C6.30084 2.52748 7.124 2.36121 7.99989 2.36121C8.87589 2.36121 9.69928 2.52743 10.4701 2.85987C11.2408 3.19232 11.9113 3.64348 12.4814 4.21337C13.0515 4.78326 13.5029 5.45343 13.8356 6.22387C14.1681 6.99432 14.3344 7.81748 14.3344 8.69337C14.3344 9.56937 14.1682 10.3928 13.8357 11.1635C13.5033 11.9343 13.0521 12.6048 12.4822 13.1749C11.9123 13.745 11.2422 14.1964 10.4717 14.529C9.70128 14.8616 8.87811 15.0279 8.00222 15.0279ZM8.00106 14.0279C9.47884 14.0279 10.7372 13.5084 11.7761 12.4695C12.8149 11.4307 13.3344 10.1723 13.3344 8.69454C13.3344 7.21676 12.8149 5.95843 11.7761 4.91954C10.7372 3.88065 9.47884 3.36121 8.00106 3.36121C6.52328 3.36121 5.26495 3.88065 4.22606 4.91954C3.18717 5.95843 2.66772 7.21676 2.66772 8.69454C2.66772 10.1723 3.18717 11.4307 4.22606 12.4695C5.26495 13.5084 6.52328 14.0279 8.00106 14.0279Z" fill="#1E2B62"/>
  </svg>