<svg xmlns="http://www.w3.org/2000/svg" width="18" height="19" viewBox="0 0 18 19" fill="none">
  <path d="M2.27222 5.29591C2.27222 4.93411 2.53011 4.64034 2.84855 4.64034H4.84066C5.23609 4.62838 5.58517 4.34209 5.71972 3.919L5.74215 3.84424L5.82811 3.55197C5.88044 3.37257 5.92604 3.21559 5.99032 3.07581C6.24298 2.5234 6.71092 2.13993 7.25137 2.042C7.38891 2.01733 7.53393 2.01733 7.69987 2.01733H10.2997C10.4664 2.01733 10.6114 2.01733 10.7482 2.042C11.2887 2.13993 11.7573 2.5234 12.0093 3.07581C12.0735 3.21559 12.1191 3.37182 12.1722 3.55197L12.2574 3.84424L12.2799 3.919C12.4144 4.34209 12.833 4.62913 13.2292 4.64034H15.1503C15.4695 4.64034 15.7274 4.93411 15.7274 5.29591C15.7274 5.6577 15.4695 5.95147 15.151 5.95147H2.8478C2.53011 5.95147 2.27222 5.6577 2.27222 5.29591Z" fill="#637381"/>
  <path fill-rule="evenodd" clip-rule="evenodd" d="M8.6978 16.9675H9.30178C11.3821 16.9675 12.4219 16.9675 13.0991 16.3052C13.7749 15.6429 13.8436 14.5568 13.9819 12.3845L14.1815 9.25396C14.2563 8.07514 14.2936 7.48536 13.955 7.11235C13.6157 6.7386 13.0431 6.7386 11.8971 6.7386H6.10245C4.95652 6.7386 4.38318 6.7386 4.04456 7.11235C3.70519 7.48611 3.74257 8.07514 3.81806 9.25396L4.01765 12.3845C4.15594 14.5568 4.22471 15.6437 4.9012 16.3052C5.5777 16.9675 6.61748 16.9675 8.6978 16.9675ZM7.68866 9.6337C7.65876 9.30928 7.38368 9.07307 7.0757 9.10521C6.76698 9.13735 6.54273 9.42664 6.57338 9.75106L6.94713 13.6852C6.97703 14.0096 7.25212 14.2458 7.56009 14.2137C7.86881 14.1815 8.09306 13.8923 8.06242 13.5678L7.68866 9.6337ZM10.9246 9.10521C11.2326 9.13735 11.4576 9.42664 11.4262 9.75106L11.0524 13.6852C11.0225 14.0096 10.7467 14.2458 10.4395 14.2137C10.1308 14.1815 9.90652 13.8923 9.93717 13.5678L10.3109 9.6337C10.3408 9.30928 10.6174 9.07307 10.9246 9.10521Z" fill="#637381"/>
</svg>