<svg xmlns="http://www.w3.org/2000/svg" width="25" height="21" viewBox="0 0 25 21" fill="none">
    <g clip-path="url(#clip0_2914_25797)">
      <path d="M24.5 18.7026C24.4298 18.9146 24.3813 19.1369 24.2858 19.3369C23.7935 20.368 22.9555 20.8369 21.8256 20.836C17.7334 20.8326 13.6412 20.8347 9.54892 20.8347C7.41725 20.8347 5.28557 20.8312 3.15391 20.8363C2.28017 20.8384 1.55212 20.5401 1.01138 19.8402C0.677299 19.4078 0.502869 18.9149 0.502003 18.3652C0.50097 17.7092 0.50076 17.0532 0.50196 16.3972C0.502646 16.0225 0.678935 15.8428 1.05445 15.8206C1.36491 15.8023 1.68422 15.8181 1.98359 15.7491C2.91878 15.5338 3.57451 14.6271 3.49465 13.7083C3.40513 12.6782 2.64309 11.9138 1.63505 11.848C1.43271 11.8348 1.22896 11.8437 1.0265 11.8316C0.678939 11.8108 0.503107 11.6234 0.502187 11.2768C0.500403 10.6052 0.498061 9.93352 0.502763 9.26193C0.511388 8.02998 1.5106 6.95361 2.73734 6.83915C2.88192 6.82566 3.02665 6.77855 3.16397 6.72733C8.32829 4.80088 13.4917 2.872 18.6554 0.943762C19.5271 0.618242 20.3989 1.03211 20.7005 1.919C21.2342 3.48842 21.7651 5.05884 22.2944 6.62973C22.3386 6.76079 22.3869 6.85248 22.5452 6.89225C23.59 7.15464 24.2275 7.81957 24.4589 8.87296C24.4651 8.90132 24.486 8.92646 24.5 8.9531V11.4842C24.3636 11.7507 24.1429 11.8543 23.8488 11.8375C23.686 11.8282 23.5214 11.8375 23.3582 11.8481C22.5301 11.9021 21.8242 12.4653 21.5919 13.2534C21.3531 14.0634 21.638 14.914 22.3019 15.4203C22.7576 15.7678 23.2777 15.8452 23.8257 15.8188C24.1242 15.8045 24.3592 15.8932 24.5 16.1714C24.5 17.0152 24.5 17.8589 24.5 18.7026ZM1.53129 10.8135C3.29581 10.874 4.48278 12.2838 4.50375 13.7548C4.51402 14.4757 4.30768 15.1255 3.85565 15.6875C3.25979 16.4283 2.47513 16.8048 1.50851 16.839C1.50851 17.1575 1.5034 17.4611 1.50995 17.7644C1.51651 18.0682 1.49428 18.3803 1.5559 18.6737C1.70241 19.3715 2.31376 19.8249 3.06586 19.8265C4.81529 19.8302 6.56473 19.8278 8.31417 19.8271C8.36658 19.8271 8.41898 19.8189 8.499 19.8122C8.499 19.6403 8.48839 19.4768 8.50127 19.3152C8.52573 19.0082 8.7351 18.8181 9.01988 18.8278C9.30337 18.8375 9.4948 19.0455 9.50006 19.3529C9.50268 19.5063 9.50052 19.6597 9.50052 19.8277C9.62263 19.8277 9.71507 19.8277 9.8075 19.8277C13.2829 19.8277 16.7584 19.8277 20.2338 19.8277C20.8118 19.8277 21.3898 19.8333 21.9676 19.8261C22.7057 19.817 23.3644 19.3348 23.4475 18.6426C23.5184 18.0519 23.4622 17.4459 23.4622 16.8463C21.6657 16.7857 20.4886 15.3281 20.4931 13.8196C20.4976 12.2992 21.702 10.87 23.4928 10.8112C23.4928 10.3616 23.4951 9.9105 23.4923 9.45941C23.4861 8.44016 22.8725 7.82832 21.8557 7.82817C17.8257 7.82758 13.7958 7.82792 9.76583 7.82792H9.50058C9.50058 7.98789 9.50117 8.11928 9.50047 8.25067C9.49859 8.60123 9.32247 8.8142 9.02454 8.82703C8.71574 8.84034 8.51062 8.62889 8.4956 8.27483C8.48946 8.13017 8.49458 7.98504 8.49458 7.83288C6.60705 7.83288 4.75638 7.815 2.90638 7.84203C2.20466 7.85228 1.59125 8.42011 1.54067 9.06778C1.49592 9.64085 1.53129 10.2202 1.53129 10.8135ZM21.2565 6.80474C21.2607 6.76751 21.2677 6.75071 21.2633 6.73777C20.7499 5.21995 20.2385 3.70142 19.7188 2.18573C19.6178 1.89098 19.3599 1.7808 19.0608 1.87319C18.994 1.89384 18.9287 1.91959 18.8631 1.94409C15.0737 3.35924 11.2842 4.77442 7.49483 6.18987C6.98225 6.38134 6.47021 6.57424 5.95792 6.76648C5.96076 6.77923 5.9636 6.79198 5.96644 6.80474H21.2565Z" fill="white"/>
      <path d="M9.50074 11.7179C9.50074 11.9907 9.50353 12.2636 9.49998 12.5364C9.49611 12.8346 9.2948 13.0533 9.01917 13.0665C8.75404 13.0791 8.51149 12.8672 8.50374 12.5713C8.48884 12.0027 8.48846 11.4332 8.50199 10.8646C8.50944 10.5515 8.74725 10.3448 9.03067 10.3621C9.30442 10.3788 9.49716 10.5968 9.50019 10.8994C9.50292 11.1722 9.50077 11.445 9.50074 11.7179Z" fill="white"/>
      <path d="M9.50089 15.9478C9.50089 16.2206 9.50367 16.4934 9.50014 16.7662C9.49629 17.0638 9.29378 17.2818 9.01892 17.2918C8.75264 17.3014 8.51534 17.1082 8.50773 16.8234C8.49193 16.2318 8.49187 15.639 8.50969 15.0475C8.51809 14.7687 8.77441 14.5687 9.03137 14.5891C9.3014 14.6105 9.49549 14.8204 9.49991 15.106C9.50426 15.3865 9.50086 15.6672 9.50089 15.9478Z" fill="white"/>
    </g>
    <defs>
      <clipPath id="clip0_2914_25797">
        <rect width="24" height="20.0031" fill="white" transform="translate(0.5 0.833252)"/>
      </clipPath>
    </defs>
  </svg>