<svg xmlns="http://www.w3.org/2000/svg"  viewBox="0 0 160 52" fill="none">
    <g filter="url(#filter0_d_5448_39986)">
      <path d="M4.04821 7.86992C4.02159 4.55632 6.68621 1.84853 9.99981 1.8219L149.479 0.701058C152.792 0.67443 155.5 3.33905 155.527 6.65265L155.606 16.5573L150.731 16.5964C148.665 16.6131 147.003 18.302 147.019 20.3687C147.036 22.4355 148.725 24.0975 150.792 24.0809L155.666 24.0417L155.766 36.4411C155.793 39.7547 153.128 42.4625 149.814 42.4892L10.3356 43.61C7.02201 43.6366 4.31422 40.972 4.28759 37.6584L4.18795 25.259L9.06277 25.2198C11.1295 25.2032 12.7915 23.5143 12.7749 21.4475C12.7583 19.3807 11.0694 17.7188 9.00262 17.7354L4.12781 17.7745L4.04821 7.86992Z" fill="#FC8E28"/>
    </g>
    <defs>
      <filter id="filter0_d_5448_39986" x="0.0480957" y="0.700867" width="159.718" height="50.9093" filterUnits="userSpaceOnUse" color-interpolation-filters="sRGB">
        <feFlood flood-opacity="0" result="BackgroundImageFix"/>
        <feColorMatrix in="SourceAlpha" type="matrix" values="0 0 0 0 0 0 0 0 0 0 0 0 0 0 0 0 0 0 127 0" result="hardAlpha"/>
        <feOffset dy="4"/>
        <feGaussianBlur stdDeviation="2"/>
        <feComposite in2="hardAlpha" operator="out"/>
        <feColorMatrix type="matrix" values="0 0 0 0 0 0 0 0 0 0 0 0 0 0 0 0 0 0 0.25 0"/>
        <feBlend mode="normal" in2="BackgroundImageFix" result="effect1_dropShadow_5448_39986"/>
        <feBlend mode="normal" in="SourceGraphic" in2="effect1_dropShadow_5448_39986" result="shape"/>
      </filter>
    </defs>
  </svg>