<svg xmlns="http://www.w3.org/2000/svg" width="13" height="13" viewBox="0 0 13 13" fill="none">
    <path d="M6.58475 0.335938C7.3729 0.335938 8.12876 0.649026 8.68606 1.20633C9.24337 1.76363 9.55645 2.51949 9.55645 3.30764C9.55645 4.09578 9.24337 4.85164 8.68606 5.40894C8.12876 5.96625 7.3729 6.27934 6.58475 6.27934C5.79661 6.27934 5.04075 5.96625 4.48345 5.40894C3.92614 4.85164 3.61306 4.09578 3.61306 3.30764C3.61306 2.51949 3.92614 1.76363 4.48345 1.20633C5.04075 0.649026 5.79661 0.335938 6.58475 0.335938ZM6.58475 7.76518C9.86848 7.76518 12.5282 9.09502 12.5282 10.7369V12.2227H0.641357V10.7369C0.641357 9.09502 3.30103 7.76518 6.58475 7.76518Z" fill="white"/>
  </svg>