<svg width="221" height="221" viewBox="0 0 221 221" fill="none" xmlns="http://www.w3.org/2000/svg">
    <path style="mix-blend-mode:screen" d="M134.448 3.56532C193.94 17.3776 230.591 76.3451 217.312 135.313C203.501 194.812 144.54 231.467 85.5798 218.186C26.088 204.374 -10.5632 145.406 2.71624 86.4387C15.9957 27.4711 75.4875 -9.71567 134.448 3.56532Z" fill="url(#paint0_radial_5472_225299)"/>
    <path style="mix-blend-mode:screen" d="M134.448 3.56532C193.94 17.3776 230.591 76.3451 217.312 135.313C203.501 194.812 144.54 231.467 85.5798 218.186C26.088 204.374 -10.5632 145.406 2.71624 86.4387C15.9957 27.4711 75.4875 -9.71567 134.448 3.56532Z" fill="url(#paint1_radial_5472_225299)" fill-opacity="0.7"/>
    <path style="mix-blend-mode:screen" d="M134.448 3.56532C193.94 17.3776 230.591 76.3451 217.312 135.313C203.501 194.812 144.54 231.467 85.5798 218.186C26.088 204.374 -10.5632 145.406 2.71624 86.4387C15.9957 27.4711 75.4875 -9.71567 134.448 3.56532Z" fill="url(#paint2_radial_5472_225299)" fill-opacity="0.7"/>
    <path d="M121.552 180.12L74.4378 155.733L71.5037 126.408L67.2949 84.4646L122.562 113.75L121.552 180.12Z" fill="#F7971D"/>
    <path d="M122.562 113.75L109.727 145.832L71.5037 126.408L67.2949 84.4646L122.562 113.75Z" fill="#BB6028"/>
    <path d="M168.288 91.8719L168.047 93.9563L164.183 127.586L161.145 154.009L121.551 180.119L122.409 123.85L122.561 113.749L167.895 92.0563L168.288 91.8719Z" fill="#BB6028"/>
    <path d="M168.047 93.9562L164.183 127.586L132.229 147.588L122.408 123.85L122.561 113.749L167.895 92.0563C167.943 92.6335 167.991 93.2748 168.047 93.9562Z" fill="#934120"/>
    <path d="M168.289 91.872L122.562 113.749L113.246 108.811L113.158 108.763L112.605 108.475L67.2949 84.4646L113.952 65.8258L168.289 91.872Z" fill="#934120"/>
    <path d="M168.291 91.872L122.564 113.749L113.248 108.811L113.16 108.763L113.954 65.8258L168.291 91.872Z" fill="#80341A"/>
    <path d="M113.246 108.811L113.157 108.763L112.604 108.475C111.602 91.2146 113.951 65.8258 113.951 65.8258C114.64 68.1106 114.432 96.5537 113.246 108.811Z" fill="#662816"/>
    <path d="M122.562 113.75C122.562 113.75 119.628 149.937 121.552 180.12C122.386 170.099 123.324 120.588 122.562 113.75Z" fill="#934120"/>
    <path d="M115.669 169.201L115.925 171.91L105.984 166.555L106.049 164.278L115.669 169.201Z" fill="#333232"/>
    <path d="M115.7 163.413L116.013 166.708L103.932 160.198L104.012 157.44L115.7 163.413Z" fill="#333232"/>
    <path d="M122.561 113.749L135.844 137.302L177.86 113.749L168.288 91.8719L122.561 113.749Z" fill="#D57B28"/>
    <path d="M122.562 113.75L107.515 139.828L53.875 110.896L67.2949 84.4646L122.562 113.75Z" fill="#D57B28"/>
    <path d="M113.951 65.8258L134.738 73.0568L183.095 97.2672L168.288 91.872L113.951 65.8258Z" fill="#D57B28"/>
    <g clip-path="url(#clip0_5472_225299)">
    <path opacity="0.66" d="M103.251 78.8599C101.313 78.5329 99.4584 79.7358 99.1083 81.542C98.7582 83.3522 100.042 85.0845 101.98 85.4115C103.918 85.7385 105.773 84.5356 106.123 82.7293C106.473 80.9192 105.189 79.1869 103.251 78.8599ZM102.051 85.0494C100.33 84.7575 99.1833 83.2159 99.4959 81.6082C99.8085 80.0005 101.459 78.93 103.18 79.2219C104.902 79.5139 106.048 81.0554 105.735 82.6631C105.423 84.2709 103.772 85.3414 102.051 85.0494Z" fill="#FFFEFE"/>
    <path opacity="0.66" d="M102.989 80.8295C102.889 81.355 102.347 81.7054 101.788 81.608C101.226 81.5146 100.851 81.0086 100.955 80.483C101.055 79.9575 101.597 79.6071 102.159 79.7045C102.722 79.7979 103.097 80.304 102.993 80.8256L102.989 80.8295Z" fill="#FFFEFE"/>
    <path opacity="0.66" d="M91.2328 57.7336C92.2915 59.1584 94.388 59.5127 95.9135 58.5239C97.439 57.5351 97.8183 55.577 96.7596 54.1523C95.7009 52.7275 93.6044 52.3733 92.0789 53.362C90.5534 54.3508 90.1741 56.3089 91.2328 57.7336ZM96.4553 54.3508C97.3973 55.6199 97.0597 57.3599 95.7009 58.2397C94.3422 59.1195 92.4791 58.8042 91.5371 57.5351C90.5951 56.2661 90.9327 54.526 92.2915 53.6462C93.6503 52.7664 95.5134 53.0817 96.4553 54.3508Z" fill="#FFFEFE"/>
    <path opacity="0.66" d="M92.8167 56.585C93.2585 56.297 93.867 56.4021 94.1755 56.8147C94.4839 57.2273 94.3714 57.7957 93.9295 58.0837C93.4877 58.3718 92.8792 58.2667 92.5708 57.8541C92.2623 57.4414 92.3749 56.8731 92.8167 56.585Z" fill="#FFFEFE"/>
    <path opacity="0.66" d="M103.065 42.143C103.924 43.3031 105.629 43.5912 106.871 42.7854C108.113 41.9834 108.421 40.3913 107.559 39.2312C106.7 38.0712 104.995 37.7831 103.753 38.5889C102.511 39.3908 102.203 40.983 103.065 42.143ZM107.308 39.3947C108.075 40.4263 107.8 41.8394 106.696 42.5557C105.591 43.272 104.078 43.015 103.311 41.9834C102.544 40.9519 102.82 39.5388 103.924 38.8225C105.029 38.1062 106.542 38.3631 107.308 39.3947Z" fill="#FFFEFE"/>
    <path opacity="0.66" d="M104.353 41.2087C104.711 40.9752 105.207 41.0608 105.457 41.3956C105.708 41.7304 105.616 42.1936 105.257 42.4272C104.899 42.6608 104.403 42.5751 104.153 42.2403C103.903 41.9055 103.994 41.4423 104.353 41.2087Z" fill="#FFFEFE"/>
    <path opacity="0.66" d="M132.271 63.6934C131.213 62.2686 129.116 61.9144 127.591 62.9032C126.065 63.8919 125.686 65.85 126.745 67.2748C127.803 68.6995 129.9 69.0538 131.425 68.065C132.951 67.0762 133.33 65.1182 132.271 63.6934ZM131.967 63.8919C132.909 65.161 132.571 66.9011 131.213 67.7808C129.854 68.6606 127.991 68.3453 127.049 67.0762C126.107 65.8072 126.444 64.0671 127.803 63.1873C129.162 62.3076 131.025 62.6229 131.967 63.8919Z" fill="#FFFEFE"/>
    <path opacity="0.66" d="M130.371 66.4692C130.062 66.0566 129.454 65.9515 129.012 66.2396C128.57 66.5276 128.458 67.096 128.766 67.5086C129.075 67.9213 129.683 68.0264 130.125 67.7383C130.567 67.4502 130.679 66.8819 130.371 66.4692Z" fill="#FFFEFE"/>
    <path opacity="0.66" d="M120.49 54.8489C119.902 54.0547 118.735 53.8562 117.885 54.409C117.034 54.9579 116.822 56.0478 117.414 56.842C118.001 57.6361 119.168 57.8346 120.019 57.2819C120.869 56.733 121.081 55.643 120.49 54.8489ZM120.319 54.9579C120.844 55.6624 120.656 56.6318 119.898 57.1222C119.143 57.6127 118.105 57.4376 117.58 56.7291C117.055 56.0245 117.243 55.0552 118.001 54.5647C118.756 54.0742 119.793 54.2494 120.319 54.9579Z" fill="#FFFEFE"/>
    <path opacity="0.66" d="M119.429 56.3943C119.258 56.1646 118.921 56.1063 118.671 56.2659C118.421 56.4255 118.362 56.7408 118.533 56.9743C118.704 57.204 119.042 57.2624 119.292 57.1028C119.542 56.9432 119.6 56.6279 119.429 56.3943Z" fill="#FFFEFE"/>
    <path opacity="0.66" d="M135.776 56.036C135.48 55.6389 134.896 55.5416 134.471 55.8141C134.046 56.0866 133.942 56.6355 134.234 57.0325C134.529 57.4296 135.113 57.5269 135.538 57.2544C135.963 56.978 136.067 56.433 135.776 56.036ZM135.692 56.0905C135.955 56.4447 135.859 56.9274 135.484 57.1727C135.105 57.4179 134.588 57.3284 134.325 56.978C134.063 56.6238 134.159 56.1411 134.534 55.8958C134.909 55.6506 135.43 55.7401 135.692 56.0905Z" fill="#FFFEFE"/>
    <path opacity="0.66" d="M135.25 56.811C135.163 56.6941 134.996 56.6668 134.871 56.7486C134.746 56.8305 134.717 56.9863 134.804 57.1032C134.892 57.22 135.059 57.2473 135.184 57.1655C135.309 57.0837 135.338 56.9279 135.25 56.811Z" fill="#FFFEFE"/>
    <path opacity="0.66" d="M122.549 82.3139C122.253 81.9169 121.67 81.8195 121.245 82.092C120.819 82.3645 120.715 82.9134 121.007 83.3105C121.303 83.7075 121.886 83.8049 122.312 83.5324C122.737 83.256 122.841 82.711 122.549 82.3139ZM122.466 82.3684C122.728 82.7227 122.633 83.2054 122.257 83.4506C121.878 83.6959 121.361 83.6063 121.099 83.256C120.836 82.9017 120.932 82.419 121.307 82.1738C121.682 81.9285 122.203 82.0181 122.466 82.3684Z" fill="#FFFEFE"/>
    <path opacity="0.66" d="M122.024 83.0889C121.936 82.9721 121.769 82.9448 121.644 83.0266C121.519 83.1084 121.49 83.2642 121.578 83.3811C121.665 83.498 121.832 83.5253 121.957 83.4435C122.082 83.3616 122.111 83.2058 122.024 83.0889Z" fill="#FFFEFE"/>
    </g>
    <path opacity="0.66" d="M85.2894 38.5097C84.9935 38.1127 84.4099 38.0153 83.9848 38.2878C83.5597 38.5603 83.4555 39.1092 83.7472 39.5063C84.0432 39.9033 84.6267 40.0007 85.0518 39.7282C85.477 39.4518 85.5812 38.9068 85.2894 38.5097ZM85.206 38.5642C85.4686 38.9185 85.3728 39.4012 84.9976 39.6464C84.6183 39.8917 84.1015 39.8021 83.8389 39.4518C83.5763 39.0975 83.6722 38.6148 84.0473 38.3696C84.4225 38.1243 84.9435 38.2139 85.206 38.5642Z" fill="#FFFEFE"/>
    <path opacity="0.66" d="M84.7639 39.2847C84.6764 39.1679 84.5097 39.1406 84.3847 39.2224C84.2596 39.3042 84.2304 39.46 84.318 39.5769C84.4055 39.6938 84.5722 39.7211 84.6973 39.6393C84.8223 39.5574 84.8515 39.4016 84.7639 39.2847Z" fill="#FFFEFE"/>
    <path opacity="0.66" d="M127.777 32.8447C127.189 32.0506 126.022 31.852 125.172 32.4048C124.321 32.9537 124.109 34.0437 124.701 34.8378C125.288 35.6319 126.455 35.8305 127.306 35.2777C128.156 34.7288 128.368 33.6388 127.777 32.8447ZM127.606 32.9537C128.131 33.6583 127.943 34.6276 127.185 35.1181C126.43 35.6086 125.393 35.4334 124.867 34.7249C124.342 34.0203 124.53 33.051 125.288 32.5605C126.043 32.07 127.081 32.2452 127.606 32.9537Z" fill="#FFFEFE"/>
    <path opacity="0.66" d="M126.716 34.3902C126.545 34.1605 126.208 34.1021 125.958 34.2617C125.708 34.4213 125.649 34.7366 125.82 34.9702C125.991 35.1999 126.329 35.2583 126.579 35.0987C126.829 34.9391 126.887 34.6237 126.716 34.3902Z" fill="#FFFEFE"/>
    <path opacity="0.66" d="M130.076 92.0613C128.137 91.7343 126.283 92.9372 125.933 94.7434C125.582 96.5536 126.866 98.2859 128.804 98.6129C130.742 98.9399 132.597 97.737 132.947 95.9307C133.297 94.1206 132.014 92.3883 130.076 92.0613ZM128.875 98.2509C127.154 97.9589 126.008 96.4173 126.32 94.8096C126.633 93.2019 128.283 92.1314 130.005 92.4233C131.726 92.7153 132.872 94.2568 132.56 95.8646C132.247 97.4723 130.597 98.5428 128.875 98.2509Z" fill="#FFFEFE"/>
    <path opacity="0.66" d="M129.813 94.0308C129.713 94.5563 129.171 94.9067 128.613 94.8093C128.05 94.7159 127.675 94.2099 127.779 93.6843C127.879 93.1588 128.421 92.8084 128.984 92.9058C129.546 92.9992 129.921 93.5053 129.817 94.0269L129.813 94.0308Z" fill="#FFFEFE"/>
    <path opacity="0.66" d="M142.084 43.0656C143.143 44.4903 145.24 44.8446 146.765 43.8558C148.291 42.867 148.67 40.9089 147.611 39.4842C146.552 38.0594 144.456 37.7052 142.93 38.6939C141.405 39.6827 141.026 41.6408 142.084 43.0656ZM147.307 39.6827C148.249 40.9518 147.911 42.6918 146.552 43.5716C145.194 44.4514 143.331 44.1361 142.389 42.867C141.447 41.598 141.784 39.8579 143.143 38.9781C144.502 38.0983 146.365 38.4137 147.307 39.6827Z" fill="#FFFEFE"/>
    <path opacity="0.66" d="M143.668 41.9169C144.11 41.6289 144.719 41.734 145.027 42.1466C145.335 42.5592 145.223 43.1276 144.781 43.4157C144.339 43.7037 143.731 43.5986 143.422 43.186C143.114 42.7733 143.226 42.205 143.668 41.9169Z" fill="#FFFEFE"/>
    <path style="mix-blend-mode:screen" d="M55.4408 136.503C55.0967 139.599 52.2582 141.75 49.2476 141.405C46.1511 141.061 44.0006 138.223 44.3447 135.212C44.6888 132.116 47.5273 129.965 50.5379 130.309C53.6344 130.653 55.7848 133.492 55.4408 136.503Z" fill="url(#paint3_radial_5472_225299)"/>
    <path style="mix-blend-mode:screen" d="M163.527 130.799C168.516 130.455 172.817 134.239 173.161 139.228C173.505 144.217 169.721 148.518 164.732 148.862C159.743 149.206 155.442 145.421 155.098 140.432C154.754 135.443 158.539 131.143 163.527 130.885V130.799Z" fill="url(#paint4_radial_5472_225299)"/>
    <path style="mix-blend-mode:screen" d="M65.52 125.818C66.8963 126.162 67.7564 127.452 67.4124 128.828C67.0683 130.204 65.692 131.065 64.4018 130.721C63.0256 130.377 62.1654 129.086 62.5095 127.71C62.8535 126.334 64.1438 125.474 65.52 125.818Z" fill="url(#paint5_radial_5472_225299)"/>
    <defs>
    <radialGradient id="paint0_radial_5472_225299" cx="0" cy="0" r="1" gradientUnits="userSpaceOnUse" gradientTransform="translate(110.687 111.297) rotate(-77.1015) scale(109.966 109.954)">
    <stop stop-color="white"/>
    <stop offset="0.03" stop-color="#6BFFFF"/>
    <stop offset="0.09" stop-color="#47A9A9"/>
    <stop offset="0.16" stop-color="#3B8E8E"/>
    <stop offset="0.3" stop-color="#2C6A6A"/>
    <stop offset="0.43" stop-color="#204C4C"/>
    <stop offset="0.61" stop-color="#112929"/>
    <stop offset="0.81" stop-color="#050D0D"/>
    <stop offset="1"/>
    </radialGradient>
    <radialGradient id="paint1_radial_5472_225299" cx="0" cy="0" r="1" gradientUnits="userSpaceOnUse" gradientTransform="translate(110.687 111.297) rotate(-77.1015) scale(109.966 109.954)">
    <stop stop-color="white"/>
    <stop offset="0.03" stop-color="#6BFFFF"/>
    <stop offset="0.09" stop-color="#47A9A9"/>
    <stop offset="0.16" stop-color="#3B8E8E"/>
    <stop offset="0.3" stop-color="#2C6A6A"/>
    <stop offset="0.43" stop-color="#204C4C"/>
    <stop offset="0.61" stop-color="#112929"/>
    <stop offset="0.81" stop-color="#050D0D"/>
    <stop offset="1"/>
    </radialGradient>
    <radialGradient id="paint2_radial_5472_225299" cx="0" cy="0" r="1" gradientUnits="userSpaceOnUse" gradientTransform="translate(110.687 111.297) rotate(-77.1015) scale(109.966 109.954)">
    <stop stop-color="white"/>
    <stop offset="0.03" stop-color="#6BFFFF"/>
    <stop offset="0.09" stop-color="#47A9A9"/>
    <stop offset="0.16" stop-color="#3B8E8E"/>
    <stop offset="0.3" stop-color="#2C6A6A"/>
    <stop offset="0.43" stop-color="#204C4C"/>
    <stop offset="0.61" stop-color="#112929"/>
    <stop offset="0.81" stop-color="#050D0D"/>
    <stop offset="1"/>
    </radialGradient>
    <radialGradient id="paint3_radial_5472_225299" cx="0" cy="0" r="1" gradientUnits="userSpaceOnUse" gradientTransform="translate(50.0061 135.897) rotate(6.89999) scale(5.59104 5.59103)">
    <stop stop-color="white"/>
    <stop offset="0.03" stop-color="#6BFFFF"/>
    <stop offset="0.09" stop-color="#47A9A9"/>
    <stop offset="0.16" stop-color="#3B8E8E"/>
    <stop offset="0.3" stop-color="#2C6A6A"/>
    <stop offset="0.43" stop-color="#204C4C"/>
    <stop offset="0.61" stop-color="#112929"/>
    <stop offset="0.81" stop-color="#050D0D"/>
    <stop offset="1"/>
    </radialGradient>
    <radialGradient id="paint4_radial_5472_225299" cx="0" cy="0" r="1" gradientUnits="userSpaceOnUse" gradientTransform="translate(164.008 137.949) rotate(-93.6) scale(9.03167)">
    <stop stop-color="white"/>
    <stop offset="0.03" stop-color="#6BFFFF"/>
    <stop offset="0.09" stop-color="#47A9A9"/>
    <stop offset="0.16" stop-color="#3B8E8E"/>
    <stop offset="0.3" stop-color="#2C6A6A"/>
    <stop offset="0.43" stop-color="#204C4C"/>
    <stop offset="0.61" stop-color="#112929"/>
    <stop offset="0.81" stop-color="#050D0D"/>
    <stop offset="1"/>
    </radialGradient>
    <radialGradient id="paint5_radial_5472_225299" cx="0" cy="0" r="1" gradientUnits="userSpaceOnUse" gradientTransform="translate(64.985 128.265) rotate(-77.1) scale(2.49446)">
    <stop stop-color="white"/>
    <stop offset="0.03" stop-color="#6BFFFF"/>
    <stop offset="0.09" stop-color="#47A9A9"/>
    <stop offset="0.16" stop-color="#3B8E8E"/>
    <stop offset="0.3" stop-color="#2C6A6A"/>
    <stop offset="0.43" stop-color="#204C4C"/>
    <stop offset="0.61" stop-color="#112929"/>
    <stop offset="0.81" stop-color="#050D0D"/>
    <stop offset="1"/>
    </radialGradient>
    <clipPath id="clip0_5472_225299">
    <rect width="45.3147" height="47.3287" fill="white" transform="translate(90.6309 38.1335)"/>
    </clipPath>
    </defs>
    </svg>
    