<svg width="16" height="18" viewBox="0 0 16 18" fill="none" xmlns="http://www.w3.org/2000/svg">
    <path d="M5.03211 17.2962C4.65565 17.2962 4.33836 17.1677 4.08025 16.9106C3.82214 16.6535 3.69338 16.3378 3.69397 15.9634C3.69457 15.589 3.82333 15.273 4.08025 15.0153C4.33836 14.7588 4.65565 14.6306 5.03211 14.6306C5.40858 14.6306 5.72557 14.7588 5.98309 15.0153C6.2406 15.2718 6.36966 15.5878 6.37026 15.9634C6.37085 16.339 6.24179 16.6547 5.98309 16.9106C5.72438 17.1665 5.40739 17.295 5.03211 17.2962ZM13.4035 17.2962C13.0277 17.2962 12.7107 17.1677 12.4526 16.9106C12.1944 16.6535 12.0654 16.3378 12.0654 15.9634C12.0654 15.589 12.1944 15.273 12.4526 15.0153C12.7107 14.7588 13.0277 14.6306 13.4035 14.6306C13.7794 14.6306 14.0967 14.7588 14.3554 15.0153C14.6129 15.2724 14.7417 15.5884 14.7417 15.9634C14.7417 16.3378 14.6129 16.6535 14.3554 16.9106C14.0973 17.1677 13.78 17.2962 13.4035 17.2962ZM3.75909 3.42055L6.1401 8.41068H12.0591C12.162 8.41068 12.2533 8.38491 12.333 8.33337C12.4133 8.28184 12.482 8.21075 12.5391 8.12012L14.8728 3.89948C14.9412 3.7739 14.9469 3.66283 14.8898 3.56627C14.8321 3.46912 14.7348 3.42055 14.598 3.42055H3.75909ZM3.32286 2.53199H14.9379C15.3251 2.53199 15.6165 2.68956 15.8122 3.00471C16.0084 3.31925 16.0189 3.64358 15.8434 3.97767L13.2938 8.60527C13.1647 8.82149 12.997 8.9912 12.7907 9.11441C12.5843 9.23763 12.3574 9.29923 12.11 9.29923H5.73865L4.65476 11.2807C4.56317 11.4175 4.5602 11.5656 4.64584 11.725C4.73148 11.8843 4.86024 11.9643 5.03211 11.9649H14.7417V12.8535H5.03211C4.51173 12.8535 4.12337 12.6349 3.86704 12.1977C3.61071 11.7605 3.60447 11.3216 3.8483 10.8809L5.19001 8.49953L1.90978 1.64344H0.296875V0.754883H2.47537L3.32286 2.53199Z" fill="white"/>
    </svg>
    