<svg width="19" height="20" viewBox="0 0 19 20" fill="none" xmlns="http://www.w3.org/2000/svg">
    <path fill-rule="evenodd" clip-rule="evenodd" d="M9.74967 11.3751C10.7221 11.3751 11.6548 10.9888 12.3424 10.3011C13.03 9.61351 13.4163 8.68088 13.4163 7.70841C13.4163 6.73595 13.03 5.80332 12.3424 5.11569C11.6548 4.42806 10.7221 4.04175 9.74967 4.04175C8.77721 4.04175 7.84458 4.42806 7.15695 5.11569C6.46932 5.80332 6.08301 6.73595 6.08301 7.70841C6.08301 8.68088 6.46932 9.61351 7.15695 10.3011C7.84458 10.9888 8.77721 11.3751 9.74967 11.3751ZM9.74967 10.4584C10.1108 10.4584 10.4684 10.3873 10.8021 10.2491C11.1357 10.1109 11.4389 9.90832 11.6942 9.65296C11.9496 9.3976 12.1521 9.09444 12.2903 8.76079C12.4285 8.42715 12.4997 8.06955 12.4997 7.70841C12.4997 7.34728 12.4285 6.98968 12.2903 6.65604C12.1521 6.32239 11.9496 6.01923 11.6942 5.76387C11.4389 5.50851 11.1357 5.30595 10.8021 5.16775C10.4684 5.02955 10.1108 4.95841 9.74967 4.95841C9.02033 4.95841 8.32086 5.24815 7.80513 5.76387C7.28941 6.2796 6.99967 6.97907 6.99967 7.70841C6.99967 8.43776 7.28941 9.13723 7.80513 9.65296C8.32086 10.1687 9.02033 10.4584 9.74967 10.4584Z" fill="white"/>
    <path fill-rule="evenodd" clip-rule="evenodd" d="M18.9163 9.99992C18.9163 15.0627 14.8124 19.1666 9.74967 19.1666C4.68692 19.1666 0.583008 15.0627 0.583008 9.99992C0.583008 4.93717 4.68692 0.833252 9.74967 0.833252C14.8124 0.833252 18.9163 4.93717 18.9163 9.99992ZM14.1634 16.9712C12.844 17.8092 11.3127 18.2528 9.74967 18.2499C8.14933 18.2528 6.58308 17.7876 5.2438 16.9116C5.1338 16.7741 5.02227 16.632 4.90922 16.4853C4.77809 16.3136 4.70736 16.1033 4.70801 15.8872C4.70801 15.3936 5.06276 14.9797 5.53713 14.9105C8.67442 14.4522 10.8345 14.4916 13.976 14.9265C14.2033 14.9598 14.4111 15.0741 14.5609 15.2483C14.7107 15.4225 14.7925 15.645 14.7913 15.8748C14.7913 16.0948 14.7157 16.3084 14.5791 16.4753C14.4383 16.6467 14.2997 16.812 14.1634 16.9712ZM15.7011 15.7135C15.6278 14.8555 14.9765 14.1396 14.1015 14.0186C10.8859 13.5735 8.63822 13.5309 5.40468 14.0035C4.52467 14.1318 3.87613 14.8541 3.79913 15.7144C2.32116 14.1795 1.49676 12.1307 1.49967 9.99992C1.49967 5.44363 5.19338 1.74992 9.74967 1.74992C14.306 1.74992 17.9997 5.44363 17.9997 9.99992C18.0026 12.1303 17.1786 14.1787 15.7011 15.7135Z" fill="white"/>
    </svg>
    