<svg width="67" height="66" viewBox="0 0 67 66" fill="none" xmlns="http://www.w3.org/2000/svg">
    <path d="M25.8414 20.206V25.5409C25.8414 27.3646 24.363 28.843 22.5394 28.843C20.7157 28.843 19.2373 27.3646 19.2373 25.5409V20.206C19.2373 12.1781 25.7031 5.63196 33.7005 5.50184L33.9434 5.5C41.9714 5.5 48.5173 11.9659 48.6474 19.9632L48.6494 20.206V25.541C48.6494 27.3646 47.171 28.843 45.3474 28.843C43.5237 28.843 42.0453 27.3646 42.0453 25.541V20.206C42.0453 15.7833 38.4831 12.1769 34.0772 12.1052L33.9434 12.1041C29.4759 12.1041 25.8414 15.7386 25.8414 20.206Z" fill="#FFCE07"/>
    <g style="mix-blend-mode:overlay" filter="url(#filter0_i_5091_4067)">
    <path d="M25.8414 20.206V28.843H19.2373V20.206C19.2373 12.1781 25.7031 5.63196 33.7005 5.50184L33.9434 5.5C41.9714 5.5 48.5173 11.9659 48.6474 19.9632L48.6494 20.206V28.843H42.0453V20.206C42.0453 15.7833 38.4831 12.1769 34.0772 12.1052L33.9434 12.1041C29.4759 12.1041 25.8414 15.7386 25.8414 20.206Z" fill="white" fill-opacity="0.08"/>
    </g>
    <path fill-rule="evenodd" clip-rule="evenodd" d="M55.3308 46.8377C55.3308 54.3851 49.2126 60.5033 41.6653 60.5033H26.2221C18.6748 60.5033 12.5566 54.3851 12.5566 46.8377V32.9154C12.5566 29.7727 15.1042 27.2251 18.247 27.2251H33.9431L33.9437 27.2255L49.6404 27.2251C52.7832 27.2251 55.3308 29.7727 55.3308 32.9154V46.8377ZM31.4704 45.9677C31.4704 47.3339 32.5779 48.4414 33.944 48.4414H34.9009C35.7386 48.4414 36.4176 47.7623 36.4176 46.9247C36.4176 46.2998 36.8095 45.7524 37.3514 45.4414C37.9196 45.1153 38.4435 44.7075 38.901 44.2263C40.2039 42.8509 40.8668 41.0535 40.7678 39.1603C40.5831 35.6016 37.6478 32.7585 34.0825 32.6861C34.0678 32.6858 34.0532 32.6858 34.0385 32.6858L33.9461 32.6869C33.9456 32.6869 33.9451 32.6867 33.9446 32.6865C33.9441 32.6862 33.9436 32.6861 33.9431 32.6861C30.7516 32.6865 27.651 35.1467 27.1729 38.5699C27.1241 38.9441 27.4252 39.2591 27.8026 39.2591H32.0676C32.0711 39.2591 32.074 39.2562 32.074 39.2527C32.092 39.1238 32.1226 38.9996 32.1645 38.8812L32.1787 38.8425C32.1856 38.8244 32.1928 38.8064 32.2002 38.7885L32.219 38.7446C32.2631 38.6455 32.3154 38.5512 32.375 38.4625C32.4534 38.3458 32.5445 38.2387 32.6462 38.143C32.7136 38.0797 32.7856 38.0214 32.8617 37.9686L32.9099 37.9362L32.9515 37.91L32.9814 37.8921L33.0146 37.873C33.032 37.8633 33.0496 37.8538 33.0674 37.8446C33.0986 37.8284 33.1303 37.8131 33.1625 37.7987L33.2222 37.7731C33.253 37.7606 33.2841 37.7488 33.3157 37.7379L33.3565 37.7242C33.4087 37.7074 33.4618 37.6928 33.5159 37.6805C33.5431 37.6743 33.5706 37.6687 33.5983 37.6637L33.6377 37.657L33.6775 37.651L33.7235 37.6452C33.7525 37.6419 33.7817 37.6393 33.8111 37.6373L33.8536 37.6349L33.8963 37.6334L33.9431 37.6328C33.9435 37.6328 33.9439 37.6332 33.9439 37.6336C33.9439 37.634 33.9442 37.6344 33.9447 37.6344L33.9836 37.6332C34.9499 37.6531 35.7778 38.4512 35.8272 39.4176C35.8536 39.9419 35.6722 40.44 35.3127 40.8194L35.2795 40.8532L35.2385 40.8929C34.8977 41.2135 34.4627 41.3933 33.996 41.4057L33.9444 41.4064L33.4795 41.4063C32.3699 41.4063 31.4704 42.3058 31.4704 43.4154V45.9677ZM33.9439 50.1702C33.9439 50.1704 33.944 50.1703 33.9439 50.1702C32.598 50.1703 31.5066 51.2611 31.5066 52.6068C31.5066 53.9525 32.5975 55.0436 33.9432 55.0436C33.9432 55.0435 33.9433 55.0435 33.9432 55.0436L33.944 55.0435L33.9876 55.0431C35.313 55.0195 36.38 53.9378 36.38 52.6067C36.38 51.2612 35.2893 50.1706 33.9439 50.1702Z" fill="#2DCDFF"/>
    <g style="mix-blend-mode:overlay" filter="url(#filter1_i_5091_4067)">
    <path fill-rule="evenodd" clip-rule="evenodd" d="M55.3308 46.8377C55.3308 54.3851 49.2126 60.5033 41.6653 60.5033H26.2221C18.6748 60.5033 12.5566 54.3851 12.5566 46.8377V32.9154C12.5566 29.7727 15.1042 27.2251 18.247 27.2251H33.9431L33.9437 27.2255L49.6404 27.2251C52.7832 27.2251 55.3308 29.7727 55.3308 32.9154V46.8377ZM31.4704 45.9677C31.4704 47.3339 32.5779 48.4414 33.944 48.4414H34.9009C35.7386 48.4414 36.4176 47.7623 36.4176 46.9247C36.4176 46.2998 36.8095 45.7524 37.3514 45.4414C37.9196 45.1153 38.4435 44.7075 38.901 44.2263C40.2039 42.8509 40.8668 41.0535 40.7678 39.1603C40.5831 35.6016 37.6478 32.7585 34.0825 32.6861C34.0678 32.6858 34.0532 32.6858 34.0385 32.6858L33.9461 32.6869C33.9456 32.6869 33.9451 32.6867 33.9446 32.6865C33.9441 32.6862 33.9436 32.6861 33.9431 32.6861C30.7516 32.6865 27.651 35.1467 27.1729 38.5699C27.1241 38.9441 27.4252 39.2591 27.8026 39.2591H32.0676C32.0711 39.2591 32.074 39.2562 32.074 39.2527C32.092 39.1238 32.1226 38.9996 32.1645 38.8812L32.1787 38.8425C32.1856 38.8244 32.1928 38.8064 32.2002 38.7885L32.219 38.7446C32.2631 38.6455 32.3154 38.5512 32.375 38.4625C32.4534 38.3458 32.5445 38.2387 32.6462 38.143C32.7136 38.0797 32.7856 38.0214 32.8617 37.9686L32.9099 37.9362L32.9515 37.91L32.9814 37.8921L33.0146 37.873C33.032 37.8633 33.0496 37.8538 33.0674 37.8446C33.0986 37.8284 33.1303 37.8131 33.1625 37.7987L33.2222 37.7731C33.253 37.7606 33.2841 37.7488 33.3157 37.7379L33.3565 37.7242C33.4087 37.7074 33.4618 37.6928 33.5159 37.6805C33.5431 37.6743 33.5706 37.6687 33.5983 37.6637L33.6377 37.657L33.6775 37.651L33.7235 37.6452C33.7525 37.6419 33.7817 37.6393 33.8111 37.6373L33.8536 37.6349L33.8963 37.6334L33.9431 37.6328C33.9435 37.6328 33.9439 37.6332 33.9439 37.6336C33.9439 37.634 33.9442 37.6344 33.9447 37.6344L33.9836 37.6332C34.9499 37.6531 35.7778 38.4512 35.8272 39.4176C35.8536 39.9419 35.6722 40.44 35.3127 40.8194L35.2795 40.8532L35.2385 40.8929C34.8977 41.2135 34.4627 41.3933 33.996 41.4057L33.9444 41.4064L33.4795 41.4063C32.3699 41.4063 31.4704 42.3058 31.4704 43.4154V45.9677ZM33.9439 50.1702C33.9439 50.1704 33.944 50.1703 33.9439 50.1702C32.598 50.1703 31.5066 51.2611 31.5066 52.6068C31.5066 53.9525 32.5975 55.0436 33.9432 55.0436C33.9432 55.0435 33.9433 55.0435 33.9432 55.0436L33.944 55.0435L33.9876 55.0431C35.313 55.0195 36.38 53.9378 36.38 52.6067C36.38 51.2612 35.2893 50.1706 33.9439 50.1702Z" fill="white" fill-opacity="0.08"/>
    </g>
    <path fill-rule="evenodd" clip-rule="evenodd" d="M33.9441 48.4313C32.5779 48.4313 31.4704 47.3238 31.4704 45.9577V43.4053C31.4704 42.2957 32.3699 41.3962 33.4795 41.3962H33.9439C33.944 41.3962 33.9441 41.3962 33.9442 41.3963C33.9443 41.3963 33.9444 41.3963 33.9445 41.3963L33.996 41.3957C34.4627 41.3832 34.8978 41.2035 35.2386 40.8829L35.2796 40.8432L35.3127 40.8093C35.6722 40.4299 35.8536 39.9319 35.8272 39.4076C35.7778 38.4411 34.9499 37.643 33.9837 37.6232L33.9447 37.6243C33.9443 37.6243 33.9439 37.624 33.9439 37.6236C33.9439 37.6231 33.9436 37.6228 33.9431 37.6228L33.8964 37.6233L33.8537 37.6248L33.8112 37.6272C33.7818 37.6292 33.7526 37.6319 33.7236 37.6352L33.6775 37.641L33.6378 37.6469L33.5983 37.6537C33.5707 37.6587 33.5432 37.6643 33.516 37.6705C33.4619 37.6828 33.4087 37.6974 33.3566 37.7141L33.3157 37.7278C33.2842 37.7388 33.253 37.7505 33.2223 37.7631L33.1621 37.7888L33.1764 37.7825C33.1395 37.7987 33.1031 37.8161 33.0674 37.8346C33.0496 37.8438 33.0321 37.8533 33.0147 37.863L32.9814 37.8821L32.9515 37.9L32.91 37.9262L32.8617 37.9586C32.7856 38.0113 32.7136 38.0696 32.6463 38.1329C32.5446 38.2286 32.4535 38.3357 32.3751 38.4525C32.3155 38.5412 32.2632 38.6355 32.2191 38.7345L32.2002 38.7784C32.1928 38.7963 32.1857 38.8143 32.1788 38.8325L32.1646 38.8712C32.1227 38.9896 32.0921 39.1138 32.0741 39.2426C32.0741 39.2462 32.0712 39.249 32.0677 39.249H27.8026C27.4252 39.249 27.1242 38.9341 27.173 38.5598C27.6511 35.1366 30.7517 32.6765 33.9431 32.6761C33.9436 32.6761 33.9442 32.6762 33.9446 32.6764C33.9451 32.6767 33.9456 32.6768 33.9462 32.6768L34.0386 32.6758C34.0532 32.6758 34.0679 32.6758 34.0826 32.6761C37.6478 32.7485 40.5832 35.5915 40.7678 39.1503C40.8669 41.0435 40.2039 42.8408 38.9011 44.2163C38.4436 44.6974 37.9196 45.1052 37.3515 45.4313C36.8095 45.7424 36.4177 46.2897 36.4177 46.9146C36.4177 47.7523 35.7386 48.4313 34.901 48.4313H33.9441ZM33.9439 50.1602C33.9439 50.1601 33.944 50.16 33.9441 50.16C35.2896 50.1604 36.38 51.2512 36.38 52.5967C36.38 53.9277 35.313 55.0094 33.9877 55.033L33.944 55.0334C33.944 55.0334 33.9439 55.0334 33.9439 55.0333C33.9439 55.0332 33.9438 55.0332 33.9437 55.0332L33.9435 55.0335C33.9434 55.0335 33.9434 55.0336 33.9433 55.0336C32.5975 55.0335 31.5066 53.9424 31.5066 52.5968C31.5066 51.251 32.5974 50.1601 33.9433 50.16C33.9434 50.16 33.9434 50.1601 33.9435 50.1601L33.9437 50.1603C33.9438 50.1604 33.9439 50.1603 33.9439 50.1602Z" fill="white"/>
    <defs>
    <filter id="filter0_i_5091_4067" x="17.8623" y="4.125" width="30.7871" height="24.718" filterUnits="userSpaceOnUse" color-interpolation-filters="sRGB">
    <feFlood flood-opacity="0" result="BackgroundImageFix"/>
    <feBlend mode="normal" in="SourceGraphic" in2="BackgroundImageFix" result="shape"/>
    <feColorMatrix in="SourceAlpha" type="matrix" values="0 0 0 0 0 0 0 0 0 0 0 0 0 0 0 0 0 0 127 0" result="hardAlpha"/>
    <feOffset dx="-1.375" dy="-1.375"/>
    <feGaussianBlur stdDeviation="1.375"/>
    <feComposite in2="hardAlpha" operator="arithmetic" k2="-1" k3="1"/>
    <feColorMatrix type="matrix" values="0 0 0 0 0 0 0 0 0 0 0 0 0 0 0 0 0 0 0.4 0"/>
    <feBlend mode="normal" in2="shape" result="effect1_innerShadow_5091_4067"/>
    </filter>
    <filter id="filter1_i_5091_4067" x="11.1816" y="25.8501" width="44.1494" height="34.6531" filterUnits="userSpaceOnUse" color-interpolation-filters="sRGB">
    <feFlood flood-opacity="0" result="BackgroundImageFix"/>
    <feBlend mode="normal" in="SourceGraphic" in2="BackgroundImageFix" result="shape"/>
    <feColorMatrix in="SourceAlpha" type="matrix" values="0 0 0 0 0 0 0 0 0 0 0 0 0 0 0 0 0 0 127 0" result="hardAlpha"/>
    <feOffset dx="-1.375" dy="-1.375"/>
    <feGaussianBlur stdDeviation="1.375"/>
    <feComposite in2="hardAlpha" operator="arithmetic" k2="-1" k3="1"/>
    <feColorMatrix type="matrix" values="0 0 0 0 0 0 0 0 0 0 0 0 0 0 0 0 0 0 0.24 0"/>
    <feBlend mode="normal" in2="shape" result="effect1_innerShadow_5091_4067"/>
    </filter>
    </defs>
    </svg>
    