<svg width="248" height="302" viewBox="0 0 248 302" fill="none" xmlns="http://www.w3.org/2000/svg">
<g clip-path="url(#clip0_1348_41920)">
<rect width="248" height="302" rx="18.1878" fill="url(#paint0_linear_1348_41920)"/>
<path d="M146.874 266.618C147.354 265.613 140.15 262.016 135.232 259.696C121.666 253.298 79.011 237.814 76.3342 229.074C75.3061 225.726 75.2964 222.496 75.2821 219.379C75.2589 212.878 75.2373 206.153 66.1196 197.971L65.4355 197.359L65.5137 198.163C65.5225 198.334 66.8839 215.143 57.4881 220.639C55.1491 219.867 31.1769 211.624 23.0452 196.882C22.9876 196.691 22.9216 196.495 22.8562 196.304C22.6428 195.715 22.3524 194.736 22.185 194.138C21.8301 192.897 21.4215 191.665 21.0743 190.423C20.323 187.755 19.5872 185.085 18.7056 182.443C17.1969 177.927 15.1302 173.452 11.5875 169.615C9.70278 167.574 7.37794 165.744 4.6425 164.348C4.49429 164.269 4.31983 164.321 4.23472 164.409C4.20973 164.393 4.20027 164.376 4.19137 164.365C4.19194 164.371 4.19251 164.377 4.17095 164.396C5.69437 166.655 6.2507 169.165 6.55329 171.714C7.04581 175.976 6.24357 180.25 5.3198 184.478C5.23646 185.789 5.18358 187.091 5.34304 188.41C5.77426 191.961 6.94005 195.761 4.97088 199.194C4.51692 199.985 4.0552 200.776 3.56131 201.558C3.11226 202.319 2.5928 203.078 2.01561 203.806C1.55891 204.408 1.07779 205 0.563353 205.57C-0.346758 206.567 -1.45083 207.577 -2.85865 208.192C-3.03801 208.274 -4.72584 209.061 -6.97596 208.963C-7.23485 208.95 -8.03215 208.859 -8.71937 208.696C-8.73374 208.709 -8.7487 208.716 -8.75475 208.734C-8.79468 208.725 -8.83232 208.739 -8.86165 208.758C-8.84442 208.775 -8.82777 208.786 -8.8183 208.803C-8.80164 208.814 -8.77721 208.824 -8.75999 208.841C-8.68274 208.912 -8.61987 208.997 -8.54262 209.069C-8.53372 209.08 -8.53259 209.092 -8.52369 209.103C-8.48033 209.147 -8.42864 209.197 -8.38528 209.242C-8.36976 209.241 -8.35367 209.246 -8.32982 209.25C-7.39384 209.964 -6.26926 210.53 -5.10065 210.987C-3.93205 211.444 -2.68781 211.795 -1.38538 211.943C0.20983 212.13 1.51247 211.958 3.07982 211.699C5.37464 211.133 6.66152 210.478 7.99472 209.737C8.50552 209.451 8.99133 209.148 9.45877 208.817C13.9412 205.619 17.508 211.953 21.5116 221.412C18.9576 220.276 15.9583 219.458 13.3825 220.266C16.8932 221.766 18.9532 224.245 21.1301 226.881C22.2191 228.206 23.3274 229.487 24.6515 230.661C24.1401 228.532 23.7211 226.391 23.2174 224.262C23.2128 224.215 23.3048 224.197 23.3248 224.243C24.0297 226.354 24.8349 228.452 25.532 230.563C25.7981 231.373 26.0415 232.19 26.2694 233.008C31.0939 244.647 36.9916 257.127 45.5953 262.673C48.6536 262.413 51.7694 262.662 54.7211 263.313C58.8137 264.215 62.5123 265.721 66.3181 267.125C66.3586 267.141 66.3238 267.184 66.291 267.168C64.2149 266.451 62.0896 265.789 59.9467 265.188C56.2556 264.16 52.339 263.382 48.3653 263.382C47.3976 263.384 46.4266 263.435 45.4602 263.532C42.6676 264.277 37.2399 266.425 31.7672 272.444C30.6598 273.66 29.4719 275.012 28.2216 276.444C24.3291 280.891 19.7542 286.109 16.1774 288.664C13.5216 289.772 10.8636 289.895 7.59254 290.216C6.90836 291.529 9.35478 292.442 11.5845 292.973C12.9165 293.585 16.2876 294.533 20.7332 294.249C25.1944 293.964 30.7452 292.441 36.42 288.098C49.0489 278.439 58.402 272.344 65.8348 271.869C65.8736 271.867 65.9201 271.864 65.9589 271.861C66.7785 272.181 73.0964 274.612 80.0589 275.644C80.2876 275.748 80.5085 275.852 80.7222 275.962C80.8319 275.967 80.95 275.977 81.0598 275.982C84.8922 276.215 88.7125 276.485 92.5389 276.737C92.5355 276.702 92.5476 276.666 92.5448 276.636C98.3024 276.918 114.164 277.299 122.157 276.004C122.203 275.995 130.796 275.168 131.938 271.097C131.89 271.089 131.842 271.08 131.795 271.071C128.74 270.41 125.898 269.274 123.206 268.011C123.141 267.98 123.196 267.905 123.253 267.931C124.786 268.601 126.42 269.111 128.081 269.566C129.54 269.963 131.103 270.224 132.618 270.469C133.261 270.57 133.909 270.659 134.557 270.741C138.594 270.265 145.751 268.963 146.873 266.606L146.874 266.618Z" fill="#F0A8B1"/>
<path d="M80.8996 276.959C80.96 277.014 81.0276 277.063 81.0808 277.124C82.037 278.143 82.1094 279.766 81.5294 280.905C80.6404 282.66 77.8957 283.6 77.193 285.331C79.904 284.37 82.9888 285.218 85.7104 284.044C88.1005 283.014 89.9065 281.154 91.0184 279.267C91.3277 278.735 91.5031 278.199 91.5848 277.669C89.4493 277.527 87.3061 277.385 85.1711 277.249C83.7477 277.156 82.3242 277.063 80.9079 276.964L80.8996 276.959Z" fill="#F0A8B1"/>
<path d="M248.031 178.341C242.857 179.944 238.773 183.797 235.494 187.628C232.577 191.039 230.089 194.767 227.945 198.62C227.521 199.379 227.103 200.144 226.723 200.926C223.02 202.156 219.248 203.209 215.433 204.099C215.289 203.668 215.034 203.266 214.897 202.824C214.76 202.377 214.666 201.906 214.641 201.436C214.585 200.467 214.89 199.379 215.57 198.62C215.676 198.507 215.614 198.28 215.427 198.269C213.257 198.144 211.63 199.9 210.601 201.408C209.941 202.371 209.392 203.402 208.625 204.303C208.176 204.83 207.628 205.368 206.998 205.771C205.901 205.958 204.804 206.128 203.7 206.292C198.993 206.972 194.237 207.436 189.474 207.612C188.813 207.068 188.221 206.462 187.766 205.708C186.606 203.782 186.737 201.357 186.905 199.243C187.105 196.705 187.541 193.571 188.969 191.333C190.135 189.503 192.41 188.353 193.557 186.664C192.753 186.29 191.307 186.466 190.415 186.579C188.695 186.795 186.955 187.259 185.341 187.82C178.708 190.143 174.83 196.331 171.638 201.691C170.479 203.634 169.344 205.544 167.555 207.068C167 207.544 166.108 208.332 165.148 209.006C162.811 209.692 160.267 209.924 157.262 209.941V209.93C149.7 209.777 122.594 207.045 110.594 212.145C109.802 212.485 108.798 213.035 108.206 213.624C107.57 214.253 107.283 215.103 107.47 215.941C107.689 216.927 108.381 217.777 109.048 218.559C111.298 221.182 114.446 223.149 117.944 224.14C118.206 224.021 118.474 223.913 118.742 223.817C119.696 223.477 120.712 223.268 121.734 223.188C123.779 223.018 125.911 223.381 127.675 224.361C127.744 224.401 127.7 224.514 127.619 224.486C125.792 223.794 123.785 223.522 121.828 223.794C120.88 223.925 119.951 224.168 119.078 224.537C118.96 224.588 118.848 224.644 118.729 224.695C118.767 224.792 118.81 224.888 118.854 224.979C118.991 225.262 119.147 225.534 119.309 225.806C119.646 226.361 120.032 226.888 120.462 227.392C123.249 230.645 134.396 233.523 140.586 234.588C141.546 234.605 142.5 234.679 143.423 234.787C146.078 235.11 148.653 235.835 151.228 236.481C153.834 237.138 156.489 237.665 159.151 238.079C160.311 238.26 161.47 238.402 162.636 238.526C164.188 238.674 165.747 238.776 167.312 238.821C169.699 238.895 172.087 238.861 174.468 238.708C176.856 238.555 179.244 238.254 181.65 238.368C183.171 238.441 184.805 238.719 186.22 239.342C186.394 239.456 186.569 239.563 186.737 239.682C188.053 240.583 189.274 241.58 190.422 242.657C192.747 244.844 194.686 247.331 196.687 249.757C198.657 252.142 200.708 254.493 203.17 256.482C205.577 258.431 208.32 260.041 211.25 261.259C212.883 261.939 214.585 262.488 216.318 262.913C217.21 263.134 218.113 263.321 219.024 263.463C219.603 263.554 220.183 263.588 220.769 263.605C220.794 263.605 220.813 263.616 220.838 263.622C220.969 263.633 221.1 263.639 221.231 263.633C221.418 263.673 221.598 263.707 221.792 263.707C222.06 263.712 222.346 263.599 222.409 263.338C222.409 263.316 222.409 263.293 222.409 263.27C222.459 263.191 222.471 263.095 222.434 262.981C222.022 261.831 221 260.953 220.071 260.131C219.074 259.253 218.126 258.341 217.272 257.343C215.557 255.349 214.192 253.139 212.964 250.873C210.514 246.351 208.6 241.563 205.57 237.319C204.735 236.152 203.825 235.025 202.79 233.993C202.279 233.484 201.743 232.996 201.182 232.532C201.007 232.384 200.82 232.237 200.633 232.101C199.604 232.265 198.576 232.458 197.56 232.69C194.361 233.421 191.269 234.481 188.433 236.028C188.395 236.05 188.364 235.999 188.402 235.977C189.966 235.025 191.581 234.197 193.277 233.455C195.552 232.458 197.996 231.704 200.502 231.234C202.26 230.265 206.188 227.466 210.495 224.253C211.68 224.327 212.889 224.112 214.092 223.483C215.084 222.962 216.112 222.123 216.524 221.137C215.826 221.46 215.009 221.573 214.273 221.409C220.339 216.797 226.137 212.196 226.891 211.391C227.371 210.876 227.845 210.36 228.312 209.839C228.418 209.72 228.562 209.59 228.693 209.454C229.89 212.338 231.56 215.222 234.185 217.227C235.5 218.236 237.109 219.029 238.842 219.216C239.154 219.25 239.484 219.279 239.796 219.239C240.014 219.216 240.107 219.001 240.001 218.837C237.551 215.171 236.604 210.808 236.51 206.558C236.473 204.796 236.485 203.017 237.09 201.328C238.094 198.541 239.459 195.855 240.781 193.186C242.339 190.053 243.96 186.942 245.612 183.848C246.522 182.137 247.514 180.454 248.38 178.726C248.393 178.704 248.405 178.675 248.424 178.653C248.536 178.449 248.293 178.233 248.068 178.307L248.031 178.341Z" fill="#F0A8B1"/>
<path d="M142.714 235.257C142.452 235.229 142.19 235.212 141.934 235.195C141.853 235.263 141.772 235.325 141.685 235.393C141.261 235.727 140.825 236.062 140.395 236.39C139.547 237.042 138.699 237.699 137.882 238.385C136.28 239.745 134.796 241.263 133.836 243.076C133.425 243.858 133.02 244.759 132.882 245.654C132.814 245.79 132.801 245.949 132.833 246.102C132.833 246.142 132.826 246.187 132.826 246.227C132.826 246.323 132.889 246.38 132.963 246.397C133.032 246.493 133.119 246.584 133.225 246.652C133.93 247.093 134.74 246.652 135.289 246.215C136.691 245.088 138.206 244.13 139.921 243.439C143.281 242.085 146.978 241.626 150.338 240.277C151.198 239.932 152.04 239.535 152.813 239.048C153.393 238.685 153.966 238.271 154.452 237.79C153.15 237.489 151.859 237.161 150.556 236.826C147.981 236.169 145.376 235.54 142.707 235.263L142.714 235.257Z" fill="#F0A8B1"/>
</g>
<defs>
<linearGradient id="paint0_linear_1348_41920" x1="0" y1="0" x2="93.0846" y2="235.468" gradientUnits="userSpaceOnUse">
<stop stop-color="#FFBFB6"/>
<stop offset="1" stop-color="#E84C60"/>
</linearGradient>
<clipPath id="clip0_1348_41920">
<rect width="248" height="302" rx="18.1878" fill="white"/>
</clipPath>
</defs>
</svg>
