<svg width="248" height="302" viewBox="0 0 248 302" fill="none" xmlns="http://www.w3.org/2000/svg">
<g clip-path="url(#clip0_1348_42429)">
<rect width="248" height="302" rx="15.8452" fill="url(#paint0_linear_1348_42429)"/>
<path d="M196.372 -26.694C196.372 -26.694 217.119 13.5363 263.136 31.1513L260.743 34.904C260.743 34.904 214.037 31.4235 187.533 -0.824026L186.011 4.528C186.011 4.528 208.11 43.9998 254.571 46.5428" stroke="#1A2333" stroke-width="0.615111" stroke-miterlimit="10"/>
<path d="M219.5 3.42382L218.096 4.74628L218.913 5.37694L220.318 4.05449L219.5 3.42382Z" fill="#1A2333"/>
<path d="M217.141 4.76009C216.666 5.21779 216.691 5.91625 217.2 6.31918C217.709 6.7221 218.502 6.6758 218.979 6.21543C219.453 5.75772 219.429 5.05927 218.92 4.65634C218.411 4.25342 217.617 4.29972 217.141 4.76009Z" fill="white"/>
<path opacity="0.15" d="M214.697 4.34693C213.425 5.57628 213.496 7.44439 214.856 8.52119C216.216 9.59799 218.347 9.47442 219.619 8.24507C220.891 7.01572 220.82 5.14761 219.46 4.07081C218.1 2.99401 215.968 3.11758 214.697 4.34693Z" fill="white"/>
<path d="M231.548 13.5389L230.294 14.9684L231.175 15.5317L232.429 14.1023L231.548 13.5389Z" fill="#1A2333"/>
<path d="M229.349 15.0664C228.923 15.5613 229.024 16.2501 229.574 16.6081C230.124 16.966 230.912 16.8543 231.338 16.3594C231.765 15.8646 231.663 15.1757 231.114 14.8178C230.564 14.4598 229.776 14.5716 229.349 15.0664Z" fill="white"/>
<path opacity="0.15" d="M226.876 14.8573C225.737 16.1809 226.004 18.0299 227.475 18.9866C228.947 19.9433 231.063 19.6489 232.202 18.3253C233.34 17.0017 233.074 15.1526 231.602 14.1959C230.131 13.2392 228.014 13.5336 226.876 14.8573Z" fill="white"/>
<path d="M244.17 22.1856L243.177 23.7617L244.142 24.2061L245.135 22.6301L244.17 22.1856Z" fill="#1A2333"/>
<path d="M242.263 23.9918C241.923 24.5346 242.14 25.1999 242.747 25.4809C243.354 25.7619 244.12 25.5495 244.46 25.0067C244.8 24.4639 244.584 23.7986 243.977 23.5176C243.369 23.2366 242.604 23.449 242.263 23.9918Z" fill="white"/>
<path opacity="0.15" d="M243.649 28.1986C245.509 27.7298 246.599 26.1316 246.085 24.6288C245.571 23.1261 243.647 22.2879 241.787 22.7567C239.927 23.2255 238.837 24.8238 239.351 26.3265C239.865 27.8293 241.789 28.6674 243.649 28.1986Z" fill="white"/>
<path d="M188.456 7.85153L186.783 8.92627L187.449 9.67379L189.122 8.59905L188.456 7.85153Z" fill="#1A2333"/>
<path d="M185.841 8.76627C185.281 9.14129 185.158 9.83551 185.569 10.3164C185.977 10.7962 186.764 10.8805 187.326 10.5029C187.886 10.1278 188.009 9.43362 187.598 8.95274C187.19 8.47298 186.403 8.38859 185.841 8.76627Z" fill="white"/>
<path opacity="0.15" d="M183.526 7.94632C182.023 8.9525 181.696 10.8113 182.795 12.0983C183.893 13.3853 186.002 13.612 187.504 12.6058C189.007 11.5996 189.333 9.74088 188.235 8.45386C187.137 7.16684 185.028 6.94014 183.526 7.94632Z" fill="white"/>
<path d="M195.779 16.4756L194.175 17.622L194.885 18.3403L196.49 17.1938L195.779 16.4756Z" fill="#1A2333"/>
<path d="M193.225 17.5112C192.687 17.9107 192.605 18.6103 193.042 19.069C193.479 19.5277 194.273 19.5769 194.81 19.1774C195.348 18.7779 195.431 18.0783 194.994 17.6196C194.557 17.1609 193.762 17.1117 193.225 17.5112Z" fill="white"/>
<path opacity="0.15" d="M191.953 21.8918C193.713 22.3457 195.601 21.4345 196.17 19.8566C196.738 18.2788 195.772 16.6318 194.012 16.178C192.251 15.7242 190.363 16.6353 189.795 18.2132C189.226 19.791 190.192 21.438 191.953 21.8918Z" fill="white"/>
<path d="M203.654 24.0811L202.188 25.3543L202.976 26.012L204.442 24.7388L203.654 24.0811Z" fill="#1A2333"/>
<path d="M201.229 25.3266C200.733 25.77 200.73 26.4675 201.216 26.8872C201.705 27.3081 202.499 27.2876 202.995 26.8441C203.491 26.4006 203.494 25.7032 203.009 25.2834C202.52 24.8626 201.725 24.8831 201.229 25.3266Z" fill="white"/>
<path opacity="0.15" d="M203.369 29.0297C204.82 27.9593 205.008 26.1236 203.79 24.9295C202.572 23.7354 200.409 23.6352 198.959 24.7056C197.509 25.776 197.32 27.6117 198.538 28.8058C199.756 29.9999 201.919 30.1001 203.369 29.0297Z" fill="white"/>
<path d="M212.575 31.0574L211.278 32.4581L212.143 33.0408L213.44 31.6401L212.575 31.0574Z" fill="#1A2333"/>
<path d="M210.329 32.535C209.891 33.0189 209.968 33.7117 210.507 34.0845C211.044 34.4536 211.836 34.3623 212.276 33.8757C212.715 33.3892 212.636 32.6991 212.096 32.3289C211.559 31.9598 210.767 32.0511 210.328 32.5377L210.329 32.535Z" fill="white"/>
<path opacity="0.15" d="M207.859 32.268C206.682 33.564 206.898 35.4224 208.338 36.412C209.778 37.4043 211.903 37.1549 213.078 35.8579C214.255 34.5619 214.04 32.7035 212.599 31.7139C211.16 30.7216 209.034 30.971 207.859 32.268Z" fill="white"/>
<path d="M222.573 37.1395L221.524 38.6878L222.474 39.1579L223.523 37.6096L222.573 37.1395Z" fill="#1A2333"/>
<path d="M220.594 38.8759C220.237 39.4094 220.428 40.0813 221.025 40.3771C221.621 40.673 222.393 40.4822 222.75 39.9488C223.107 39.4153 222.915 38.7434 222.319 38.4475C221.723 38.1517 220.951 38.3425 220.594 38.8759Z" fill="white"/>
<path opacity="0.15" d="M218.114 38.9295C217.155 40.3548 217.671 42.1571 219.269 42.9517C220.863 43.7479 222.934 43.2369 223.891 41.8078C224.851 40.3825 224.335 38.5802 222.737 37.7855C221.143 36.9894 219.072 37.5003 218.114 38.9295Z" fill="white"/>
<path d="M233.097 41.6804L232.226 43.3109L233.221 43.699L234.092 42.0685L233.097 41.6804Z" fill="#1A2333"/>
<path d="M231.339 43.5976C231.041 44.156 231.307 44.8081 231.933 45.0519C232.56 45.2956 233.312 45.04 233.61 44.4816C233.909 43.9232 233.643 43.2711 233.016 43.0274C232.39 42.7836 231.638 43.0392 231.339 43.5976Z" fill="white"/>
<path opacity="0.15" d="M228.869 43.866C228.069 45.3635 228.783 47.1066 230.461 47.7597C232.14 48.4129 234.153 47.731 234.951 46.2361C235.75 44.7413 235.038 42.9955 233.36 42.3424C231.678 41.6882 229.668 42.3712 228.869 43.866Z" fill="white"/>
<path d="M246.077 45.392L245.021 45.1935L244.553 46.9506L245.608 47.149L246.077 45.392Z" fill="#1A2333"/>
<path d="M243.743 47.3916C243.579 47.9875 243.993 48.5741 244.671 48.6974C245.344 48.8222 246.027 48.439 246.19 47.8394C246.354 47.2436 245.94 46.6569 245.262 46.5337C244.588 46.4089 243.906 46.7921 243.743 47.3916Z" fill="white"/>
<path opacity="0.15" d="M241.384 48.1109C240.946 49.7089 242.058 51.274 243.869 51.6083C245.676 51.9415 247.496 50.9144 247.936 49.3138C248.374 47.7159 247.262 46.1508 245.452 45.8165C243.644 45.4832 241.824 46.5103 241.384 48.1109Z" fill="white"/>
<path d="M196.994 8.3359L195.604 9.66962L196.429 10.2938L197.819 8.96011L196.994 8.3359Z" fill="#1A2333"/>
<path d="M194.658 9.68515C194.187 10.1477 194.22 10.8457 194.733 11.2406C195.246 11.6356 196.041 11.5867 196.509 11.1204C196.978 10.6541 196.947 9.95994 196.434 9.56497C195.921 9.17 195.126 9.21886 194.658 9.68515Z" fill="white"/>
<path opacity="0.15" d="M194.252 14.2044C196.068 14.3709 197.736 13.1686 197.977 11.5189C198.219 9.86932 196.942 8.39707 195.126 8.23059C193.31 8.0641 191.642 9.26642 191.401 10.916C191.159 12.5657 192.436 14.0379 194.252 14.2044Z" fill="white"/>
<path d="M209.057 17.2258L207.894 18.7108L208.807 19.2335L209.971 17.7486L209.057 17.2258Z" fill="#1A2333"/>
<path d="M206.956 18.8428C206.56 19.3552 206.703 20.0403 207.274 20.3712C207.845 20.7022 208.63 20.5545 209.026 20.0421C209.422 19.5297 209.28 18.8446 208.709 18.5137C208.138 18.1827 207.352 18.3304 206.956 18.8428Z" fill="white"/>
<path opacity="0.15" d="M204.468 18.7488C203.408 20.1201 203.789 21.9507 205.319 22.8375C206.849 23.7242 208.949 23.3323 210.008 21.9611C211.068 20.5898 210.687 18.7591 209.157 17.8724C207.627 16.9857 205.527 17.3776 204.468 18.7488Z" fill="white"/>
<path d="M222.95 24.5386L222.072 26.1663L223.066 26.5574L223.943 24.9297L222.95 24.5386Z" fill="#1A2333"/>
<path d="M221.179 26.4451C220.878 27.0024 221.141 27.6534 221.769 27.9009C222.398 28.1485 223.145 27.8946 223.448 27.3346C223.75 26.7773 223.486 26.1264 222.858 25.8788C222.23 25.6313 221.482 25.8852 221.179 26.4451Z" fill="white"/>
<path opacity="0.15" d="M218.711 26.7038C217.906 28.1986 218.613 29.9421 220.291 30.6047C221.97 31.2647 223.98 30.5888 224.789 29.0951C225.594 27.6003 224.887 25.8569 223.209 25.1942C221.53 24.5343 219.52 25.2102 218.711 26.7038Z" fill="white"/>
<path d="M238.388 30.2435L237.349 29.9749L236.733 31.6944L237.773 31.963L238.388 30.2435Z" fill="#1A2333"/>
<path d="M235.885 32.0804C235.672 32.6674 236.034 33.2791 236.696 33.4472C237.358 33.6153 238.067 33.2771 238.28 32.6901C238.494 32.1031 238.132 31.4914 237.47 31.3233C236.808 31.1552 236.099 31.4934 235.885 32.0804Z" fill="white"/>
<path opacity="0.15" d="M233.483 32.6407C232.913 34.211 233.885 35.8475 235.658 36.2981C237.431 36.7488 239.328 35.8432 239.897 34.2728C240.467 32.7025 239.494 31.066 237.722 30.6154C235.949 30.1647 234.052 31.0703 233.483 32.6407Z" fill="white"/>
<path opacity="0.15" d="M248.664 36.8267C248.219 38.4247 249.326 39.9941 251.132 40.3331C252.94 40.6732 254.764 39.6517 255.208 38.0564C255.653 36.4584 254.546 34.8889 252.741 34.5499C250.932 34.2098 249.108 35.2313 248.664 36.8267Z" fill="white"/>
<path d="M274.604 268.699C274.604 268.699 258.333 267.654 219.104 282.299C179.875 296.944 170.068 262.421 116.838 287.531C63.5983 312.642 70.6035 281.254 14.5713 302.176L274.613 302.176L274.613 268.691L274.604 268.699Z" fill="#655C99"/>
<path d="M22.5955 197.333C22.5955 197.333 22.7111 197.419 22.928 197.579C23.1448 197.745 23.47 197.997 23.8892 198.315C24.7132 198.966 25.8912 199.942 27.344 201.23C28.7823 202.531 30.5024 204.131 32.3743 206.049C34.2318 207.975 36.3133 210.179 38.4165 212.701C40.5342 215.211 42.7531 217.992 44.9285 221.039C47.1402 224.067 49.2867 227.366 51.4116 230.838C52.4307 232.591 53.5148 234.356 54.4906 236.202C54.9893 237.118 55.488 238.041 55.9939 238.97C56.4637 239.913 56.9407 240.856 57.4177 241.812C58.4007 243.704 59.2391 245.669 60.1497 247.614C61.0315 249.572 61.8193 251.577 62.6577 253.562C63.4093 255.573 64.1899 257.585 64.8982 259.603C65.5631 261.634 66.2859 263.646 66.8858 265.671C67.464 267.702 68.1072 269.7 68.6132 271.705C69.1119 273.71 69.6395 275.688 70.0876 277.647C70.5068 279.612 70.9115 281.544 71.3162 283.436C71.6487 285.341 71.9667 287.2 72.2847 289.012C72.6317 290.824 72.7979 292.603 73.0436 294.316C73.2677 296.029 73.5134 297.689 73.6363 299.289C73.9398 302.482 74.2362 305.416 74.3374 308.018C74.4747 310.621 74.6337 312.891 74.6265 314.763C74.6915 318.507 74.7204 320.645 74.7204 320.645L63.1636 320.286C63.1636 320.286 63.272 318.248 63.4672 314.683C63.5972 312.898 63.6045 310.734 63.6478 308.244C63.7346 305.755 63.6478 302.946 63.5756 299.886C63.5683 298.353 63.4455 296.759 63.3443 295.113C63.2214 293.467 63.1853 291.754 62.9757 290.008C62.8022 288.255 62.6143 286.463 62.4336 284.624C62.1807 282.792 61.9205 280.926 61.653 279.021C61.3639 277.122 60.9809 275.204 60.6484 273.252C60.2943 271.3 59.8173 269.355 59.4053 267.37C58.9644 265.392 58.4079 263.427 57.9164 261.435C57.3744 259.457 56.7528 257.485 56.1746 255.507C55.5024 253.555 54.8809 251.577 54.1653 249.645C53.4209 247.72 52.7487 245.775 51.932 243.896C51.5345 242.953 51.1442 242.011 50.7539 241.075C50.3347 240.152 49.9155 239.229 49.4963 238.32C48.6869 236.481 47.7545 234.715 46.8944 232.956C45.0803 229.477 43.2301 226.151 41.2931 223.091C39.3923 220.01 37.4336 217.176 35.5472 214.613C33.6753 212.037 31.8034 209.78 30.1266 207.789C28.4353 205.81 26.8742 204.151 25.5588 202.803C24.2361 201.469 23.1592 200.453 22.4148 199.776C22.039 199.451 21.7571 199.198 21.562 199.026C21.3668 198.86 21.2656 198.774 21.2656 198.774L22.5955 197.313L22.5955 197.333Z" fill="#655C99"/>
<path d="M36.8684 157.561C33.1824 158.643 30.1179 159.964 27.5811 161.457L32.98 162.062C35.1049 159.054 36.8684 157.561 36.8684 157.561Z" fill="#655C99"/>
<path d="M28.6921 200.631C30.3544 197.173 32.4938 193.999 34.8933 191.098L32.0312 186.797L36.534 189.2C39.6057 185.801 42.9954 182.833 46.3417 180.297L43.7615 176.474L47.368 179.521C56.3374 172.935 64.5985 169.536 64.5985 169.536C23.8208 166.841 26.1408 192.406 26.4733 194.955C25.0856 186.239 25.8878 179.089 27.5429 173.453L22.1295 170.346L28.2079 171.408C29.4366 167.916 30.9543 165.095 32.3782 162.937L27.4273 161.537C11.534 171.003 16.8173 187.255 19.9251 193.96C14.1359 187.288 2.47788 178.16 -13.7768 186.412C-13.7768 186.412 -11.6303 186.75 -8.31282 187.434L-4.8942 186.558L-6.5204 187.812C-3.27524 188.516 0.750498 189.492 4.89187 190.733C-23.5557 184.174 -21.4452 211.778 -21.4452 211.778C-20.2166 209.189 -18.5398 207.104 -16.5739 205.431L-16.9642 202.019L-15.8005 204.807C-12.8156 202.51 -9.2524 201.07 -5.56636 200.207L-7.28651 192.426L-4.25818 199.928C-0.254129 199.131 3.82943 198.965 7.39982 199.078L9.01879 194.471L9.79936 199.197C14.7864 199.529 18.2989 200.306 18.2989 200.306C-31.2819 209.554 -3.37642 246.803 -3.37642 246.803C-3.77393 242.109 -3.24633 237.728 -2.11883 233.698L-4.11363 230.12L-1.38162 231.348C-0.31195 228.261 1.09742 225.4 2.68025 222.791L-3.58602 215.794L3.51864 221.457C5.31829 218.682 7.28418 216.219 9.20671 214.101L5.60017 207.31L10.71 212.508C15.3646 207.721 19.3686 205.079 19.3686 205.079C-1.17202 223.362 24.5001 243.862 24.5001 243.862C23.3654 239.646 22.6282 235.869 22.1729 232.47L17.9376 231.421L22.0717 231.7C21.7248 228.819 21.5947 226.23 21.6236 223.9L15.7765 221.662L21.6453 222.784C21.7754 219.326 22.2741 216.478 22.9462 214.167L19.0723 211.572L23.257 213.178C25.2229 207.277 28.244 205.232 28.244 205.232C31.0122 205.252 33.8309 205.451 36.6207 205.77L37.4013 202.729L38.3987 205.989C40.8994 206.321 43.364 206.746 45.7419 207.23L47.0356 201.269L47.462 207.589C49.9916 208.133 52.3912 208.737 54.61 209.335L55.5496 204.761L55.3472 209.534C62.8133 211.598 67.9593 213.623 67.9593 213.623C57.5661 184.4 28.6993 200.625 28.6993 200.625L28.6921 200.631Z" fill="#655C99"/>
<path d="M208.65 223.021C208.65 223.021 208.545 223.091 208.35 223.22C208.154 223.355 207.86 223.56 207.482 223.819C206.738 224.347 205.674 225.139 204.362 226.185C203.064 227.241 201.511 228.54 199.82 230.098C198.143 231.661 196.264 233.45 194.365 235.498C192.453 237.535 190.449 239.794 188.485 242.267C186.488 244.725 184.55 247.404 182.632 250.222C181.711 251.645 180.733 253.079 179.852 254.577C179.401 255.321 178.951 256.07 178.494 256.825C178.07 257.59 177.639 258.355 177.209 259.131C176.321 260.667 175.564 262.263 174.742 263.842C173.946 265.432 173.234 267.059 172.477 268.671C171.799 270.304 171.094 271.937 170.454 273.576C169.854 275.225 169.202 276.858 168.66 278.502C168.138 280.151 167.557 281.773 167.1 283.401C166.65 285.028 166.174 286.635 165.769 288.224C165.39 289.82 165.025 291.388 164.66 292.924C164.359 294.471 164.072 295.98 163.785 297.451C163.472 298.923 163.322 300.367 163.1 301.758C162.898 303.148 162.676 304.496 162.565 305.795C162.291 308.387 162.023 310.769 161.932 312.882C161.808 314.995 161.664 316.838 161.671 318.358C161.612 321.397 161.586 323.133 161.586 323.133L172.021 322.842C172.021 322.842 171.923 321.187 171.747 318.293C171.629 316.843 171.623 315.086 171.583 313.065C171.505 311.044 171.583 308.764 171.649 306.28C171.655 305.035 171.766 303.741 171.858 302.405C171.968 301.068 172.001 299.677 172.19 298.26C172.347 296.837 172.517 295.382 172.68 293.889C172.908 292.401 173.143 290.887 173.385 289.34C173.646 287.799 173.991 286.241 174.292 284.657C174.611 283.072 175.042 281.493 175.414 279.881C175.812 278.275 176.315 276.68 176.758 275.063C177.248 273.457 177.809 271.856 178.331 270.25C178.938 268.666 179.499 267.06 180.145 265.491C180.817 263.928 181.424 262.349 182.162 260.824C182.521 260.058 182.873 259.293 183.225 258.533C183.604 257.784 183.982 257.035 184.361 256.296C185.092 254.804 185.934 253.37 186.71 251.942C188.348 249.118 190.019 246.417 191.768 243.933C193.484 241.432 195.252 239.131 196.956 237.05C198.646 234.959 200.336 233.127 201.85 231.51C203.377 229.904 204.787 228.556 205.974 227.462C207.168 226.379 208.141 225.554 208.813 225.004C209.152 224.74 209.407 224.536 209.583 224.395C209.759 224.261 209.851 224.191 209.851 224.191L208.65 223.005L208.65 223.021Z" fill="#655C99"/>
<path d="M195.768 190.731C199.096 191.61 201.863 192.682 204.153 193.895L199.279 194.385C197.36 191.944 195.768 190.731 195.768 190.731Z" fill="#655C99"/>
<path d="M203.15 225.699C201.649 222.891 199.717 220.315 197.551 217.96L200.135 214.467L196.07 216.418C193.296 213.659 190.236 211.249 187.214 209.191L189.544 206.086L186.287 208.56C178.189 203.214 170.73 200.454 170.73 200.454C207.548 198.266 205.454 219.021 205.153 221.091C206.406 214.014 205.682 208.21 204.188 203.634L209.075 201.112L203.587 201.974C202.478 199.139 201.107 196.848 199.822 195.097L204.292 193.96C218.642 201.645 213.872 214.839 211.066 220.282C216.293 214.866 226.819 207.455 241.496 214.154C241.496 214.154 239.557 214.429 236.562 214.984L233.475 214.273L234.944 215.292C232.014 215.863 228.379 216.655 224.639 217.663C250.325 212.338 248.419 234.748 248.419 234.748C247.31 232.646 245.796 230.954 244.021 229.596L244.373 226.825L243.323 229.089C240.628 227.224 237.41 226.055 234.082 225.354L235.635 219.037L232.901 225.128C229.286 224.481 225.599 224.346 222.375 224.438L220.913 220.697L220.208 224.535C215.706 224.804 212.534 225.435 212.534 225.435C257.301 232.943 232.105 263.184 232.105 263.184C232.464 259.373 231.987 255.816 230.969 252.545L232.771 249.64L230.304 250.637C229.338 248.131 228.065 245.808 226.636 243.689L232.294 238.009L225.879 242.606C224.254 240.353 222.479 238.354 220.744 236.635L224 231.121L219.386 235.341C215.184 231.455 211.568 229.31 211.568 229.31C230.115 244.153 206.935 260.796 206.935 260.796C207.96 257.374 208.625 254.307 209.036 251.548L212.86 250.696L209.128 250.922C209.441 248.583 209.558 246.481 209.532 244.59L214.812 242.773L209.513 243.684C209.395 240.876 208.945 238.564 208.338 236.688L211.836 234.581L208.057 235.885C206.282 231.094 203.555 229.434 203.555 229.434C201.055 229.45 198.51 229.612 195.991 229.871L195.286 227.402L194.386 230.048C192.128 230.318 189.903 230.663 187.756 231.056L186.588 226.216L186.203 231.347C183.919 231.789 181.752 232.28 179.749 232.765L178.9 229.051L179.083 232.926C172.342 234.603 167.696 236.246 167.696 236.246C177.08 212.521 203.144 225.694 203.144 225.694L203.15 225.699Z" fill="#655C99"/>
<path d="M111.077 237.579C111.077 237.579 111.138 237.652 111.253 237.789C111.366 237.93 111.536 238.143 111.756 238.414C112.183 238.962 112.784 239.774 113.506 240.829C114.216 241.89 115.056 243.186 115.932 244.709C116.796 246.233 117.755 247.971 118.661 249.913C119.579 251.849 120.508 253.974 121.351 256.259C122.223 258.538 122.991 260.977 123.708 263.522C124.033 264.797 124.4 266.092 124.676 267.419C124.822 268.08 124.967 268.745 125.116 269.416C125.237 270.089 125.363 270.763 125.486 271.446C125.756 272.803 125.912 274.183 126.121 275.561C126.308 276.944 126.42 278.34 126.571 279.732C126.656 281.126 126.762 282.525 126.817 283.916C126.838 285.308 126.904 286.698 126.883 288.075C126.845 289.453 126.859 290.82 126.777 292.169C126.691 293.517 126.629 294.853 126.518 296.163C126.385 297.472 126.249 298.758 126.122 300.019C125.943 301.276 125.763 302.502 125.593 303.698C125.443 304.899 125.176 306.049 124.978 307.17C124.765 308.288 124.579 309.375 124.32 310.405C123.845 312.47 123.42 314.37 122.932 316.028C122.469 317.692 122.092 319.151 121.685 320.33C120.928 322.702 120.49 324.055 120.49 324.055L112.622 321.9C112.622 321.9 113.133 320.632 114.031 318.417C114.503 317.312 114.972 315.948 115.535 314.385C116.128 312.83 116.67 311.044 117.276 309.102C117.6 308.133 117.856 307.108 118.14 306.053C118.408 304.994 118.75 303.908 118.98 302.771C119.236 301.637 119.491 300.475 119.761 299.285C119.98 298.087 120.201 296.867 120.425 295.621C120.633 294.375 120.781 293.101 120.97 291.815C121.145 290.525 121.234 289.218 121.376 287.898C121.497 286.576 121.535 285.244 121.624 283.906C121.675 282.568 121.671 281.22 121.697 279.876C121.653 278.533 121.65 277.181 121.572 275.843C121.472 274.505 121.427 273.166 121.268 271.845C121.197 271.184 121.13 270.524 121.063 269.868C120.972 269.216 120.882 268.564 120.788 267.921C120.626 266.626 120.363 265.356 120.149 264.103C119.647 261.606 119.088 259.2 118.412 256.946C117.765 254.686 117.026 252.571 116.278 250.64C115.543 248.703 114.74 246.967 114.014 245.431C113.275 243.901 112.558 242.593 111.942 241.524C111.319 240.461 110.796 239.641 110.429 239.089C110.241 238.821 110.101 238.615 110.004 238.474C109.905 238.337 109.854 238.265 109.854 238.265L111.081 237.566L111.077 237.579Z" fill="#655C99"/>
<path d="M127.826 215.238C124.987 215.337 122.53 215.697 120.404 216.258L124.059 217.552C126.243 215.927 127.826 215.238 127.826 215.238Z" fill="#655C99"/>
<path d="M113.235 240.589C115.17 238.63 117.37 236.933 119.69 235.454L118.681 232.215L121.256 234.497C124.154 232.806 127.174 231.445 130.067 230.356L129.145 227.47L130.954 230.022C138.659 227.237 145.151 226.392 145.151 226.392C117.512 218.013 113.33 234.872 112.983 236.569C113.995 230.724 116.17 226.246 118.593 222.882L115.546 219.997L119.517 221.672C121.159 219.621 122.849 218.05 124.324 216.891L121.211 215.181C108.057 218.696 108.037 230.032 108.672 234.861C106.172 229.617 100.163 221.834 87.0334 224.506C87.0334 224.506 88.4438 225.074 90.5872 226.055L93.154 226.047L91.7433 226.591C93.8321 227.573 96.4001 228.858 98.988 230.333C80.7654 221.471 75.977 239.609 75.977 239.609C77.4144 238.14 79.0481 237.07 80.7888 236.311L81.2911 234.048L81.4659 236.035C84.0539 235.041 86.8486 234.692 89.5977 234.736L90.1678 229.44L90.5671 234.769C93.5214 234.908 96.388 235.466 98.8359 236.12L101.001 233.414L100.471 236.588C103.851 237.614 106.108 238.687 106.108 238.687C69.6659 236.574 80.5636 265.131 80.5636 265.131C81.351 262.04 82.7086 259.302 84.4022 256.888L83.8305 254.256L85.445 255.493C86.8851 253.677 88.5094 252.062 90.1967 250.638L87.44 245.107L91.0797 249.914C92.9548 248.419 94.8744 247.151 96.6858 246.099L95.7251 241.134L98.0881 245.317C102.396 242.989 105.769 241.938 105.769 241.938C87.3987 250.379 100.542 267.775 100.542 267.775C100.71 264.872 101.055 262.317 101.509 260.052L98.8124 258.686L101.613 259.539C102.025 257.625 102.522 255.935 103.069 254.438L99.5251 252.043L103.337 253.722C104.21 251.514 105.2 249.759 106.189 248.379L104.093 246.075L106.629 247.792C109.327 244.308 111.883 243.482 111.883 243.482C113.796 243.946 115.704 244.533 117.564 245.193L118.793 243.36L118.746 245.624C120.404 246.245 122.015 246.92 123.552 247.62L125.799 243.988L124.663 248.131C126.292 248.894 127.818 249.674 129.22 250.421L130.906 247.625L129.685 250.669C134.39 253.216 137.497 255.359 137.497 255.359C136.914 234.828 113.241 240.586 113.241 240.586L113.235 240.589Z" fill="#655C99"/>
<path d="M-9.04851 45.7277C-8.13229 40.7933 -5.47665 36.8746 -1.10947 33.9717C1.81129 32.031 5.10876 30.9574 8.78761 30.7303C12.4665 30.5032 15.9965 31.0854 19.3777 32.4852C22.7542 33.8726 25.5261 35.8629 27.712 38.4561C30.9119 42.2467 32.2094 46.4008 31.6188 50.9058C31.0142 55.4191 28.3399 59.251 23.5728 62.4223C18.9079 65.5233 13.8013 66.7993 8.25741 66.2418C2.69961 65.6926 -1.77453 63.3926 -5.19758 59.3377C-8.6997 55.1878 -9.9787 50.6622 -9.04387 45.7318L-9.04851 45.7277Z" fill="#9D9D9D"/>
<g opacity="0.4">
<path d="M27.7115 38.4566C25.5256 35.8634 22.7537 33.8772 19.3771 32.4857C17.9819 31.9076 16.5587 31.4781 15.1123 31.1767C15.1867 31.2056 15.2611 31.2304 15.3355 31.2634C18.3958 32.5228 20.9073 34.3273 22.8885 36.6769C25.7907 40.1165 26.9674 43.8783 26.4279 47.9621C26.1535 50.0226 25.4 51.9303 24.1629 53.6811C24.0885 53.6192 24.0094 53.5614 23.9303 53.4994C23.1583 52.9585 22.2932 52.752 21.3398 52.88C20.3864 53.0039 19.6004 53.421 18.9772 54.1229C18.34 54.8414 18.0842 55.5847 18.2098 56.361C18.3307 57.1043 18.7307 57.7236 19.4004 58.2192C19.312 58.2811 19.2236 58.343 19.1353 58.405C14.9076 61.217 10.2754 62.3732 5.24776 61.8694C4.88499 61.8322 4.52687 61.7868 4.1734 61.7331C4.1734 61.7331 4.1734 61.7331 4.1734 61.729C4.48966 61.3698 4.62453 60.9568 4.57337 60.4861C4.52221 60.0154 4.28502 59.6314 3.85249 59.3299C3.42926 59.0326 2.95952 58.9211 2.43862 58.9913C1.91772 59.0615 1.48984 59.2845 1.14568 59.6685C0.796859 60.0608 0.657335 60.4655 0.727099 60.8908C0.727099 60.899 0.727103 60.9032 0.731754 60.9073C-2.28202 59.8791 -4.84 58.1118 -6.95615 55.6053C-7.62123 54.8166 -8.1933 54.0073 -8.68164 53.1897C-8.01656 55.3245 -6.86779 57.3727 -5.21207 59.3382C-1.78902 63.3931 2.68512 65.6972 8.24293 66.2423C13.7868 66.7997 18.8981 65.5238 23.5583 62.4227C28.3301 59.2515 31.0043 55.4195 31.6043 50.9063C32.195 46.4012 30.8974 42.2513 27.6976 38.4566L27.7115 38.4566Z" fill="#655C99"/>
<path d="M12.8567 44.4978C12.5963 45.8645 12.9544 47.1198 13.9218 48.2719C14.8706 49.3951 16.1124 50.0351 17.6518 50.1879C19.1912 50.3407 20.6051 49.9897 21.8981 49.1267C23.2189 48.2471 23.9631 47.1859 24.1305 45.9347C24.2933 44.6877 23.9352 43.5357 23.0468 42.4827C22.4422 41.7642 21.6748 41.2109 20.7353 40.8269C19.7959 40.4387 18.8192 40.2777 17.8006 40.3396C16.7821 40.4016 15.8659 40.6989 15.0566 41.2398C13.8474 42.045 13.1079 43.131 12.8567 44.4978Z" fill="#655C99"/>
<path d="M9.95379 38.9975C10.4468 39.3444 11.0095 39.5673 11.6421 39.6664C12.2746 39.7655 12.8931 39.7242 13.4978 39.5426C14.1024 39.3609 14.5954 39.0512 14.986 38.6093C15.5674 37.9528 15.8139 37.193 15.7209 36.3341C15.6279 35.4752 15.1907 34.7691 14.4 34.2158C13.628 33.6749 12.7629 33.4684 11.8095 33.5964C10.8561 33.7203 10.0701 34.1374 9.44684 34.8393C8.80967 35.5578 8.55387 36.3011 8.67945 37.0774C8.80502 37.8537 9.2329 38.4937 9.95379 39.0016L9.95379 38.9975Z" fill="#655C99"/>
<path d="M7.23739 58.9584C7.842 59.3837 8.53033 59.6562 9.30238 59.776C10.0791 59.8998 10.8372 59.8462 11.572 59.6232C12.3115 59.4002 12.9161 59.0203 13.3951 58.4835C14.1067 57.6783 14.409 56.7534 14.2974 55.7004C14.1858 54.6474 13.6463 53.7886 12.6789 53.1072C11.7301 52.4424 10.679 52.1905 9.50702 52.3474C8.33965 52.5002 7.37691 53.0081 6.61417 53.867C5.83282 54.7465 5.5212 55.655 5.67468 56.6047C5.82816 57.5544 6.34906 58.339 7.23273 58.9584L7.23739 58.9584Z" fill="#655C99"/>
<path d="M7.68285 50.1468C7.9526 50.3367 8.25956 50.4565 8.60373 50.5102C8.95254 50.5639 9.2874 50.5432 9.61761 50.44C9.94783 50.3409 10.2176 50.1716 10.4315 49.9321C10.7478 49.5728 10.8827 49.1599 10.8315 48.6892C10.7803 48.2184 10.5431 47.8344 10.1106 47.533C9.68738 47.2357 9.21763 47.1242 8.69673 47.1944C8.17584 47.2646 7.74796 47.4876 7.40379 47.8716C7.05497 48.2639 6.91545 48.6685 6.98521 49.0938C7.05498 49.515 7.28752 49.866 7.68285 50.1427L7.68285 50.1468Z" fill="#655C99"/>
</g>
</g>
<defs>
<linearGradient id="paint0_linear_1348_42429" x1="261.527" y1="272" x2="-31.437" y2="33.0212" gradientUnits="userSpaceOnUse">
<stop offset="0.108315" stop-color="#463F6B"/>
<stop offset="0.211629" stop-color="#3B3365"/>
<stop offset="0.740857" stop-color="#312A59"/>
<stop offset="0.851672" stop-color="#3B3B65"/>
</linearGradient>
<clipPath id="clip0_1348_42429">
<rect width="248" height="302" rx="15.8452" fill="white"/>
</clipPath>
</defs>
</svg>
