<svg width="308" height="470" viewBox="0 0 308 470" fill="none" xmlns="http://www.w3.org/2000/svg">
<path d="M20.6043 3.59488e-06L-0.00100435 4.26082e-06L-0.000982467 370.137L21.4145 379.465L-0.000981364 388.794L-0.000976562 470L20.6044 470C20.6044 465.03 25.9465 461 32.5332 461C39.1198 461 44.4619 465.03 44.4619 470L55.2988 470C55.2988 465.03 60.641 461 67.2276 461C73.8143 461 79.1564 465.03 79.1564 470L90.005 470C90.005 465.03 95.3472 461 101.934 461C108.52 461 113.863 465.03 113.863 470L124.711 470C124.711 465.03 130.053 461 136.64 461C143.227 461 148.569 465.03 148.569 470L159.417 470C159.417 465.03 164.76 461 171.346 461C177.933 461 183.275 465.03 183.275 470L194.124 470C194.124 465.03 199.466 461 206.052 461C212.639 461 217.981 465.03 217.981 470L228.83 470C228.83 465.03 234.172 461 240.759 461C247.345 461 252.687 465.03 252.687 470L263.536 470C263.536 465.03 268.878 461 275.465 461C282.052 461 287.394 465.03 287.394 470L307.999 470L307.999 390.078L283.637 379.465L307.999 368.853L307.999 0.00886152L287.394 0.00886219C287.394 4.97852 282.051 9.00914 275.465 9.00914C268.878 9.00914 263.536 4.97852 263.536 0.00886296L252.687 0.00886331C252.687 4.97852 247.345 9.00914 240.759 9.00914C234.172 9.00914 228.83 4.97852 228.83 0.00886408L217.981 0.00886443C217.981 4.97852 212.639 9.00914 206.052 9.00914C199.466 9.00914 194.124 4.97852 194.124 0.0088652L183.275 0.00886555C183.275 4.97852 177.933 9.00914 171.346 9.00914C164.76 9.00914 159.417 4.97852 159.417 0.00886632L148.569 0.00886667C148.569 4.97852 143.227 9.00914 136.64 9.00914C130.053 9.00915 124.711 4.97852 124.711 0.00886745L113.863 0.0088678C113.863 4.97852 108.52 9.00915 101.934 9.00915C95.3471 9.00915 90.005 4.97852 90.005 0.00886857L79.1564 0.00886892C79.1564 4.97852 73.8143 9.00915 67.2276 9.00915C60.6409 9.00915 55.2988 4.97852 55.2988 0.00886969L44.4619 0.00887004C44.4619 4.97852 39.1198 9.00915 32.5331 9.00915C25.9465 9.00915 20.6043 4.97853 20.6043 0.00887081L20.6043 3.59488e-06ZM265.192 376.737C266.906 376.737 268.291 377.782 268.291 379.076C268.291 380.369 266.906 381.414 265.192 381.414L249.682 381.414C247.968 381.414 246.582 380.369 246.582 379.076C246.582 377.782 247.968 376.737 249.682 376.737L265.192 376.737ZM234.172 376.737C235.886 376.737 237.272 377.782 237.272 379.076C237.272 380.369 235.886 381.414 234.172 381.414L218.662 381.414C216.948 381.414 215.563 380.369 215.563 379.076C215.563 377.782 216.948 376.737 218.662 376.737L234.172 376.737ZM203.152 376.737C204.867 376.737 206.252 377.782 206.252 379.076C206.252 380.369 204.867 381.414 203.152 381.414L187.643 381.414C185.928 381.414 184.543 380.369 184.543 379.076C184.543 377.782 185.928 376.737 187.643 376.737L203.152 376.737ZM172.133 376.737C173.847 376.737 175.232 377.782 175.232 379.076C175.232 380.369 173.847 381.414 172.133 381.414L156.623 381.414C154.909 381.414 153.523 380.369 153.523 379.076C153.523 377.782 154.909 376.737 156.623 376.737L172.133 376.737ZM141.102 376.737C142.816 376.737 144.201 377.782 144.201 379.076C144.201 380.369 142.816 381.414 141.102 381.414L125.592 381.414C123.878 381.414 122.492 380.369 122.492 379.076C122.492 377.782 123.878 376.737 125.592 376.737L141.102 376.737ZM110.082 376.737C111.796 376.737 113.182 377.782 113.182 379.076C113.182 380.369 111.796 381.414 110.082 381.414L94.5723 381.414C92.8581 381.414 91.4727 380.369 91.4727 379.076C91.4727 377.782 92.8581 376.737 94.5723 376.737L110.082 376.737ZM79.0625 376.737C80.7767 376.737 82.1621 377.782 82.1621 379.076C82.1621 380.369 80.7767 381.414 79.0625 381.414L63.5527 381.414C61.8385 381.414 60.4531 380.369 60.4531 379.076C60.4531 377.782 61.8385 376.737 63.5527 376.737L79.0625 376.737ZM48.0429 376.737C49.7571 376.737 51.1425 377.782 51.1425 379.076C51.1425 380.369 49.7571 381.414 48.0429 381.414L32.5332 381.414C30.819 381.414 29.4335 380.369 29.4335 379.076C29.4335 377.782 30.819 376.737 32.5332 376.737L48.0429 376.737Z" fill="#FFFEFE" fill-opacity="0.95"/>
</svg>
