<svg width="362" height="302" viewBox="0 0 362 302" fill="none" xmlns="http://www.w3.org/2000/svg" xmlns:xlink="http://www.w3.org/1999/xlink">
    <g opacity="0.2">
    <mask id="mask0_3774_353691" style="mask-type:alpha" maskUnits="userSpaceOnUse" x="0" y="0" width="362" height="272">
    <path opacity="0.48" fill-rule="evenodd" clip-rule="evenodd" d="M0 149.914C0 181.179 11.2713 209.67 29.819 231.202C51.0974 255.912 81.9532 271.448 116.347 271.5C131.379 271.522 145.752 268.569 158.954 263.177C165.78 260.388 173.42 260.708 180.032 264.012C187.787 267.883 196.471 270.053 205.641 270.053C209.429 270.053 213.139 269.68 216.727 268.972C226.969 266.958 236.29 262.192 243.945 255.442C248.755 251.198 254.916 249.065 261.213 249.073H261.32C282.127 249.073 301.454 242.487 317.5 231.202C331.845 221.126 343.559 207.298 351.364 191.062C358.169 176.913 362 160.93 362 144.014C362 85.9955 316.92 38.9553 261.32 38.9553C255.652 38.9553 250.099 39.4548 244.681 40.387C230.336 16.1543 204.647 0 175.343 0C162.97 0 151.241 2.87917 140.742 8.04034C130.757 12.9327 121.879 19.8846 114.617 28.3567C89.958 28.7669 67.157 37.1728 48.4952 51.2015C19.1192 73.2712 0 109.265 0 149.914Z" fill="url(#paint0_linear_3774_353691)"/>
    </mask>
    <g mask="url(#mask0_3774_353691)">
    <rect width="362" height="271.5" fill="#2DCDFF"/>
    </g>
    </g>
    <rect width="5.71682" height="5.00222" transform="matrix(-0.0992611 -0.995061 -0.995061 0.0992611 341.109 16.0796)" fill="url(#pattern0_3774_353691)"/>
    <path d="M116.55 128.153C116.55 128.153 118.587 129.454 121.58 131.421C128.879 136.237 141.855 145.051 144.641 148.69L162.859 151.187L166.691 151.71L161.249 122.711C161.249 122.711 136.716 121.514 128.432 115.24C127.434 114.483 126.671 113.651 126.217 112.742L122.337 118.921L121.765 119.836L120.128 122.45L116.55 128.153Z" fill="#BFE6F2"/>
    <path d="M90.154 99.2924C90.9315 101.962 91.9016 104.108 92.39 104.59C92.8303 105.03 93.3944 105.388 94.048 105.677C94.6742 105.952 95.3897 106.165 96.1602 106.324C98.6715 106.847 101.809 106.798 104.623 106.558C105.524 106.482 106.391 106.386 107.189 106.282C109.982 105.931 112.018 105.498 112.018 105.498C114.303 105.704 118.169 112.639 120.357 116.939C121.004 118.219 121.506 119.265 121.767 119.836C121.912 120.132 121.987 120.297 121.987 120.297L122.338 118.921L122.345 118.907L124.402 110.933C124.1 110.699 123.749 110.307 123.357 109.791V109.784C121.017 106.723 117.309 99.3474 115.493 95.6323C114.839 94.2838 114.433 93.4169 114.433 93.4169C112.934 91.2085 110.243 89.8049 107.189 88.9174C106.356 88.6698 105.496 88.4702 104.623 88.2982C104.368 88.2501 104.113 88.2019 103.859 88.1607C101.932 87.8235 99.9786 87.6447 98.176 87.5621C97.4742 87.5277 96.8 87.5071 96.1602 87.5002C95.4035 87.4864 94.6948 87.4864 94.048 87.4933C91.7778 87.5346 90.2709 87.6791 90.2709 87.6791C89.6243 88.5047 89.2596 89.6054 89.1151 90.8576C88.7987 93.4307 89.3765 96.623 90.154 99.2924Z" fill="#FFDE17"/>
    <path d="M87.0963 89.6394C87.0963 89.6394 87.0963 90.059 87.1375 90.7333C87.2752 92.8248 87.8393 97.3587 90.151 99.2919C90.4605 99.5465 90.7977 99.7598 91.1761 99.9111C91.1761 99.9111 92.3801 100.744 94.045 100.358C94.6918 100.207 95.4142 99.8767 96.1571 99.23C96.9552 98.5489 97.7809 97.51 98.5789 95.9827C98.5789 95.9827 98.7647 94.9575 98.8198 93.4509C98.8885 91.8203 98.806 89.6256 98.1729 87.5616C97.7671 86.2201 97.1342 84.9404 96.1571 83.9084C95.5792 83.2961 94.8845 82.7732 94.045 82.3742C93.9487 82.326 93.8454 82.2778 93.7423 82.2365C93.7423 82.2365 88.1559 79.519 87.0963 89.6394Z" fill="#FFDE17"/>
    <path d="M103.108 94.772C103.108 94.772 106.225 98.4527 111.22 95.6732C111.378 95.5838 111.55 95.4806 111.715 95.3774L115.492 95.6801C115.038 95.3774 112.795 85.1676 106.28 86.4679C105.833 86.5573 103.356 87.4448 102.276 89.3575C101.54 90.6646 101.45 92.4465 103.108 94.772Z" fill="#FFDE17"/>
    <path d="M114.435 128.752L119.877 133.286C120.489 132.694 121.06 132.068 121.583 131.421C123.33 129.302 124.665 126.915 125.683 124.542C127.169 121.095 127.988 117.696 128.435 115.24C128.841 112.997 128.938 111.539 128.938 111.539C128.938 111.539 123.502 104.59 123.798 107.61C123.84 108.05 123.674 108.807 123.358 109.784C122.759 111.621 121.624 114.242 120.358 116.939C119.629 118.508 118.852 120.104 118.109 121.597C116.148 125.539 114.435 128.752 114.435 128.752Z" fill="#D7EEF4"/>
    <g style="mix-blend-mode:multiply" opacity="0.2">
    <path d="M114.431 128.752L119.873 133.286C120.486 132.694 121.057 132.068 121.58 131.421C128.879 136.237 141.855 145.051 144.641 148.69L162.859 151.188L165.48 147.686L153.798 132.178C153.798 132.178 155.429 142.519 144.338 138.824C144.338 138.824 128.226 134.194 124.001 128.553C124.001 128.553 126.368 124.762 125.68 124.542C125.66 124.535 125.639 124.528 125.611 124.528C125.198 124.528 122.591 123.482 120.128 122.45C119.426 122.154 118.731 121.865 118.105 121.597C116.145 125.539 114.431 128.752 114.431 128.752Z" fill="#231F20"/>
    </g>
    <path d="M230.123 36.733L231.155 45.3398C238.681 47.7054 250.965 48.0074 258.035 46.3924C254.389 33.4925 247.75 20.3587 235.263 9C235.435 9.41967 240.828 22.464 230.123 36.733Z" fill="#ED1C24"/>
    <path d="M231.111 44.989L231.152 45.3399L234.207 70.8575C235.225 70.7199 236.216 70.5479 237.165 70.3553C246.357 68.5183 252.659 64.4729 256.835 60.5307C257.846 59.5813 258.734 58.6319 259.511 57.7237C259.532 57.7031 259.552 57.6756 259.566 57.6549C259.848 57.3178 260.117 56.9876 260.371 56.6642C260 54.5796 259.566 52.4743 259.057 50.3553C258.761 49.1101 258.438 47.851 258.087 46.5989C257.42 46.6608 256.759 46.7158 256.112 46.764C243.956 47.6997 235.844 46.3443 231.111 44.989Z" fill="#F7941D"/>
    <path d="M234.215 70.9054L234.628 74.3591C236.465 74.8545 238.405 75.1434 240.386 75.2604C244.177 75.4874 248.133 75.109 251.876 74.4417C255.343 73.8225 258.618 72.9556 261.404 72.0956C261.453 71.8823 261.494 71.6759 261.535 71.4627C261.7 70.7058 261.852 69.956 261.996 69.2129C261.638 65.2019 261.143 61.0258 260.386 56.7603C260.118 57.063 259.85 57.3657 259.567 57.6546C259.554 57.6753 259.533 57.7028 259.512 57.7234C258.659 58.6385 257.786 59.4916 256.898 60.2828C250.197 66.3371 242.829 69.1028 237.166 70.355C236.121 70.5889 235.13 70.7678 234.215 70.9054Z" fill="#FFDE17"/>
    <path d="M234.71 75.0474L235.77 83.8812L237.29 96.6159L237.297 96.6503C246.337 93.7332 253.781 88.2912 255.515 86.9565C255.763 86.7707 255.894 86.6675 255.894 86.6675C258.019 85.5048 259.967 78.7763 261.404 72.0958C261.453 71.8826 261.494 71.6762 261.535 71.4629C258.095 72.4054 255.006 73.1347 252.233 73.6989C247.397 74.6827 243.51 75.1436 240.386 75.2606C238.116 75.35 236.245 75.2537 234.71 75.0474Z" fill="#ED1C24"/>
    <path d="M237.291 96.6159L237.298 96.6503L239.383 114.056L254.691 116.87C254.691 116.87 259.493 107.122 261.516 91.7105C258.234 89.674 255.895 86.6675 255.895 86.6675C255.895 86.6675 255.764 86.7707 255.516 86.9565C253.776 88.2567 246.249 93.6437 237.291 96.6159Z" fill="#5887C6"/>
    <g style="mix-blend-mode:multiply" opacity="0.2">
    <path d="M235.766 83.8811L237.286 96.6159L237.293 96.6503L239.378 114.056L254.686 116.87C254.686 116.87 259.488 107.122 261.511 91.7105C258.229 89.674 255.89 86.6675 255.89 86.6675C258.016 85.5048 259.963 78.7762 261.4 72.0958C261.449 71.8825 261.49 71.6761 261.531 71.4628C261.696 70.706 261.848 69.9561 261.992 69.2131C261.634 65.2021 261.139 61.026 260.382 56.7604C260.114 57.0632 259.846 57.3659 259.564 57.6548C259.846 57.3177 260.114 56.9875 260.368 56.6641C259.997 54.5795 259.564 52.4742 259.054 50.3552C258.476 53.5681 257.761 56.9462 256.894 60.283L256.832 60.5306C255.614 65.2159 254.094 69.8048 252.23 73.6988C252.113 73.9465 251.989 74.1942 251.872 74.4419C248.06 82.0029 242.852 86.695 235.766 83.8811Z" fill="#231F20"/>
    </g>
    <path d="M156.35 33.8144C155.872 28.9891 152.018 24.9914 147.279 25.4612C142.541 25.9309 138.898 31.2664 139.376 36.0917C139.855 40.917 144.215 42.821 148.954 42.3513C153.693 41.8816 156.829 38.6397 156.35 33.8144Z" fill="#D1D3D4"/>
    <path d="M156.612 33.2624C156.174 28.8471 152.367 25.2169 147.642 25.6853C142.916 26.1537 139.244 31.0695 139.682 35.4848C140.12 39.9002 144.448 41.6088 149.174 41.1404C153.899 40.672 157.05 37.6777 156.612 33.2624Z" fill="white"/>
    <path d="M146.726 38.04C145.027 38.04 143.65 36.3991 143.65 34.3749C143.65 32.3507 145.027 30.7097 146.726 30.7097C148.424 30.7097 149.801 32.3507 149.801 34.3749C149.801 36.3991 148.424 38.04 146.726 38.04Z" fill="#2B3990" stroke="#262262" stroke-width="0.350059" stroke-miterlimit="10"/>
    <path d="M146.804 35.797C146.203 35.797 145.717 35.1724 145.717 34.402C145.717 33.6316 146.203 33.0071 146.804 33.0071C147.404 33.0071 147.891 33.6316 147.891 34.402C147.891 35.1724 147.404 35.797 146.804 35.797Z" fill="#231F20"/>
    <path d="M145.307 33.0621C144.696 33.0621 144.2 32.6213 144.2 32.0774C144.2 31.5336 144.696 31.0928 145.307 31.0928C145.918 31.0928 146.414 31.5336 146.414 32.0774C146.414 32.6213 145.918 33.0621 145.307 33.0621Z" fill="white"/>
    <path d="M154.234 14.5183C153.548 13.8198 152.691 13.4109 151.793 13.1366C150.889 12.8529 149.904 12.9366 148.96 13.0913C148.014 13.2484 147.075 13.6019 146.319 14.2088C145.579 14.8513 145.139 15.7109 144.88 16.5701L145.008 16.6195C145.464 15.8595 145.993 15.1723 146.718 14.769C147.433 14.3636 148.243 14.1967 149.061 14.1874C149.887 14.1656 150.691 14.4218 151.527 14.4865C152.37 14.5621 153.225 14.6572 154.179 14.6441L154.234 14.5183Z" fill="#231F20"/>
    <path d="M149.17 219.973C150.69 221.404 152.28 222.739 153.931 223.97C157.212 226.433 160.721 228.518 164.361 230.272H164.368C167.415 231.758 170.559 233.01 173.724 234.063C175.685 234.73 177.66 235.315 179.627 235.831C180.047 235.941 180.474 236.051 180.9 236.154C185.496 237.303 190.037 238.101 194.316 238.631C197.109 238.989 199.799 239.237 202.317 239.395C213.373 240.124 221.258 239.305 221.258 239.305L205.551 214.132L202.063 212.508L197.171 210.238L188.399 206.158L184.987 204.569L170.917 198.026L164.436 204.569L161.113 207.919L159.166 209.887L158.437 210.616L154.151 214.944L149.17 219.973Z" fill="#96B6BC"/>
    <path d="M179.983 35.1201C179.983 35.1201 150.986 43.9801 142.126 54.8537C133.266 65.7274 190.051 82.6419 190.051 82.6419C190.051 82.6419 183.506 53.3435 179.983 35.1201Z" fill="#F7941D"/>
    <path d="M175.092 14.1393C175.546 23.8125 179.687 34.4007 179.963 35.0887C179.976 35.1093 179.976 35.1231 179.976 35.1231C185.171 31.4423 203.891 31.1946 220.1 31.7451C220.141 31.7519 220.176 31.7519 220.217 31.7519C223.857 31.8758 227.372 32.0409 230.571 32.2198C230.668 32.2266 230.771 32.2335 230.867 32.2335C229.017 30.1626 227.049 28.4908 224.957 27.3212C216.626 22.3814 209.216 18.5425 202.549 15.818C191.693 11.3735 182.797 9.87373 175.071 11.3254C175.037 12.2473 175.043 13.1899 175.092 14.1393Z" fill="#ED1C24"/>
    <path d="M179.976 35.1231C180.746 38.969 181.579 43.1175 182.418 47.2593C182.418 47.2662 182.425 47.2799 182.425 47.2937C185.424 62.1199 188.438 76.8017 188.438 76.8017C188.555 76.8911 188.686 76.9806 188.816 77.0631C188.974 77.1663 189.146 77.2695 189.326 77.359C189.33 77.359 189.335 77.3613 189.339 77.3658C195.118 80.3724 209.436 78.1295 210.151 78.0194V78.0126H210.178C210.213 78.0126 210.254 78.0057 210.309 77.9988L236.859 74.834L244.915 73.8777L246.305 73.7126C246.58 73.6782 246.821 73.6507 247.041 73.6232L247.612 73.5543C248.018 73.5062 248.238 73.4787 248.238 73.4787L248.183 72.1508L248.176 72.1371C244.296 56.5059 238.613 40.9503 230.928 32.3023L230.571 32.2198C227.371 32.0409 223.856 31.8758 220.216 31.7519C220.175 31.7519 220.141 31.7519 220.099 31.745C203.89 31.1946 185.17 31.4423 179.976 35.1231Z" fill="#5887C6"/>
    <path d="M210.182 78.0123C210.189 78.0192 210.195 78.0329 210.195 78.0398C210.546 78.6865 217.474 91.5107 228.049 104.19C232.968 110.073 238.665 115.928 244.863 120.523C245.049 120.661 245.235 120.799 245.421 120.929C245.985 121.342 246.556 121.741 247.127 122.126C249.039 123.427 251 124.589 252.989 125.594C253.635 122.78 254.199 119.87 254.688 116.87C254.867 109.811 252.913 91.7102 248.503 73.4509L248.241 73.4784C248.241 73.4784 248.021 73.5059 247.615 73.5541C247.457 73.5748 247.265 73.5954 247.044 73.6229C246.824 73.6504 246.583 73.6779 246.308 73.7124C245.902 73.7605 245.434 73.8155 244.918 73.8775C242.875 74.1251 240.047 74.4691 236.869 74.8544C226.439 76.1066 212.301 77.8059 210.312 77.9985C210.257 78.0054 210.216 78.0123 210.182 78.0123Z" fill="#F7941D"/>
    <path d="M138.852 50.1211L139.004 52.2333L144.542 52.8387C144.542 52.8387 159.038 41.6657 179.98 35.1229C179.98 35.1229 174.195 15.3156 175.075 11.3252C160.703 14.0222 150.349 26.9289 138.852 50.1211Z" fill="#5887C6"/>
    <path d="M153.388 125.883C153.684 127.541 154.007 128.449 154.007 128.449L161.555 145.972L180.282 155.033L201.121 142.347C183.605 139.932 154.454 109.426 154.454 109.426C152.384 116.925 152.831 122.753 153.388 125.883Z" fill="#F7941D"/>
    <path d="M132.075 92.7701C134.572 96.2789 137.524 99.1616 140.441 101.473C147.341 106.956 154.091 109.296 154.441 109.42C152.598 108.291 150.891 106.853 149.316 105.182C134.655 89.6741 130.802 53.5958 130.472 50.1833C122.546 56.4716 122.402 83.3859 132.075 92.7701Z" fill="#FFDE17"/>
    <path d="M140.439 101.473C145.509 108.071 149.85 116.416 153.29 125.89L153.387 125.883C152.83 122.753 152.382 116.925 154.453 109.426L154.439 109.419C154.088 109.296 147.339 106.956 140.439 101.473Z" fill="#5887C6"/>
    <path d="M154.454 109.426L154.475 109.447C154.482 109.461 154.503 109.481 154.53 109.509C154.523 109.516 154.53 109.516 154.53 109.516H154.537C154.558 109.543 154.585 109.578 154.619 109.619C154.619 109.619 154.619 109.626 154.626 109.633C156.649 111.986 175.727 133.754 194.461 140.592C196.133 141.205 197.798 141.7 199.449 142.037C199.669 142.092 199.889 142.133 200.103 142.175C200.44 142.237 200.784 142.299 201.121 142.347L204.857 143.014L209.267 143.798L214.475 144.727L233.828 134.524L243.467 129.447L247.127 122.127L247.285 121.803C247.285 121.803 246.728 121.528 245.662 120.806C245.531 120.716 245.4 120.62 245.256 120.517C242.407 118.515 236.642 113.781 228.476 103.84C223.309 97.5445 217.172 89.1511 210.196 78.04C210.196 78.0331 210.189 78.0193 210.182 78.0125C210.182 78.0125 210.175 78.0125 210.154 78.0193C209.742 78.1707 204.506 80.1177 197.096 83.4407C185.978 88.4286 169.962 96.5263 158.025 106.323C156.814 107.321 155.638 108.332 154.523 109.364C154.509 109.378 154.496 109.392 154.482 109.406C154.461 109.419 154.454 109.426 154.454 109.426Z" fill="#FFDE17"/>
    <path d="M130.443 49.9217C130.443 49.9217 134.674 97.3176 154.44 109.419C154.447 109.426 154.453 109.426 154.453 109.426C154.453 109.426 191.117 83.3238 211.66 77.5653C210.938 77.7235 198.003 80.4892 189.493 77.407C189.493 77.407 174.997 73.1759 162.916 63.9636C162.916 63.9636 144.643 50.6785 135.885 48.7108C135.885 48.7108 133.621 48.4356 131.825 49.0892C131.303 49.275 130.821 49.5433 130.443 49.9217Z" fill="#ED1C24"/>
    <path d="M246.227 120.498C246.227 120.498 171.01 122.317 154.452 109.426C154.452 109.426 180.783 141.641 202.933 144.058L246.227 120.498Z" fill="#5887C6"/>
    <path d="M214.012 138.42C214.012 138.42 178.169 145.065 162.463 136.003L170.719 165.604L189.848 165.805L214.012 138.42Z" fill="#E6E7E8"/>
    <path d="M160.947 204.569C160.947 205.711 161.001 206.826 161.111 207.92C161.173 208.608 161.256 209.282 161.359 209.949C161.364 209.954 161.366 209.958 161.366 209.963C161.841 213.059 162.687 215.935 163.719 218.542C166.003 224.287 169.202 228.738 171.37 231.353C172.353 232.543 173.124 233.355 173.495 233.726C173.495 233.733 173.502 233.74 173.516 233.747C173.661 233.891 173.736 233.967 173.736 233.967C173.709 233.699 173.833 233.19 174.087 232.502C174.094 232.481 174.101 232.46 174.115 232.433C174.128 232.405 174.135 232.371 174.149 232.343C174.995 230.149 177.018 226.241 179.316 222.044C181.476 218.102 183.877 213.905 185.797 210.61C186.856 208.78 187.764 207.225 188.397 206.158C188.989 205.154 189.34 204.569 189.34 204.569H160.947Z" fill="#ED1C24"/>
    <path d="M149.771 232.557C149.784 232.584 149.798 232.618 149.812 232.646C151.883 237.235 156.788 240.585 161.054 242.608C162.388 243.241 163.661 243.736 164.762 244.101C164.803 244.115 164.838 244.129 164.879 244.142C167.232 240.84 169.296 237.531 171.112 234.559L173.555 234.435L173.72 234.063L173.727 234.05C173.651 233.946 173.575 233.85 173.513 233.747C173.5 233.74 173.493 233.733 173.493 233.726C172.963 233.004 172.461 232.295 171.979 231.58V231.573C168.677 226.722 166.248 222.03 164.556 218.26C162.505 213.706 161.522 210.499 161.363 209.963C161.363 209.958 161.361 209.954 161.356 209.949C161.356 209.928 161.35 209.915 161.35 209.901C161.343 209.894 161.343 209.887 161.343 209.887H158.598C158.543 210.128 158.494 210.376 158.432 210.616C158.309 211.201 158.171 211.779 158.033 212.357C157.043 215.673 156.004 218.7 154.924 221.473C154.6 222.333 154.27 223.165 153.926 223.97C152.585 227.19 151.195 230.038 149.771 232.557Z" fill="#F7941D"/>
    <path d="M143.849 240.978C144.468 245.209 145.775 249.984 148.444 253.795C149.449 255.24 150.653 256.547 152.084 257.634C157.017 253.946 161.213 249.055 164.763 244.101C164.825 244.012 164.887 243.929 164.949 243.84C164.007 243.262 162.927 242.581 161.764 241.824C157.904 239.313 153.171 235.955 149.813 232.646C149.779 232.612 149.745 232.577 149.71 232.543C147.791 235.893 145.823 238.666 143.849 240.978Z" fill="#ED1C24"/>
    <path d="M125.873 263.124C129.279 264.012 133.132 264.177 134.095 263.908C140.989 264.005 146.94 261.48 152.086 257.634C150.655 256.547 149.451 255.24 148.446 253.795C145.777 249.983 144.47 245.209 143.851 240.978C134.315 252.185 124.8 252.68 120.968 256.76C118.608 260.124 121.945 262.099 125.873 263.124Z" fill="#FFDE17"/>
    <path d="M173.934 233.561L178.041 233.637L179.369 233.664C179.369 233.664 179.617 233.616 180.064 233.534C181.688 233.231 185.967 232.46 191.003 231.71C194.113 231.256 197.512 230.809 200.745 230.493C200.738 230.445 200.731 230.403 200.731 230.355C200.36 225.23 200.745 219.354 202.059 212.509C202.211 211.704 202.376 210.892 202.555 210.059L197.168 210.238L185.795 210.61H185.713C185.713 210.61 182.362 216.244 179.232 221.955C176.975 226.076 174.822 230.238 174.141 232.337C174.127 232.371 174.12 232.405 174.113 232.433C174.099 232.46 174.092 232.481 174.085 232.502C173.934 232.997 173.879 233.362 173.934 233.561Z" fill="#5887C6"/>
    <path d="M179.701 234.167C180.1 234.793 180.492 235.46 180.898 236.155C182.556 239.079 184.228 242.56 186.093 246.172C186.168 246.317 186.237 246.454 186.313 246.599C189.464 246.076 193.516 245.526 197.651 245.285C199.949 245.147 202.274 245.106 204.489 245.223C204.531 245.223 204.572 245.23 204.613 245.23C203.705 243.42 202.935 241.48 202.315 239.396C201.517 236.699 200.981 233.747 200.747 230.493C200.74 230.445 200.733 230.404 200.733 230.355C197.403 230.348 193.523 230.631 189.925 231.105C186.003 231.614 182.419 232.344 180.279 233.162L180.066 233.534L179.701 234.167Z" fill="#ED1C24"/>
    <path d="M186.089 246.172C186.165 246.317 186.234 246.454 186.31 246.599C189.461 252.687 193.155 259.113 198.274 263.86C198.398 263.977 198.528 264.094 198.659 264.204C200.806 262.14 203.819 259.285 206.605 256.76C207.913 255.584 209.172 254.476 210.266 253.561L210.252 253.547C208.263 251.291 205.993 248.037 204.486 245.223C204.404 245.058 204.321 244.899 204.239 244.741C202.092 244.5 199.76 244.473 197.276 244.624C193.802 244.831 190.032 245.381 186.089 246.172Z" fill="#F7941D"/>
    <path d="M198.277 263.861C198.401 263.978 198.531 264.095 198.662 264.205C201.785 267.019 205.439 269.206 209.807 270.314C211.3 270.699 212.876 270.954 214.548 271.071C217.3 271.766 223.361 273.052 226.794 272.048C228.438 271.566 229.484 270.555 229.264 268.697C228.899 265.154 223.822 261.742 218.655 259.045C216.625 257.978 214.575 257.029 212.8 256.217C211.926 255.364 211.073 254.476 210.268 253.561L210.255 253.548C209.106 254.38 207.757 255.391 206.333 256.52C203.636 258.659 200.664 261.233 198.277 263.861Z" fill="#FFDE17"/>
    <path d="M223.977 54.1061C223.977 47.8189 219.322 42.168 212.879 42.168C206.436 42.168 200.82 48.5864 200.82 54.8735C200.82 61.1606 206.436 64.175 212.879 64.175C219.322 64.175 223.977 60.3932 223.977 54.1061Z" fill="#D1D3D4"/>
    <path d="M222.469 53.5426C222.469 47.6582 218.198 42.3691 212.288 42.3691C206.377 42.3691 201.225 48.3765 201.225 54.2609C201.225 60.1453 206.377 62.9666 212.288 62.9666C218.198 62.9666 222.469 59.427 222.469 53.5426Z" fill="white"/>
    <path d="M213.151 61.0849C210.801 61.0849 208.896 58.7208 208.896 55.8047C208.896 52.8885 210.801 50.5244 213.151 50.5244C215.501 50.5244 217.406 52.8885 217.406 55.8047C217.406 58.7208 215.501 61.0849 213.151 61.0849Z" fill="#2B3990" stroke="#262262" stroke-width="0.494246" stroke-miterlimit="10"/>
    <path d="M213.266 57.8538C212.435 57.8538 211.762 56.954 211.762 55.8441C211.762 54.7342 212.435 53.8345 213.266 53.8345C214.096 53.8345 214.77 54.7342 214.77 55.8441C214.77 56.954 214.096 57.8538 213.266 57.8538Z" fill="#231F20"/>
    <path d="M211.195 53.9133C210.349 53.9133 209.663 53.2782 209.663 52.4947C209.663 51.7113 210.349 51.0762 211.195 51.0762C212.041 51.0762 212.727 51.7113 212.727 52.4947C212.727 53.2782 212.041 53.9133 211.195 53.9133Z" fill="white"/>
    <path d="M207.2 27.4398C208.868 27.3006 210.412 27.2569 211.849 27.4016C212.564 27.5055 213.252 27.5908 213.89 27.8183C214.534 28.0085 215.142 28.2633 215.695 28.6159C216.84 29.2506 217.81 30.2313 218.726 31.3817C219.641 32.5386 220.444 33.8823 221.383 35.2908L221.539 35.2516C221.174 33.686 220.649 32.1403 219.828 30.7386C219.03 29.3343 217.924 28.0635 216.508 27.2301C215.094 26.3952 213.428 26.053 211.809 26.1216C210.184 26.1864 208.588 26.5914 207.128 27.2962L207.2 27.4398Z" fill="#231F20"/>
    <g style="mix-blend-mode:multiply" opacity="0.2">
    <path d="M145.238 103.083C145.238 103.083 148.176 105.505 153.019 108.47C153.04 108.477 153.054 108.491 153.074 108.504C153.542 108.786 154.017 109.075 154.519 109.364L154.526 109.371C156.597 110.575 158.957 111.841 161.537 113.045C168.348 116.224 176.7 118.969 185.41 119.086C185.41 119.086 214.994 119.086 222.575 133.368C222.926 134.015 223.222 134.689 223.47 135.398L233.824 134.524L243.463 129.447L247.123 122.127C249.036 123.427 250.996 124.59 252.985 125.594C253.631 122.78 254.195 119.87 254.684 116.87C254.863 109.811 252.909 91.7104 248.499 73.4511L248.238 73.4786L248.182 72.1507L248.176 72.137C244.295 56.5058 238.613 40.9502 230.928 32.3022L230.57 32.2196C230.666 32.2265 230.769 32.2334 230.866 32.2334C229.015 30.1625 227.047 28.4907 224.956 27.3211C216.624 22.3813 209.215 18.5423 202.548 15.8179C206.525 18.6937 211.272 22.4983 215.757 27.0184C217.243 28.5182 218.702 30.0937 220.099 31.7449C220.188 31.8481 220.277 31.9582 220.36 32.0614C225.616 38.3565 229.868 45.663 231.024 53.5474C231.024 53.5474 235.441 63.3307 236.858 74.8339C236.865 74.8408 236.865 74.8477 236.865 74.8545C238.124 85.0231 237.03 96.5401 228.472 103.84C228.334 103.964 228.189 104.08 228.045 104.191C226.621 105.353 225.004 106.399 223.167 107.307C223.167 107.307 188.871 118.219 158.599 106.55C158.406 106.482 158.214 106.406 158.021 106.323C155.847 105.47 153.694 104.493 151.581 103.386C151.581 103.386 147.522 100.716 145.314 100.076H145.307C143.807 99.6361 143.16 100.145 145.238 103.083Z" fill="#231F20"/>
    </g>
    <g style="mix-blend-mode:multiply" opacity="0.2">
    <path d="M154.004 221.782L154.926 221.473L163.719 218.542L164.558 218.26L173.027 215.439C173.027 215.439 175.724 218.459 179.233 221.954C179.261 221.982 179.288 222.009 179.316 222.044C182.687 225.401 186.78 229.171 189.924 231.105C190.303 231.332 190.661 231.538 191.005 231.71C191.266 231.848 191.514 231.958 191.754 232.054C191.754 232.054 192.621 234.806 194.314 238.631C195.112 240.448 196.103 242.505 197.279 244.624C197.396 244.844 197.52 245.064 197.651 245.284C199.914 249.288 202.824 253.437 206.333 256.519C206.422 256.602 206.512 256.684 206.608 256.76C209.381 259.133 212.525 260.84 216.02 261.287C216.185 261.314 216.35 261.335 216.522 261.349C216.522 261.349 227.702 266.185 226.794 271.923V272.047C228.438 271.565 229.484 270.554 229.264 268.697C228.899 265.153 223.822 261.741 218.655 259.044C216.625 257.978 214.575 257.028 212.8 256.216C211.926 255.363 211.073 254.476 210.268 253.561L210.255 253.547C208.266 251.29 205.996 248.036 204.489 245.222C204.53 245.222 204.572 245.229 204.613 245.229C203.705 243.42 202.934 241.48 202.315 239.395C213.371 240.124 221.256 239.305 221.256 239.305L205.549 214.132L202.061 212.508C202.212 211.703 202.377 210.891 202.556 210.059L197.169 210.238L188.397 206.158C188.989 205.153 189.34 204.569 189.34 204.569H184.985L170.915 198.026L164.434 204.569H160.946C160.946 205.711 161.001 206.825 161.111 207.919L159.164 209.887H158.6C158.545 210.128 158.497 210.375 158.435 210.616L154.149 214.944L154.004 221.782Z" fill="#231F20"/>
    </g>
    <g style="mix-blend-mode:multiply" opacity="0.2">
    <path d="M125.875 263.124C129.28 264.012 133.133 264.177 134.096 263.908C140.99 264.005 146.941 261.48 152.087 257.634C157.02 253.946 161.217 249.055 164.767 244.101C164.808 244.115 164.843 244.129 164.884 244.142C167.237 240.84 169.301 237.531 171.117 234.559L173.559 234.435L173.725 234.063C175.685 234.731 177.66 235.315 179.628 235.831L179.703 234.166C179.703 234.166 179.07 233.974 178.045 233.637H178.038C177.048 233.32 175.678 232.866 174.151 232.343L174.144 232.336C173.449 232.096 172.72 231.841 171.984 231.58V231.573C171.777 231.497 171.571 231.428 171.372 231.352C167.182 229.818 162.751 227.954 161.554 226.619L164.361 230.272H164.368L167.595 234.469C167.595 234.469 165.524 237.62 161.767 241.824C161.533 242.078 161.299 242.34 161.059 242.608C157.866 246.096 153.594 250.19 148.448 253.795C142.132 258.226 134.495 261.927 125.916 262.863L125.875 263.124Z" fill="#231F20"/>
    </g>
    <path d="M210.097 77.3301C205.517 77.9017 200.843 78.1669 196.222 77.9637C195.066 77.9103 193.912 77.8124 192.769 77.6743C191.647 77.5292 190.518 77.2589 189.401 76.9641C187.163 76.3698 184.959 75.6137 182.785 74.7894C180.614 73.9559 178.467 73.0435 176.41 71.9701C175.382 71.4439 174.406 70.8066 173.393 70.214L170.371 68.437C166.348 66.0664 162.312 63.702 158.537 60.9451C162.244 63.7944 166.228 66.2623 170.193 68.7316L173.169 70.581C174.157 71.1919 175.125 71.8581 176.164 72.4235C178.223 73.5635 180.362 74.5342 182.531 75.429C184.704 76.3142 186.906 77.131 189.17 77.7925C190.303 78.1209 191.445 78.4262 192.637 78.611C193.81 78.7822 194.982 78.9103 196.159 78.9938C200.869 79.3147 205.567 79.1647 210.27 78.6952L210.097 77.3301Z" fill="#231F20"/>
    <path d="M207.596 75.6225C207.929 75.9193 208.239 76.2415 208.532 76.5732C208.831 76.8968 209.111 77.2363 209.355 77.5935C209.603 77.9496 209.775 78.342 209.992 78.6875C210.209 79.0417 210.403 79.3869 210.602 79.823H210.671C210.855 79.3609 210.778 78.8362 210.611 78.3872C210.447 77.9226 210.092 77.584 209.782 77.2457C209.149 76.5676 208.416 76.0207 207.636 75.5662L207.596 75.6225Z" fill="#231F20"/>
    <path d="M171.721 207.892C171.721 207.892 177.053 211.366 184.387 216.093C196.076 223.633 212.842 234.359 221.257 239.305C221.257 239.305 259.708 159.037 257.899 124.672C257.83 123.344 257.699 122.085 257.507 120.902C257.507 120.902 180.582 150.3 177.363 149.894L171.721 207.892Z" fill="#A5DDED"/>
    <path d="M151.186 123.317L177.363 149.897C177.363 149.897 176.961 201.849 171.725 207.89C171.725 207.89 161.657 215.945 149.172 219.972C149.172 219.972 168.503 156.744 151.186 123.317Z" fill="#BFE6F2"/>
    <path d="M215.016 201.245L214.21 195.405L188.033 197.822L188.436 203.057L215.016 201.245Z" fill="#D7EEF4"/>
    <path d="M158.432 187.351L165.883 194.802C165.883 194.802 165.883 197.822 164.675 197.017C163.466 196.211 157.224 190.573 157.224 190.573C157.224 190.573 158.835 187.955 158.432 187.351Z" fill="#D7EEF4"/>
    <path d="M170.719 166.811C169.718 166.811 168.907 165.504 168.907 163.892C168.907 162.279 169.718 160.972 170.719 160.972C171.72 160.972 172.531 162.279 172.531 163.892C172.531 165.504 171.72 166.811 170.719 166.811Z" fill="#58595B"/>
    <path d="M168.684 204.066C167.757 204.017 167.071 202.735 167.152 201.201C167.233 199.668 168.05 198.464 168.978 198.513C169.905 198.563 170.59 199.845 170.509 201.379C170.428 202.912 169.611 204.116 168.684 204.066Z" fill="#58595B"/>
    <path d="M170.114 185.236C169.113 185.236 168.301 183.929 168.301 182.316C168.301 180.704 169.113 179.397 170.114 179.397C171.114 179.397 171.926 180.704 171.926 182.316C171.926 183.929 171.114 185.236 170.114 185.236Z" fill="#58595B"/>
    <path d="M170.184 166.841C169.183 166.841 168.372 165.534 168.372 163.922C168.372 162.309 169.183 161.002 170.184 161.002C171.185 161.002 171.996 162.309 171.996 163.922C171.996 165.534 171.185 166.841 170.184 166.841Z" fill="#808285"/>
    <path d="M168.149 204.097C167.221 204.047 166.536 202.765 166.617 201.231C166.698 199.698 167.515 198.494 168.442 198.544C169.37 198.593 170.055 199.875 169.974 201.409C169.893 202.942 169.076 204.146 168.149 204.097Z" fill="#808285"/>
    <path d="M169.578 185.266C168.577 185.266 167.766 183.959 167.766 182.347C167.766 180.734 168.577 179.427 169.578 179.427C170.579 179.427 171.391 180.734 171.391 182.347C171.391 183.959 170.579 185.266 169.578 185.266Z" fill="#808285"/>
    <g style="mix-blend-mode:lighten" opacity="0.32">
    <path d="M154.906 87.0718C144.837 75.6791 146.11 51.6168 132.555 60.4918C119.869 68.7981 159.997 99.9015 154.906 87.0718Z" fill="white"/>
    </g>
    <g style="mix-blend-mode:lighten" opacity="0.32">
    <path d="M192.063 19.867C144.181 5.57342 150.108 74.4199 177.172 30.4406C179.608 27.0571 187.624 26.7989 192.489 23.5817C194.229 21.6686 192.119 20.0541 192.063 19.867Z" fill="white"/>
    </g>
    <g style="mix-blend-mode:multiply" opacity="0.2">
    <path d="M193.668 215.742L184.387 216.093C196.076 223.633 212.842 234.359 221.257 239.306C221.257 239.306 259.708 159.037 257.899 124.672L244.414 126.537L223.472 136.203L178.167 150.1L226.898 146.275C226.898 146.275 229.512 141.239 228.508 139.43C228.508 139.43 233.338 146.275 232.533 147.28L237.163 145.064C237.163 145.064 249.65 207.685 193.668 215.742Z" fill="#231F20"/>
    </g>
    <g style="mix-blend-mode:multiply" opacity="0.2">
    <path d="M175.75 149.495L161.655 143.454L160.648 139.225L159.44 141.44L148.566 136.406L150.982 124.324L175.75 149.495Z" fill="#231F20"/>
    </g>
    <path d="M256.394 114.457C256.394 114.457 206.408 143.247 177.108 149.444C176.849 149.499 177.313 149.846 177.057 149.897C177.057 149.897 218.739 143.252 224.78 143.454C224.78 143.454 229.009 137.614 227.398 136.003C227.398 136.003 232.835 139.225 234.446 142.245L259.616 141.239C259.616 141.239 264.248 125.734 256.394 114.457Z" fill="#D7EEF4"/>
    <path d="M176.758 149.897L162.662 142.044L160.447 136.406L159.441 139.829L146.553 132.983C146.553 132.983 148.567 124.324 150.581 121.908C150.581 121.908 171.321 141.239 176.758 149.897Z" fill="#D7EEF4"/>
    <path d="M217.17 189.736C217.714 191.669 218.959 193.41 220.803 194.531L245.233 209.385C249.114 211.744 254.219 210.499 256.578 206.619L279.805 168.428C282.165 164.548 280.92 159.443 277.039 157.083L257.005 144.899L252.609 142.23C248.728 139.87 243.623 141.115 241.271 144.989L218.044 183.186C216.806 185.222 216.558 187.596 217.17 189.736Z" fill="#9B8579"/>
    <path d="M248.033 144.544L276.258 160.494L251.589 204.145L223.365 188.195L248.033 144.544Z" fill="white"/>
    <g style="mix-blend-mode:multiply" opacity="0.2">
    <path d="M217.17 189.736C217.714 191.669 218.959 193.41 220.803 194.531L245.233 209.385C249.114 211.745 254.219 210.499 256.578 206.619L279.805 168.429C282.165 164.548 280.92 159.443 277.039 157.084L257.005 144.899L256.695 145.064L255.491 147.885L259.716 150.499L257.507 150.905L266.362 157.751L270.593 156.946C270.593 156.946 268.577 195.205 253.276 195.205C252.471 195.205 231.123 197.221 220.053 191.174L217.17 189.736Z" fill="#231F20"/>
    </g>
    <path d="M255.675 143.388C255.303 143.999 255.213 144.718 255.376 145.364C255.529 146.013 255.939 146.608 256.551 146.98L271.006 155.771C272.234 156.518 273.85 156.124 274.598 154.895C274.973 154.278 275.06 153.566 274.901 152.913C274.742 152.261 274.343 151.672 273.726 151.297L268.183 147.926C268.274 147.829 268.354 147.724 268.425 147.607L268.847 146.913C269.419 145.972 269.121 144.728 268.174 144.153C267.704 143.867 267.151 143.796 266.65 143.918C266.149 144.04 265.694 144.351 265.408 144.822L264.986 145.515C264.915 145.633 264.859 145.752 264.814 145.878L259.271 142.507C258.042 141.76 256.426 142.154 255.675 143.388Z" fill="#A7A9AC"/>
    <path d="M259.95 145.275L270.961 151.971L267.718 157.305L256.706 150.609L259.95 145.275Z" fill="#E6E7E8"/>
    <path d="M249.141 200.055C249.891 204.259 252.12 208.593 258.106 208.697C258.106 208.697 271.198 203.661 269.987 194.6C269.987 194.6 269.279 191.772 263.871 191.579C263.513 191.566 263.135 191.566 262.736 191.579C262.736 191.579 256.496 188.965 255.691 188.153C255.691 188.153 250.455 185.738 249.045 192.185C249.045 192.185 248.426 196.058 249.141 200.055Z" fill="#5887C6"/>
    <g style="mix-blend-mode:multiply" opacity="0.2">
    <path d="M249.141 200.056C249.891 204.259 252.12 208.594 258.106 208.697C258.106 208.697 271.198 203.661 269.987 194.6C269.987 194.6 269.279 191.772 263.871 191.58C263.906 195.26 263.286 202.01 258.512 203.461C258.512 203.461 252.457 203.159 249.141 200.056Z" fill="#231F20"/>
    </g>
    <g style="mix-blend-mode:multiply" opacity="0.2">
    <path d="M103.107 94.7722C103.107 94.7722 106.224 98.4529 111.219 95.6734C109.423 95.4395 103.286 94.2837 102.86 89.3852L102.275 89.3577C101.539 90.6648 101.449 92.4467 103.107 94.7722Z" fill="#231F20"/>
    </g>
    <g style="mix-blend-mode:multiply" opacity="0.2">
    <path d="M204.52 155.442L204.382 156.854L206.852 157.096L206.99 155.683C207.057 155.003 206.556 154.394 205.876 154.327C205.195 154.261 204.586 154.761 204.52 155.442Z" fill="#231F20"/>
    <path d="M191.227 157.488C192.219 156.428 193.684 155.809 195.244 155.962L203.454 156.764C203.432 156.605 203.434 156.441 203.449 156.278L203.588 154.865C203.709 153.623 204.829 152.709 206.064 152.83C207.307 152.951 208.221 154.064 208.099 155.306L207.961 156.719C207.945 156.882 207.915 157.043 207.863 157.195L216.072 157.997C216.871 158.075 217.606 158.349 218.238 158.761C218.757 159.103 219.208 159.536 219.561 160.048C220.218 160.964 220.547 162.101 220.43 163.307L219.543 172.382C219.436 173.477 218.967 174.454 218.273 175.207C217.273 176.275 215.801 176.892 214.241 176.74L193.412 174.704C191.756 174.542 190.366 173.555 189.618 172.19C189.555 172.072 189.493 171.946 189.439 171.814C189.395 171.728 189.358 171.642 189.33 171.55C189.306 171.488 189.282 171.426 189.266 171.364C189.243 171.295 189.221 171.218 189.198 171.141C189.16 170.995 189.124 170.835 189.101 170.684C189.092 170.623 189.082 170.57 189.073 170.509C189.055 170.388 189.045 170.267 189.041 170.148C189.039 170.095 189.036 170.05 189.04 170.006C189.033 169.93 189.033 169.855 189.033 169.773C189.037 169.654 189.042 169.528 189.055 169.402L189.942 160.327C190.049 159.225 190.519 158.24 191.227 157.488ZM200.593 172.666L200.596 172.643L200.381 172.622C200.454 172.637 200.52 172.651 200.593 172.666ZM203.912 173.244C204.17 173.276 204.422 173.301 204.674 173.318L204.873 173.338C204.877 173.301 204.881 173.264 204.876 173.233C204.873 173.188 204.854 173.157 204.835 173.125C204.815 173.101 204.78 173.075 204.743 173.064C204.7 173.052 204.649 173.04 204.59 173.034L204.05 172.981C203.99 172.975 203.938 172.977 203.9 172.981C203.855 172.984 203.823 173.004 203.792 173.023C203.767 173.05 203.749 173.078 203.73 173.121C203.72 173.15 203.716 173.187 203.712 173.224C203.779 173.231 203.845 173.245 203.912 173.244ZM206.969 173.669C206.965 173.714 206.969 173.744 206.983 173.76C206.995 173.784 207.024 173.794 207.054 173.797L207.682 173.859L207.714 173.541L207.085 173.479C207.048 173.476 207.017 173.487 207 173.508C206.99 173.53 206.979 173.566 206.974 173.618L206.969 173.669ZM207.874 173.355L207.104 173.28C207.045 173.274 207 173.277 206.962 173.281C206.924 173.292 206.893 173.304 206.868 173.331C206.852 173.344 206.835 173.365 206.824 173.394C207.183 173.392 207.536 173.374 207.874 173.355ZM208.87 174.079L208.682 173.635L208.412 174.035L208.87 174.079ZM205.857 173.359L205.302 173.305C205.265 173.301 205.235 173.306 205.211 173.318C205.195 173.332 205.179 173.345 205.177 173.36C205.438 173.37 205.698 173.381 205.944 173.39C205.923 173.373 205.894 173.363 205.857 173.359ZM205.161 173.373C205.162 173.366 205.169 173.367 205.17 173.359L205.148 173.357L205.161 173.373ZM206.987 155.683C207.054 155.003 206.553 154.394 205.873 154.327C205.192 154.261 204.583 154.761 204.517 155.442L204.379 156.854L206.849 157.096L206.987 155.683ZM211.8 174.664C211.806 174.68 211.82 174.696 211.84 174.713C211.861 174.73 211.882 174.747 211.91 174.765C211.939 174.775 211.968 174.785 212.004 174.789L212.581 174.845C212.648 174.852 212.701 174.849 212.738 174.846C212.784 174.835 212.815 174.823 212.84 174.796C212.865 174.776 212.89 174.741 212.902 174.697C212.92 174.662 212.925 174.61 212.932 174.544L212.967 174.181C212.973 174.122 212.978 174.07 212.968 174.024C212.965 173.979 212.946 173.947 212.926 173.916C212.906 173.891 212.879 173.866 212.835 173.855C212.8 173.836 212.748 173.831 212.681 173.825L212.112 173.769C212.075 173.765 212.038 173.762 212.014 173.774C211.984 173.779 211.96 173.791 211.936 173.804C211.913 173.817 211.897 173.83 211.887 173.851C211.871 173.865 211.862 173.879 211.853 173.893L211.966 174.038C211.975 174.017 211.992 174.004 212.016 173.984C212.04 173.971 212.07 173.966 212.107 173.97L212.662 174.024C212.706 174.029 212.735 174.039 212.755 174.063C212.768 174.079 212.772 174.117 212.768 174.162L212.727 174.583C212.718 174.597 212.716 174.612 212.708 174.619C212.692 174.632 212.684 174.639 212.669 174.637C212.646 174.643 212.631 174.641 212.602 174.638L212.04 174.583C211.995 174.579 211.974 174.569 211.953 174.552C211.932 174.535 211.926 174.52 211.914 174.496L211.776 174.61C211.782 174.625 211.788 174.641 211.8 174.664ZM210.732 174.665L211.12 174.366L211.445 174.398L211.413 174.731L211.613 174.751L211.712 173.73L210.876 173.648C210.825 173.643 210.78 173.646 210.742 173.65C210.704 173.661 210.672 173.673 210.64 173.7C210.616 173.72 210.598 173.748 210.586 173.792C210.568 173.827 210.563 173.879 210.557 173.938L210.551 173.997C210.545 174.056 210.54 174.108 210.551 174.154C210.562 174.192 210.581 174.224 210.601 174.248C210.629 174.274 210.664 174.292 210.707 174.311C210.751 174.323 210.803 174.328 210.862 174.334L210.451 174.637L210.732 174.665ZM203.528 173.199L203.554 172.933L203.34 172.912L203.078 173.14C203.248 173.164 203.336 173.18 203.336 173.18L203.528 173.199ZM200.974 172.74L200.98 172.681L200.78 172.661L200.777 172.698C200.843 172.712 200.908 172.726 200.974 172.74Z" fill="#231F20"/>
    <path d="M211.916 174.496L211.778 174.61C211.784 174.625 211.79 174.641 211.803 174.664C211.809 174.68 211.822 174.696 211.843 174.713C211.864 174.73 211.884 174.747 211.913 174.765C211.941 174.775 211.97 174.785 212.007 174.789L212.584 174.845C212.651 174.852 212.703 174.849 212.741 174.846C212.787 174.835 212.818 174.823 212.843 174.796C212.867 174.776 212.893 174.741 212.905 174.697C212.923 174.662 212.928 174.61 212.935 174.543L212.97 174.181C212.976 174.122 212.981 174.07 212.971 174.024C212.968 173.979 212.948 173.947 212.929 173.916C212.909 173.891 212.881 173.866 212.838 173.854C212.802 173.836 212.751 173.831 212.684 173.824L212.114 173.769C212.077 173.765 212.041 173.762 212.017 173.774C211.987 173.779 211.963 173.791 211.939 173.804C211.916 173.817 211.899 173.83 211.89 173.851C211.874 173.865 211.865 173.879 211.856 173.893L211.969 174.038C211.978 174.017 211.994 174.003 212.019 173.983C212.042 173.971 212.073 173.966 212.11 173.97L212.664 174.024C212.709 174.028 212.738 174.039 212.758 174.063C212.771 174.079 212.775 174.117 212.771 174.161L212.729 174.583C212.72 174.597 212.719 174.612 212.711 174.619C212.695 174.632 212.687 174.639 212.672 174.637C212.649 174.642 212.634 174.641 212.604 174.638L212.042 174.583C211.998 174.579 211.977 174.569 211.956 174.552C211.935 174.535 211.929 174.52 211.916 174.496Z" fill="#231F20"/>
    <path d="M210.86 174.334L210.45 174.637L210.731 174.665L211.118 174.367L211.444 174.398L211.411 174.731L211.611 174.751L211.711 173.73L210.875 173.648C210.823 173.643 210.778 173.646 210.741 173.65C210.702 173.661 210.671 173.673 210.638 173.7C210.614 173.72 210.596 173.748 210.585 173.792C210.566 173.827 210.561 173.879 210.556 173.938L210.55 173.997C210.544 174.057 210.539 174.108 210.549 174.154C210.561 174.193 210.58 174.224 210.6 174.249C210.627 174.274 210.663 174.292 210.706 174.311C210.749 174.323 210.801 174.328 210.86 174.334Z" fill="#231F20"/>
    <path d="M208.683 173.635L208.413 174.035L208.871 174.079L208.683 173.635Z" fill="#231F20"/>
    <path d="M207.001 173.508C206.992 173.53 206.981 173.566 206.976 173.618L206.97 173.669C206.966 173.714 206.971 173.744 206.984 173.76C206.997 173.784 207.026 173.794 207.055 173.797L207.684 173.859L207.715 173.541L207.086 173.479C207.049 173.476 207.018 173.487 207.001 173.508Z" fill="#231F20"/>
    <path d="M206.869 173.331C206.853 173.344 206.836 173.365 206.826 173.394C207.184 173.392 207.537 173.374 207.875 173.355L207.106 173.28C207.047 173.274 207.002 173.277 206.964 173.281C206.925 173.292 206.894 173.304 206.869 173.331Z" fill="#231F20"/>
    <path d="M205.213 173.319C205.197 173.332 205.181 173.345 205.179 173.36C205.439 173.371 205.7 173.381 205.945 173.39C205.925 173.373 205.896 173.363 205.859 173.359L205.304 173.305C205.267 173.302 205.237 173.306 205.213 173.319Z" fill="#231F20"/>
    <path d="M205.172 173.359L205.15 173.357L205.163 173.373C205.164 173.366 205.171 173.366 205.172 173.359Z" fill="#231F20"/>
    <path d="M203.731 173.122C203.72 173.15 203.717 173.187 203.713 173.224C203.779 173.231 203.845 173.245 203.913 173.244C204.171 173.277 204.422 173.301 204.675 173.318L204.874 173.338C204.878 173.301 204.881 173.264 204.877 173.234C204.874 173.188 204.854 173.157 204.835 173.125C204.815 173.101 204.78 173.075 204.744 173.064C204.701 173.052 204.649 173.04 204.59 173.034L204.05 172.981C203.991 172.975 203.939 172.978 203.901 172.981C203.856 172.984 203.824 173.004 203.792 173.023C203.767 173.05 203.75 173.079 203.731 173.122Z" fill="#231F20"/>
    <path d="M203.34 172.912L203.079 173.14C203.248 173.164 203.336 173.18 203.336 173.18L203.529 173.199L203.555 172.933L203.34 172.912Z" fill="#231F20"/>
    <path d="M200.98 172.681L200.781 172.661L200.777 172.698C200.843 172.712 200.909 172.726 200.975 172.74L200.98 172.681Z" fill="#231F20"/>
    <path d="M200.598 172.644L200.383 172.623C200.456 172.637 200.522 172.651 200.595 172.666L200.598 172.644Z" fill="#231F20"/>
    <path d="M189.042 170.005C189.034 169.93 189.034 169.855 189.035 169.773C189.027 169.847 189.027 169.929 189.034 170.005C189.038 170.05 189.04 170.102 189.043 170.147C189.041 170.095 189.038 170.05 189.042 170.005Z" fill="#231F20"/>
    <path d="M204.52 155.442L204.382 156.854L206.852 157.096L206.99 155.683C207.057 155.003 206.556 154.394 205.876 154.327C205.195 154.261 204.586 154.761 204.52 155.442Z" fill="#231F20"/>
    <path d="M211.916 174.496C211.929 174.52 211.935 174.536 211.956 174.552C211.977 174.569 211.998 174.579 212.042 174.583L212.604 174.638C212.634 174.641 212.649 174.643 212.672 174.637C212.687 174.639 212.695 174.632 212.711 174.619C212.719 174.612 212.72 174.597 212.729 174.583L212.771 174.162C212.775 174.117 212.771 174.08 212.758 174.063C212.738 174.039 212.709 174.029 212.664 174.024L212.11 173.97C212.073 173.967 212.042 173.971 212.019 173.984C211.994 174.004 211.978 174.017 211.969 174.039L211.856 173.893C211.865 173.879 211.874 173.865 211.89 173.852C211.899 173.83 211.916 173.817 211.939 173.804C211.963 173.792 211.987 173.779 212.017 173.774C212.041 173.762 212.077 173.765 212.114 173.769L212.684 173.825C212.751 173.831 212.802 173.836 212.838 173.855C212.881 173.866 212.909 173.891 212.929 173.916C212.948 173.948 212.968 173.979 212.971 174.024C212.981 174.07 212.976 174.122 212.97 174.181L212.935 174.544C212.928 174.61 212.923 174.662 212.905 174.697C212.893 174.741 212.867 174.776 212.843 174.796C212.818 174.823 212.787 174.835 212.741 174.846C212.703 174.85 212.651 174.852 212.584 174.845L212.007 174.789C211.97 174.785 211.941 174.775 211.913 174.765C211.884 174.747 211.864 174.73 211.843 174.713C211.822 174.696 211.809 174.68 211.803 174.664C211.79 174.641 211.784 174.625 211.778 174.61L211.916 174.496Z" fill="#231F20"/>
    <path d="M210.864 174.334C210.805 174.328 210.753 174.323 210.71 174.311C210.667 174.292 210.631 174.274 210.604 174.249C210.584 174.224 210.565 174.193 210.553 174.154C210.543 174.108 210.548 174.057 210.554 173.997L210.559 173.938C210.565 173.879 210.57 173.827 210.589 173.792C210.6 173.748 210.618 173.72 210.642 173.7C210.675 173.673 210.706 173.661 210.744 173.65C210.782 173.646 210.827 173.643 210.879 173.648L211.715 173.73L211.615 174.751L211.415 174.731L211.448 174.398L211.122 174.367L210.735 174.665L210.454 174.637L210.864 174.334ZM211.465 174.228L211.496 173.91L210.867 173.849C210.822 173.844 210.791 173.856 210.782 173.878C210.765 173.899 210.761 173.936 210.756 173.987L210.751 174.039C210.747 174.084 210.751 174.114 210.765 174.13C210.777 174.154 210.799 174.163 210.836 174.167L211.465 174.228Z" fill="#231F20"/>
    <path d="M206.869 173.331C206.894 173.304 206.925 173.292 206.964 173.281C207.002 173.277 207.047 173.274 207.106 173.28L207.875 173.355C207.537 173.374 207.184 173.392 206.826 173.394C206.836 173.365 206.853 173.345 206.869 173.331Z" fill="#231F20"/>
    <path d="M205.172 173.36C205.171 173.367 205.164 173.366 205.163 173.373L205.15 173.357L205.172 173.36Z" fill="#231F20"/>
    <path d="M203.734 173.122C203.754 173.079 203.771 173.05 203.796 173.023C203.828 173.004 203.86 172.984 203.905 172.981C203.942 172.978 203.995 172.975 204.054 172.981L204.594 173.034C204.653 173.04 204.704 173.052 204.748 173.064C204.784 173.075 204.819 173.101 204.839 173.125C204.858 173.157 204.878 173.188 204.881 173.234C204.885 173.264 204.882 173.301 204.878 173.338L204.678 173.318C204.681 173.296 204.674 173.281 204.66 173.272C204.648 173.248 204.619 173.238 204.575 173.233L204.035 173.181C203.99 173.176 203.96 173.181 203.943 173.202C203.928 173.208 203.919 173.222 203.916 173.244C203.849 173.245 203.783 173.231 203.717 173.224C203.72 173.187 203.724 173.15 203.734 173.122Z" fill="#231F20"/>
    <path d="M203.34 172.912L203.555 172.933L203.529 173.199L203.336 173.18C203.336 173.18 203.248 173.164 203.079 173.14L203.34 172.912Z" fill="#231F20"/>
    <path d="M200.984 172.681L200.979 172.741C200.913 172.727 200.847 172.713 200.781 172.699L200.785 172.662L200.984 172.681Z" fill="#231F20"/>
    <path d="M200.598 172.644L200.595 172.666C200.522 172.651 200.456 172.637 200.383 172.623L200.598 172.644Z" fill="#231F20"/>
    <g style="mix-blend-mode:multiply" opacity="0.2">
    <path d="M211.916 174.496L211.778 174.61C211.784 174.625 211.79 174.641 211.803 174.664C211.809 174.68 211.822 174.696 211.843 174.713C211.864 174.73 211.884 174.747 211.913 174.765C211.941 174.775 211.97 174.785 212.007 174.789L212.584 174.845C212.651 174.852 212.703 174.849 212.741 174.846C212.787 174.835 212.818 174.823 212.843 174.796C212.867 174.776 212.893 174.741 212.905 174.697C212.923 174.662 212.928 174.61 212.935 174.543L212.97 174.181C212.976 174.122 212.981 174.07 212.971 174.024C212.968 173.979 212.948 173.947 212.929 173.916C212.909 173.891 212.881 173.866 212.838 173.854C212.802 173.836 212.751 173.831 212.684 173.824L212.114 173.769C212.077 173.765 212.041 173.762 212.017 173.774C211.987 173.779 211.963 173.791 211.939 173.804C211.916 173.817 211.899 173.83 211.89 173.851C211.874 173.865 211.865 173.879 211.856 173.893L211.969 174.038C211.978 174.017 211.994 174.003 212.019 173.983C212.042 173.971 212.073 173.966 212.11 173.97L212.664 174.024C212.709 174.028 212.738 174.039 212.758 174.063C212.771 174.079 212.775 174.117 212.771 174.161L212.729 174.583C212.72 174.597 212.719 174.612 212.711 174.619C212.695 174.632 212.687 174.639 212.672 174.637C212.649 174.642 212.634 174.641 212.604 174.638L212.042 174.583C211.998 174.579 211.977 174.569 211.956 174.552C211.935 174.535 211.929 174.52 211.916 174.496Z" fill="#231F20"/>
    </g>
    <g style="mix-blend-mode:multiply" opacity="0.2">
    <path d="M210.86 174.334L210.45 174.637L210.731 174.665L211.118 174.367L211.444 174.398L211.411 174.731L211.611 174.751L211.711 173.73L210.875 173.648C210.823 173.643 210.778 173.646 210.741 173.65C210.702 173.661 210.671 173.673 210.638 173.7C210.614 173.72 210.596 173.748 210.585 173.792C210.566 173.827 210.561 173.879 210.556 173.938L210.55 173.997C210.544 174.057 210.539 174.108 210.549 174.154C210.561 174.193 210.58 174.224 210.6 174.249C210.627 174.274 210.663 174.292 210.706 174.311C210.749 174.323 210.801 174.328 210.86 174.334Z" fill="#231F20"/>
    </g>
    <g style="mix-blend-mode:multiply" opacity="0.2">
    <path d="M208.683 173.635L208.413 174.035L208.871 174.079L208.683 173.635Z" fill="#231F20"/>
    </g>
    <g style="mix-blend-mode:multiply" opacity="0.2">
    <path d="M207.001 173.508C206.992 173.53 206.981 173.566 206.976 173.618L206.97 173.669C206.966 173.714 206.971 173.744 206.984 173.76C206.997 173.784 207.026 173.794 207.055 173.797L207.684 173.859L207.715 173.541L207.086 173.479C207.049 173.476 207.018 173.487 207.001 173.508Z" fill="#231F20"/>
    </g>
    <g style="mix-blend-mode:multiply" opacity="0.2">
    <path d="M205.172 173.359L205.15 173.357L205.163 173.373C205.164 173.366 205.171 173.366 205.172 173.359Z" fill="#231F20"/>
    </g>
    <g style="mix-blend-mode:multiply" opacity="0.2">
    <path d="M189.034 170.005C189.038 170.05 189.04 170.102 189.043 170.148C189.041 170.095 189.038 170.05 189.042 170.006L189.034 170.005Z" fill="#231F20"/>
    </g>
    </g>
    <path d="M205.306 151.654L206.123 151.779C207.134 151.933 207.828 152.877 207.674 153.888L207.335 156.11C207.181 157.121 206.236 157.815 205.225 157.661L204.408 157.536C203.397 157.382 202.703 156.437 202.857 155.426L203.196 153.205C203.35 152.194 204.295 151.5 205.306 151.654Z" fill="#F15A29"/>
    <path d="M189.206 158.331L187.83 167.346C187.8 167.546 187.781 167.748 187.779 167.948C187.754 168.73 187.925 169.489 188.247 170.164C188.922 171.564 190.253 172.627 191.897 172.878L212.587 176.035C214.139 176.272 215.641 175.736 216.697 174.718C217.432 174.004 217.953 173.056 218.119 171.968L219.495 162.953C219.677 161.761 219.404 160.602 218.804 159.651C218.475 159.126 218.05 158.664 217.545 158.296C216.938 157.852 216.22 157.542 215.428 157.421L194.738 154.263C193.19 154.027 191.697 154.561 190.642 155.57C189.899 156.284 189.372 157.239 189.206 158.331Z" fill="#BCBEC0"/>
    <path d="M205.219 153.168L205.667 153.236C206.222 153.321 206.603 153.84 206.519 154.395L206.088 157.214C206.004 157.769 205.485 158.15 204.93 158.065L204.482 157.997C203.927 157.912 203.545 157.393 203.63 156.838L204.06 154.019C204.145 153.464 204.663 153.083 205.219 153.168Z" fill="#F15A29"/>
    <path d="M204.865 156.348L205.058 156.377C205.295 156.414 205.459 156.636 205.423 156.874L205.393 157.066C205.357 157.304 205.135 157.467 204.897 157.431L204.705 157.402C204.467 157.365 204.303 157.143 204.34 156.905L204.369 156.713C204.405 156.475 204.628 156.312 204.865 156.348Z" fill="#BCBEC0"/>
    <path d="M211.039 174.051C211.1 174.06 211.151 174.062 211.193 174.058C211.235 174.053 211.27 174.04 211.298 174.019C211.325 173.997 211.348 173.966 211.365 173.926C211.381 173.885 211.394 173.833 211.404 173.77L211.458 173.414C211.468 173.351 211.471 173.298 211.467 173.254C211.463 173.21 211.451 173.174 211.431 173.144C211.411 173.115 211.381 173.092 211.343 173.076C211.304 173.059 211.254 173.046 211.193 173.037L210.625 172.95C210.587 172.945 210.554 172.945 210.524 172.951C210.495 172.957 210.469 172.966 210.447 172.978C210.425 172.991 210.407 173.004 210.393 173.02C210.378 173.035 210.367 173.049 210.359 173.062L210.466 173.211C210.478 173.193 210.495 173.177 210.517 173.164C210.539 173.151 210.569 173.147 210.608 173.153L211.161 173.237C211.205 173.244 211.235 173.258 211.25 173.279C211.265 173.301 211.268 173.335 211.261 173.383L211.207 173.741C211.203 173.762 211.199 173.78 211.194 173.796C211.188 173.811 211.181 173.823 211.171 173.833C211.161 173.842 211.147 173.848 211.131 173.851C211.114 173.854 211.093 173.854 211.068 173.85L210.506 173.764C210.467 173.758 210.44 173.746 210.423 173.727C210.407 173.708 210.396 173.688 210.39 173.667L210.244 173.776C210.248 173.791 210.254 173.808 210.263 173.827C210.273 173.846 210.286 173.865 210.303 173.883C210.32 173.901 210.342 173.918 210.369 173.932C210.395 173.947 210.427 173.957 210.464 173.963L211.039 174.051Z" fill="white"/>
    <path d="M209.202 173.77L209.603 173.492L209.922 173.541L209.872 173.873L210.072 173.903L210.227 172.891L209.399 172.765C209.345 172.757 209.298 172.755 209.26 172.761C209.221 172.767 209.189 172.78 209.163 172.801C209.136 172.822 209.115 172.852 209.099 172.891C209.082 172.929 209.069 172.977 209.061 173.034L209.051 173.095C209.042 173.157 209.04 173.209 209.047 173.25C209.053 173.291 209.068 173.325 209.092 173.351C209.116 173.378 209.149 173.399 209.191 173.414C209.233 173.429 209.286 173.441 209.348 173.451L208.922 173.728L209.202 173.77ZM209.253 173.097C209.261 173.048 209.272 173.012 209.287 172.99C209.302 172.967 209.331 172.959 209.374 172.966L209.996 173.061L209.948 173.375L209.326 173.28C209.291 173.274 209.267 173.262 209.254 173.242C209.242 173.222 209.239 173.19 209.246 173.146L209.253 173.097Z" fill="white"/>
    <path d="M208.802 173.709L208.957 172.696L207.985 172.547L207.954 172.748L208.729 172.866L208.695 173.09L207.942 172.975L207.917 173.139L208.67 173.253L208.635 173.479L207.861 173.361L207.83 173.561L208.802 173.709Z" fill="white"/>
    <path d="M206.651 173.381L206.813 173.165L207.425 173.258L207.515 173.513L207.742 173.548L207.341 172.45L207.134 172.418L206.424 173.347L206.651 173.381ZM207.206 172.633L207.372 173.087L206.913 173.017L207.206 172.633Z" fill="white"/>
    <path d="M205.452 173.198L205.853 172.92L206.172 172.969L206.122 173.3L206.322 173.331L206.477 172.319L205.649 172.193C205.595 172.184 205.548 172.183 205.51 172.189C205.471 172.194 205.439 172.208 205.413 172.229C205.386 172.25 205.365 172.28 205.349 172.318C205.332 172.357 205.319 172.405 205.311 172.461L205.301 172.523C205.292 172.585 205.29 172.636 205.297 172.677C205.303 172.718 205.318 172.752 205.342 172.779C205.366 172.806 205.399 172.827 205.441 172.842C205.483 172.856 205.536 172.869 205.598 172.878L205.172 173.155L205.452 173.198ZM205.503 172.525C205.511 172.476 205.522 172.44 205.537 172.418C205.552 172.395 205.581 172.387 205.624 172.394L206.246 172.489L206.198 172.802L205.576 172.708C205.541 172.702 205.517 172.69 205.504 172.669C205.492 172.65 205.489 172.617 205.496 172.573L205.503 172.525Z" fill="white"/>
    <path d="M204.281 173.019C204.342 173.029 204.393 173.031 204.435 173.026C204.477 173.022 204.512 173.009 204.54 172.987C204.568 172.966 204.59 172.935 204.607 172.894C204.623 172.854 204.637 172.802 204.646 172.739L204.701 172.383C204.71 172.32 204.713 172.266 204.709 172.223C204.705 172.179 204.693 172.142 204.673 172.113C204.653 172.084 204.624 172.061 204.585 172.045C204.546 172.028 204.497 172.015 204.436 172.006L203.867 171.919C203.83 171.913 203.796 171.914 203.767 171.92C203.737 171.926 203.711 171.935 203.689 171.947C203.667 171.959 203.649 171.973 203.635 171.989C203.62 172.004 203.609 172.018 203.601 172.031L203.708 172.18C203.72 172.162 203.737 172.146 203.759 172.133C203.781 172.119 203.811 172.116 203.85 172.122L204.403 172.206C204.448 172.213 204.477 172.227 204.492 172.248C204.507 172.27 204.511 172.304 204.503 172.352L204.449 172.709C204.445 172.731 204.441 172.749 204.436 172.764C204.431 172.78 204.423 172.792 204.413 172.801C204.403 172.811 204.39 172.817 204.373 172.82C204.356 172.823 204.336 172.823 204.31 172.819L203.749 172.733C203.709 172.727 203.682 172.715 203.665 172.696C203.649 172.677 203.638 172.657 203.632 172.636L203.486 172.745C203.49 172.76 203.496 172.777 203.506 172.796C203.515 172.815 203.528 172.833 203.545 172.852C203.563 172.87 203.585 172.887 203.611 172.901C203.637 172.916 203.669 172.926 203.706 172.932L204.281 173.019Z" fill="#14BCD8"/>
    <path d="M202.998 172.824C203.06 172.833 203.112 172.836 203.154 172.831C203.196 172.826 203.231 172.813 203.259 172.791C203.288 172.769 203.31 172.738 203.326 172.697C203.343 172.657 203.355 172.605 203.365 172.544L203.419 172.187C203.429 172.125 203.432 172.072 203.428 172.029C203.425 171.985 203.413 171.949 203.392 171.919C203.372 171.89 203.342 171.867 203.304 171.85C203.265 171.833 203.215 171.82 203.153 171.81L202.619 171.729C202.559 171.72 202.508 171.717 202.466 171.722C202.424 171.727 202.388 171.74 202.36 171.762C202.331 171.783 202.309 171.815 202.292 171.855C202.275 171.896 202.262 171.947 202.253 172.009L202.198 172.365C202.189 172.427 202.186 172.48 202.19 172.524C202.194 172.568 202.206 172.604 202.227 172.634C202.247 172.663 202.277 172.686 202.316 172.703C202.355 172.72 202.405 172.733 202.464 172.742L202.998 172.824ZM202.45 172.04C202.457 171.99 202.472 171.958 202.492 171.942C202.512 171.927 202.545 171.922 202.589 171.929L203.122 172.011C203.166 172.017 203.196 172.031 203.211 172.052C203.226 172.073 203.229 172.108 203.222 172.158L203.167 172.514C203.16 172.564 203.146 172.596 203.126 172.611C203.106 172.626 203.074 172.63 203.029 172.623L202.495 172.542C202.45 172.535 202.42 172.522 202.406 172.501C202.391 172.481 202.388 172.446 202.396 172.396L202.45 172.04Z" fill="#14BCD8"/>
    <path d="M201.066 172.529L201.894 171.891L201.78 172.638L201.97 172.667L202.125 171.654L201.911 171.621L201.104 172.249L201.216 171.515L201.025 171.486L200.87 172.499L201.066 172.529Z" fill="#14BCD8"/>
    <path d="M200.386 172.425C200.447 172.434 200.499 172.437 200.54 172.432C200.583 172.427 200.617 172.414 200.645 172.393C200.673 172.372 200.695 172.341 200.712 172.3C200.729 172.259 200.742 172.208 200.752 172.145L200.806 171.788C200.816 171.725 200.819 171.672 200.815 171.628C200.811 171.585 200.799 171.548 200.779 171.519C200.759 171.49 200.729 171.467 200.69 171.45C200.652 171.434 200.602 171.421 200.541 171.412L199.972 171.325C199.935 171.319 199.902 171.319 199.872 171.325C199.842 171.332 199.817 171.341 199.795 171.353C199.773 171.365 199.755 171.379 199.74 171.394C199.726 171.41 199.715 171.424 199.707 171.437L199.814 171.586C199.825 171.567 199.842 171.552 199.865 171.538C199.887 171.525 199.917 171.521 199.955 171.527L200.509 171.612C200.553 171.619 200.583 171.633 200.598 171.654C200.612 171.675 200.616 171.71 200.609 171.758L200.554 172.115C200.551 172.136 200.547 172.155 200.541 172.17C200.536 172.185 200.528 172.198 200.518 172.207C200.508 172.217 200.495 172.223 200.479 172.226C200.462 172.229 200.441 172.229 200.415 172.225L199.854 172.139C199.815 172.133 199.787 172.12 199.771 172.101C199.755 172.082 199.744 172.062 199.738 172.041L199.592 172.151C199.595 172.165 199.602 172.182 199.611 172.201C199.62 172.22 199.633 172.239 199.651 172.257C199.668 172.276 199.69 172.292 199.716 172.307C199.743 172.322 199.775 172.332 199.812 172.338L200.386 172.425Z" fill="white"/>
    <path d="M199.412 172.277L199.566 171.263L199.369 171.233L199.214 172.246L199.412 172.277Z" fill="white"/>
    <path d="M199.033 172.218L199.188 171.205L198.215 171.057L198.185 171.257L198.959 171.375L198.925 171.599L198.173 171.484L198.148 171.648L198.9 171.763L198.866 171.988L198.091 171.87L198.061 172.07L199.033 172.218Z" fill="white"/>
    <path d="M197 171.908L197.828 171.271L197.714 172.017L197.904 172.046L198.059 171.033L197.845 171L197.038 171.628L197.15 170.894L196.958 170.865L196.804 171.878L197 171.908Z" fill="white"/>
    <path d="M196.316 171.804C196.377 171.813 196.428 171.816 196.47 171.811C196.512 171.806 196.547 171.793 196.575 171.772C196.603 171.751 196.625 171.72 196.642 171.679C196.659 171.638 196.672 171.587 196.681 171.524L196.736 171.167C196.745 171.104 196.748 171.051 196.744 171.007C196.74 170.963 196.728 170.927 196.708 170.898C196.688 170.869 196.659 170.846 196.62 170.829C196.581 170.813 196.532 170.8 196.471 170.791L195.902 170.704C195.865 170.698 195.831 170.698 195.802 170.704C195.772 170.71 195.747 170.72 195.725 170.732C195.702 170.744 195.684 170.758 195.67 170.773C195.656 170.789 195.644 170.803 195.636 170.816L195.743 170.965C195.755 170.946 195.772 170.93 195.794 170.917C195.816 170.904 195.846 170.9 195.885 170.906L196.439 170.991C196.483 170.997 196.512 171.012 196.527 171.033C196.542 171.054 196.546 171.089 196.538 171.137L196.484 171.494C196.481 171.515 196.476 171.534 196.471 171.549C196.466 171.564 196.458 171.577 196.448 171.586C196.438 171.596 196.425 171.602 196.408 171.605C196.392 171.608 196.371 171.607 196.345 171.604L195.784 171.518C195.745 171.512 195.717 171.499 195.701 171.48C195.685 171.461 195.674 171.441 195.668 171.42L195.521 171.529C195.525 171.544 195.532 171.561 195.541 171.58C195.55 171.599 195.563 171.618 195.58 171.636C195.598 171.655 195.62 171.671 195.646 171.686C195.672 171.701 195.704 171.711 195.742 171.716L196.316 171.804Z" fill="white"/>
    <path d="M195.345 171.655L195.5 170.642L195.303 170.612L195.148 171.625L195.345 171.655Z" fill="white"/>
    <path d="M193.944 171.442L194.106 171.226L194.718 171.319L194.808 171.574L195.035 171.609L194.634 170.51L194.427 170.479L193.717 171.407L193.944 171.442ZM194.499 170.693L194.665 171.148L194.206 171.078L194.499 170.693Z" fill="white"/>
    <path d="M212.675 165.043L213.438 160.044L212.464 159.896L211.852 163.906L208.089 163.332L207.938 164.32L212.675 165.043Z" fill="white"/>
    <path d="M202.191 163.443L202.993 162.376L206.008 162.836L206.455 164.094L207.574 164.265L205.598 158.848L204.574 158.692L201.072 163.272L202.191 163.443ZM204.933 159.75L205.75 161.994L203.483 161.648L204.933 159.75Z" fill="white"/>
    <path d="M200.558 163.193L201.32 158.195L197.339 157.587C197.077 157.548 196.854 157.534 196.668 157.548C196.483 157.562 196.327 157.609 196.201 157.689C196.075 157.769 195.975 157.887 195.901 158.045C195.828 158.202 195.772 158.404 195.734 158.651L195.687 158.963C195.614 159.438 195.793 159.745 196.223 159.885C196 159.881 195.803 159.94 195.631 160.063C195.458 160.185 195.349 160.396 195.303 160.697L195.253 161.024C195.214 161.28 195.211 161.499 195.243 161.68C195.274 161.861 195.344 162.011 195.452 162.132C195.56 162.252 195.708 162.348 195.895 162.419C196.083 162.49 196.31 162.545 196.576 162.586L200.558 163.193ZM196.687 158.938C196.711 158.778 196.761 158.671 196.836 158.618C196.911 158.565 197.029 158.551 197.189 158.576L200.196 159.034L200.031 160.117L197.017 159.657C196.861 159.633 196.756 159.581 196.702 159.501C196.647 159.421 196.632 159.296 196.658 159.127L196.687 158.938ZM196.273 160.871C196.301 160.688 196.356 160.565 196.437 160.501C196.519 160.437 196.662 160.421 196.866 160.452L199.909 160.916L199.735 162.057L196.728 161.598C196.51 161.565 196.368 161.507 196.304 161.426C196.239 161.345 196.22 161.22 196.245 161.051L196.273 160.871Z" fill="white"/>
    <path d="M208.774 169.561L209.087 167.514L209.764 169.712L210.332 169.799L211.629 167.902L211.317 169.949L211.886 170.036L212.363 166.906L211.689 166.803L210.137 169.126L209.344 166.446L208.683 166.345L208.206 169.474L208.774 169.561Z" fill="white"/>
    <path d="M207.655 169.39L208.133 166.261L207.523 166.168L207.046 169.297L207.655 169.39Z" fill="white"/>
    <path d="M205.512 169.063C205.7 169.092 205.859 169.099 205.988 169.085C206.118 169.071 206.225 169.03 206.311 168.964C206.398 168.898 206.466 168.803 206.518 168.677C206.57 168.552 206.611 168.392 206.64 168.198L206.808 167.097C206.838 166.903 206.847 166.738 206.835 166.603C206.823 166.468 206.786 166.355 206.723 166.265C206.661 166.175 206.57 166.104 206.451 166.053C206.331 166.003 206.178 165.963 205.99 165.934L204.234 165.666C204.119 165.649 204.015 165.649 203.924 165.668C203.833 165.686 203.753 165.714 203.685 165.752C203.618 165.79 203.561 165.833 203.517 165.88C203.472 165.928 203.438 165.971 203.413 166.011L203.743 166.471C203.78 166.414 203.832 166.366 203.9 166.325C203.969 166.284 204.062 166.273 204.18 166.291L205.891 166.552C206.027 166.573 206.118 166.616 206.164 166.682C206.21 166.748 206.221 166.855 206.199 167.003L206.03 168.106C206.02 168.172 206.007 168.229 205.991 168.276C205.974 168.323 205.95 168.361 205.92 168.39C205.889 168.42 205.848 168.439 205.797 168.448C205.746 168.458 205.681 168.456 205.602 168.444L203.869 168.18C203.748 168.161 203.662 168.123 203.612 168.064C203.562 168.005 203.528 167.943 203.51 167.878L203.058 168.215C203.07 168.261 203.09 168.313 203.118 168.372C203.146 168.431 203.187 168.489 203.241 168.546C203.294 168.602 203.361 168.653 203.443 168.698C203.524 168.744 203.623 168.775 203.738 168.793L205.512 169.063Z" fill="white"/>
    <path d="M200.056 168.23L200.254 166.939L202.114 167.223L201.917 168.514L202.526 168.607L203.004 165.478L202.394 165.385L202.2 166.658L200.34 166.375L200.534 165.101L199.924 165.008L199.447 168.137L200.056 168.23Z" fill="white"/>
    <path d="M198.882 168.051L199.359 164.922L198.75 164.829L198.272 167.958L198.882 168.051Z" fill="white"/>
    <path d="M194.917 167.447L197.475 165.477L197.123 167.783L197.71 167.873L198.188 164.744L197.528 164.643L195.035 166.581L195.381 164.315L194.79 164.225L194.312 167.355L194.917 167.447Z" fill="white"/>
    <path d="M194.214 168.503L211.637 171.161L211.524 171.901L194.101 169.243L194.214 168.503Z" fill="white"/>
    <path d="M216.216 162.661L214.89 171.352L216.697 174.718C217.432 174.003 217.953 173.056 218.119 171.968L219.495 162.953C219.677 161.761 219.404 160.602 218.804 159.651L216.216 162.661Z" fill="#F8CF0C"/>
    <path d="M189.205 158.33L187.829 167.346C187.677 168.342 187.843 169.316 188.246 170.164L190.787 167.674L192.113 158.983L190.641 155.57C189.898 156.283 189.371 157.239 189.205 158.33Z" fill="#F8CF0C"/>
    <g style="mix-blend-mode:multiply" opacity="0.2">
    <path d="M187.779 167.948C187.754 168.73 187.925 169.488 188.247 170.164C188.922 171.564 190.253 172.627 191.897 172.878L212.587 176.035C214.139 176.272 215.641 175.736 216.697 174.718C217.432 174.004 217.953 173.056 218.119 171.968L219.495 162.953C219.677 161.761 219.404 160.602 218.804 159.651C218.475 159.126 218.05 158.664 217.545 158.296C217.721 164.683 215.817 174.449 201.891 171.89C201.891 171.89 193.053 169.837 187.779 167.948Z" fill="#231F20"/>
    </g>
    <path opacity="0.5" d="M111.029 72.4972L112.329 70.4074L62.7973 39.5413L61.5409 38.7637L60.3007 37.9855L49.4336 31.2136L48.1336 33.3034C48.7986 33.7178 49.0009 34.5957 48.5854 35.2638C48.1698 35.9318 47.2934 36.1375 46.6283 35.723L45.9446 36.8221C46.6097 37.2365 46.812 38.1144 46.3964 38.7825C45.9809 39.4505 45.1044 39.6562 44.4394 39.2417L43.7549 40.342C44.42 40.7564 44.6223 41.6343 44.2067 42.3023C43.7912 42.9704 42.9147 43.176 42.2497 42.7616L41.5652 43.8619C42.2303 44.2763 42.4326 45.1542 42.0171 45.8222C41.6015 46.4902 40.7251 46.6959 40.06 46.2815L39.3756 47.3818C40.0406 47.7962 40.2429 48.6741 39.8274 49.3421C39.4118 50.0101 38.5354 50.2158 37.8703 49.8014L37.1859 50.9017C37.8509 51.3161 38.0532 52.194 37.6377 52.862C37.2221 53.53 36.3457 53.7357 35.6806 53.3213L34.9962 54.4215C35.6612 54.836 35.8636 55.7139 35.448 56.3819C35.0324 57.0499 34.156 57.2556 33.491 56.8412L32.8065 57.9414C33.4715 58.3558 33.6739 59.2338 33.2583 59.9018C32.8427 60.5698 31.9663 60.7755 31.3013 60.361L30.0012 62.4508L40.6965 69.1156L42.1873 70.0368L43.5368 70.8856L92.8959 101.644L94.196 99.5541C93.5309 99.1396 93.3286 98.2617 93.7441 97.5937C94.1597 96.9257 95.0361 96.72 95.7012 97.1344L96.3856 96.0342C95.7206 95.6197 95.5183 94.7418 95.9338 94.0738C96.3494 93.4058 97.2258 93.2001 97.8909 93.6145L98.5753 92.5143C97.9103 92.0999 97.708 91.2219 98.1235 90.5539C98.5391 89.8859 99.4155 89.6802 100.081 90.0947L100.765 88.9944C100.1 88.58 99.8976 87.7021 100.313 87.034C100.729 86.366 101.605 86.1604 102.27 86.5748L102.955 85.4745C102.29 85.0601 102.087 84.1822 102.503 83.5142C102.918 82.8461 103.795 82.6405 104.46 83.0549L105.144 81.9546C104.479 81.5402 104.277 80.6623 104.693 79.9943C105.108 79.3263 105.985 79.1206 106.65 79.535L107.334 78.4347C106.669 78.0203 106.467 77.1424 106.882 76.4744C107.298 75.8064 108.174 75.6007 108.839 76.0151L109.523 74.916C108.858 74.5016 108.656 73.6237 109.071 72.9557C109.487 72.2877 110.363 72.082 111.028 72.4964L111.029 72.4972ZM45.1826 65.8866C45.0744 66.0605 44.8471 66.1138 44.6741 66.006C44.501 65.8981 44.4485 65.6704 44.5567 65.4966L45.5352 63.9236C45.6434 63.7497 45.8707 63.6964 46.0437 63.8042C46.2168 63.9121 46.2693 64.1398 46.1611 64.3136L45.1826 65.8866ZM47.1397 62.7406C47.0315 62.9145 46.8042 62.9678 46.6312 62.86C46.4581 62.7521 46.4056 62.5244 46.5138 62.3506L47.4923 60.7776C47.6004 60.6037 47.8277 60.5504 48.0008 60.6582C48.1739 60.7661 48.2264 60.9938 48.1182 61.1676L47.1397 62.7406ZM49.0968 59.5946C48.9886 59.7685 48.7613 59.8218 48.5882 59.714C48.4152 59.6061 48.3627 59.3784 48.4708 59.2046L49.4494 57.6316C49.5575 57.4577 49.7848 57.4044 49.9579 57.5123C50.131 57.6201 50.1835 57.8478 50.0753 58.0216L49.0968 59.5946ZM51.0539 56.4486C50.9457 56.6225 50.7184 56.6758 50.5453 56.568C50.3723 56.4601 50.3198 56.2325 50.4279 56.0586L51.4065 54.4856C51.5146 54.3118 51.7419 54.2584 51.915 54.3663C52.0881 54.4741 52.1405 54.7018 52.0324 54.8756L51.0539 56.4486ZM53.0117 53.3015C52.9035 53.4753 52.6762 53.5287 52.5032 53.4208C52.3301 53.313 52.2776 53.0853 52.3858 52.9114L53.3643 51.3384C53.4725 51.1646 53.6997 51.1112 53.8728 51.2191C54.0459 51.3269 54.0984 51.5546 53.9902 51.7285L53.0117 53.3015ZM54.9688 50.1555C54.8606 50.3293 54.6333 50.3827 54.4602 50.2748C54.2872 50.167 54.2347 49.9393 54.3428 49.7654L55.3214 48.1924C55.4295 48.0186 55.6568 47.9652 55.8299 48.0731C56.003 48.181 56.0555 48.4086 55.9473 48.5825L54.9688 50.1555ZM56.9259 47.0095C56.8177 47.1833 56.5904 47.2367 56.4173 47.1288C56.2443 47.021 56.1918 46.7933 56.2999 46.6194L57.2785 45.0464C57.3866 44.8726 57.6139 44.8193 57.787 44.9271C57.9601 45.035 58.0126 45.2626 57.9044 45.4365L56.9259 47.0095ZM58.8829 43.8635C58.7748 44.0374 58.5475 44.0907 58.3744 43.9828C58.2013 43.875 58.1489 43.6473 58.257 43.4735L59.2356 41.9005C59.3437 41.7266 59.571 41.6733 59.7441 41.7811C59.9172 41.889 59.9696 42.1167 59.8615 42.2905L58.8829 43.8635Z" fill="white"/>
    <path d="M110.479 100.196L112.939 100.277L114.904 41.9473L114.949 40.4705L115.003 39.0074L115.434 26.2102L112.974 26.1292C112.947 26.9124 112.288 27.5266 111.502 27.5007C110.716 27.4748 110.099 26.8186 110.126 26.0355L108.832 25.9929C108.806 26.7761 108.147 27.3902 107.36 27.3644C106.574 27.3385 105.958 26.6823 105.984 25.8991L104.689 25.8565C104.662 26.6397 104.003 27.2539 103.217 27.228C102.431 27.2021 101.814 26.5459 101.841 25.7628L100.546 25.7201C100.519 26.5033 99.8602 27.1175 99.0739 27.0916C98.2876 27.0657 97.6713 26.4095 97.6976 25.6264L96.4026 25.5838C96.3762 26.3669 95.717 26.9811 94.9307 26.9552C94.1444 26.9293 93.5281 26.2732 93.5545 25.49L92.2594 25.4474C92.233 26.2305 91.5739 26.8447 90.7876 26.8188C90.0013 26.793 89.3849 26.1368 89.4113 25.3536L88.1162 25.311C88.0899 26.0941 87.4307 26.7083 86.6444 26.6825C85.8581 26.6566 85.2418 26.0004 85.2682 25.2172L83.9731 25.1746C83.9467 25.9578 83.2876 26.572 82.5013 26.5461C81.715 26.5202 81.0986 25.864 81.125 25.0809L78.6652 24.9999L78.241 37.5946L78.1886 39.3463L78.1283 40.9394L76.1704 99.0648L78.6302 99.1458C78.6566 98.3626 79.3157 97.7484 80.102 97.7743C80.8883 97.8002 81.5047 98.4564 81.4783 99.2395L82.7734 99.2821C82.7998 98.499 83.4589 97.8848 84.2452 97.9107C85.0315 97.9366 85.6478 98.5927 85.6214 99.3759L86.9165 99.4185C86.9429 98.6354 87.602 98.0212 88.3883 98.0471C89.1746 98.073 89.791 98.7291 89.7646 99.5123L91.0597 99.5549C91.0861 98.7718 91.7452 98.1576 92.5315 98.1835C93.3178 98.2093 93.9341 98.8655 93.9078 99.6487L95.2028 99.6913C95.2292 98.9081 95.8883 98.294 96.6746 98.3198C97.461 98.3457 98.0773 99.0019 98.0509 99.785L99.346 99.8277C99.3724 99.0445 100.032 98.4303 100.818 98.4562C101.604 98.4821 102.22 99.1383 102.194 99.9214L103.489 99.9641C103.516 99.1809 104.175 98.5667 104.961 98.5926C105.747 98.6185 106.364 99.2746 106.337 100.058L107.631 100.1C107.657 99.3172 108.316 98.703 109.103 98.7289C109.889 98.7548 110.505 99.411 110.479 100.194L110.479 100.196ZM83.2804 39.8652C83.0758 39.8585 82.9159 39.6883 82.9228 39.4845C82.9297 39.2807 83.1006 39.1214 83.3052 39.1281L85.1568 39.1891C85.3614 39.1958 85.5212 39.366 85.5144 39.5698C85.5075 39.7736 85.3366 39.9329 85.1319 39.9262L83.2804 39.8652ZM86.9835 39.9871C86.7788 39.9804 86.619 39.8102 86.6258 39.6064C86.6327 39.4026 86.8036 39.2433 87.0083 39.25L88.8598 39.311C89.0644 39.3177 89.2243 39.4879 89.2174 39.6917C89.2106 39.8955 89.0396 40.0548 88.835 40.0481L86.9835 39.9871ZM90.6865 40.109C90.4819 40.1023 90.322 39.9321 90.3289 39.7283C90.3358 39.5245 90.5067 39.3652 90.7113 39.3719L92.5629 39.4329C92.7675 39.4396 92.9273 39.6098 92.9205 39.8136C92.9136 40.0174 92.7427 40.1767 92.538 40.17L90.6865 40.109ZM94.3896 40.2309C94.1849 40.2242 94.0251 40.054 94.0319 39.8502C94.0388 39.6464 94.2097 39.4871 94.4144 39.4938L96.2659 39.5548C96.4705 39.5615 96.6304 39.7317 96.6235 39.9355C96.6167 40.1393 96.4457 40.2986 96.2411 40.2918L94.3896 40.2309ZM98.094 40.3528C97.8894 40.3461 97.7295 40.1759 97.7364 39.9721C97.7433 39.7683 97.9142 39.609 98.1188 39.6158L99.9704 39.6767C100.175 39.6834 100.335 39.8536 100.328 40.0574C100.321 40.2612 100.15 40.4205 99.9455 40.4138L98.094 40.3528ZM101.797 40.4747C101.592 40.468 101.433 40.2978 101.439 40.094C101.446 39.8902 101.617 39.7309 101.822 39.7376L103.673 39.7986C103.878 39.8053 104.038 39.9755 104.031 40.1793C104.024 40.3831 103.853 40.5424 103.649 40.5357L101.797 40.4747ZM105.5 40.5966C105.295 40.5899 105.136 40.4197 105.142 40.2159C105.149 40.0121 105.32 39.8528 105.525 39.8595L107.376 39.9205C107.581 39.9272 107.741 40.0974 107.734 40.3012C107.727 40.505 107.556 40.6643 107.352 40.6576L105.5 40.5966ZM109.203 40.7185C108.999 40.7118 108.839 40.5416 108.846 40.3378C108.852 40.134 109.023 39.9747 109.228 39.9814L111.08 40.0424C111.284 40.0491 111.444 40.2193 111.437 40.4231C111.43 40.6269 111.259 40.7862 111.055 40.7795L109.203 40.7185Z" fill="white"/>
    <rect x="47.0859" y="68.5784" width="29.7875" height="8.68801" transform="rotate(-56.8446 47.0859 68.5784)" fill="url(#pattern1_3774_353691)"/>
    <rect x="80.0117" y="43.4663" width="33.1718" height="9.67511" transform="rotate(2.05635 80.0117 43.4663)" fill="url(#pattern2_3774_353691)"/>
    <g filter="url(#filter0_f_3774_353691)">
    <ellipse cx="179.5" cy="272" rx="99.5" ry="12" fill="#246C9E"/>
    </g>
    <rect width="5.96213" height="5.21686" transform="matrix(0.706853 0.707361 0.707361 -0.706853 72.2344 183.881)" fill="url(#pattern3_3774_353691)"/>
    <defs>
    <pattern id="pattern0_3774_353691" patternContentUnits="objectBoundingBox" width="1" height="1">
    <use xlink:href="#image0_3774_353691" transform="matrix(0.00326797 0 0 0.00373483 0 -0.0172735)"/>
    </pattern>
    <pattern id="pattern1_3774_353691" patternContentUnits="objectBoundingBox" width="1" height="1">
    <use xlink:href="#image1_3774_353691" transform="matrix(0.000247385 0 0 0.000848176 -0.00664408 0)"/>
    </pattern>
    <pattern id="pattern2_3774_353691" patternContentUnits="objectBoundingBox" width="1" height="1">
    <use xlink:href="#image1_3774_353691" transform="matrix(0.000247385 0 0 0.000848176 -0.00664408 0)"/>
    </pattern>
    <filter id="filter0_f_3774_353691" x="62.5641" y="242.564" width="233.872" height="58.8718" filterUnits="userSpaceOnUse" color-interpolation-filters="sRGB">
    <feFlood flood-opacity="0" result="BackgroundImageFix"/>
    <feBlend mode="normal" in="SourceGraphic" in2="BackgroundImageFix" result="shape"/>
    <feGaussianBlur stdDeviation="8.71795" result="effect1_foregroundBlur_3774_353691"/>
    </filter>
    <pattern id="pattern3_3774_353691" patternContentUnits="objectBoundingBox" width="1" height="1">
    <use xlink:href="#image0_3774_353691" transform="matrix(0.00326797 0 0 0.00373483 0 -0.0172736)"/>
    </pattern>
    <linearGradient id="paint0_linear_3774_353691" x1="181" y1="271.5" x2="321.969" y2="19.0184" gradientUnits="userSpaceOnUse">
    <stop/>
    <stop offset="1" stop-opacity="0.01"/>
    </linearGradient>
    </defs>
    </svg>
    