<svg xmlns="http://www.w3.org/2000/svg" width="24" height="27" viewBox="0 0 24 27" fill="none">
  <path d="M14.0912 21.509L9.2983 25.2883C8.60808 25.8332 7.84968 25.9673 7.02309 25.6903C6.19633 25.4137 5.67128 24.8587 5.44794 24.0252L1.011 7.46628C0.832409 6.79976 0.906672 6.18343 1.23379 5.61729C1.56091 5.05116 2.05795 4.67873 2.72493 4.50001L15.4302 1.09564C16.0972 0.916923 16.7139 0.990932 17.2802 1.31766C17.8466 1.64439 18.2191 2.14102 18.3977 2.80753L22.8346 19.3664C23.0579 20.1999 22.8808 20.9431 22.3031 21.5961C21.7257 22.2492 21.0019 22.5123 20.1316 22.3855L14.0912 21.509ZM13.6555 19.883L20.3383 20.8617C20.6704 20.9121 20.9464 20.8084 21.1661 20.5506C21.3856 20.2927 21.4531 20.006 21.3685 19.6906L16.9488 3.19576C16.889 2.97279 16.7414 2.79339 16.506 2.65758C16.2706 2.52176 16.0413 2.48375 15.8182 2.54354L3.11289 5.94791C2.88976 6.0077 2.71021 6.15526 2.57423 6.39059C2.43826 6.62592 2.40014 6.85507 2.45989 7.07805L6.87966 23.5729C6.96417 23.8883 7.16595 24.1028 7.48499 24.2165C7.80421 24.3298 8.09502 24.2816 8.35743 24.0719L13.6555 19.883ZM9.46554 4.24572L2.2211 6.18687L16.71 2.30458L9.46554 4.24572Z" fill="#1E2B62"/>
  <path d="M13.2724 18.4532L10.0866 21.008C9.62778 21.3764 9.12191 21.4648 8.56897 21.2731C8.0159 21.0817 7.66324 20.7018 7.51096 20.1335L4.48577 8.84336C4.36401 8.38892 4.41126 7.9696 4.62752 7.58541C4.84379 7.20122 5.17425 6.94956 5.61889 6.83041L14.0891 4.56083C14.5337 4.44169 14.9458 4.49441 15.3252 4.71899C15.7045 4.94358 15.9551 5.28309 16.0769 5.73753L19.1021 17.0277C19.2543 17.596 19.1389 18.1013 18.7556 18.5436C18.3726 18.9861 17.8903 19.1625 17.3088 19.0728L13.2724 18.4532ZM12.9753 17.3446L17.441 18.0362C17.6629 18.0718 17.8468 18.0022 17.9925 17.8276C18.1381 17.6528 18.1821 17.4579 18.1244 17.2428L15.111 5.99635C15.0702 5.84432 14.971 5.72163 14.8133 5.62828C14.6556 5.53492 14.5024 5.50817 14.3536 5.54803L5.88341 7.81762C5.73466 7.85747 5.61534 7.95725 5.52544 8.11695C5.43554 8.27665 5.41096 8.43251 5.4517 8.58454L8.46518 19.831C8.5228 20.0461 8.65834 20.1929 8.87178 20.2715C9.08535 20.3499 9.27934 20.3182 9.45375 20.1764L12.9753 17.3446ZM10.1185 6.68282L5.28889 7.97692L14.9481 5.38873L10.1185 6.68282Z" fill="#1E2B62"/>
</svg>