<svg width="654" height="147" viewBox="0 0 654 147" fill="none" xmlns="http://www.w3.org/2000/svg">
<g clip-path="url(#clip0_969_34756)">
<mask id="mask0_969_34756" style="mask-type:luminance" maskUnits="userSpaceOnUse" x="0" y="4" width="296" height="143">
<path d="M27.4423 66.256C27.4423 61.7194 31.0285 58.0406 35.4606 58.0406C39.8926 58.0406 43.492 61.7194 43.492 66.256C43.492 70.7927 39.9032 74.4662 35.4606 74.4662C31.0179 74.4662 27.4423 70.79 27.4423 66.256ZM90.8746 24.4837C88.6083 28.4816 89.2927 28.7423 84.2795 29.203C69.9944 30.5268 43.2815 34.8292 29.6822 39.3645C11.8931 45.3017 14.0575 65.8668 5.59047 72.1641C1.97254 74.866 0.320446 77.4063 0.270142 80.1718V80.4471C0.309855 82.7148 1.41258 85.1386 3.37577 87.9318C11.7117 97.8921 23.3161 98.1118 32.4264 105.597C34.2149 107.067 38.549 110.653 36.4322 115.25C34.379 119.683 18.5067 116.656 14.6373 116.028C10.6831 115.378 7.90843 114.351 3.84439 113.881C2.26113 114.533 2.28364 114.381 1.69587 116.117C1.85737 120.791 -0.393077 125.326 11.5502 127C18.7622 128.006 69.7257 125.82 75.8019 124.16C81.9469 122.489 85.0009 110.389 85.9104 103.525C87.6181 90.5583 87.0753 76.669 82.9464 65.933C79.3337 55.0011 96.7774 54.5034 97.8153 54.1195C97.9212 54.0824 98.1118 54.0917 98.1886 53.9116C98.2547 53.7316 98.4388 53.7727 98.5499 53.684C100.034 51.5076 96.8118 44.5299 96.0559 42.4277C95.6389 41.2628 95.3755 39.8053 96.0983 38.7847C101.687 30.9729 156.853 48.5596 169.1 53.7501C192.056 63.4641 244.051 81.8066 265.993 67.188C279.632 58.0962 276.015 46.836 279.854 40.5863C285.475 40.5559 288.802 55.7067 288.362 60.475C287.577 69.2703 283.332 73.427 277.871 79.4821C277.871 79.4821 277.673 80.2406 276.753 80.6854C268.237 84.8196 260.806 85.4894 249.685 85.4193C226.055 85.2445 185.875 80.3968 162.434 77.7691C143.522 75.6484 123.097 75.1599 104.798 71.7604C99.4276 70.7609 95.0498 69.8554 94.3125 76.4903C93.7327 81.755 94.3125 88.3237 93.9564 93.8611C93.2415 105.295 89.4198 117.605 89.842 124.279C96.7112 124.433 95.8071 122.18 98.6545 109.906C100.799 100.66 100.591 96.3062 108.324 97.16C113.367 97.716 120.712 99.6845 126.05 101.094C130.521 102.28 138.395 104.225 140.856 107.674C140.742 113.065 132.8 123.885 128.928 125.005C122.423 126.883 112.119 119.778 108.59 117.25L109.167 113.227C111.446 111.288 109.947 111.38 114.541 112.464C116.628 112.965 116.785 112.936 119.02 111.84C119.451 108.402 119.688 106.585 115.295 105.521C112.221 105.24 111.289 104.115 107.77 104.462C106.285 106.791 102.488 119.642 105.346 123.214C107.008 125.295 115.976 129.559 119.09 131.031C126.489 134.537 128.556 135.247 134.719 130.457C140.354 126.085 152.555 110.493 151.5 102.998C150.907 98.7419 142.628 97.6564 136.951 96.056C125.158 92.7253 116.352 91.8489 106.626 89.4542C106.089 89.3205 104.808 89.069 104.356 88.8307C103.211 88.227 103.611 88.742 103.183 87.5228C116.274 84.1246 189.998 92.0157 210.113 92.5506C223.018 92.8961 251.741 93.317 263.292 95.6231C271.893 97.3414 277.972 99.4608 282.5 105.195C288.223 112.441 290.025 132.581 280.785 136.097C273.81 123.142 273.01 109.755 254.812 106.534C242.515 104.351 229.044 105.411 216.699 106.648C204.98 107.831 193.56 111.055 181.817 112.533C176.181 113.249 169.769 114.416 164.389 114.871C158.988 115.328 150.493 115.07 150.162 121.438C154.963 125.108 181.124 119.496 187.537 118.277C193.679 117.114 199.475 116.183 205.933 115.127C212.116 114.123 218.565 113.909 224.808 112.884C235.471 111.123 254.551 112.065 261.759 117.422C274.133 126.609 271.816 139.88 277.381 146.866C296.108 146.866 298.653 114.655 291.302 100.035C284.244 86.0216 285.716 89.9281 291.423 77.2872C293.701 72.225 295.143 66.4308 295.45 60.5902V55.7901C295.16 50.4685 293.844 45.2805 291.292 40.769C286.396 32.1458 272.89 23.0103 271.05 38.4206C269.672 50.0025 265.549 58.2365 255.766 62.4819C236.804 70.7225 200.335 56.9021 185.158 44.06C181.893 41.2985 178.279 37.1233 174.863 35.0065C172.374 33.4537 171.494 32.6886 169.421 31.0153C156.085 20.2409 130.997 9.91402 113.662 5.75863L105.172 4.47058C97.7676 13.7954 97.2685 13.2169 90.8667 24.4797" fill="white"/>
</mask>
<g mask="url(#mask0_969_34756)">
<path fill-rule="evenodd" clip-rule="evenodd" d="M212.523 52.5098L177.933 21.7435L160.245 53.7158L212.523 52.5098Z" fill="#FFCD00"/>
<path fill-rule="evenodd" clip-rule="evenodd" d="M177.933 21.7435L129.091 8.96094L160.245 53.7158L177.933 21.7435Z" fill="#F28C00"/>
<path fill-rule="evenodd" clip-rule="evenodd" d="M181.892 19.0933L152.959 -17L131.941 10.6077L181.892 19.0933Z" fill="#5382BA"/>
<path fill-rule="evenodd" clip-rule="evenodd" d="M212.523 52.5097L215.728 9.66382L177.933 21.7434L212.523 52.5097Z" fill="#F28C00"/>
<path fill-rule="evenodd" clip-rule="evenodd" d="M127.983 13.2606L107.732 -3.82697L148.996 -14.3472L127.983 13.2606Z" fill="#E1251B"/>
<path fill-rule="evenodd" clip-rule="evenodd" d="M65.2314 75.9952L17.9111 85.8482L22.7112 44.7775L65.2314 75.9952Z" fill="#E1251B"/>
<path fill-rule="evenodd" clip-rule="evenodd" d="M17.9111 85.8482L-28.5833 65.3215L23.2592 39.9285L17.9111 85.8482Z" fill="#5382BA"/>
<path fill-rule="evenodd" clip-rule="evenodd" d="M17.911 85.8483L-27.9783 104.09L-28.5833 65.3215L17.911 85.8483Z" fill="#E1251B"/>
<path fill-rule="evenodd" clip-rule="evenodd" d="M-27.9783 104.089L-7.01201 130.498L17.9111 85.8481L-27.9783 104.089Z" fill="#F28C00"/>
<path fill-rule="evenodd" clip-rule="evenodd" d="M65.2314 75.9952L41.8426 119.244L17.9111 85.8482L65.2314 75.9952Z" fill="#F28C00"/>
<path fill-rule="evenodd" clip-rule="evenodd" d="M41.8427 119.245L-7.01196 130.498L17.9111 85.8481L41.8427 119.245Z" fill="#FFCD00"/>
<path fill-rule="evenodd" clip-rule="evenodd" d="M58.5357 -4.21338L13.5161 7.03755L58.5357 -4.21338Z" fill="#FFCD00"/>
<path fill-rule="evenodd" clip-rule="evenodd" d="M58.5357 -4.21338L83.7699 21.8548L13.5161 7.03755L58.5357 -4.21338Z" fill="#F28C00"/>
<path fill-rule="evenodd" clip-rule="evenodd" d="M22.7125 44.7775L13.5161 7.03882L83.7712 21.8547L22.7125 44.7775Z" fill="#F28C00"/>
<path fill-rule="evenodd" clip-rule="evenodd" d="M13.5161 7.03882L-21.7458 7.94297L22.7125 44.7775L13.5161 7.03882Z" fill="#F28C00"/>
<path fill-rule="evenodd" clip-rule="evenodd" d="M13.5161 7.03882L-21.7458 7.94297L13.5161 7.03882Z" fill="#E1251B"/>
<path fill-rule="evenodd" clip-rule="evenodd" d="M-25.6378 24.8438L-21.7459 7.94287L22.7111 44.7774L-25.6378 24.8438Z" fill="#F28C00"/>
<path fill-rule="evenodd" clip-rule="evenodd" d="M41.8427 119.245L67.0755 145.316L-7.01196 130.498L41.8427 119.245Z" fill="#F28C00"/>
<path fill-rule="evenodd" clip-rule="evenodd" d="M90.8416 105.271L41.8427 119.244L67.0755 145.316L90.8416 105.271Z" fill="#E1251B"/>
<path fill-rule="evenodd" clip-rule="evenodd" d="M3.69754 158.695L-3.17163 130.499L67.0742 145.316L31.4284 158.695H3.69754Z" fill="#F28C00"/>
<path fill-rule="evenodd" clip-rule="evenodd" d="M91.9204 158.695L67.0754 145.316L74.0492 158.695H91.9204Z" fill="#5382BA"/>
<path fill-rule="evenodd" clip-rule="evenodd" d="M119.357 158.695L112.647 130.359L67.0754 145.316L91.9204 158.695H119.357Z" fill="#F28C00"/>
<path fill-rule="evenodd" clip-rule="evenodd" d="M112.646 130.361L146.853 139.745L134.458 158.695H119.356L112.646 130.361Z" fill="#F28C00"/>
<path fill-rule="evenodd" clip-rule="evenodd" d="M154.006 158.695L146.853 139.747L134.457 158.695H154.006Z" fill="#FFCD00"/>
<path fill-rule="evenodd" clip-rule="evenodd" d="M165.199 158.695L146.853 139.747L154.005 158.695H165.199Z" fill="#F28C00"/>
<path fill-rule="evenodd" clip-rule="evenodd" d="M181.421 131.596L146.853 139.745L165.199 158.695H188.385L181.421 131.596Z" fill="#5382BA"/>
<path fill-rule="evenodd" clip-rule="evenodd" d="M-14.2333 158.695L-3.17166 130.499L3.69752 158.695H-14.2333Z" fill="#F28C00"/>
<path fill-rule="evenodd" clip-rule="evenodd" d="M67.0755 145.316L41.7473 154.821L50.2434 158.694H74.0479L67.0755 145.316Z" fill="#FFCD00"/>
<path fill-rule="evenodd" clip-rule="evenodd" d="M226.256 146.67L256.271 158.694H225.509L226.256 146.67Z" fill="#F28C00"/>
<path fill-rule="evenodd" clip-rule="evenodd" d="M226.256 146.67L225.509 158.694H191.598L187.453 155.08L226.256 146.67Z" fill="#E1251B"/>
<path fill-rule="evenodd" clip-rule="evenodd" d="M323.181 48.6258L278.479 28.8933L327.798 9.14233L323.181 48.6258Z" fill="#5382BA"/>
<path fill-rule="evenodd" clip-rule="evenodd" d="M323.181 48.6258L279.063 66.1687L278.479 28.8933L323.181 48.6258Z" fill="#E1251B"/>
<path fill-rule="evenodd" clip-rule="evenodd" d="M279.063 66.17L302.912 91.5577L323.181 48.6257L279.063 66.17Z" fill="#F28C00"/>
<path fill-rule="evenodd" clip-rule="evenodd" d="M269.004 92.4261L236.121 73.3621L229.539 63.7461L279.063 66.1686" fill="#5382BA"/>
<path fill-rule="evenodd" clip-rule="evenodd" d="M279.063 66.17L252.38 33.5769L236.479 64.2717L279.063 66.17Z" fill="#F28C00"/>
<path fill-rule="evenodd" clip-rule="evenodd" d="M278.48 28.8933L252.379 33.5769L279.063 66.17L278.48 28.8933Z" fill="#F28C00"/>
<path fill-rule="evenodd" clip-rule="evenodd" d="M234.796 62.8671L215.728 9.66382L252.38 33.5808L235.726 63.6521L234.796 62.8671Z" fill="#E1251B"/>
<path fill-rule="evenodd" clip-rule="evenodd" d="M252.379 33.5769L248.096 13.8801L278.48 28.8933L252.379 33.5769Z" fill="#F28C00"/>
<path fill-rule="evenodd" clip-rule="evenodd" d="M269.004 92.4261L301.59 128.161L246.18 141.776L269.004 92.4261Z" fill="#E1251B"/>
<path fill-rule="evenodd" clip-rule="evenodd" d="M301.591 128.161L302.912 91.5591L269.006 92.4248L301.591 128.161Z" fill="#5382BA"/>
<path fill-rule="evenodd" clip-rule="evenodd" d="M279.063 66.17L269 92.4262L302.912 91.5578L279.063 66.17Z" fill="#F28C00"/>
<path fill-rule="evenodd" clip-rule="evenodd" d="M301.591 128.161L308.639 158.695H280.303L301.591 128.161Z" fill="#F28C00"/>
<path fill-rule="evenodd" clip-rule="evenodd" d="M226.256 146.67L301.591 128.161L280.303 158.694H256.271L226.256 146.67Z" fill="#F28C00"/>
<path fill-rule="evenodd" clip-rule="evenodd" d="M157.651 80.2261L129.899 46.333L111.628 82.1483L157.651 80.2261Z" fill="#FFCD00"/>
<path fill-rule="evenodd" clip-rule="evenodd" d="M111.629 82.1482L83.7712 21.8546L129.899 46.3329L111.629 82.1482Z" fill="#F28C00"/>
<path fill-rule="evenodd" clip-rule="evenodd" d="M215.728 9.66382L252.379 33.5768L215.728 9.66382Z" fill="#FFCD00"/>
<path fill-rule="evenodd" clip-rule="evenodd" d="M235.691 73.3728L246.18 141.776L269.006 92.4262L242.669 73.2537L235.691 73.3728Z" fill="#FFCD00"/>
<path fill-rule="evenodd" clip-rule="evenodd" d="M212.523 52.5098L234.796 67.5229L215.728 9.66382L212.523 52.5098Z" fill="#F28C00"/>
<path fill-rule="evenodd" clip-rule="evenodd" d="M181.421 131.596L200.476 95.5013L187.453 155.08L181.421 131.596Z" fill="#FFCD00"/>
<path fill-rule="evenodd" clip-rule="evenodd" d="M226.256 146.67L200.476 95.5013L187.453 155.08L226.256 146.67Z" fill="#F28C00"/>
<path fill-rule="evenodd" clip-rule="evenodd" d="M239.745 99.8103L200.476 95.5013L246.18 141.776L239.745 99.8103Z" fill="#E1251B"/>
<path fill-rule="evenodd" clip-rule="evenodd" d="M226.256 146.67L200.476 95.5013L246.18 141.776L226.256 146.67Z" fill="#5382BA"/>
<path fill-rule="evenodd" clip-rule="evenodd" d="M200.476 95.5013L234.796 67.5229L239.745 99.8103L200.476 95.5013Z" fill="#F28C00"/>
<path fill-rule="evenodd" clip-rule="evenodd" d="M212.523 52.5098L200.476 95.5013L234.796 67.5229L212.523 52.5098Z" fill="#F28C00"/>
<path fill-rule="evenodd" clip-rule="evenodd" d="M160.245 53.7158L200.476 95.5014L212.523 52.5085L160.245 53.7158Z" fill="#5382BA"/>
<path fill-rule="evenodd" clip-rule="evenodd" d="M181.421 131.596L157.651 80.2261L200.476 95.5013L181.421 131.596Z" fill="#F28C00"/>
<path fill-rule="evenodd" clip-rule="evenodd" d="M155.032 77.0186L160.245 53.7158L200.476 95.5014L157.651 80.2261L155.032 77.0186Z" fill="#F28C00"/>
<path fill-rule="evenodd" clip-rule="evenodd" d="M129.899 46.333L160.245 53.7171L159.07 77.413L129.899 46.333Z" fill="#5382BA"/>
<path fill-rule="evenodd" clip-rule="evenodd" d="M128.394 15.0848L129.899 46.333L160.245 53.7158L127.983 4.47595L128.394 15.0848Z" fill="#FFCD00"/>
<path fill-rule="evenodd" clip-rule="evenodd" d="M107.731 -3.8269L129.899 46.333L127.983 6.62578L107.731 -3.8269Z" fill="#F28C00"/>
<path fill-rule="evenodd" clip-rule="evenodd" d="M83.7699 21.8547L107.732 -3.8269L129.899 46.333L83.7699 21.8547Z" fill="#E1251B"/>
<path fill-rule="evenodd" clip-rule="evenodd" d="M65.2315 75.9953L57.8738 31.578L22.7112 44.7776L65.2315 75.9953Z" fill="#F28C00"/>
<path fill-rule="evenodd" clip-rule="evenodd" d="M83.7698 21.8546L65.2314 75.9952L57.8738 31.5779L83.7698 21.8546Z" fill="#FFCD00"/>
<path fill-rule="evenodd" clip-rule="evenodd" d="M90.8416 105.271L41.8427 119.244L65.2314 75.9952L90.8416 105.271Z" fill="#5382BA"/>
<path fill-rule="evenodd" clip-rule="evenodd" d="M111.629 82.1482L90.8429 105.271L65.2314 75.9952L111.629 82.1482Z" fill="#F28C00"/>
<path fill-rule="evenodd" clip-rule="evenodd" d="M83.7699 21.8546L65.2314 75.9952L111.628 82.1482L83.7699 21.8546Z" fill="#E1251B"/>
<path fill-rule="evenodd" clip-rule="evenodd" d="M67.0754 145.316L112.646 130.361L90.8415 105.271L67.0754 145.316Z" fill="#F28C00"/>
<path fill-rule="evenodd" clip-rule="evenodd" d="M185.575 134.355L152.021 111.028L143.428 142.507L185.575 134.355Z" fill="#E1251B"/>
<path fill-rule="evenodd" clip-rule="evenodd" d="M157.651 80.2261L147.865 108.267L147.658 114.678C147.658 114.678 153.66 112.415 156.237 114.146C164.715 119.859 181.418 131.596 181.418 131.596L157.649 80.2261H157.651Z" fill="#FFCD00"/>
<path fill-rule="evenodd" clip-rule="evenodd" d="M112.646 130.361L147.867 108.267L146.853 139.745L112.646 130.361Z" fill="#5382BA"/>
<path fill-rule="evenodd" clip-rule="evenodd" d="M111.629 82.1482L147.867 108.267L157.652 80.2261L111.629 82.1482Z" fill="#F28C00"/>
<path fill-rule="evenodd" clip-rule="evenodd" d="M112.646 130.361L111.628 82.1469L147.867 108.267L112.646 130.361Z" fill="#E1251B"/>
<path fill-rule="evenodd" clip-rule="evenodd" d="M90.8416 105.271L112.646 134.484L111.628 82.1482L90.8416 105.271Z" fill="#FFCD00"/>
<path fill-rule="evenodd" clip-rule="evenodd" d="M107.73 -3.82683L83.7698 21.8548L58.5356 -4.21338L107.73 -3.82683Z" fill="#5382BA"/>
</g>
<path d="M329.089 80.2909H339.205L351.853 118.342L364.614 80.2909H374.725L383.877 134.844H373.836L367.985 100.391L356.396 134.844H347.245L335.757 100.391L329.767 134.844H319.642L329.089 80.2909Z" fill="#FFCD00"/>
<path d="M410.829 80.2909H400.519V134.844H410.829V80.2909Z" fill="#FFCD00"/>
<path d="M481.767 89.8778L474.505 96.8026C469.562 91.5802 464.003 88.9697 457.829 88.9697C452.616 88.9697 448.226 90.7515 444.655 94.3152C441.086 97.8788 439.301 102.273 439.301 107.494C439.301 111.133 440.092 114.363 441.672 117.184C443.253 120.005 445.489 122.219 448.379 123.828C451.27 125.436 454.481 126.241 458.014 126.241C461.029 126.241 463.781 125.679 466.276 124.552C468.772 123.427 471.513 121.379 474.504 118.41L481.541 125.755C477.513 129.688 473.704 132.415 470.121 133.936C466.536 135.457 462.443 136.217 457.844 136.217C449.363 136.217 442.421 133.529 437.02 128.151C431.618 122.775 428.916 115.882 428.916 107.476C428.916 102.037 430.145 97.2024 432.607 92.9755C435.066 88.7486 438.589 85.3491 443.176 82.777C447.762 80.2062 452.701 78.9208 457.993 78.9208C462.491 78.9208 466.824 79.8713 470.992 81.7722C475.158 83.6719 478.749 86.3751 481.766 89.8805" fill="#FFCD00"/>
<path d="M499.931 80.2909H510.465V100.875H528.672V80.2909H539.168V134.844H528.672V110.925H510.465V134.844H499.931V80.2909Z" fill="#FFCD00"/>
<path d="M570.309 80.2909H560V134.844H570.309V80.2909Z" fill="#FFCD00"/>
<path d="M591.144 80.2909H601.105L624.45 116.19V80.2909H634.832V134.844H624.843L601.526 99.057V134.844H591.144V80.2909Z" fill="#FFCD00"/>
<path d="M336.734 34.8014L351.855 67.2291H348.355L343.255 56.5593H329.286L324.234 67.2291H320.619L335.941 34.8014H336.734ZM336.325 41.6917L330.767 53.4285H341.853L336.325 41.6917Z" fill="white"/>
<path d="M405.141 40.8206L402.585 42.7825C401.173 40.9451 399.48 39.5538 397.504 38.6046C395.526 37.6568 393.355 37.1828 390.988 37.1828C388.401 37.1828 386.007 37.805 383.801 39.0467C381.597 40.2898 379.889 41.9564 378.677 44.0507C377.464 46.1449 376.858 48.5 376.858 51.1158C376.858 55.0686 378.214 58.3675 380.926 61.0138C383.637 63.6587 387.058 64.9812 391.187 64.9812C395.729 64.9812 399.527 63.2033 402.585 59.6463L405.141 61.5857C403.523 63.6442 401.507 65.2354 399.088 66.3593C396.671 67.4832 393.971 68.0458 390.988 68.0458C385.316 68.0458 380.84 66.1581 377.564 62.3813C374.815 59.1909 373.441 55.3413 373.441 50.8298C373.441 46.0827 375.104 42.0901 378.433 38.8495C381.763 35.6075 385.933 33.9885 390.943 33.9885C393.971 33.9885 396.704 34.5882 399.144 35.7862C401.582 36.9843 403.583 38.6628 405.139 40.8233" fill="white"/>
<path d="M429.812 34.8014H433.053V54.3776C433.053 56.6996 433.097 58.1465 433.185 58.7197C433.347 59.9985 433.723 61.0668 434.309 61.9272C434.897 62.7877 435.8 63.5079 437.022 64.0877C438.24 64.6675 439.468 64.9574 440.702 64.9574C441.774 64.9574 442.803 64.7297 443.788 64.2743C444.773 63.8189 445.596 63.1875 446.258 62.38C446.918 61.5711 447.404 60.5942 447.713 59.4478C447.932 58.6244 448.042 56.9339 448.042 54.3776V34.8014H451.284V54.3776C451.284 57.2728 451 59.6132 450.434 61.3977C449.868 63.1835 448.736 64.7377 447.039 66.0601C445.342 67.3826 443.287 68.0445 440.878 68.0445C438.262 68.0445 436.021 67.4197 434.154 66.17C432.287 64.9217 431.038 63.2682 430.405 61.2097C430.01 59.9455 429.811 57.6686 429.811 54.3763V34.8L429.812 34.8014Z" fill="white"/>
<path d="M490.571 34.8014L505.694 67.2291H502.191L497.093 56.5593H483.124L478.071 67.2291H474.457L489.776 34.8014H490.571ZM490.163 41.6917L484.606 53.4285H495.691L490.164 41.6917H490.163Z" fill="white"/>
<path d="M528.95 34.8026H535.411C539.01 34.8026 541.449 34.9509 542.729 35.2434C544.655 35.6843 546.222 36.6294 547.426 38.0803C548.63 39.5299 549.231 41.313 549.231 43.4324C549.231 45.1984 548.816 46.7512 547.988 48.0909C547.157 49.4292 545.971 50.4406 544.428 51.125C542.883 51.8081 540.752 52.1576 538.033 52.1734L549.694 67.229H545.689L534.028 52.1734H532.195V67.229H528.953V34.8026H528.95ZM532.192 37.9771V48.999L537.778 49.0427C539.944 49.0427 541.542 48.8388 542.582 48.4258C543.619 48.0141 544.428 47.3562 545.009 46.452C545.591 45.5492 545.884 44.5378 545.884 43.4205C545.884 42.3032 545.589 41.3448 544.998 40.4565C544.411 39.5683 543.639 38.9315 542.683 38.5503C541.723 38.1677 540.136 37.9771 537.912 37.9771H532.195H532.192Z" fill="white"/>
<path d="M577.012 34.8014H573.771V67.2277H577.012V34.8014Z" fill="white"/>
<path d="M617.941 33.9872C622.855 33.9872 626.964 35.6247 630.272 38.9038C633.583 42.1801 635.237 46.2137 635.237 51.0046C635.237 55.7954 633.587 59.7787 630.284 63.0855C626.982 66.391 622.958 68.0444 618.206 68.0444C613.453 68.0444 609.341 66.399 606.029 63.108C602.722 59.8157 601.068 55.8324 601.068 51.1594C601.068 48.0432 601.822 45.156 603.329 42.4952C604.834 39.8357 606.89 37.7521 609.496 36.2456C612.098 34.7391 614.913 33.9872 617.942 33.9872M618.086 37.1391C615.69 37.1391 613.415 37.764 611.265 39.015C609.114 40.2633 607.439 41.9485 606.229 44.0666C605.024 46.1833 604.421 48.5436 604.421 51.1475C604.421 55.0011 605.755 58.255 608.427 60.9092C611.098 63.566 614.318 64.8925 618.085 64.8925C620.602 64.8925 622.933 64.2822 625.075 63.0617C627.214 61.8411 628.886 60.1718 630.084 58.0538C631.286 55.937 631.884 53.5833 631.884 50.994C631.884 48.4046 631.286 46.0933 630.084 44.011C628.886 41.9299 627.195 40.2646 625.019 39.015C622.84 37.764 620.527 37.1391 618.085 37.1391" fill="white"/>
<path d="M638.005 6.47087C638.768 6.31334 639.857 6.22729 640.894 6.22729C642.501 6.22729 643.539 6.52118 644.266 7.17778C644.855 7.69671 645.183 8.49231 645.183 9.39116C645.183 10.9307 644.213 11.9487 642.986 12.3657V12.4187C643.886 12.7298 644.422 13.5585 644.698 14.7671C645.077 16.394 645.355 17.5179 645.599 17.968H644.043C643.851 17.6384 643.592 16.635 643.265 15.1841C642.919 13.577 642.296 12.972 640.93 12.9204H639.513V17.968H638.007V6.47087H638.005ZM639.512 11.778H641.051C642.658 11.778 643.679 10.8963 643.679 9.56458C643.679 8.06207 642.59 7.40547 640.997 7.38694C640.273 7.38694 639.754 7.45578 639.512 7.52594V11.778Z" fill="white"/>
<path d="M641.345 25.1457C634.589 25.1457 629.091 19.6493 629.091 12.8913C629.091 6.13336 634.589 0.636963 641.345 0.636963C648.102 0.636963 653.6 6.13468 653.6 12.8913C653.6 19.648 648.103 25.1457 641.345 25.1457ZM641.345 2.0799C635.384 2.0799 630.533 6.93028 630.533 12.8927C630.533 18.855 635.384 23.7054 641.345 23.7054C647.306 23.7054 652.158 18.855 652.158 12.8927C652.158 6.93028 647.308 2.0799 641.345 2.0799Z" fill="white"/>
</g>
<defs>
<clipPath id="clip0_969_34756">
<rect width="654" height="147" fill="white"/>
</clipPath>
</defs>
</svg>
