<svg width="728" height="206" viewBox="0 0 728 206" fill="none" xmlns="http://www.w3.org/2000/svg">
<g clip-path="url(#clip0_60_534)">
<mask id="mask0_60_534" style="mask-type:luminance" maskUnits="userSpaceOnUse" x="74" y="21" width="296" height="143">
<path d="M101.843 83.256C101.843 78.7194 105.429 75.0406 109.861 75.0406C114.293 75.0406 117.892 78.7194 117.892 83.256C117.892 87.7927 114.303 91.4662 109.861 91.4662C105.418 91.4662 101.843 87.79 101.843 83.256ZM165.275 41.4837C163.009 45.4816 163.693 45.7423 158.68 46.203C144.395 47.5268 117.682 51.8292 104.082 56.3645C86.2933 62.3017 88.4577 82.8668 79.9907 89.1641C76.3728 91.866 74.7207 94.4063 74.6704 97.1718V97.4471C74.7101 99.7148 75.8128 102.139 77.776 104.932C86.112 114.892 97.7163 115.112 106.827 122.597C108.615 124.067 112.949 127.653 110.833 132.25C108.779 136.683 92.907 133.656 89.0376 133.028C85.0834 132.378 82.3087 131.351 78.2447 130.881C76.6614 131.533 76.6839 131.381 76.0961 133.117C76.2576 137.791 74.0072 142.326 85.9505 144C93.1625 145.006 144.126 142.82 150.202 141.16C156.347 139.489 159.401 127.389 160.311 120.525C162.018 107.558 161.476 93.669 157.347 82.933C153.734 72.0011 171.178 71.5034 172.216 71.1195C172.321 71.0824 172.512 71.0917 172.589 70.9116C172.655 70.7316 172.839 70.7727 172.95 70.684C174.434 68.5076 171.212 61.5299 170.456 59.4277C170.039 58.2628 169.776 56.8053 170.499 55.7847C176.088 47.9729 231.253 65.5596 243.501 70.7501C266.456 80.4641 318.451 98.8066 340.393 84.188C354.032 75.0962 350.415 63.836 354.254 57.5863C359.875 57.5559 363.202 72.7067 362.762 77.475C361.977 86.2703 357.732 90.427 352.271 96.4821C352.271 96.4821 352.073 97.2406 351.153 97.6854C342.637 101.82 335.206 102.489 324.085 102.419C300.455 102.245 260.276 97.3968 236.834 94.7691C217.922 92.6484 197.497 92.1599 179.199 88.7604C173.828 87.7609 169.45 86.8554 168.713 93.4903C168.133 98.755 168.713 105.324 168.357 110.861C167.642 122.295 163.82 134.605 164.242 141.279C171.111 141.433 170.207 139.18 173.055 126.906C175.199 117.66 174.992 113.306 182.724 114.16C187.767 114.716 195.112 116.684 200.451 118.094C204.921 119.28 212.795 121.225 215.256 124.674C215.142 130.065 207.201 140.885 203.329 142.005C196.824 143.883 186.519 136.778 182.99 134.25L183.567 130.227C185.847 128.288 184.347 128.38 188.942 129.464C191.028 129.965 191.185 129.936 193.42 128.84C193.852 125.402 194.089 123.585 189.695 122.521C186.621 122.24 185.689 121.115 182.17 121.462C180.685 123.791 176.889 136.642 179.747 140.214C181.408 142.295 190.377 146.559 193.49 148.031C200.889 151.537 202.957 152.247 209.119 147.457C214.754 143.085 226.956 127.493 225.901 119.998C225.308 115.742 217.029 114.656 211.351 113.056C199.558 109.725 190.753 108.849 181.027 106.454C180.489 106.32 179.208 106.069 178.756 105.831C177.611 105.227 178.011 105.742 177.583 104.523C190.674 101.125 264.398 109.016 284.513 109.551C297.419 109.896 326.141 110.317 337.692 112.623C346.293 114.341 352.372 116.461 356.901 122.195C362.623 129.441 364.425 149.581 355.185 153.097C348.21 140.142 347.41 126.755 329.212 123.534C316.916 121.351 303.445 122.411 291.099 123.648C279.381 124.831 267.96 128.055 256.217 129.533C250.581 130.249 244.169 131.416 238.789 131.871C233.388 132.328 224.893 132.07 224.562 138.438C229.364 142.108 255.525 136.496 261.937 135.277C268.079 134.114 273.875 133.183 280.334 132.127C286.516 131.123 292.965 130.909 299.208 129.884C309.872 128.123 328.951 129.065 336.159 134.422C348.533 143.609 346.216 156.88 351.782 163.866C370.508 163.866 373.054 131.655 365.703 117.035C358.644 103.022 360.116 106.928 365.823 94.2872C368.101 89.225 369.543 83.4308 369.85 77.5902V72.7901C369.56 67.4685 368.244 62.2805 365.692 57.769C360.797 49.1458 347.29 40.0103 345.45 55.4206C344.072 67.0025 339.95 75.2365 330.167 79.4819C311.205 87.7225 274.735 73.9021 259.558 61.06C256.294 58.2985 252.68 54.1233 249.263 52.0065C246.774 50.4537 245.894 49.6886 243.821 48.0153C230.485 37.2409 205.398 26.914 188.063 22.7586L179.572 21.4706C172.168 30.7954 171.669 30.2169 165.267 41.4797" fill="white"/>
</mask>
<g mask="url(#mask0_60_534)">
<path fill-rule="evenodd" clip-rule="evenodd" d="M286.924 69.5098L252.333 38.7435L234.646 70.7158L286.924 69.5098Z" fill="#FFCD00"/>
<path fill-rule="evenodd" clip-rule="evenodd" d="M252.333 38.7435L203.492 25.9609L234.646 70.7158L252.333 38.7435Z" fill="#F28C00"/>
<path fill-rule="evenodd" clip-rule="evenodd" d="M256.292 36.0933L227.36 0L206.342 27.6077L256.292 36.0933Z" fill="#5382BA"/>
<path fill-rule="evenodd" clip-rule="evenodd" d="M286.924 69.5097L290.129 26.6638L252.333 38.7434L286.924 69.5097Z" fill="#F28C00"/>
<path fill-rule="evenodd" clip-rule="evenodd" d="M202.384 30.2606L182.132 13.173L223.396 2.65283L202.384 30.2606Z" fill="#E1251B"/>
<path fill-rule="evenodd" clip-rule="evenodd" d="M139.632 92.9952L92.3113 102.848L97.1114 61.7775L139.632 92.9952Z" fill="#E1251B"/>
<path fill-rule="evenodd" clip-rule="evenodd" d="M92.3113 102.848L45.817 82.3215L97.6595 56.9285L92.3113 102.848Z" fill="#5382BA"/>
<path fill-rule="evenodd" clip-rule="evenodd" d="M92.3113 102.848L46.422 121.09L45.817 82.3215L92.3113 102.848Z" fill="#E1251B"/>
<path fill-rule="evenodd" clip-rule="evenodd" d="M46.422 121.089L67.3883 147.498L92.3113 102.848L46.422 121.089Z" fill="#F28C00"/>
<path fill-rule="evenodd" clip-rule="evenodd" d="M139.632 92.9952L116.243 136.244L92.3113 102.848L139.632 92.9952Z" fill="#F28C00"/>
<path fill-rule="evenodd" clip-rule="evenodd" d="M116.243 136.245L67.3883 147.498L92.3114 102.848L116.243 136.245Z" fill="#FFCD00"/>
<path fill-rule="evenodd" clip-rule="evenodd" d="M132.936 12.7866L87.9164 24.0375L132.936 12.7866Z" fill="#FFCD00"/>
<path fill-rule="evenodd" clip-rule="evenodd" d="M132.936 12.7866L158.17 38.8548L87.9164 24.0376L132.936 12.7866Z" fill="#F28C00"/>
<path fill-rule="evenodd" clip-rule="evenodd" d="M97.1128 61.7775L87.9164 24.0388L158.171 38.8547L97.1128 61.7775Z" fill="#F28C00"/>
<path fill-rule="evenodd" clip-rule="evenodd" d="M87.9164 24.0388L52.6545 24.943L97.1128 61.7775L87.9164 24.0388Z" fill="#F28C00"/>
<path fill-rule="evenodd" clip-rule="evenodd" d="M87.9164 24.0388L52.6545 24.943L87.9164 24.0388Z" fill="#E1251B"/>
<path fill-rule="evenodd" clip-rule="evenodd" d="M48.7625 41.8438L52.6544 24.9429L97.1114 61.7774L48.7625 41.8438Z" fill="#F28C00"/>
<path fill-rule="evenodd" clip-rule="evenodd" d="M116.243 136.245L141.476 162.316L67.3883 147.498L116.243 136.245Z" fill="#F28C00"/>
<path fill-rule="evenodd" clip-rule="evenodd" d="M165.242 122.271L116.243 136.244L141.476 162.316L165.242 122.271Z" fill="#E1251B"/>
<path fill-rule="evenodd" clip-rule="evenodd" d="M78.0978 175.695L71.2286 147.499L141.474 162.316L105.829 175.695H78.0978Z" fill="#F28C00"/>
<path fill-rule="evenodd" clip-rule="evenodd" d="M166.321 175.695L141.476 162.316L148.449 175.695H166.321Z" fill="#5382BA"/>
<path fill-rule="evenodd" clip-rule="evenodd" d="M193.758 175.695L187.047 147.359L141.476 162.316L166.321 175.695H193.758Z" fill="#F28C00"/>
<path fill-rule="evenodd" clip-rule="evenodd" d="M187.046 147.361L221.253 156.745L208.858 175.695H193.756L187.046 147.361Z" fill="#F28C00"/>
<path fill-rule="evenodd" clip-rule="evenodd" d="M228.407 175.695L221.253 156.747L208.857 175.695H228.407Z" fill="#FFCD00"/>
<path fill-rule="evenodd" clip-rule="evenodd" d="M239.599 175.695L221.253 156.747L228.405 175.695H239.599Z" fill="#F28C00"/>
<path fill-rule="evenodd" clip-rule="evenodd" d="M255.821 148.596L221.253 156.745L239.599 175.695H262.786L255.821 148.596Z" fill="#5382BA"/>
<path fill-rule="evenodd" clip-rule="evenodd" d="M60.167 175.695L71.2286 147.499L78.0978 175.695H60.167Z" fill="#F28C00"/>
<path fill-rule="evenodd" clip-rule="evenodd" d="M141.476 162.316L116.148 171.821L124.644 175.694H148.448L141.476 162.316Z" fill="#FFCD00"/>
<path fill-rule="evenodd" clip-rule="evenodd" d="M300.657 163.67L330.671 175.694H299.909L300.657 163.67Z" fill="#F28C00"/>
<path fill-rule="evenodd" clip-rule="evenodd" d="M300.657 163.67L299.909 175.694H265.998L261.854 172.08L300.657 163.67Z" fill="#E1251B"/>
<path fill-rule="evenodd" clip-rule="evenodd" d="M397.581 65.6258L352.879 45.8933L402.198 26.1423L397.581 65.6258Z" fill="#5382BA"/>
<path fill-rule="evenodd" clip-rule="evenodd" d="M397.581 65.6258L353.463 83.1687L352.879 45.8933L397.581 65.6258Z" fill="#E1251B"/>
<path fill-rule="evenodd" clip-rule="evenodd" d="M353.463 83.17L377.312 108.558L397.581 65.6257L353.463 83.17Z" fill="#F28C00"/>
<path fill-rule="evenodd" clip-rule="evenodd" d="M343.405 109.426L310.522 90.3621L303.94 80.7461L353.463 83.1686" fill="#5382BA"/>
<path fill-rule="evenodd" clip-rule="evenodd" d="M353.463 83.17L326.78 50.5769L310.879 81.2717L353.463 83.17Z" fill="#F28C00"/>
<path fill-rule="evenodd" clip-rule="evenodd" d="M352.88 45.8933L326.779 50.5769L353.463 83.17L352.88 45.8933Z" fill="#F28C00"/>
<path fill-rule="evenodd" clip-rule="evenodd" d="M309.197 79.8671L290.129 26.6638L326.78 50.5808L310.126 80.6521L309.197 79.8671Z" fill="#E1251B"/>
<path fill-rule="evenodd" clip-rule="evenodd" d="M326.779 50.5769L322.497 30.8801L352.88 45.8933L326.779 50.5769Z" fill="#F28C00"/>
<path fill-rule="evenodd" clip-rule="evenodd" d="M343.405 109.426L375.99 145.161L320.58 158.776L343.405 109.426Z" fill="#E1251B"/>
<path fill-rule="evenodd" clip-rule="evenodd" d="M375.991 145.161L377.312 108.559L343.406 109.425L375.991 145.161Z" fill="#5382BA"/>
<path fill-rule="evenodd" clip-rule="evenodd" d="M353.463 83.17L343.401 109.426L377.312 108.558L353.463 83.17Z" fill="#F28C00"/>
<path fill-rule="evenodd" clip-rule="evenodd" d="M375.991 145.161L383.039 175.695H354.703L375.991 145.161Z" fill="#F28C00"/>
<path fill-rule="evenodd" clip-rule="evenodd" d="M300.657 163.67L375.991 145.161L354.703 175.694H330.671L300.657 163.67Z" fill="#F28C00"/>
<path fill-rule="evenodd" clip-rule="evenodd" d="M232.051 97.2261L204.299 63.333L186.028 99.1483L232.051 97.2261Z" fill="#FFCD00"/>
<path fill-rule="evenodd" clip-rule="evenodd" d="M186.029 99.1482L158.171 38.8546L204.299 63.3329L186.029 99.1482Z" fill="#F28C00"/>
<path fill-rule="evenodd" clip-rule="evenodd" d="M290.129 26.6638L326.779 50.5768L290.129 26.6638Z" fill="#FFCD00"/>
<path fill-rule="evenodd" clip-rule="evenodd" d="M310.091 90.3728L320.58 158.776L343.406 109.426L317.069 90.2537L310.091 90.3728Z" fill="#FFCD00"/>
<path fill-rule="evenodd" clip-rule="evenodd" d="M286.924 69.5098L309.197 84.5229L290.129 26.6638L286.924 69.5098Z" fill="#F28C00"/>
<path fill-rule="evenodd" clip-rule="evenodd" d="M255.821 148.596L274.876 112.501L261.854 172.08L255.821 148.596Z" fill="#FFCD00"/>
<path fill-rule="evenodd" clip-rule="evenodd" d="M300.657 163.67L274.876 112.501L261.854 172.08L300.657 163.67Z" fill="#F28C00"/>
<path fill-rule="evenodd" clip-rule="evenodd" d="M314.145 116.81L274.876 112.501L320.58 158.776L314.145 116.81Z" fill="#E1251B"/>
<path fill-rule="evenodd" clip-rule="evenodd" d="M300.657 163.67L274.876 112.501L320.58 158.776L300.657 163.67Z" fill="#5382BA"/>
<path fill-rule="evenodd" clip-rule="evenodd" d="M274.876 112.501L309.197 84.5229L314.145 116.81L274.876 112.501Z" fill="#F28C00"/>
<path fill-rule="evenodd" clip-rule="evenodd" d="M286.924 69.5098L274.876 112.501L309.197 84.5229L286.924 69.5098Z" fill="#F28C00"/>
<path fill-rule="evenodd" clip-rule="evenodd" d="M234.646 70.7158L274.876 112.501L286.924 69.5085L234.646 70.7158Z" fill="#5382BA"/>
<path fill-rule="evenodd" clip-rule="evenodd" d="M255.821 148.596L232.051 97.2261L274.876 112.501L255.821 148.596Z" fill="#F28C00"/>
<path fill-rule="evenodd" clip-rule="evenodd" d="M229.433 94.0186L234.646 70.7158L274.876 112.501L232.051 97.2261L229.433 94.0186Z" fill="#F28C00"/>
<path fill-rule="evenodd" clip-rule="evenodd" d="M204.299 63.333L234.646 70.7171L233.47 94.413L204.299 63.333Z" fill="#5382BA"/>
<path fill-rule="evenodd" clip-rule="evenodd" d="M202.794 32.0848L204.299 63.333L234.646 70.7158L202.384 21.476L202.794 32.0848Z" fill="#FFCD00"/>
<path fill-rule="evenodd" clip-rule="evenodd" d="M182.131 13.1731L204.299 63.333L202.384 23.6258L182.131 13.1731Z" fill="#F28C00"/>
<path fill-rule="evenodd" clip-rule="evenodd" d="M158.17 38.8547L182.132 13.1731L204.299 63.333L158.17 38.8547Z" fill="#E1251B"/>
<path fill-rule="evenodd" clip-rule="evenodd" d="M139.632 92.9953L132.274 48.578L97.1115 61.7776L139.632 92.9953Z" fill="#F28C00"/>
<path fill-rule="evenodd" clip-rule="evenodd" d="M158.17 38.8546L139.632 92.9952L132.274 48.5779L158.17 38.8546Z" fill="#FFCD00"/>
<path fill-rule="evenodd" clip-rule="evenodd" d="M165.242 122.271L116.243 136.244L139.632 92.9952L165.242 122.271Z" fill="#5382BA"/>
<path fill-rule="evenodd" clip-rule="evenodd" d="M186.029 99.1482L165.243 122.271L139.632 92.9952L186.029 99.1482Z" fill="#F28C00"/>
<path fill-rule="evenodd" clip-rule="evenodd" d="M158.17 38.8546L139.632 92.9952L186.028 99.1482L158.17 38.8546Z" fill="#E1251B"/>
<path fill-rule="evenodd" clip-rule="evenodd" d="M141.476 162.316L187.046 147.361L165.242 122.271L141.476 162.316Z" fill="#F28C00"/>
<path fill-rule="evenodd" clip-rule="evenodd" d="M259.975 151.355L226.421 128.028L217.828 159.507L259.975 151.355Z" fill="#E1251B"/>
<path fill-rule="evenodd" clip-rule="evenodd" d="M232.051 97.2261L222.266 125.267L222.058 131.678C222.058 131.678 228.06 129.415 230.637 131.146C239.115 136.859 255.818 148.596 255.818 148.596L232.05 97.2261H232.051Z" fill="#FFCD00"/>
<path fill-rule="evenodd" clip-rule="evenodd" d="M187.046 147.361L222.267 125.267L221.253 156.745L187.046 147.361Z" fill="#5382BA"/>
<path fill-rule="evenodd" clip-rule="evenodd" d="M186.029 99.1482L222.267 125.267L232.052 97.2261L186.029 99.1482Z" fill="#F28C00"/>
<path fill-rule="evenodd" clip-rule="evenodd" d="M187.046 147.361L186.028 99.1469L222.267 125.267L187.046 147.361Z" fill="#E1251B"/>
<path fill-rule="evenodd" clip-rule="evenodd" d="M165.242 122.271L187.046 151.484L186.028 99.1482L165.242 122.271Z" fill="#FFCD00"/>
<path fill-rule="evenodd" clip-rule="evenodd" d="M182.131 13.1732L158.17 38.8548L132.936 12.7866L182.131 13.1732Z" fill="#5382BA"/>
</g>
<path d="M403.489 97.2909H413.606L426.253 135.342L439.014 97.2909H449.126L458.277 151.844H448.236L442.385 117.391L430.796 151.844H421.645L410.157 117.391L404.167 151.844H394.042L403.489 97.2909Z" fill="#FFCD00"/>
<path d="M485.229 97.2909H474.92V151.844H485.229V97.2909Z" fill="#FFCD00"/>
<path d="M556.168 106.878L548.905 113.803C543.962 108.58 538.404 105.97 532.229 105.97C527.016 105.97 522.627 107.752 519.055 111.315C515.486 114.879 513.702 119.273 513.702 124.494C513.702 128.133 514.492 131.363 516.072 134.184C517.653 137.005 519.889 139.219 522.779 140.828C525.67 142.436 528.881 143.241 532.415 143.241C535.429 143.241 538.181 142.679 540.676 141.552C543.172 140.427 545.913 138.379 548.904 135.41L555.941 142.755C551.913 146.688 548.104 149.415 544.521 150.936C540.936 152.457 536.843 153.217 532.244 153.217C523.764 153.217 516.822 150.529 511.421 145.151C506.018 139.775 503.316 132.882 503.316 124.476C503.316 119.037 504.545 114.202 507.007 109.975C509.467 105.749 512.989 102.349 517.576 99.777C522.162 97.2062 527.101 95.9208 532.394 95.9208C536.892 95.9208 541.225 96.8713 545.392 98.7722C549.558 100.672 553.149 103.375 556.166 106.88" fill="#FFCD00"/>
<path d="M574.331 97.2909H584.865V117.875H603.072V97.2909H613.569V151.844H603.072V127.925H584.865V151.844H574.331V97.2909Z" fill="#FFCD00"/>
<path d="M644.71 97.2909H634.4V151.844H644.71V97.2909Z" fill="#FFCD00"/>
<path d="M665.545 97.2909H675.505L698.85 133.19V97.2909H709.233V151.844H699.243L675.926 116.057V151.844H665.545V97.2909Z" fill="#FFCD00"/>
<path d="M411.134 51.8014L426.256 84.2291H422.756L417.655 73.5593H403.686L398.635 84.2291H395.019L410.341 51.8014H411.134ZM410.725 58.6917L405.168 70.4285H416.253L410.725 58.6917Z" fill="white"/>
<path d="M479.541 57.8206L476.985 59.7825C475.574 57.9451 473.881 56.5538 471.904 55.6046C469.926 54.6568 467.755 54.1828 465.388 54.1828C462.802 54.1828 460.407 54.805 458.202 56.0467C455.997 57.2898 454.29 58.9564 453.077 61.0507C451.865 63.1449 451.258 65.5 451.258 68.1158C451.258 72.0686 452.614 75.3675 455.326 78.0138C458.037 80.6587 461.458 81.9812 465.587 81.9812C470.129 81.9812 473.927 80.2033 476.985 76.6463L479.541 78.5857C477.923 80.6442 475.907 82.2354 473.489 83.3593C471.071 84.4832 468.371 85.0458 465.388 85.0458C459.716 85.0458 455.24 83.1581 451.964 79.3813C449.216 76.1909 447.841 72.3413 447.841 67.8298C447.841 63.0827 449.504 59.0901 452.834 55.8495C456.163 52.6075 460.333 50.9885 465.343 50.9885C468.371 50.9885 471.105 51.5882 473.544 52.7862C475.983 53.9843 477.983 55.6628 479.54 57.8233" fill="white"/>
<path d="M504.213 51.8014H507.453V71.3776C507.453 73.6996 507.497 75.1465 507.586 75.7197C507.747 76.9985 508.123 78.0668 508.71 78.9272C509.297 79.7877 510.2 80.5079 511.422 81.0877C512.64 81.6675 513.868 81.9574 515.102 81.9574C516.174 81.9574 517.203 81.7297 518.188 81.2743C519.173 80.8189 519.996 80.1875 520.658 79.38C521.319 78.5711 521.805 77.5942 522.113 76.4478C522.333 75.6244 522.443 73.9339 522.443 71.3776V51.8014H525.685V71.3776C525.685 74.2728 525.4 76.6132 524.835 78.3977C524.268 80.1835 523.136 81.7377 521.439 83.0601C519.742 84.3826 517.688 85.0445 515.278 85.0445C512.662 85.0445 510.421 84.4197 508.555 83.17C506.687 81.9217 505.438 80.2682 504.806 78.2097C504.41 76.9455 504.211 74.6686 504.211 71.3763V51.8L504.213 51.8014Z" fill="white"/>
<path d="M564.971 51.8014L580.094 84.2291H576.591L571.493 73.5593H557.524L552.472 84.2291H548.858L564.177 51.8014H564.971ZM564.563 58.6917L559.006 70.4285H570.091L564.564 58.6917H564.563Z" fill="white"/>
<path d="M603.35 51.8026H609.812C613.41 51.8026 615.85 51.9509 617.13 52.2434C619.056 52.6843 620.622 53.6294 621.826 55.0803C623.03 56.5299 623.631 58.313 623.631 60.4324C623.631 62.1984 623.216 63.7512 622.388 65.0909C621.558 66.4292 620.372 67.4406 618.828 68.125C617.283 68.8081 615.152 69.1576 612.433 69.1734L624.094 84.229H620.09L608.428 69.1734H606.595V84.229H603.353V51.8026H603.35ZM606.592 54.9771V65.999L612.179 66.0427C614.344 66.0427 615.942 65.8388 616.983 65.4258C618.019 65.0141 618.828 64.3562 619.409 63.452C619.992 62.5492 620.284 61.5378 620.284 60.4205C620.284 59.3032 619.989 58.3448 619.399 57.4565C618.811 56.5683 618.039 55.9315 617.083 55.5503C616.124 55.1677 614.536 54.9771 612.312 54.9771H606.595H606.592Z" fill="white"/>
<path d="M651.412 51.8014H648.171V84.2277H651.412V51.8014Z" fill="white"/>
<path d="M692.341 50.9872C697.255 50.9872 701.364 52.6247 704.672 55.9038C707.983 59.1801 709.638 63.2137 709.638 68.0046C709.638 72.7954 707.987 76.7787 704.684 80.0855C701.383 83.391 697.358 85.0444 692.606 85.0444C687.853 85.0444 683.742 83.399 680.43 80.108C677.123 76.8157 675.468 72.8324 675.468 68.1594C675.468 65.0432 676.222 62.156 677.729 59.4952C679.234 56.8357 681.29 54.7521 683.897 53.2456C686.498 51.7391 689.313 50.9872 692.342 50.9872M692.487 54.1391C690.091 54.1391 687.815 54.764 685.665 56.015C683.514 57.2633 681.839 58.9485 680.629 61.0666C679.425 63.1833 678.821 65.5436 678.821 68.1475C678.821 72.0011 680.155 75.255 682.827 77.9092C685.498 80.566 688.718 81.8925 692.485 81.8925C695.002 81.8925 697.333 81.2822 699.475 80.0617C701.614 78.8411 703.286 77.1718 704.484 75.0538C705.686 72.937 706.285 70.5833 706.285 67.994C706.285 65.4046 705.686 63.0933 704.484 61.011C703.286 58.9299 701.596 57.2646 699.419 56.015C697.24 54.764 694.928 54.1391 692.485 54.1391" fill="white"/>
<path d="M102.147 196.196C99.4928 199.283 96.2906 200.784 92.3576 200.784C88.7741 200.784 85.8962 199.676 83.5597 197.395C81.2298 195.122 80.0966 192.359 80.0966 188.949C80.0966 186.717 80.6182 184.687 81.6454 182.911C82.6714 181.139 84.1421 179.705 86.0153 178.65C87.8951 177.591 89.9668 177.055 92.1749 177.055C94.203 177.055 96.0867 177.464 97.7706 178.273C99.4492 179.078 100.909 180.28 102.113 181.847L102.71 182.624L106.606 179.635L106.05 178.863C104.522 176.745 102.535 175.076 100.145 173.902C97.7653 172.734 95.07 172.141 92.1352 172.141C87.261 172.141 83.1413 173.745 79.8901 176.911C76.6309 180.082 74.9788 184.045 74.9788 188.686C74.9788 193.078 76.341 196.884 79.0283 200.003C82.2372 203.702 86.66 205.576 92.1749 205.576C95.0634 205.576 97.7203 205.021 100.075 203.927C102.44 202.827 104.443 201.247 106.024 199.232L106.64 198.449L102.748 195.495L102.147 196.194V196.196Z" fill="white"/>
<path d="M130.247 172.896H125.292V204.823H130.247V172.896Z" fill="white"/>
<path d="M167.538 191.966C167.538 194.79 167.39 195.935 167.267 196.397C167.02 197.317 166.63 198.105 166.11 198.74C165.596 199.367 164.945 199.866 164.176 200.223C163.4 200.581 162.58 200.764 161.735 200.764C160.746 200.764 159.743 200.526 158.754 200.054C157.79 199.596 157.078 199.036 156.636 198.39C156.183 197.73 155.889 196.877 155.761 195.857L155.757 195.83C155.706 195.502 155.646 194.565 155.646 191.966V172.896H150.691V191.966C150.691 195.138 150.885 197.3 151.284 198.569C151.932 200.683 153.23 202.403 155.138 203.68C157.02 204.939 159.294 205.577 161.896 205.577C164.338 205.577 166.456 204.89 168.192 203.537C169.913 202.196 171.08 200.587 171.662 198.752C172.213 197.012 172.492 194.73 172.492 191.967V172.897H167.537V191.967L167.538 191.966Z" fill="white"/>
<path d="M210.625 174.031C208.476 173.266 205.175 172.896 200.538 172.896H193.345V204.823H203.859C207.737 204.823 210.821 204.236 213.024 203.081C215.255 201.91 217.088 200.082 218.473 197.645C219.848 195.224 220.546 192.395 220.546 189.236C220.546 185.583 219.667 182.38 217.933 179.717C216.183 177.031 213.723 175.117 210.625 174.031ZM198.178 177.79H199.316C203.505 177.79 206.527 178.064 208.301 178.602C210.602 179.303 212.342 180.555 213.624 182.431C214.903 184.305 215.551 186.611 215.551 189.287C215.551 191.962 214.957 193.997 213.784 195.73C212.608 197.466 211.036 198.635 208.979 199.305C207.48 199.787 204.683 200.032 200.661 200.032H198.178V177.791V177.79Z" fill="white"/>
<path d="M251.699 172.896L236.614 204.823H242.122L246.791 194.963H258.463L263.176 204.823H268.568L253.678 172.896H251.699ZM256.239 190.11H249.088L252.673 182.538L256.239 190.11Z" fill="white"/>
<path d="M303.41 174.031C301.26 173.266 297.96 172.896 293.323 172.896H286.129V204.823H296.644C300.522 204.823 303.606 204.236 305.809 203.081C308.039 201.91 309.873 200.082 311.258 197.645C312.633 195.224 313.331 192.395 313.331 189.236C313.331 185.583 312.452 182.38 310.717 179.717C308.967 177.031 306.508 175.117 303.41 174.031ZM290.962 177.79H292.101C296.289 177.79 299.312 178.064 301.085 178.602C303.386 179.303 305.127 180.555 306.409 182.431C307.687 184.305 308.336 186.611 308.336 189.287C308.336 191.962 307.742 193.997 306.569 195.73C305.393 197.466 303.82 198.635 301.763 199.305C300.265 199.787 297.468 200.032 293.446 200.032H290.962V177.791V177.79Z" fill="white"/>
<path d="M376.883 174.031C374.733 173.266 371.433 172.896 366.797 172.896H359.604V204.823H370.119C373.996 204.823 377.081 204.236 379.283 203.081C381.514 201.91 383.347 200.082 384.732 197.645C386.108 195.224 386.805 192.395 386.805 189.236C386.805 185.583 385.926 182.38 384.192 179.717C382.442 177.031 379.982 175.117 376.885 174.031H376.883ZM364.436 177.79H365.574C369.763 177.79 372.785 178.064 374.559 178.602C376.859 179.303 378.6 180.555 379.882 182.431C381.161 184.304 381.809 186.611 381.809 189.287C381.809 191.962 381.215 193.997 380.042 195.73C378.866 197.466 377.294 198.635 375.237 199.305C373.738 199.787 370.941 200.032 366.919 200.032H364.436V177.791V177.79Z" fill="white"/>
<path d="M406.107 204.823H425.118V199.929H411.062V190.114H425.118V185.22H411.062V177.79H425.242V172.896H406.107V204.823Z" fill="white"/>
<path d="M498.909 172.896L487.451 196.247L475.881 172.896H473.936L469.365 204.823H474.244L476.872 185.54L486.446 204.823H488.429L497.881 185.705L500.522 204.823H505.445L500.85 172.896H498.909Z" fill="white"/>
<path d="M524.678 204.823H543.689V199.929H529.633V190.114H543.689V185.22H529.633V177.79H543.812V172.896H524.678V204.823Z" fill="white"/>
<path d="M584.972 172.896H579.212L572.544 183.67L565.915 172.896H560.111L569.633 188.372L559.453 204.823H565.263L572.52 193.065L579.756 204.823H585.56L575.427 188.356L584.972 172.896Z" fill="white"/>
<path d="M607.831 172.896H602.876V204.823H607.831V172.896Z" fill="white"/>
<path d="M653.957 196.196C651.303 199.284 648.101 200.784 644.168 200.784C640.584 200.784 637.707 199.676 635.37 197.395C633.04 195.122 631.907 192.359 631.907 188.949C631.907 186.717 632.429 184.687 633.456 182.911C634.482 181.139 635.953 179.705 637.826 178.65C639.706 177.591 641.777 177.055 643.985 177.055C646.013 177.055 647.897 177.464 649.581 178.273C651.26 179.078 652.72 180.28 653.923 181.847L654.52 182.624L658.416 179.635L657.86 178.863C656.332 176.745 654.345 175.076 651.956 173.902C649.576 172.734 646.88 172.141 643.946 172.141C639.071 172.141 634.952 173.745 631.701 176.911C628.441 180.082 626.789 184.045 626.789 188.686C626.789 193.078 628.151 196.884 630.839 200.003C634.048 203.702 638.47 205.576 643.985 205.576C646.873 205.576 649.531 205.021 651.886 203.927C654.25 202.827 656.253 201.247 657.835 199.232L658.45 198.449L654.558 195.495L653.957 196.194V196.196Z" fill="white"/>
<path d="M704.865 176.968C701.631 173.765 697.566 172.141 692.78 172.141C689.819 172.141 687.027 172.888 684.482 174.361C681.935 175.836 679.896 177.901 678.422 180.502C676.952 183.098 676.205 185.955 676.205 188.992C676.205 193.561 677.845 197.509 681.081 200.728C684.315 203.945 688.332 205.577 693.025 205.577C697.718 205.577 701.652 203.939 704.88 200.706C708.107 197.474 709.743 193.485 709.743 188.85C709.743 184.215 708.102 180.175 704.867 176.969L704.865 176.968ZM704.685 188.838C704.685 191.047 704.169 193.081 703.15 194.88C702.134 196.672 700.699 198.105 698.886 199.14C697.066 200.178 695.056 200.703 692.913 200.703C689.669 200.703 686.975 199.593 684.676 197.308C682.379 195.025 681.262 192.301 681.262 188.981C681.262 186.758 681.782 184.72 682.807 182.922C683.83 181.126 685.274 179.677 687.101 178.616C688.927 177.554 690.882 177.015 692.913 177.015C694.943 177.015 696.978 177.554 698.831 178.618C700.683 179.681 702.137 181.114 703.152 182.876C704.169 184.639 704.684 186.646 704.684 188.839L704.685 188.838Z" fill="white"/>
<path d="M540.544 163.633H535.327L530.471 170.493H533.974L540.544 163.633Z" fill="white"/>
<path d="M712.406 23.4709C713.168 23.3133 714.258 23.2273 715.294 23.2273C716.901 23.2273 717.939 23.5212 718.666 24.1778C719.255 24.6967 719.583 25.4923 719.583 26.3912C719.583 27.9307 718.613 28.9487 717.386 29.3657V29.4187C718.286 29.7298 718.822 30.5585 719.099 31.7671C719.477 33.394 719.755 34.5179 719.999 34.968H718.443C718.252 34.6384 717.992 33.635 717.665 32.1841C717.32 30.577 716.696 29.972 715.33 29.9204H713.913V34.968H712.407V23.4709H712.406ZM713.912 28.778H715.452C717.059 28.778 718.079 27.8963 718.079 26.5646C718.079 25.0621 716.99 24.4055 715.397 24.3869C714.673 24.3869 714.154 24.4558 713.912 24.5259V28.778Z" fill="white"/>
<path d="M715.746 42.1457C708.989 42.1457 703.491 36.6493 703.491 29.8913C703.491 23.1334 708.989 17.637 715.746 17.637C722.502 17.637 728 23.1347 728 29.8913C728 36.648 722.504 42.1457 715.746 42.1457ZM715.746 19.0799C709.785 19.0799 704.933 23.9303 704.933 29.8927C704.933 35.855 709.785 40.7054 715.746 40.7054C721.707 40.7054 726.558 35.855 726.558 29.8927C726.558 23.9303 721.708 19.0799 715.746 19.0799Z" fill="white"/>
</g>
<defs>
<clipPath id="clip0_60_534">
<rect width="727.6" height="205.576" fill="white" transform="translate(0.400269)"/>
</clipPath>
</defs>
</svg>
