<svg width="237" height="362" viewBox="0 0 237 362" fill="none" xmlns="http://www.w3.org/2000/svg">
    <path d="M15.8564 -4.3175e-05L0.000955181 -4.26626e-05L0.000972019 284.813L16.4798 291.991L0.000972868 299.169L0.000976562 361.656L15.8564 361.656C15.8564 357.832 19.967 354.73 25.0354 354.73C30.1037 354.73 34.2143 357.832 34.2143 361.656L42.5531 361.656C42.5531 357.832 46.6638 354.73 51.7321 354.73C56.8004 354.73 60.9111 357.832 60.9111 361.656L69.2589 361.656C69.2589 357.832 73.3695 354.73 78.4378 354.73C83.5061 354.73 87.6168 357.832 87.6168 361.656L95.9646 361.656C95.9646 357.832 100.075 354.73 105.144 354.73C110.212 354.73 114.323 357.832 114.323 361.656L122.67 361.656C122.67 357.832 126.781 354.73 131.849 354.73C136.918 354.73 141.028 357.832 141.028 361.656L149.376 361.656C149.376 357.832 153.487 354.73 158.555 354.73C163.623 354.73 167.734 357.832 167.734 361.656L176.082 361.656C176.082 357.832 180.193 354.73 185.261 354.73C190.329 354.73 194.44 357.832 194.44 361.656L202.788 361.656C202.788 357.832 206.898 354.73 211.967 354.73C217.035 354.73 221.146 357.832 221.146 361.656L237.001 361.656L237.001 300.157L218.255 291.991L237.001 283.825L237.001 0.00677283L221.146 0.00677334C221.146 3.83083 217.035 6.93231 211.967 6.93231C206.898 6.93231 202.788 3.83083 202.788 0.00677393L194.44 0.0067742C194.44 3.83083 190.329 6.93231 185.261 6.93231C180.193 6.93231 176.082 3.83083 176.082 0.0067748L167.734 0.00677507C167.734 3.83083 163.623 6.93231 158.555 6.93231C153.487 6.93231 149.376 3.83083 149.376 0.00677566L141.028 0.00677593C141.028 3.83083 136.918 6.93231 131.849 6.93232C126.781 6.93232 122.67 3.83083 122.67 0.00677652L114.323 0.00677679C114.323 3.83083 110.212 6.93232 105.144 6.93232C100.075 6.93232 95.9646 3.83083 95.9646 0.00677739L87.6168 0.00677766C87.6168 3.83083 83.5061 6.93232 78.4378 6.93232C73.3695 6.93232 69.2588 3.83083 69.2588 0.00677825L60.911 0.00677852C60.911 3.83083 56.8004 6.93232 51.7321 6.93232C46.6637 6.93232 42.5531 3.83083 42.5531 0.00677911L34.2143 0.00677938C34.2143 3.83083 30.1037 6.93232 25.0353 6.93232C19.967 6.93232 15.8564 3.83083 15.8564 0.00677997L15.8564 -4.3175e-05ZM204.061 289.892C205.38 289.892 206.447 290.696 206.447 291.691C206.447 292.687 205.38 293.491 204.061 293.491L192.127 293.491C190.808 293.491 189.742 292.687 189.742 291.691C189.742 290.696 190.808 289.892 192.127 289.892L204.061 289.892ZM180.193 289.892C181.512 289.892 182.578 290.696 182.578 291.691C182.578 292.687 181.512 293.491 180.193 293.491L168.258 293.491C166.939 293.491 165.873 292.687 165.873 291.691C165.873 290.696 166.939 289.892 168.258 289.892L180.193 289.892ZM156.324 289.892C157.643 289.892 158.709 290.696 158.709 291.691C158.709 292.687 157.643 293.491 156.324 293.491L144.389 293.491C143.07 293.491 142.004 292.687 142.004 291.691C142.004 290.696 143.07 289.892 144.389 289.892L156.324 289.892ZM132.455 289.892C133.774 289.892 134.84 290.696 134.84 291.691C134.84 292.687 133.774 293.491 132.455 293.491L120.52 293.491C119.201 293.491 118.135 292.687 118.135 291.691C118.135 290.696 119.201 289.892 120.52 289.892L132.455 289.892ZM108.577 289.892C109.896 289.892 110.962 290.696 110.962 291.691C110.962 292.687 109.896 293.491 108.577 293.491L96.6422 293.491C95.3232 293.491 94.2571 292.687 94.2571 291.691C94.2571 290.696 95.3232 289.892 96.6422 289.892L108.577 289.892ZM84.7077 289.892C86.0267 289.892 87.0928 290.696 87.0928 291.691C87.0928 292.687 86.0267 293.491 84.7077 293.491L72.7732 293.491C71.4542 293.491 70.3882 292.687 70.3882 291.691C70.3882 290.696 71.4542 289.892 72.7732 289.892L84.7077 289.892ZM60.8388 289.892C62.1578 289.892 63.2239 290.696 63.2239 291.691C63.2239 292.687 62.1578 293.491 60.8388 293.491L48.9043 293.491C47.5853 293.491 46.5192 292.687 46.5192 291.691C46.5192 290.696 47.5853 289.892 48.9043 289.892L60.8388 289.892ZM36.9698 289.892C38.2889 289.892 39.3549 290.696 39.3549 291.691C39.3549 292.687 38.2889 293.491 36.9698 293.491L25.0354 293.491C23.7163 293.491 22.6503 292.687 22.6503 291.691C22.6503 290.696 23.7163 289.892 25.0354 289.892L36.9698 289.892Z" fill="#FFFEFE"/>
    </svg>
    