<svg width="236" height="213" viewBox="0 0 236 213" fill="none" xmlns="http://www.w3.org/2000/svg">
<g style="mix-blend-mode:multiply" opacity="0.4">
<path fill-rule="evenodd" clip-rule="evenodd" d="M100.556 15.9279C100.833 15.3677 101.531 15.061 102.118 14.8016C102.738 14.5303 103.416 14.3121 104.029 14.1293C102.699 13.9347 101.13 13.3214 100.375 12.5843C100.769 12.3956 101.621 12.5607 102.26 12.7258C103.215 12.9735 104.203 13.3568 104.836 13.7814C107.302 12.8143 111.162 11.9651 114.635 13.3863C115.023 13.5455 115.442 13.8109 115.798 14.0409C115.772 14.0998 115.752 14.1647 115.726 14.2237C113.241 15.9161 109.716 16.2699 105.985 14.8429C105.798 14.7721 105.494 14.5657 105.281 14.5421C104.784 14.489 104.287 15.0198 103.725 15.2615C102.757 15.6802 101.524 15.8807 100.549 15.922L100.556 15.9279Z" fill="url(#paint0_linear_1338_43103)"/>
<path fill-rule="evenodd" clip-rule="evenodd" d="M124.996 17.125C125.855 17.9152 127.217 17.7383 128.392 17.7442C129.592 17.7442 130.89 17.7442 132.136 17.4434C134.363 19.3894 137.436 20.2386 140.406 20.7929C141.871 21.0642 143.511 21.1526 145.118 21.2175C146.745 21.2824 148.495 21.3826 150.089 20.7634C147.868 18.5874 145.086 17.0837 142.246 16.1756C139.386 15.2615 136.067 14.9785 132.465 15.7451C131.252 15.1318 130.102 14.3298 128.824 13.8404C127.933 13.4983 126.842 13.1858 125.726 13.4099C125.906 14.2708 126.959 14.5775 127.701 14.9431C128.553 15.3677 129.354 15.8277 130.303 15.9515C130.348 16.0164 130.432 16.0046 130.47 16.0871C128.921 16.0223 126.52 16.1638 125.003 17.1191L124.996 17.125Z" fill="url(#paint1_linear_1338_43103)"/>
<path fill-rule="evenodd" clip-rule="evenodd" d="M68.9415 27.4624C69.8324 27.8457 70.8137 27.374 71.711 27.0791C72.6277 26.7843 73.6089 26.4481 74.4675 25.9115C76.7464 26.8315 79.3351 26.7076 81.7559 26.3833C82.9502 26.2241 84.222 25.882 85.4615 25.5282C86.7139 25.1685 88.076 24.8088 89.1024 23.936C86.7591 22.8451 84.1962 22.3969 81.7624 22.4205C79.3157 22.4441 76.7076 23.0633 74.2029 24.5434C73.0925 24.3783 71.9821 24.0599 70.8653 24.0127C70.0906 23.9773 69.161 24.0127 68.3799 24.4609C68.7801 25.0683 69.671 25.0388 70.3359 25.1331C71.1106 25.2452 71.8595 25.3926 72.6148 25.2511C72.6729 25.2864 72.731 25.2511 72.7826 25.31C71.5883 25.6521 69.8066 26.3597 68.9351 27.4683L68.9415 27.4624Z" fill="url(#paint2_linear_1338_43103)"/>
<path fill-rule="evenodd" clip-rule="evenodd" d="M57.2635 12.3131C57.851 12.6492 58.5804 12.3839 59.2325 12.2423C59.8974 12.1008 60.614 11.9416 61.2595 11.6232C62.7701 12.431 64.5971 12.5313 66.3207 12.4782C67.1664 12.4487 68.0896 12.3013 68.9869 12.148C69.8972 11.9888 70.8784 11.8296 71.6725 11.2988C70.1296 10.3671 68.3736 9.86586 66.6694 9.70664C64.9522 9.54742 63.08 9.7892 61.195 10.6443C60.4332 10.4497 59.6844 10.1489 58.9032 10.031C58.361 9.94841 57.7089 9.90714 57.1279 10.1666C57.3539 10.6207 57.9801 10.662 58.4384 10.7799C58.9678 10.9155 59.4778 11.0688 60.0265 11.0217C60.0588 11.0512 60.104 11.0335 60.1363 11.0747C59.2712 11.2281 57.9607 11.5937 57.257 12.3072L57.2635 12.3131Z" fill="url(#paint3_linear_1338_43103)"/>
<path fill-rule="evenodd" clip-rule="evenodd" d="M110.911 3.95099C110.975 4.00996 111.04 4.07482 111.104 4.13379C112.938 4.35198 114.778 4.34609 116.637 3.65614C118.367 4.44044 120.11 4.76477 121.853 5.095C121.214 5.496 120.078 6.09749 120.162 6.79924C120.549 7.27689 121.156 6.88179 121.608 6.71078C122.311 6.44542 122.983 6.18005 123.745 5.43703C125.488 5.44882 127.302 5.51959 129.141 5.20115C129.71 5.1009 130.407 5.01834 130.801 4.57607C130.013 3.64434 128.748 3.3377 127.689 2.9426C126.617 2.54161 125.565 2.12882 124.493 2.08754C123.622 0.955315 122.195 -0.200496 121.065 0.0294865C120.704 0.542525 121.408 1.07915 121.943 1.60988C120.581 1.83397 118.658 1.62757 117.069 1.98139C116.075 1.28555 114.933 0.849169 113.816 0.707641C112.97 0.601495 111.821 0.595598 111.111 1.06736C112.396 2.18779 113.706 2.27624 115.017 2.59468C113.693 2.80697 112.028 2.9367 110.904 3.94509L110.911 3.95099Z" fill="url(#paint4_linear_1338_43103)"/>
<path fill-rule="evenodd" clip-rule="evenodd" d="M14.7865 32.2272C14.8833 32.2508 14.9802 32.2685 15.077 32.2921C16.8717 31.5019 18.5243 30.4994 19.7509 28.8777C21.8167 28.6537 23.5984 27.9991 25.3802 27.3563C25.0638 28.064 24.4312 29.2198 24.9606 29.8036C25.6126 30.0218 25.9095 29.3377 26.2065 28.9426C26.6713 28.3234 27.1038 27.7219 27.3104 26.6428C28.8856 25.7111 30.564 24.797 32.0166 23.5115C32.462 23.1164 33.0365 22.6623 33.1076 22.0549C31.7906 21.6421 30.4543 22.0549 29.2535 22.2672C28.027 22.4854 26.8133 22.68 25.8192 23.2225C24.3021 22.6682 22.2621 22.4028 21.397 23.2225C21.397 23.8771 22.3848 23.9832 23.2111 24.1719C22.1265 25.1096 20.2609 25.9646 19.0601 27.1381C17.7173 27.0497 16.4004 27.2679 15.3029 27.7455C14.4702 28.1052 13.4308 28.7244 13.1016 29.5264C14.9866 29.8449 16.2261 29.2139 17.6076 28.7952C16.5553 29.6974 15.1415 30.7176 14.7736 32.2272H14.7865Z" fill="url(#paint5_linear_1338_43103)"/>
<path fill-rule="evenodd" clip-rule="evenodd" d="M11.7388 55.2196C11.8614 55.2549 11.9841 55.2903 12.1132 55.3257C14.5147 54.4471 16.7483 53.2912 18.4978 51.2922C21.1963 51.1683 23.559 50.4725 25.9347 49.7884C25.457 50.673 24.5209 52.1177 25.1536 52.9197C25.9734 53.2559 26.4253 52.4008 26.8514 51.9055C27.5163 51.1447 28.1296 50.4017 28.504 49.0218C30.6344 47.9486 32.9003 46.9048 34.8951 45.3598C35.5084 44.888 36.3025 44.3455 36.4509 43.5671C34.7918 42.9243 33.023 43.343 31.4414 43.5199C29.8339 43.7027 28.2458 43.8561 26.9095 44.4752C24.9986 43.6379 22.3906 43.1189 21.1898 44.1096C21.1317 44.9588 22.3906 45.1711 23.4428 45.4895C21.9451 46.6099 19.4533 47.5653 17.7812 48.9864C16.0511 48.7565 14.3339 48.9393 12.8685 49.4641C11.7581 49.8651 10.3508 50.5727 9.84082 51.5929C12.2488 52.159 13.9079 51.4455 15.7413 51.0209C14.2888 52.1001 12.3585 53.303 11.7388 55.2314V55.2196Z" fill="url(#paint6_linear_1338_43103)"/>
</g>
<g style="mix-blend-mode:multiply" opacity="0.4">
<path fill-rule="evenodd" clip-rule="evenodd" d="M25.8116 156.035C25.1402 156.082 24.5075 155.675 23.9782 155.327C23.4165 154.967 22.8807 154.525 22.4094 154.124C22.8678 155.28 23.0356 156.837 22.7 157.792C22.332 157.568 22.0738 156.807 21.9253 156.212C21.6993 155.327 21.5896 154.354 21.6864 153.64C19.569 152.137 16.8834 149.465 16.5606 145.998C16.5284 145.615 16.5736 145.149 16.6252 144.754C16.6962 144.742 16.7672 144.73 16.8318 144.724C19.6529 145.892 21.6993 148.54 22.1448 152.207C22.1641 152.39 22.1189 152.732 22.1964 152.915C22.3836 153.34 23.1325 153.481 23.636 153.811C24.5075 154.383 25.2951 155.274 25.8116 156.029V156.035Z" fill="url(#paint7_linear_1338_43103)"/>
<path fill-rule="evenodd" clip-rule="evenodd" d="M15.1212 135.92C15.4633 134.847 14.6305 133.85 14.0689 132.907C13.4944 131.945 12.8552 130.907 11.9708 130.058C12.752 127.34 12.087 124.468 11.1768 121.832C10.7249 120.535 10.0212 119.172 9.30465 117.857C8.58162 116.525 7.82631 115.08 6.46417 114.107C5.45709 116.938 5.36026 119.886 5.87025 122.599C6.38025 125.329 7.71656 128.118 10.1955 130.619C10.1955 131.886 9.98249 133.19 10.1374 134.452C10.2407 135.324 10.4667 136.356 11.2284 137.135C11.9644 136.569 11.7513 135.584 11.7449 134.817C11.7449 133.933 11.7965 133.066 11.4544 132.252C11.4931 132.187 11.4415 132.122 11.4996 132.052C12.1903 133.319 13.4814 135.171 15.1405 135.92H15.1212Z" fill="url(#paint8_linear_1338_43103)"/>
<path fill-rule="evenodd" clip-rule="evenodd" d="M55.5273 184.871C55.2174 184.016 54.1587 183.697 53.313 183.308C52.448 182.907 51.5055 182.489 50.4855 182.3C49.6398 180.165 47.7547 178.538 45.8181 177.169C44.8691 176.497 43.7135 175.89 42.5773 175.318C41.4282 174.74 40.2017 174.091 38.8008 174.02C39.5561 176.32 40.9763 178.319 42.6742 179.912C44.3849 181.51 46.6767 182.801 49.5817 183.426C50.2208 184.269 50.7372 185.225 51.4732 185.997C51.9832 186.534 52.6481 187.124 53.5454 187.324C53.752 186.64 53.1129 186.074 52.7191 185.567C52.2737 184.977 51.8734 184.381 51.2343 183.986C51.2214 183.927 51.1633 183.91 51.1633 183.833C52.2608 184.387 54.049 185.071 55.5273 184.877V184.871Z" fill="url(#paint9_linear_1338_43103)"/>
<path fill-rule="evenodd" clip-rule="evenodd" d="M31.9196 193.197C31.9519 192.566 31.3515 192.112 30.8996 191.658C30.4413 191.192 29.9377 190.697 29.3244 190.337C29.3632 188.739 28.582 187.23 27.6976 185.879C27.2586 185.213 26.6712 184.547 26.0902 183.91C25.4963 183.261 24.8701 182.547 23.9727 182.176C23.8242 183.863 24.1987 185.508 24.8701 186.947C25.5479 188.397 26.6905 189.777 28.4207 190.868C28.6014 191.57 28.6789 192.319 28.9436 192.997C29.1308 193.469 29.4019 194.011 29.9313 194.353C30.2541 193.952 29.9958 193.433 29.8796 193.009C29.7505 192.519 29.6537 192.036 29.3438 191.623C29.3567 191.582 29.318 191.552 29.3438 191.505C29.9055 192.124 30.8932 192.991 31.9132 193.209L31.9196 193.197Z" fill="url(#paint10_linear_1338_43103)"/>
<path fill-rule="evenodd" clip-rule="evenodd" d="M9.31788 153.558C9.3437 153.475 9.37598 153.399 9.4018 153.316C8.72396 151.742 7.82663 150.273 6.26436 149.123C6.18044 147.36 5.63817 145.809 5.11526 144.252C5.80601 144.571 6.93575 145.184 7.56195 144.777C7.83308 144.241 7.1617 143.946 6.77436 143.663C6.18044 143.226 5.59943 142.819 4.52134 142.572C3.68857 141.174 2.88161 139.688 1.68087 138.373C1.3129 137.972 0.893279 137.453 0.279994 137.347C-0.230001 138.432 0.0863253 139.588 0.221894 140.626C0.357462 141.675 0.467207 142.719 0.95138 143.592C0.28645 144.836 -0.126711 146.54 0.64151 147.331C1.30644 147.372 1.48074 146.552 1.73251 145.862C2.60402 146.847 3.33996 148.481 4.45033 149.577C4.26312 150.704 4.39869 151.83 4.80539 152.791C5.11526 153.522 5.66399 154.442 6.45803 154.779C6.90993 153.21 6.3612 152.119 6.03196 150.922C6.87119 151.877 7.80726 153.145 9.31788 153.558Z" fill="url(#paint11_linear_1338_43103)"/>
<path fill-rule="evenodd" clip-rule="evenodd" d="M61.8342 208.093C61.8342 208.005 61.8342 207.91 61.8342 207.816C60.5689 206.407 59.1164 205.174 57.0958 204.467C56.3663 202.686 55.2559 201.259 54.152 199.826C54.9783 199.944 56.3534 200.233 56.8569 199.625C56.9344 198.994 56.1404 198.894 55.6497 198.717C54.8815 198.452 54.1456 198.21 52.9448 198.281C51.5827 197.101 50.2141 195.822 48.5098 194.837C47.9869 194.536 47.3671 194.129 46.7022 194.212C46.5731 195.48 47.322 196.565 47.832 197.585C48.3549 198.623 48.8455 199.655 49.6589 200.404C49.4265 201.884 49.6202 203.753 50.6983 204.331C51.3955 204.172 51.2728 203.275 51.2857 202.497C52.5381 203.24 53.8873 204.691 55.4173 205.481C55.6368 206.696 56.1855 207.81 56.9473 208.671C57.5283 209.326 58.4256 210.104 59.3617 210.21C59.2584 208.465 58.2965 207.509 57.5219 206.383C58.7291 207.108 60.1493 208.123 61.8407 208.087L61.8342 208.093Z" fill="url(#paint12_linear_1338_43103)"/>
<path fill-rule="evenodd" clip-rule="evenodd" d="M95.0676 208.801C95.0418 208.683 95.016 208.571 94.9902 208.453C92.9889 206.961 90.794 205.729 88.031 205.304C86.6043 203.205 84.7903 201.654 82.9891 200.091C84.0672 200.044 85.9006 200.091 86.3655 199.201C86.288 198.381 85.2486 198.434 84.5708 198.334C83.525 198.169 82.5114 198.039 81.0073 198.41C78.9479 197.225 76.8498 195.922 74.4032 195.073C73.6543 194.807 72.7505 194.442 71.9307 194.695C72.1179 196.335 73.3767 197.544 74.3128 198.723C75.2618 199.92 76.1785 201.117 77.4244 201.884C77.5471 203.818 78.3153 206.153 79.8388 206.631C80.678 206.265 80.2778 205.157 80.0712 204.16C81.8723 204.815 83.9898 206.342 86.1589 206.991C86.7786 208.482 87.7792 209.768 88.9993 210.688C89.9225 211.384 91.2782 212.162 92.5048 212.08C91.8786 209.886 90.3938 208.901 89.0962 207.645C90.8327 208.282 92.9179 209.243 95.0676 208.801Z" fill="url(#paint13_linear_1338_43103)"/>
</g>
<g style="mix-blend-mode:multiply" opacity="0.4">
<path fill-rule="evenodd" clip-rule="evenodd" d="M209.186 87.659C208.85 88.5081 209.463 89.3514 209.87 90.1357C210.283 90.9377 210.741 91.8045 211.406 92.5299C210.625 94.6882 211.006 97.0293 211.594 99.1994C211.884 100.267 212.381 101.393 212.885 102.49C213.395 103.599 213.924 104.796 214.97 105.645C215.938 103.41 216.177 101.039 215.919 98.8279C215.654 96.6047 214.737 94.2931 212.878 92.1643C212.949 91.1382 213.188 90.1003 213.137 89.0742C213.098 88.3607 212.975 87.5292 212.407 86.857C211.781 87.2757 211.903 88.0835 211.865 88.7027C211.82 89.4163 211.729 90.1121 211.962 90.7844C211.929 90.8374 211.962 90.8905 211.91 90.9436C211.426 89.888 210.483 88.3371 209.192 87.6531L209.186 87.659Z" fill="url(#paint14_linear_1338_43103)"/>
<path fill-rule="evenodd" clip-rule="evenodd" d="M233.361 94.4641C232.903 94.9417 233.07 95.6376 233.116 96.2509C233.161 96.876 233.219 97.5482 233.458 98.1792C232.341 99.4117 231.934 101.039 231.715 102.602C231.605 103.369 231.618 104.224 231.644 105.061C231.67 105.904 231.683 106.818 232.128 107.62C233.387 106.382 234.207 104.878 234.652 103.369C235.104 101.847 235.143 100.119 234.517 98.2853C234.846 97.6308 235.298 97.0057 235.549 96.3216C235.724 95.8499 235.879 95.2661 235.691 94.7C235.162 94.8297 235.02 95.3899 234.82 95.785C234.588 96.245 234.336 96.6755 234.304 97.1767C234.265 97.2062 234.278 97.2475 234.226 97.2711C234.2 96.4632 234.019 95.2248 233.361 94.4818V94.4641Z" fill="url(#paint15_linear_1338_43103)"/>
<path fill-rule="evenodd" clip-rule="evenodd" d="M200.471 140.189C200.813 140.72 200.684 141.416 200.581 142.006C200.471 142.625 200.271 143.256 200.084 143.816C201.02 142.937 202.473 142.112 203.564 141.97C203.505 142.371 202.873 142.914 202.35 143.303C201.582 143.881 200.671 144.394 199.929 144.624C199.38 147.024 197.928 150.397 194.655 152.184C194.293 152.384 193.816 152.544 193.402 152.679C193.364 152.626 193.319 152.573 193.28 152.52C193.189 149.689 194.9 146.847 198.315 144.877C198.489 144.777 198.845 144.671 198.987 144.524C199.322 144.182 199.135 143.503 199.238 142.949C199.419 141.982 199.948 140.944 200.465 140.195L200.471 140.189Z" fill="url(#paint16_linear_1338_43103)"/>
<path fill-rule="evenodd" clip-rule="evenodd" d="M185.364 157.786C184.164 157.975 183.544 159.095 182.86 159.974C182.162 160.87 181.426 161.843 180.975 162.946C177.953 163.494 175.429 165.305 173.228 167.209C172.143 168.147 171.123 169.326 170.142 170.488C169.148 171.668 168.057 172.918 167.695 174.469C170.917 174.05 173.867 172.835 176.307 171.231C178.767 169.615 180.929 167.298 182.304 164.161C183.55 163.606 184.925 163.205 186.1 162.527C186.914 162.055 187.824 161.419 188.263 160.457C187.385 160.098 186.507 160.711 185.752 161.053C184.88 161.442 184.009 161.778 183.357 162.421C183.273 162.421 183.234 162.492 183.137 162.468C184.086 161.342 185.339 159.473 185.351 157.786H185.364Z" fill="url(#paint17_linear_1338_43103)"/>
<path fill-rule="evenodd" clip-rule="evenodd" d="M205.267 154.814C205.177 154.826 205.086 154.837 204.989 154.849C203.737 156.094 202.685 157.473 202.239 159.26C200.541 160.103 199.25 161.224 197.953 162.338C197.959 161.631 198.075 160.434 197.398 160.098C196.752 160.115 196.752 160.793 196.642 161.23C196.474 161.908 196.326 162.563 196.558 163.559C195.551 164.856 194.441 166.171 193.673 167.734C193.434 168.212 193.111 168.784 193.279 169.332C194.57 169.279 195.571 168.507 196.526 167.941C197.501 167.369 198.476 166.82 199.128 166.036C200.645 166.036 202.504 165.629 202.943 164.65C202.691 164.084 201.807 164.302 201.019 164.396C201.6 163.247 202.891 161.926 203.485 160.54C204.68 160.198 205.725 159.596 206.494 158.836C207.075 158.264 207.74 157.409 207.727 156.607C205.984 156.925 205.151 157.857 204.118 158.647C204.686 157.538 205.525 156.217 205.267 154.796V154.814Z" fill="url(#paint18_linear_1338_43103)"/>
<path fill-rule="evenodd" clip-rule="evenodd" d="M219.96 65.8519C219.895 65.9227 219.837 65.9934 219.773 66.0701C219.811 67.8923 220.121 69.679 221.225 71.3774C220.586 73.1878 220.496 74.9392 220.392 76.6906C219.824 76.1304 218.933 75.1279 218.133 75.3225C217.642 75.7765 218.197 76.3014 218.469 76.7201C218.888 77.3628 219.308 77.9702 220.302 78.5953C220.573 80.2936 220.78 82.0686 221.458 83.8082C221.664 84.3449 221.877 85.0112 222.452 85.3238C223.414 84.4038 223.562 83.1242 223.846 82.0332C224.137 80.9246 224.453 79.8337 224.324 78.784C225.505 77.752 226.622 76.1716 226.17 75.1161C225.512 74.8448 225.002 75.6173 224.466 76.2247C223.988 74.9333 223.911 73.0285 223.246 71.5425C223.898 70.4633 224.221 69.2839 224.208 68.1694C224.195 67.3261 224.014 66.2116 223.349 65.5983C222.252 67.0313 222.361 68.3227 222.2 69.6437C221.742 68.3935 221.316 66.7954 219.96 65.8637V65.8519Z" fill="url(#paint19_linear_1338_43103)"/>
<path fill-rule="evenodd" clip-rule="evenodd" d="M194.331 46.5098C194.272 46.6159 194.214 46.722 194.156 46.8282C194.718 49.1339 195.609 51.3394 197.487 53.2382C197.184 55.6914 197.558 57.9322 197.92 60.1849C197.042 59.607 195.628 58.5396 194.666 58.976C194.169 59.6659 195.021 60.2085 195.486 60.6684C196.203 61.3879 196.9 62.0601 198.34 62.6203C199.153 64.7138 199.921 66.9251 201.264 68.9773C201.677 69.6083 202.129 70.4103 202.949 70.6697C203.911 69.278 203.743 67.6151 203.807 66.1585C203.872 64.6843 203.962 63.2218 203.504 61.9186C204.718 60.3323 205.692 58.062 204.821 56.8236C203.911 56.6349 203.478 57.7376 202.968 58.634C201.993 57.1066 201.374 54.7007 200.102 52.967C200.625 51.4455 200.709 49.8651 200.379 48.4558C200.128 47.3884 199.585 46.0085 198.572 45.3834C197.571 47.4592 198.075 49.0749 198.243 50.7969C197.307 49.3108 196.319 47.3825 194.337 46.5098H194.331Z" fill="url(#paint20_linear_1338_43103)"/>
</g>
<defs>
<linearGradient id="paint0_linear_1338_43103" x1="115.443" y1="12.444" x2="100.479" y2="15.6698" gradientUnits="userSpaceOnUse">
<stop offset="0.09" stop-color="#2165D5"/>
<stop offset="0.41" stop-color="#2530B9"/>
<stop offset="0.99" stop-color="#260163"/>
</linearGradient>
<linearGradient id="paint1_linear_1338_43103" x1="148.871" y1="15.1818" x2="125.639" y2="20.19" gradientUnits="userSpaceOnUse">
<stop offset="0.09" stop-color="#2165D5"/>
<stop offset="0.41" stop-color="#2530B9"/>
<stop offset="0.99" stop-color="#260163"/>
</linearGradient>
<linearGradient id="paint2_linear_1338_43103" x1="88.9665" y1="25.782" x2="68.3866" y2="24.3409" gradientUnits="userSpaceOnUse">
<stop offset="0.09" stop-color="#2165D5"/>
<stop offset="0.41" stop-color="#2530B9"/>
<stop offset="0.99" stop-color="#260163"/>
</linearGradient>
<linearGradient id="paint3_linear_1338_43103" x1="71.3084" y1="9.64835" x2="57.3252" y2="12.6627" gradientUnits="userSpaceOnUse">
<stop offset="0.09" stop-color="#2165D5"/>
<stop offset="0.41" stop-color="#2530B9"/>
<stop offset="0.99" stop-color="#260163"/>
</linearGradient>
<linearGradient id="paint4_linear_1338_43103" x1="130.105" y1="1.4101" x2="111.224" y2="5.48034" gradientUnits="userSpaceOnUse">
<stop offset="0.09" stop-color="#2165D5"/>
<stop offset="0.41" stop-color="#2530B9"/>
<stop offset="0.99" stop-color="#260163"/>
</linearGradient>
<linearGradient id="paint5_linear_1338_43103" x1="33.1162" y1="22.043" x2="14.5567" y2="32.1687" gradientUnits="userSpaceOnUse">
<stop offset="0.09" stop-color="#2165D5"/>
<stop offset="0.41" stop-color="#2530B9"/>
<stop offset="0.99" stop-color="#260163"/>
</linearGradient>
<linearGradient id="paint6_linear_1338_43103" x1="36.9579" y1="45.9746" x2="9.878" y2="51.8122" gradientUnits="userSpaceOnUse">
<stop offset="0.09" stop-color="#2165D5"/>
<stop offset="0.41" stop-color="#2530B9"/>
<stop offset="0.99" stop-color="#260163"/>
</linearGradient>
<linearGradient id="paint7_linear_1338_43103" x1="15.2466" y1="145.804" x2="24.1099" y2="157.326" gradientUnits="userSpaceOnUse">
<stop offset="0.09" stop-color="#2165D5"/>
<stop offset="0.41" stop-color="#2530B9"/>
<stop offset="0.99" stop-color="#260163"/>
</linearGradient>
<linearGradient id="paint8_linear_1338_43103" x1="1.68283" y1="117.76" x2="15.4454" y2="135.652" gradientUnits="userSpaceOnUse">
<stop offset="0.09" stop-color="#2165D5"/>
<stop offset="0.41" stop-color="#2530B9"/>
<stop offset="0.99" stop-color="#260163"/>
</linearGradient>
<linearGradient id="paint9_linear_1338_43103" x1="40.3292" y1="172.82" x2="52.2401" y2="188.304" gradientUnits="userSpaceOnUse">
<stop offset="0.09" stop-color="#2165D5"/>
<stop offset="0.41" stop-color="#2530B9"/>
<stop offset="0.99" stop-color="#260163"/>
</linearGradient>
<linearGradient id="paint10_linear_1338_43103" x1="22.556" y1="183.238" x2="30.8418" y2="194.01" gradientUnits="userSpaceOnUse">
<stop offset="0.09" stop-color="#2165D5"/>
<stop offset="0.41" stop-color="#2530B9"/>
<stop offset="0.99" stop-color="#260163"/>
</linearGradient>
<linearGradient id="paint11_linear_1338_43103" x1="-2.42537" y1="139.423" x2="8.76648" y2="153.972" gradientUnits="userSpaceOnUse">
<stop offset="0.09" stop-color="#2165D5"/>
<stop offset="0.41" stop-color="#2530B9"/>
<stop offset="0.99" stop-color="#260163"/>
</linearGradient>
<linearGradient id="paint12_linear_1338_43103" x1="46.6833" y1="194.205" x2="59.1195" y2="210.373" gradientUnits="userSpaceOnUse">
<stop offset="0.09" stop-color="#2165D5"/>
<stop offset="0.41" stop-color="#2530B9"/>
<stop offset="0.99" stop-color="#260163"/>
</linearGradient>
<linearGradient id="paint13_linear_1338_43103" x1="73.9777" y1="193.108" x2="90.0241" y2="213.969" gradientUnits="userSpaceOnUse">
<stop offset="0.09" stop-color="#2165D5"/>
<stop offset="0.41" stop-color="#2530B9"/>
<stop offset="0.99" stop-color="#260163"/>
</linearGradient>
<linearGradient id="paint14_linear_1338_43103" x1="212.974" y1="105.698" x2="212.412" y2="86.852" gradientUnits="userSpaceOnUse">
<stop offset="0.09" stop-color="#2165D5"/>
<stop offset="0.41" stop-color="#2530B9"/>
<stop offset="0.99" stop-color="#260163"/>
</linearGradient>
<linearGradient id="paint15_linear_1338_43103" x1="233.993" y1="107.555" x2="233.602" y2="94.4507" gradientUnits="userSpaceOnUse">
<stop offset="0.09" stop-color="#2165D5"/>
<stop offset="0.41" stop-color="#2530B9"/>
<stop offset="0.99" stop-color="#260163"/>
</linearGradient>
<linearGradient id="paint16_linear_1338_43103" x1="195.035" y1="153.344" x2="200.37" y2="140.153" gradientUnits="userSpaceOnUse">
<stop offset="0.09" stop-color="#2165D5"/>
<stop offset="0.41" stop-color="#2530B9"/>
<stop offset="0.99" stop-color="#260163"/>
</linearGradient>
<linearGradient id="paint17_linear_1338_43103" x1="173.396" y1="176.78" x2="181.678" y2="156.301" gradientUnits="userSpaceOnUse">
<stop offset="0.09" stop-color="#2165D5"/>
<stop offset="0.41" stop-color="#2530B9"/>
<stop offset="0.99" stop-color="#260163"/>
</linearGradient>
<linearGradient id="paint18_linear_1338_43103" x1="196.509" y1="170.65" x2="203.243" y2="154" gradientUnits="userSpaceOnUse">
<stop offset="0.09" stop-color="#2165D5"/>
<stop offset="0.41" stop-color="#2530B9"/>
<stop offset="0.99" stop-color="#260163"/>
</linearGradient>
<linearGradient id="paint19_linear_1338_43103" x1="222.464" y1="85.3074" x2="221.877" y2="65.6243" gradientUnits="userSpaceOnUse">
<stop offset="0.09" stop-color="#2165D5"/>
<stop offset="0.41" stop-color="#2530B9"/>
<stop offset="0.99" stop-color="#260163"/>
</linearGradient>
<linearGradient id="paint20_linear_1338_43103" x1="200.279" y1="70.7407" x2="199.521" y2="45.3455" gradientUnits="userSpaceOnUse">
<stop offset="0.09" stop-color="#2165D5"/>
<stop offset="0.41" stop-color="#2530B9"/>
<stop offset="0.99" stop-color="#260163"/>
</linearGradient>
</defs>
</svg>
