<svg width="1159" height="307" viewBox="0 0 1159 307" fill="none" xmlns="http://www.w3.org/2000/svg">
<g opacity="0.15">
<g style="mix-blend-mode:screen">
<path d="M889.835 248.465C889.835 248.465 889.953 248.428 890.011 248.41C900.798 244.984 912.025 239.826 923.65 234.999C911.673 239.789 900.577 244.818 889.835 248.465Z" fill="url(#paint0_linear_1338_42245)"/>
<path d="M171.014 130.492C179.273 138.893 167.663 135.982 160.404 132.887C156.818 131.358 153.776 129.258 149.764 128.282C145.429 127.213 144.503 129.258 140.608 128.54C135.068 127.526 132.1 124.671 128.734 124.726C126.427 124.763 125.443 126.071 124.767 127.342C126.119 126.09 128.793 125.408 132.305 126.495C137.082 127.969 138.683 128.613 141.196 129.055C145.017 129.737 145.179 128.613 147.442 128.595C151.998 128.595 154.893 131.837 162.02 135.153C169.559 138.653 175.07 137.861 174.438 135.227C173.953 133.164 172.351 131.892 171.014 130.511V130.492Z" fill="url(#paint1_linear_1338_42245)"/>
<path d="M124.238 128.539C124.385 128.152 124.547 127.729 124.767 127.323C122.239 129.644 123.724 134.747 124.341 139.168C124.341 139.003 124.37 138.855 124.37 138.689C124.444 135.429 123.195 131.394 124.238 128.539Z" fill="url(#paint2_linear_1338_42245)"/>
<path d="M169.471 128.41C169.721 129.036 170.294 129.754 171.014 130.491C170.411 129.736 169.897 129.036 169.471 128.41Z" fill="url(#paint3_linear_1338_42245)"/>
<path d="M960.61 244.578C943.504 251.965 925.737 259.279 912.335 260.421C912.364 260.421 912.305 260.421 912.335 260.421C920.946 259.979 935.084 255.521 946.928 250.639C956.363 246.77 966.003 242.681 976.07 238.591C976.481 238.425 976.217 238.536 976.07 238.591C970.691 240.783 965.768 242.349 960.61 244.596V244.578Z" fill="url(#paint4_linear_1338_42245)"/>
<path d="M1157.97 160.778C1148.36 162.123 1138.25 163.062 1123.34 168.92C1121.88 169.491 1120.48 170.099 1119.12 170.707C1124.66 168.312 1129.42 166.673 1134.39 165.31C1143.56 162.767 1150.52 162.031 1157.66 160.999C1157.77 160.999 1157.87 160.98 1157.97 160.962C1157.97 160.907 1157.97 160.833 1157.97 160.778Z" fill="url(#paint5_linear_1338_42245)"/>
<path d="M1158.46 223.042C1156.4 223.392 1154.39 223.742 1152.43 224.037C1133.67 226.874 1120.1 227.574 1114.19 224.092C1111.25 222.361 1110.12 219.874 1112.4 216.005C1115.08 211.437 1115.21 208.766 1109.49 207.458C1099.64 205.192 1080.89 208.084 1061.54 211.787C1067.23 210.35 1073.06 208.821 1078.98 207.237C1101.23 201.323 1127.07 193.752 1144.85 191.891C1151.09 191.228 1154.27 192.075 1158.19 192.536C1158.19 191.615 1158.19 190.712 1158.18 189.791C1155.81 189.662 1153.14 189.681 1149.76 190.049C1133.64 191.744 1110.77 198.21 1090.21 203.718C1052.65 213.795 1013.07 224.092 994.409 221.163C976.304 218.326 978.67 204.621 977.333 191.67C975.746 176.454 939.007 181.501 912.996 183.122C897.286 184.099 883.619 183.491 870.437 181.888C863.442 181.022 848.438 181.28 850.921 173.064C856.638 173.377 863.339 172.677 869.423 172.493C882.987 172.088 898.638 170.798 918.698 159.653C928.793 154.053 937.875 148.397 947.957 145.284C958.89 141.895 965.738 142.668 971.954 144.068C971.984 144.068 976.789 154.477 983.035 156.853C986.062 157.995 990.148 158.216 995.806 159.045C1001.43 159.874 1003.09 162.232 1005.62 165.29C1008.06 168.256 1012.88 169.914 1014.53 173.138C1015.89 175.809 1013.25 180.028 1012.68 183.417C1012.12 186.696 1014.67 188.41 1018.57 189.22C1026.52 190.878 1039.51 189.22 1050.74 188.649C1058.79 188.244 1067.21 187.599 1076.12 186.641C1081.22 186.088 1087.42 185.315 1094.37 182.754C1096.74 181.888 1096.9 181.87 1099.88 180.507C1102.54 179.291 1105.07 177.854 1107.64 176.399C1104.57 177.983 1101.5 179.512 1098.25 180.912C1087.79 185.425 1079.81 185.794 1073.43 186.53C1067.17 187.249 1061.11 187.838 1055.78 187.949C1043.93 188.207 1028.66 190.51 1019.91 188.594C1016.03 187.746 1013.57 186.033 1014.07 182.754C1014.59 179.364 1017.29 175.127 1015.97 172.438C1014.37 169.177 1009.56 167.501 1007.25 164.461C1005.4 162.011 1003.36 159.856 999.186 158.953C1007.42 159.064 1016.72 158.437 1024.73 158.29C1033.16 158.143 1039.64 159.064 1055.15 151.898C1067.7 146.095 1073.93 145.634 1083.22 144.216C1103.44 141.121 1119.78 141.047 1141.48 137.197C1146.82 136.257 1152.02 135.06 1157.93 133.328C1157.93 133.107 1157.93 132.905 1157.93 132.684C1155 133.549 1152.18 134.323 1149.62 134.839C1125.86 139.684 1109.27 139.408 1088.53 142.392C1084.07 143.037 1079.32 143.534 1074 144.732C1083.33 141.655 1094.59 137.75 1101.81 133.752C1109.17 129.663 1112.5 126.31 1118.21 123.344C1123.55 120.562 1130.86 118.425 1135.12 117.062C1143.64 114.336 1150.3 113.101 1157.9 111.02C1157.9 110.872 1157.9 110.707 1157.9 110.559C1145.52 113.746 1134.99 115.165 1119.09 122.865C1112.02 126.291 1110.43 128.594 1100.94 133.863C1092.12 138.763 1068.64 145.413 1060.33 149.171C1057.06 150.663 1057.35 150.958 1051.78 153.261C1040.41 157.995 1033.35 156.982 1027.05 157.129C1012.19 157.498 992.778 159.598 983.858 155.361C974.703 151.013 975.349 139.647 967.267 133.697C960.404 128.668 951.469 125.702 939.771 124.781C942.872 124.394 946.075 123.896 949.47 123.16C961.418 120.599 972.116 117.154 981.022 118.204C989.942 119.254 1001.4 114.354 1014.92 110.485C1023.23 108.091 1029.71 107.722 1035.23 108.183C1037.07 108.956 1039.04 109.62 1041.27 110.135C1057.51 113.893 1078.38 116.583 1110.11 107.796C1117.53 105.733 1125.51 102.693 1134.16 98.8797C1142.26 95.527 1150.18 92.3584 1157.91 89.3925C1157.91 89.1162 1157.91 88.8399 1157.91 88.5635C1153.64 90.2952 1149.3 92.0637 1144.91 93.9243C1148.6 92.1558 1152.39 90.2768 1156.33 88.2872C1156.85 88.0109 1157.38 87.753 1157.91 87.4767C1157.91 87.4582 1157.91 87.4398 1157.91 87.403C1149.43 91.6768 1141.31 95.5638 1133.97 98.4745C1130.43 99.8745 1127.1 101.072 1123.86 102.159C1129.64 99.7271 1135.75 96.2638 1140.82 91.3821C1147.1 85.3397 1143.32 85.2661 1140.6 84.0502C1138.5 83.0923 1139.57 80.5132 1138.5 78.8737C1135.97 75.042 1126.13 76.1104 1115.16 78.7263C1122.45 76.3683 1130.23 73.5682 1138.51 70.1602C1143.28 68.2075 1149.6 65.0574 1153.46 64.21C1155.9 63.6573 1157.18 63.8968 1158.03 64.431C1158.03 63.9521 1158.03 63.4915 1158.03 63.0126C1155.44 63.0863 1151.45 64.3021 1142.88 67.8022C1125.69 74.8578 1110.5 79.5 1097.73 82.3738C1071.49 88.2688 1057.94 84.6029 1061.36 67.9312C1063.2 58.9782 1055.6 60.0651 1042.07 63.4915C1030.15 66.4943 1019.11 68.0601 1006.69 72.0024C1000.16 68.6496 991.705 66.8074 980.052 67.268C955.701 68.2075 926.78 75.7051 899.961 81.4159C914.906 73.8998 929.087 68.8154 945.664 59.3098C966.223 47.5198 972.248 49.7857 984.122 51.0937C1005.89 53.4885 1052.03 31.1982 1097.1 1.98125C1098.03 1.37333 1099.38 0.470665 1100.12 -0.00830078C1052.02 31.0508 1005.39 52.5121 983.873 48.3672C981.433 47.8883 979.067 47.6672 976.628 47.6856C971.146 45.4935 962.843 45.2724 955.01 46.1198C946.296 47.0593 929.822 56.7492 924.546 53.9859C924.605 53.9306 924.664 53.9122 924.723 53.8754C931.453 48.5699 930.263 46.2856 940.05 40.3538C950.808 33.8325 962.153 30.885 972.146 26.8322C972.513 26.6849 973.248 25.8559 973.6 25.7453C963.211 29.4665 947.824 33.9614 936.024 42.7486C926.78 49.6199 924.091 55.1649 915.229 57.5229C911.541 58.4992 909.66 57.3387 906.75 57.4123C902.753 57.5044 899.711 58.7387 894.949 60.3782C885.103 63.7863 876.991 64.3389 871.48 61.0967C859.959 54.2991 856.638 40.1143 837.872 41.367C846.777 37.7011 855.785 34.0904 864.823 30.756C886.823 22.6505 906.794 19.8504 930.395 10.6947C931.439 10.2895 933.628 7.5078 934.613 7.1762C917.625 13.1817 903.032 15.3002 887.352 19.7214C870.863 24.3637 853.522 31.714 837.019 38.4932C803.293 52.3832 771.58 65.8679 741.85 76.571C687.359 96.1902 637.129 109.656 589.633 117.78C584.21 118.702 578.802 119.604 573.394 120.47C565.767 120.654 558.096 120.562 550.498 120.71C541.196 120.894 532.041 120.525 522.606 115.736C514.288 111.517 506.103 104.701 497.095 102.325C487.337 99.7456 479.754 105.935 469.922 102.196C460.532 98.6218 451.994 92.7453 442.045 90.4978C439.164 89.8531 436.137 89.282 433.066 88.8583C424.204 85.395 414.917 79.7579 405.453 75.1157C390.125 67.5812 373.945 60.9125 358.662 57.0439C354.429 55.9754 350.388 55.2202 346.508 54.7228C349.08 53.8385 351.52 52.7885 353.9 52.1437C365.524 49.0673 377.237 46.7646 390.61 46.3225C419.164 45.4014 449.921 55.2017 479.695 66.6232C505.78 76.6262 530.277 74.913 552.1 62.5152C552.835 62.0915 553.555 61.6309 554.275 61.1704C573.247 54.5201 592.866 70.6023 610.119 76.1473C631.148 82.9265 657.394 77.8789 680.202 68.668C686.653 66.0706 694.016 62.1836 699.145 54.2991C702.451 49.2146 703.539 43.4487 707.756 38.5485C711.21 34.5325 716.162 32.0456 720.027 30.2402C729.403 25.8743 738.397 25.1743 747.464 23.6637C747.802 23.6084 748.625 21.932 748.919 21.932C736.677 21.8768 718.955 24.4742 707.11 39.0274C705.92 40.4827 704.597 42.1591 703.627 43.7618C700.174 49.4726 699.233 54.8886 694.589 59.5493C690.563 63.6021 685.36 65.8311 681.04 67.5812C658.761 76.6078 633.367 81.5264 612.764 75.4657C600.875 71.984 590.662 62.5889 577.862 60.4151C571.704 59.3651 563.754 57.8913 557.097 59.3282C575.217 46.783 591.485 24.1611 614.851 22.1899C615.203 22.1531 615.629 20.182 615.953 20.2004C591.543 19.4635 574.041 47.5383 554.951 59.0335C532.57 72.5182 507.249 74.6551 480.371 64.3205C451.406 53.1753 421.103 43.1171 393.108 43.6697C379.559 43.9276 367.538 46.0093 355.811 49.1041C350.799 50.4305 345.568 53.599 339.528 54.1333C338.117 54.0596 336.706 53.9859 335.34 53.9859C334.546 53.8754 333.738 53.7648 332.915 53.5438C332.827 53.5254 332.841 53.7464 332.886 54.0412C312.797 54.5017 297.822 61.4835 280.04 65.1495C267.74 67.6917 254.602 69.276 240.259 69.147C228.047 69.0365 211.558 63.8047 197.891 62.2389C181.256 60.3414 163.886 49.2515 140.093 36.9458C117.095 25.0453 93.1556 17.474 77.0198 15.5028C76.814 15.4844 78.1955 17.216 77.975 17.1424C99.7099 24.769 117.506 27.827 141.666 40.2801C163.68 51.6279 181.241 63.1047 196.76 64.9468C210.28 66.5495 226.401 71.3576 238.804 72.0024C254.176 72.7945 267.843 70.8234 280.569 68.2443C304.538 63.381 323.304 51.9595 356.207 59.5861C372.123 63.2705 389.052 70.2523 405.1 77.9526C411.581 81.0659 418.37 85.0266 424.91 88.1583C413.021 87.7898 402.337 90.7373 399.721 101.09C399.721 101.109 399.721 101.127 399.707 101.146C398.193 107.188 401.823 117.007 395.415 118.591C389.478 120.065 379.573 113.525 371.961 109.951C361.689 105.125 354.018 104.48 348.213 108.054C342.438 111.609 339.998 118.13 336.545 123.307C332.797 128.926 328.359 133.789 323.01 137.584C312.811 144.824 298.351 149.024 277.292 143.995C275.955 143.571 274.603 143.11 273.162 142.595C257.291 136.718 245.476 133.015 232.22 132.039C220.64 131.192 209.78 130.786 198.582 130.381C185.738 129.902 173.291 125.647 152.217 113.709C143.473 108.754 135.185 104.185 127.205 100.446C127.176 100.409 127.132 100.335 127.117 100.317C112.657 93.0585 97.9317 87.274 86.0136 84.2344C71.362 80.4948 64.1464 82.2449 45.6152 75.2999C30.5375 69.6628 16.415 62.0362 0 53.4885C0 53.9306 0.0147243 54.3912 0.02942 54.8333C6.86289 58.3887 13.2849 61.7967 19.5011 64.9653C12.3738 61.7967 5.46676 58.9966 0.0734602 57.5781C0.0734602 58.1308 0.0881846 58.7019 0.10288 59.2545C6.45139 60.4335 15.548 63.6389 26.9812 68.6865C33.7412 71.984 40.413 74.9867 47.3347 77.5842C65.954 84.6029 73.0226 82.8712 87.4978 86.4635C93.714 88.0109 100.768 90.3504 108.16 93.2427C107.44 93.0584 106.72 92.819 106 92.6532C90.8337 89.1346 82.1192 91.511 76.6524 95.4349C65.0428 103.743 71.8323 121.557 65.4837 131.192C58.2682 142.134 36.0631 142.3 0.793532 135.447C0.793532 135.797 0.793532 136.147 0.793532 136.497C26.3052 141.25 47.9665 144.105 58.8707 139.113C60.5754 138.321 61.9568 137.381 63.1178 136.313C63.1765 136.386 63.3088 136.479 63.2794 136.497C67.5852 134.6 75.4914 133.328 86.4985 136.11C96.565 138.652 110.835 146.666 118.52 147.016C124.707 147.292 125.016 143.589 124.413 139.205C124.075 145.966 119.49 148.029 98.9016 139.684C80.7672 132.315 70.4362 132.61 64.1905 135.023C70.6419 127.489 68.1436 114.704 72.5229 104.646C76.7993 94.8269 90.819 85.1371 128.322 102.361C142.592 108.92 157.126 118.702 170.352 125.094C167.927 124.965 168.103 126.291 169.544 128.447C169.47 128.281 169.397 128.115 169.382 127.968C169.176 126.236 170.499 125.647 176.803 127.968C192.351 133.715 203.226 132.868 212.94 132.739C224.255 132.592 235.6 131.615 251.119 136.405C264.448 140.531 278.409 147.587 289.96 149.337C304.082 151.474 315.809 150 329.417 151.492C342.996 152.984 357.045 153.795 367.817 151.4C376.355 149.484 379.544 141.158 390.243 141.747C400.015 142.3 410.287 146.555 416.489 142.429C412.888 146.905 407.422 149.871 402.572 152.708C392.594 158.548 380.676 163.393 379.177 174.777C379.015 175.993 378.883 177.227 378.942 178.535C379.177 183.878 384.511 189.533 385.804 194.71C383.233 200.365 372.902 198.578 364.172 198.413C356.266 198.265 347.831 197.399 339.278 196.423C323.186 194.599 307.491 193.125 294.515 194.765C291.517 194.599 288.519 194.433 285.595 194.341C278.57 194.12 271.281 191.136 263.081 189.367C253.456 187.304 248.253 189.754 237.173 186.291C227.43 183.233 220.038 180.378 212.146 179.954C196.863 179.143 190.529 184.301 190.353 192.352C190.206 198.928 194.32 206.979 181.138 205.671C179.581 205.247 177.92 204.75 176.098 204.123C141.754 192.223 117.286 192.868 91.9506 190.067C78.1955 188.557 64.3228 187.046 48.7454 184.523C36.0925 182.478 21 179.917 0.984582 172.604C0.984582 173.027 0.984582 173.451 0.984582 173.875C6.78936 176.03 12.3885 177.891 17.1204 179.291C17.1645 179.291 17.2086 179.309 17.2527 179.328C11.8006 178.314 6.61303 177.467 2.01329 177.006C1.6753 176.97 1.32258 176.914 0.984582 176.859C0.984582 177.301 0.984582 177.743 0.984582 178.185C4.89362 178.664 7.95036 178.628 12.3297 179.383C17.723 180.304 23.8216 181.575 29.7587 182.809C58.3417 190.104 80.1059 191.154 99.7098 193.291C111.408 194.562 122.517 195.502 134.274 196.939C135.361 197.068 136.478 197.197 137.595 197.344C136.611 197.694 135.802 198.099 135.229 198.541C133.025 200.199 136.111 203.755 135.317 205.91C134.465 208.194 129.689 208.6 122.444 207.163C115.89 205.873 108.777 202.594 101.606 200.586C89.9667 197.326 85.5727 201.747 85.1612 204.639C84.4852 209.337 81.7959 212.984 73.2871 213.924C66.5418 214.679 56.4019 214.955 39.6047 209.631C30.5816 206.776 20.6033 202.318 11.2715 199.463C7.48005 198.302 4.10006 197.473 0.984582 196.828C0.984582 197.234 0.984582 197.639 0.984582 198.044C4.64379 198.763 8.68509 199.72 13.2848 201.157C22.7488 204.123 32.6243 208.637 41.7356 211.529C46.8791 213.15 51.3024 214.2 55.2555 214.9C69.04 218.253 80.7231 220.058 96.1682 225.327C108.028 229.361 120.107 234.464 130.674 237.614C117.55 235.846 108.762 236.546 103.119 238.646C96.9177 240.967 86.3662 240.893 65.4984 235.109C47.2906 230.061 26.1436 222.306 8.28836 218.492C5.7901 217.958 3.35058 217.479 0.984582 217.055C0.984582 217.203 0.984582 217.35 0.984582 217.516C3.57101 217.958 6.24565 218.474 9.00843 219.063C26.893 222.84 48.04 230.743 66.3801 235.901C87.4684 241.833 97.7994 241.888 104.03 239.585C107.543 238.296 110.937 237.301 117.697 237.559C123.002 237.761 128.837 238.259 134.568 238.719C136.361 239.18 138.124 239.585 139.814 239.898C156.053 242.864 158.434 237.927 170.205 238.296C181.858 238.646 201.492 244.227 217.422 249.312C225.446 251.873 232.309 253.954 238.393 255.225C232.117 254.286 224.814 252.591 218.818 251.928C209.236 250.878 205.18 253.973 205.754 257.786C206.356 261.783 209.927 266.205 206.474 268.563C202.138 271.529 194.849 273.242 187.222 274.55C179.86 275.802 171.057 276.723 158.39 275.231C147.103 273.905 132.408 270.552 118.138 267.42C90.1136 261.304 67.9232 258.67 56.9014 261.507C64.1023 260.918 72.0673 260.715 82.5306 261.581C92.9498 262.447 105.059 264.915 118.638 267.899C132.951 271.05 147.471 274.329 158.801 275.673C159.404 275.747 159.947 275.784 160.52 275.839C157.082 275.931 155.348 276.65 155.759 278.492C156.156 280.242 157.934 282.379 159.903 284.479C167.251 292.382 174.246 300.193 166.355 303.122C164.856 303.675 161.49 304.743 157.155 303.988C155.186 303.638 152.996 302.901 150.704 302.661C144.385 301.998 140.343 302.661 136.684 303.103C132.378 303.619 128.602 304.338 125.03 305.093C122.341 305.664 120.357 306.475 114.67 305.904C98.0346 304.264 69.5691 296.343 49.201 293.248C52.3164 293.303 54.2563 293.008 55.2115 292.161C58.0331 289.619 55.1821 285.511 51.1849 280.85C50.6118 280.187 49.9651 279.487 49.2891 278.768C49.7888 279.303 50.2591 279.818 50.6852 280.334C54.6384 284.995 57.6069 289.177 54.418 291.645C52.9484 292.787 49.6418 292.898 43.3227 292.345C41.7356 292.198 40.4718 292.161 39.3549 292.161C39.3549 292.161 39.3402 292.161 39.3255 292.161C35.3724 292.161 33.8294 292.879 31.2429 293.432C25.8055 294.574 12.5648 292.529 0.558441 291.129C0.558441 291.277 0.558441 291.442 0.558441 291.59C13.4318 293.377 26.1877 295.182 31.8161 294.243C35.3577 293.653 36.3717 292.364 43.3668 292.935C43.793 292.971 44.1751 292.99 44.5866 293.027C62.8827 295.164 89.7315 302.33 108.733 305.388C123.723 307.783 127.088 304.872 133.657 303.859C137.581 303.251 141.71 302.624 147.529 302.735C149.117 302.772 151.233 302.772 153.746 303.288C154.51 303.435 156.097 303.896 156.685 304.006C159.007 304.43 160.711 304.356 162.299 304.19C172.6 303.214 171.748 297.043 165.943 290.632C162.872 287.242 158.228 283.392 156.494 280.15C154.848 277.092 156.891 276.023 162.548 276.06C173.217 276.981 181.006 276.152 187.575 275.029C194.306 273.868 200.772 272.413 205.151 270.036C207.414 269.41 209.574 268.747 213.748 269.134C218.171 269.539 222.947 271.031 228.076 272.21C238.01 274.513 243.712 273.518 250.531 273.61C252.574 273.629 254.249 273.684 255.586 273.555C266.638 273.702 278.6 275.194 293.501 278.971C311.356 283.503 328.859 289.527 345.068 293.321C385.569 302.809 413.726 296.379 441.236 292.271C456.711 289.969 474.757 288.366 493.656 294.298C478.446 289.177 461.766 289.177 448.643 290.908C432.875 292.99 418.708 296.103 402.763 297.393C388.288 298.572 370.741 298.387 351.284 294.464C335.722 291.332 318.778 285.64 301.378 280.832C283.89 275.987 269.444 273.536 256.586 273.408C257.365 273.242 258.011 272.965 258.496 272.486C259.437 271.584 260.745 270.957 262.743 270.515C267.211 269.521 273.486 269.502 278.967 269.078C286.565 268.507 293.913 267.752 303.582 268.692C313.443 269.649 321.511 270.828 327.918 268.968C333.664 267.292 337.426 264.381 342.011 261.82C346.67 259.223 352.21 257.675 359.764 257.123C370.359 258.467 380.955 259.996 390.786 260.568C405.35 261.415 418.737 260.586 433.595 262.097C443.47 263.11 452.949 266.923 462.281 269.944C478.857 275.323 494.567 280.96 510.541 283.355C523.076 285.234 534.686 283.042 545.223 280.168C546.678 279.763 548.132 279.358 549.573 278.916C560.403 276.281 573.894 277.147 585.592 277.958C600.155 278.971 614.248 281.605 625.99 286.284C636.453 290.466 645.638 295.551 658.585 295.919C664.478 296.085 671.532 295.79 675.573 298.13C677.087 299.014 677.116 300.469 678.571 301.298C680.775 302.551 685.39 302.053 688.681 301.759C685.639 301.759 681.789 302.201 679.526 301.206C677.939 300.506 677.821 299.088 676.558 298.185C672.957 295.587 665.844 295.772 659.966 295.624C646.49 295.311 638.437 288.919 627.518 284.516C615.997 279.855 601.154 278.805 586.929 277.737C575.804 276.908 562.666 275.987 551.983 278.142C561.079 275.231 569.941 271.547 578.67 267.42C584.342 264.731 589.368 260.918 595.864 258.689C602.521 256.404 610.119 258.173 616.688 255.41C621.963 253.18 625.108 249.072 631.589 248.299C636.777 247.691 642.522 248.299 647.416 249.349C647.681 249.404 647.96 249.478 648.224 249.533C648.827 249.68 649.415 249.809 649.988 249.975C649.988 249.975 650.047 249.938 650.076 249.901C654.588 250.749 659.32 251.246 664.566 251.099C672.825 250.878 679.511 249.201 687.888 246.604C695.985 244.099 705.346 243.38 708.903 248.041H708.917C709.549 248.943 710.402 249.791 711.68 250.62C719.954 255.888 733.709 247.893 745.627 245.204C752.652 243.62 756.076 245.333 759.588 247.728C764.276 250.933 769.008 253.549 775.988 254.728C790.434 257.141 809.127 255.778 825.821 255.723C835.946 255.686 851.73 255.483 856.844 255.281C863.148 255.041 867.439 254.488 871.98 254.802C875.551 255.041 876.756 256.717 880.504 256.736C888.425 256.773 898.182 254.931 899.99 258.873C899.843 254.452 888.63 256.386 881.312 256.367C877.623 256.367 876.359 254.673 872.832 254.396C868.688 254.083 863.501 254.544 858.71 254.783C863.75 254.323 869.012 253.678 874.64 252.628C879.769 251.67 884.853 250.233 889.968 248.501C869.967 254.82 853.949 253.825 839.562 253.917C830.23 253.973 819.693 255.17 810.185 255.428C802.808 255.631 796.224 254.967 789.391 254.562C781.778 254.12 774.827 253.18 768.787 251.099C763.57 249.293 760.999 244.799 754.738 243.748C744.495 242.035 730.461 251.78 719.689 251.651C714.134 251.578 710.46 248.722 708.785 245.314C707.36 242.385 709.491 238.572 706.375 236.398C703.642 234.501 699.997 233.248 695.985 232.493C704.7 232.419 712.929 231.056 722.761 228.569C734.576 225.585 748.287 225.474 758.721 226.193C758.78 226.193 758.677 226.193 758.721 226.193C749.169 224.571 735.296 224.921 723.804 227.814C712.488 230.669 703.392 231.701 692.943 231.995C691.224 231.774 689.46 231.645 687.711 231.59C680.628 231.351 673.075 232.622 667.27 229.803C661.627 227.058 657.777 223.042 650.884 221.256C642.816 219.174 633.999 218.474 625.902 215.913C617.569 213.279 612.514 207.071 604.417 203.515C601.786 202.355 598.994 201.857 596.158 201.673C596.819 201.563 597.48 201.452 598.127 201.342C607.797 199.592 618.745 197.989 627.401 192.039C635.689 186.346 637.203 179.346 639.128 169.988C640.921 161.237 644.918 155.177 651.825 151.345C654.926 150.608 658.085 150.811 661.157 152.1C664.728 153.592 666.065 156.816 668.813 158.253C673.854 162.509 676.616 168.569 681.628 172.346C688.182 177.301 697.47 179.457 706.375 180.138C724.656 181.538 744.804 177.67 760.896 182.588C760.925 182.588 760.881 182.588 760.896 182.588C745.142 177.541 725.185 181.022 707.154 179.457C698.66 178.72 690.048 176.712 683.567 172.272C678.497 168.809 675.764 162.803 670.797 158.861C671.282 158.935 671.767 158.99 672.355 158.972C689.49 158.179 707.903 147.55 726.243 145.174C742.262 143.092 757.501 144.916 769.008 150.405C780.397 155.84 785.761 166.727 801.088 166.617C812.61 166.543 837.298 153.445 839.341 164.461C839.929 167.667 840.546 169.767 842.662 171.13C832.126 171.148 820.002 174.685 807.584 178.425C795.431 182.091 783.174 186.844 773.828 185.02C773.872 185.02 773.769 185.02 773.828 185.02C782.293 187.599 794.843 182.662 806.54 179.143C820.398 174.962 832.287 172.18 844.22 171.885C844.925 172.143 845.69 172.383 846.645 172.567C847.776 172.788 848.996 172.898 850.245 172.991C846.454 182.091 861.84 181.833 869.056 182.772C883.09 184.578 897.933 184.965 914.862 183.804C931.953 182.625 948.926 181.557 962.285 183.675C963.96 183.933 965.371 184.32 966.649 184.744C957.979 183.675 945.12 185.794 931.042 190.454C927.001 191.799 922.518 193.512 918.403 195.87C907.382 202.152 910.894 204.565 907.162 209.65C903.502 214.642 895.082 216.263 889.585 217.147C878.681 218.898 869.702 217.387 857.755 220.869C853.478 222.103 849.275 224.295 845.19 226.598C840.267 229.361 836.799 232.309 832.067 234.832C832.449 234.63 832.816 234.501 833.198 234.28C840.884 230.08 846.513 224.958 855.683 222.121C867.013 218.621 875.86 219.395 885.794 218.105C890.482 217.498 899.123 216.521 905.31 212.597C909.777 209.76 909.087 208.194 910.101 205.763C912.511 200.015 916.919 195.612 928.72 191.707C950.543 184.486 967.605 183.804 973.468 190.233C974.732 192.868 974.893 196.055 974.6 199.72C974.335 203.036 974.526 206.076 975.232 208.784C975.041 211.474 974.188 214.403 970.926 216.245C969.133 216.945 967.223 217.682 965.562 218.529C964.254 219.192 963.475 219.8 962.241 220.5C957.979 222.95 953.923 224.553 949.852 225.861C947.795 226.395 945.708 226.985 943.562 227.648C936.935 229.73 930.322 232.327 923.826 235.017C927.236 233.653 930.718 232.309 934.26 231.037C959.963 221.808 990.339 222.048 995.056 222.342C1000.99 222.729 1008.28 222.656 1017.61 221.237C1030.47 219.303 1045.18 215.968 1060.91 211.989C1075.19 209.3 1089.53 207.108 1099.53 207.31C1083.91 209.576 1059.04 220.555 1043.08 223.3C1023.74 226.635 1007.33 228.127 984.24 235.772C1007 228.385 1023.18 226.874 1042.36 223.577C1059.22 220.684 1086.74 208.305 1101.63 207.402C1102.16 207.439 1102.76 207.439 1103.26 207.494C1108.37 208.01 1113.41 209.023 1113 212.008C1112.59 214.992 1106.17 219.874 1106.95 222.324C1109.34 229.932 1132.05 227.758 1158.63 223.706C1158.63 223.485 1158.63 223.282 1158.63 223.061L1158.46 223.042ZM1038.66 65.61C1051.65 62.6073 1058.54 61.9441 1055.94 71.1734C1050.94 88.932 1066.84 90.8847 1093.33 84.8055C1099.34 83.4239 1105.57 81.6001 1111.5 80.1816C1131.9 75.2815 1133.99 77.8421 1136.74 83.516C1137.93 85.9661 1146.19 83.9765 1142.1 89.411C1136.72 96.5402 1125.32 101.569 1116.44 104.498C1091.24 111.757 1073.91 110.043 1060.45 108.477C1041.8 106.304 1027.34 102.196 1020.35 90.4978C1016.57 84.1792 1014.45 76.2025 1007.61 72.4445C1018.38 69.4602 1028.25 68.0233 1038.66 65.61ZM936.744 78.1737C953.791 75.0051 972.234 70.0313 985.651 71.155C997.833 72.1682 1007.27 75.8157 1012.25 83.4607C1018.11 92.4321 1022.48 101.219 1031.71 106.47C1028.11 106.672 1024.12 107.28 1019.82 108.404C1007.03 111.738 993.807 117.78 984.99 116.878C975.864 115.957 966.576 118.333 954.408 120.949C942.372 123.546 932.805 122.902 923.621 122.312C917.875 121.944 908.572 122.865 903.561 121.723C894.788 119.696 889.968 115.938 882.164 112.586C878.887 111.185 877.344 108.164 874.067 106.709C869.217 104.535 862.59 103.669 857.329 101.44C849.408 98.0876 840.796 95.1954 830.876 94.4769C836.564 92.6348 842.456 90.1478 847.306 90.59C855.668 90.8479 864.853 90.0741 875.096 88.3425C895.199 84.9713 915.626 82.0975 936.744 78.1737ZM798.84 57.6702C811.184 52.549 823.867 47.1146 836.813 41.7723C854.683 41.3302 858.666 55.8833 870.613 61.7967C875.83 64.3758 883.075 64.8179 892.04 61.7046C896.713 60.0835 900.842 57.9466 904.825 57.7071C908.337 57.486 910.336 58.9782 914.436 58.1124C917.243 57.5229 920.211 57.0255 923.797 54.4833C928.544 57.7255 945.399 47.833 954.026 46.8567C961.447 46.0093 968.81 46.2672 974.497 47.8146C966.826 48.3673 958.346 51.6463 945.194 59.3098C928.867 68.8338 914.612 73.8814 899.77 81.4712C899.608 81.508 899.461 81.5449 899.299 81.5817C870.525 87.6793 843.236 92.1189 825.057 82.4291C810.156 74.4893 799.369 63.2705 778.692 65.7942C785.32 63.1599 792.021 60.5072 798.84 57.6887V57.6702ZM690.004 97.2218C715.663 89.3925 742.541 79.9974 770.903 68.9075C790.978 64.6889 801.867 73.0708 814.99 81.4712C822.573 86.3161 830.935 89.0057 840.267 90.0926C835.961 91.4373 831.508 93.2243 827.379 93.9243C819.311 95.2875 815.696 90.1662 808.348 90.2768C799.678 90.4057 794.152 96.7981 785.467 101.33C779.06 104.683 773.255 103.596 766.774 105.972C749.801 112.217 733.915 115.533 719.733 113.249C707.889 111.351 699.145 100.961 687.403 97.9771C688.27 97.7192 689.122 97.4981 689.989 97.2218H690.004ZM682.451 99.414C688.358 100.851 693.222 105.585 697.91 108.643C700.629 110.412 703.362 111.959 706.213 113.267C699.997 113.691 693.619 115.478 688.711 119.917C683.7 124.449 681.98 131.357 677.91 136.257C675.632 139.002 673.251 140.752 670.812 142.024C672.648 139.094 674.368 135.447 673.207 129.165C671.826 121.594 668.96 116.528 658.761 114.483C645.903 111.904 630.795 113.028 630.795 113.028C647.739 109.141 664.639 104.683 682.451 99.414ZM594.732 120.507C594.967 120.47 595.203 120.415 595.438 120.36C600.199 119.899 604.975 119.402 609.795 118.849C599.817 124.578 590.823 132.757 581.447 137.694C568.221 144.658 555.51 144.953 540.799 143.46C533.598 142.724 526.647 142.337 519.579 142.687C513.421 142.981 508.013 143.331 501.474 140.366C495.081 137.473 488.336 132.536 482.031 128.097C477.564 124.947 473.449 122.367 469.085 119.77C482.369 124.228 494.817 127.82 507.47 128.778C536.699 131.007 565.958 125.665 594.718 120.488L594.732 120.507ZM395.856 140.808C383.909 138.837 380.676 143.939 373.343 147.624C357.442 155.6 328.315 147.513 306.639 147.771C298.204 147.863 294.794 148.195 283.934 145.818C301.863 149.632 313.781 145.818 324.083 138.155C329.256 134.305 335.428 131.228 339.058 125.683C342.629 120.231 343.496 111.407 350.461 108.533C357.045 105.825 365.231 108.312 375.135 113.23C382.542 116.915 392.153 122.754 396.988 119.752C400 117.873 400.074 112.899 399.868 108.017C399.795 106.23 399.927 104.517 400.294 102.969C400.676 101.404 401.294 100.022 402.219 98.8982C409.068 90.4978 423.043 89.9268 437.092 92.6348C437.945 92.819 438.812 93.0585 439.649 93.169C442.823 93.869 445.968 94.698 448.996 95.6559C456.755 98.0876 464.838 104.443 472.141 105.991C481.987 108.091 488.909 102.306 499.402 106.193C508.234 109.472 516.169 116.233 524.531 119.77C532.805 123.27 541.108 123.344 549.191 123.178C551.498 123.123 553.776 123.012 556.083 122.939C544.223 124.412 532.335 125.37 520.358 125.333C509.88 125.297 499.123 124.32 488.101 121.52C476.961 118.683 465.411 113.193 453.889 110.578C436.078 106.543 424.087 113.101 421.133 128.023C420.383 131.781 419.972 135.668 418.649 138.873C413.844 144.51 405.482 142.41 395.856 140.826V140.808ZM357.016 200.66C358.676 200.771 360.308 200.844 361.924 200.899C370.212 201.176 379.691 202.428 383.894 199.076C391.874 197.602 396.371 192.462 401.779 188.096C410.816 180.783 425.159 178.278 439.59 176.251C454.227 174.188 469.937 173.267 486.602 176.564C502.826 179.77 515.523 187.341 529.395 194.876C545.708 203.736 563.254 205.155 580.066 203.755C578.832 204.418 577.7 205.247 576.73 206.334C576.245 206.887 575.775 207.642 575.378 208.158C571.043 213.85 568.221 213.721 560.991 213.316C555.245 212.984 551.204 215.453 545.957 216.429C540.447 217.442 534.025 217.129 528.132 215.913C515.684 213.371 504.751 206.371 491.495 205.744C486.043 205.486 479.945 206.518 474.096 204.418C468.526 202.428 463.118 199.776 457.269 198.118C450.142 196.11 441.398 195.926 439.973 201.323C439.15 204.436 441.957 207.734 442.647 211.013C444.396 219.266 423.94 217.682 415.96 216.319C408.539 215.047 401.117 213.095 393.902 212.542C389.214 212.192 384.717 212.192 379.25 210.018C368.625 205.781 360.528 202.005 351.387 200.844C353.268 200.771 355.135 200.697 357.03 200.642L357.016 200.66ZM190.735 194.028C190.485 185.609 196.789 180.101 212.499 180.93C220.39 181.354 227.738 184.209 237.452 187.231C247.901 190.491 252.75 188.152 261.524 189.699C269.768 191.154 278.306 194.802 285.712 195.152C287.006 195.207 288.446 195.318 289.93 195.447C281.833 197.049 275.499 199.849 270.062 203.11C263.654 206.96 255.101 208.489 243.903 208.655C233.131 208.821 221.625 207.937 209.369 206.923C200.478 206.187 195.231 208.526 185.047 206.573C193.718 206.389 190.926 199.684 190.764 194.028H190.735ZM227.988 252.094C211.985 247.285 195.702 241.741 180.198 238.793C162.842 235.477 160.153 240.248 147.721 239.898C136.522 239.585 123.091 234.648 104.809 227.85C87.6595 221.477 75.4915 219.008 61.8098 215.821C67.3207 216.3 71.5824 216.005 74.8596 215.582C83.192 214.495 85.749 210.718 86.2634 205.929C86.572 203 90.2753 198.063 102.267 201.471C109.468 203.515 116.566 206.831 123.105 208.121C129.689 209.41 134.406 209.208 135.729 207.384C137.125 205.45 133.392 201.415 135.023 199.499C135.714 198.689 137.198 197.952 139.226 197.547C148.661 198.707 159.271 200.181 171.278 204.308C176.436 206.076 181.697 208.213 186.194 209.171C192.307 210.479 195.819 209.65 199.758 209.355C208.737 208.692 221.081 210.884 231.045 210.995C240.303 211.105 249.767 211.326 257.585 210.276C266.52 209.079 270.885 204.915 277.674 201.968C287.961 197.51 301.79 195.741 318.807 196.92C328.447 197.584 338.573 198.965 348.316 199.923C325.053 200.678 304.494 204.75 294.104 214.366C284.713 223.042 287.579 236.767 281.157 245.038C280.231 245.904 279.393 246.788 278.556 247.672C273.927 251.43 266.638 253.936 258.085 255.188C250.516 256.312 242.111 256.331 227.988 252.094ZM328.418 268.268C322.231 270.221 314.589 269.41 304.626 268.323C294.339 267.199 286.55 267.955 278.673 268.618C273.412 269.06 267.446 269.134 263.052 270.073C260.936 270.515 259.363 271.105 258.305 272.044C256.747 273.426 255.381 273.463 251.119 273.408C244.374 273.334 238.628 274.421 228.987 272.302C224.02 271.215 219.127 269.65 214.586 269.115C209.927 268.563 207.62 269.207 205.298 269.871C205.768 269.613 206.239 269.336 206.665 269.042C210.089 266.665 206.488 262.299 205.974 258.339C205.489 254.581 209.516 251.541 219.083 252.628C227.959 253.641 239.554 256.81 246.622 256.515C246.652 256.515 246.622 256.478 246.622 256.46C247.989 256.552 249.326 256.607 250.634 256.588C252.251 256.552 253.779 256.441 255.263 256.312C268.739 256.017 279.29 253.641 293.413 253.659C309.064 253.696 325.038 253.973 341.879 255.244C346.729 255.612 351.711 256.165 356.707 256.791C343.011 258.081 338.499 265.118 328.418 268.305V268.268ZM598.891 203.202C607.341 205.063 612.294 211.75 619.274 215.084C626.46 218.511 634.734 219.524 642.655 221.016C637.614 220.924 632.133 221.569 627.386 220.684C627.43 220.684 627.327 220.684 627.386 220.684C633.852 222.95 641.582 221.624 648.68 222.324C652.662 223.337 656.395 224.664 659.599 226.727C663.684 229.361 666.932 232.088 672.604 232.622C680.481 233.359 688.902 231.959 696.235 233.819C700.497 234.906 706.301 236.38 706.801 240.046C707.066 241.962 707.198 243.62 707.551 245.112C703.495 242.791 696.514 243.343 690.195 245.222C681.304 247.857 674.236 249.938 665.462 250.251C646.872 250.915 633.926 243.38 616.496 239.954C597.231 236.159 577.215 239.677 558.243 241.943C541.24 243.97 523.796 246.125 510.394 252.315C510.526 252.259 510.262 252.37 510.394 252.315C524.179 246.714 540.652 244.817 557.552 242.791C576.51 240.525 596.378 237.061 615.659 240.764C625.608 242.68 634.19 245.959 643.052 248.28C640.436 247.93 637.732 247.728 635.057 247.764C628.723 247.82 625.27 250.086 620.538 253.07C615.321 256.367 610.413 256.441 604.196 256.791C596.878 257.215 591.529 260.107 586.062 263.202C575.863 268.968 564.768 273.537 553.79 277.184C543.43 280.629 531.659 283.853 519.461 283.668C500.974 283.374 482.987 274.642 463.427 268.157C457.549 266.205 451.582 264.473 445.572 263.294C429.906 260.218 415.739 260.66 401.338 260.328C388.92 260.052 375.65 258.136 362.203 256.533C362.174 256.533 362.159 256.533 362.13 256.533C359.352 256.202 356.56 255.888 353.768 255.594C334.796 253.659 316.97 253.144 299.57 253.033C284.787 252.923 273.251 254.967 259.848 255.667C265.991 254.617 270.987 252.757 275.19 250.565C276.41 249.938 277.424 249.201 278.35 248.446C280.819 246.862 282.215 244.633 284.096 242.68C285.125 241.612 286.315 239.475 289.328 239.567C293.237 239.677 297.704 242.864 301.51 242.883C306.139 242.92 305.992 241.262 312.429 242.772C317.411 243.933 322.378 245.517 327.125 246.346C337.735 248.225 349.271 248.299 356.134 246.493C356.252 246.457 356.016 246.143 356.134 246.125C348.404 247.193 338.808 247.672 328.403 246.014C323.612 245.259 318.69 243.749 313.561 242.514C311.298 241.962 308.755 241.335 306.845 241.28C304.332 241.225 303.685 242.348 301.422 242.441C297.983 242.569 293.589 239.769 289.886 239.493C286.756 239.254 285.477 240.985 284.39 241.998C283.567 242.754 282.744 243.527 281.921 244.283C286.212 237.246 285.786 227.372 290.827 219.377C299.071 206.297 323.186 202.134 349.565 200.881C357.897 201.692 366.024 204.529 375.62 208.987C386.539 214.071 394.637 212.91 404.483 214.882C413.756 216.724 422.984 218.603 430.773 218.124C423.029 219.763 414.667 220.684 409.773 224.295C416.048 220.537 427.231 220.85 434.594 217.663C436.181 217.369 437.724 216.963 439.164 216.374C441.06 215.6 442.721 214.55 443.073 212.671C443.588 209.963 440.942 207.108 440.325 204.123C439.253 198.965 444.337 197.602 449.848 197.841C460.282 198.302 471.01 206.002 480.885 206.555C487.689 206.942 494.141 206.481 501.165 208.029C507.396 209.41 513.289 212.082 519.182 214.274C530.703 218.566 541.387 218.732 551.689 215.526C555.069 214.476 558.655 214.605 562.049 214.605C569.515 215.913 575.966 219.248 583.24 220.629C591.147 222.14 599.464 220.408 607.385 221.348C607.444 221.348 607.341 221.348 607.385 221.348C600.228 218.953 591.529 221.292 583.843 219.911C577.215 218.713 571.322 215.729 564.694 214.532C568.177 214.329 571.381 213.555 573.953 210.552C574.32 210.129 574.555 209.65 574.893 209.208C577.347 205.984 580.081 204.326 583.299 203.442C585.445 203.221 587.576 202.963 589.692 202.668C592.792 202.502 595.879 202.557 598.862 203.221L598.891 203.202ZM655.646 146.739C646.299 149.705 640.142 155.987 637.658 165.18C635.63 172.696 636.012 179.917 630.986 186.015C626.034 192.039 618.157 194.857 611.118 196.681C586.326 203.129 556.244 206.813 531.277 193.862C518.506 187.231 506.897 179.733 492.142 176.104C478.505 172.751 465.176 172.327 452.67 173.322C437.518 174.538 422.441 176.877 410.478 181.759C400.133 185.978 395.489 195.778 384.541 198.394C385.525 197.326 386.128 195.889 386.157 193.936C386.157 193.881 386.157 193.826 386.157 193.789C386.187 193.531 386.216 193.254 386.245 192.997C386.216 193.144 386.172 193.254 386.142 193.402C385.981 190.178 383.938 187.028 381.557 183.049C376.708 174.906 381.234 170.301 385.687 166.469C394.71 158.714 411.287 155.398 417.635 143.681C423.102 133.586 420.427 118.978 434.741 114.483C443.838 111.628 455.476 115.146 466.366 118.867C466.454 118.904 466.528 118.923 466.616 118.959C471.127 121.907 475.507 124.615 479.901 127.894C486.617 132.923 494.067 138.671 501.048 141.397C507.411 143.884 513.48 143.331 519.432 143.018C526.456 142.65 533.451 143.092 540.608 143.829C555.304 145.339 567.927 145.1 581.139 138.192C592.704 132.149 603.476 122.036 616.144 116.307C617.555 116.012 618.951 115.699 620.361 115.386C628.797 115.662 654.617 113.93 665.095 119.033C668.607 120.746 672.237 124.707 673.06 132.094C673.589 136.792 671.532 140.955 669.136 142.816C664.816 144.676 660.231 145.266 655.631 146.739H655.646ZM845.984 170.854C840.517 169.067 843.191 163.909 840.076 160.593C833.507 153.611 809.494 166.838 798.546 164.959C785.584 162.711 781.72 149.742 770.036 144.621C763.864 141.913 754.959 142.724 747.067 142.024C738.97 141.305 731.725 139.076 722.952 140.992C713.576 143.037 704.259 147.421 695.192 150.829C688.843 153.206 675.544 159.543 670.209 156.779C668.666 155.987 668.034 153.611 666.741 152.432C664.625 150.498 661.495 149.226 658.438 148.913C658.159 148.876 657.879 148.913 657.6 148.895C658.423 148.637 659.217 148.342 660.113 148.121C664.904 146.924 669.68 146.021 674.206 142.705C680.143 138.376 681.76 132.702 686.168 126.77C693.149 117.357 703.068 115.441 712.136 115.478C713.576 115.901 715.045 116.27 716.603 116.509C722.393 117.449 728.433 117.357 734.664 116.565C727.081 119.696 720.468 125.389 713.017 129.46C704.773 133.955 697.425 132.168 689.46 135.152C689.637 135.097 689.284 135.226 689.46 135.152C697.249 132.739 704.053 134.765 712.106 130.381C720.615 125.757 727.992 120.12 736.898 116.233C745.509 114.888 754.591 112.18 764.041 108.57C767.994 107.059 771.771 106.875 775.547 106.175C784.365 106.156 787.965 112.917 794.769 115.699C803.528 119.273 817.665 112.383 828.687 111.83C828.775 111.83 829.083 111.443 829.157 111.443C818.37 111.517 804.233 118.794 795.445 115.109C789.067 112.42 785.452 106.304 777.619 105.733C779.03 105.383 780.441 104.922 781.881 104.24C791.022 99.8745 796.562 92.5427 806.1 92.3032C813.139 92.119 816.622 96.9823 823.984 96.1533C839.635 96.8718 852.229 102.748 863.809 108.035C857.49 107.593 850.231 108.68 841.913 110.743C841.883 110.743 841.825 110.835 841.795 110.835C852.861 108.404 861.252 108.33 868.879 110.32C884.427 117.246 899.652 124.228 919.565 125.499C924.561 125.812 929.94 125.757 935.686 125.241C948.339 126.31 958.023 129.405 965.4 134.821C968.281 136.939 970.029 139.794 971.528 142.76C961.109 140.292 947.663 143.166 927.53 154.495C913.804 162.214 907.132 165.677 895.772 168.367C885.412 170.817 877.168 171.075 868.615 171.351C860.826 171.609 851.891 172.806 845.998 170.89L845.984 170.854ZM953.1 224.977C958.67 222.729 963.46 219.561 970.147 216.558C971.087 216.134 972.91 215.416 973.688 214.937C975.555 213.795 976.128 212.8 976.275 211.953C978.523 216.65 982.932 220.04 990.265 221.606C979.567 221.477 967.737 221.606 953.1 224.995V224.977Z" fill="url(#paint6_linear_1338_42245)"/>
<path d="M789.757 237.982C785.202 236.029 782.13 232.989 777.795 230.705C773.475 228.421 764.554 226.91 758.559 226.155C764.466 226.984 773.239 228.586 777.501 230.889C781.792 233.21 784.849 236.25 789.39 238.203C795.489 240.819 803.659 242.071 813.55 240.69C817.15 240.192 821.03 239.234 824.968 237.834C821.118 239.179 817.341 240.008 813.902 240.487C803.997 241.869 795.871 240.616 789.743 238L789.757 237.982Z" fill="url(#paint7_linear_1338_42245)"/>
<path d="M406.011 229.766C404.439 236.196 398.708 238.351 390.787 240.175C381.837 242.256 372.344 244.393 362.262 245.149C362.189 245.149 362.336 245.37 362.262 245.37C372.153 244.964 380.97 242.846 389.596 241.022C394.549 239.99 400.104 238.719 403.249 235.993C409.626 233.322 418.194 231.682 427.173 232.364C441.384 233.469 455.462 241.851 467.939 238.885C455.653 241.759 441.266 233.211 427.232 232.124C418.326 231.424 409.876 233.045 403.542 235.68C404.321 234.924 404.983 234.095 405.35 233.101C405.938 231.535 406.055 229.748 406.57 228.108C406.335 228.624 406.144 229.177 405.997 229.766H406.011Z" fill="url(#paint8_linear_1338_42245)"/>
<path d="M406.584 228.109C407.289 226.58 408.392 225.346 409.788 224.333C409.376 224.572 408.921 224.793 408.553 225.069C407.495 225.898 406.951 226.967 406.584 228.109Z" fill="url(#paint9_linear_1338_42245)"/>
<path d="M1113.11 173.47C1111.21 174.391 1109.39 175.404 1107.58 176.399C1111.31 174.483 1115.08 172.512 1119.12 170.707C1117.22 171.536 1115.22 172.438 1113.11 173.47Z" fill="url(#paint10_linear_1338_42245)"/>
<path d="M836.902 264.769C833.022 266.076 829.172 267.458 825.396 268.729C829.172 267.477 833.022 266.095 836.902 264.769Z" fill="url(#paint11_linear_1338_42245)"/>
<path d="M799.016 275.195C791.036 276.06 784.188 275.489 776.297 276.318C748.786 279.192 726.728 296.822 702.216 300.138C702.26 300.138 702.172 300.138 702.216 300.138C726.669 296.951 748.448 279.376 775.9 276.521C783.395 275.747 789.934 276.208 797.429 275.508C805.041 274.789 813.374 272.56 822 269.834C823.117 269.484 824.248 269.115 825.38 268.729C824.704 268.95 824.028 269.171 823.367 269.392C814.843 272.1 806.584 274.384 799.001 275.213L799.016 275.195Z" fill="url(#paint12_linear_1338_42245)"/>
<path d="M846.894 261.691C843.573 262.557 840.237 263.644 836.901 264.768C839.767 263.81 842.633 262.889 845.484 262.133C854.815 259.628 861.575 260.31 868.703 260.346C868.762 260.346 868.659 260.346 868.703 260.346C862.002 260.31 855.682 259.407 846.909 261.71L846.894 261.691Z" fill="url(#paint13_linear_1338_42245)"/>
<path d="M1158.97 263.699C1124.42 268.875 1082.17 279.044 1054.69 281.641C1041.42 282.894 1033.44 281.77 1032.73 277.736C1031.91 273.002 1037.73 265.854 1033.7 261.727C1029.99 257.896 1017.04 257.509 1007.43 256.127C999.375 254.967 989.72 253.677 976.421 255.519C987.266 254.101 994.996 255.096 1002.08 255.906C1010.72 256.901 1019.08 258.19 1024.87 260.42C1032.29 263.275 1032.38 268.765 1032.03 274.033C1031.71 278.897 1032.76 282.673 1045.3 282.47C1068.22 282.102 1110.22 272.431 1145.55 266.462C1150.21 265.67 1154.66 264.988 1159 264.343C1159 264.141 1159 263.92 1159 263.717L1158.97 263.699Z" fill="url(#paint14_linear_1338_42245)"/>
</g>
<path style="mix-blend-mode:screen" d="M443.713 107.078C443.36 110.044 423.462 103.725 399.288 92.9668C375.099 82.2085 355.789 71.0817 356.141 68.0974C356.494 65.1315 376.392 71.4502 400.566 82.2085C424.755 92.9668 444.065 104.094 443.713 107.078Z" fill="url(#paint15_radial_1338_42245)"/>
<path style="mix-blend-mode:screen" d="M423.492 121.134C422.125 121.631 410.457 107.004 397.436 88.4719C384.416 69.958 374.981 54.539 376.363 54.0416C377.729 53.5442 389.398 68.1711 402.418 86.7034C415.438 105.217 424.873 120.636 423.492 121.134Z" fill="url(#paint16_radial_1338_42245)"/>
<path style="mix-blend-mode:screen" d="M371.133 97.8495C370.001 96.2468 381.978 90.3703 397.879 84.7148C413.779 79.0593 427.579 75.7618 428.695 77.3645C429.827 78.9672 417.85 84.8438 401.949 90.4992C386.049 96.1547 372.249 99.4522 371.133 97.8495Z" fill="url(#paint17_radial_1338_42245)"/>
<path style="mix-blend-mode:screen" d="M213.194 74.9864C213.106 77.4181 196.676 74.4154 176.484 68.2809C156.293 62.1465 139.995 55.2199 140.083 52.7882C140.172 50.3565 156.601 53.3593 176.793 59.4937C196.985 65.6282 213.282 72.5548 213.194 74.9864Z" fill="url(#paint18_radial_1338_42245)"/>
<path style="mix-blend-mode:screen" d="M197.851 88.435C196.779 88.9692 186.418 78.432 174.706 64.8736C162.993 51.3336 154.367 39.9121 155.44 39.3778C156.513 38.8436 166.873 49.3809 178.585 62.9393C190.298 76.4793 198.924 87.9008 197.851 88.435Z" fill="url(#paint19_radial_1338_42245)"/>
<path style="mix-blend-mode:screen" d="M154.147 75.1713C153.133 73.9923 162.377 68.0053 174.809 61.7787C187.227 55.5522 198.117 51.4625 199.131 52.6231C200.145 53.8021 190.901 59.7892 178.469 66.0157C166.051 72.2423 155.161 76.3319 154.147 75.1713Z" fill="url(#paint20_radial_1338_42245)"/>
<path style="mix-blend-mode:screen" d="M702.84 89.2644C703.575 92.1198 683.516 97.5358 658.033 101.368C632.551 105.199 611.301 105.973 610.566 103.118C609.832 100.262 629.891 94.8462 655.373 91.0145C680.856 87.1828 702.105 86.409 702.84 89.2644Z" fill="url(#paint21_radial_1338_42245)"/>
<path style="mix-blend-mode:screen" d="M689.703 113.12C688.645 114.317 673.009 107.722 654.786 98.3639C636.564 89.0056 622.647 80.4579 623.705 79.2605C624.763 78.0631 640.399 84.6581 658.622 94.0163C676.844 103.375 690.761 111.922 689.703 113.12Z" fill="url(#paint22_radial_1338_42245)"/>
<path style="mix-blend-mode:screen" d="M634.535 121.392C632.963 120.581 641.604 108.644 653.845 94.7168C666.087 80.79 677.285 70.1606 678.857 70.9712C680.43 71.7817 671.789 83.719 659.547 97.6459C647.306 111.573 636.108 122.202 634.535 121.392Z" fill="url(#paint23_radial_1338_42245)"/>
<path style="mix-blend-mode:screen" d="M888.827 121.261C888.71 124.264 868.415 120.377 843.521 112.603C818.626 104.829 798.537 96.0974 798.655 93.0946C798.772 90.0919 819.067 93.9789 843.962 101.753C868.856 109.527 888.945 118.259 888.827 121.261Z" fill="url(#paint24_radial_1338_42245)"/>
<path style="mix-blend-mode:screen" d="M869.782 137.694C868.46 138.339 855.718 125.204 841.331 108.348C826.944 91.4923 816.364 77.2891 817.701 76.6443C819.024 75.9996 831.765 89.1343 846.152 105.99C860.539 122.846 871.119 137.049 869.782 137.694Z" fill="url(#paint25_radial_1338_42245)"/>
<path style="mix-blend-mode:screen" d="M815.878 120.856C814.629 119.401 826.106 112.088 841.493 104.535C856.879 96.9818 870.355 92.0264 871.604 93.4817C872.853 94.937 861.376 102.25 845.99 109.803C830.603 117.356 817.127 122.312 815.878 120.856Z" fill="url(#paint26_radial_1338_42245)"/>
<path style="mix-blend-mode:screen" d="M941.805 42.4173C942.731 45.1806 923.098 52.6598 897.953 59.1074C872.809 65.5551 851.677 68.5394 850.766 65.7761C849.84 63.0129 869.473 55.5336 894.618 49.086C919.762 42.6384 940.879 39.6541 941.805 42.4173Z" fill="url(#paint27_radial_1338_42245)"/>
<path style="mix-blend-mode:screen" d="M930.284 67.544C929.314 68.8519 913.296 63.8965 894.515 56.4541C875.734 49.0301 861.303 41.9377 862.273 40.6298C863.243 39.3218 879.261 44.2773 898.042 51.7197C916.823 59.1437 931.254 66.236 930.284 67.544Z" fill="url(#paint28_radial_1338_42245)"/>
<path style="mix-blend-mode:screen" d="M875.865 81.5081C874.248 80.8634 882.067 68.0787 893.353 52.936C904.639 37.7933 915.088 26.0402 916.719 26.685C918.335 27.3297 910.517 40.1144 899.231 55.2571C887.945 70.3998 877.496 82.1529 875.865 81.5081Z" fill="url(#paint29_radial_1338_42245)"/>
<path style="mix-blend-mode:screen" d="M307.468 50.3749C308.247 52.5486 292.861 58.9594 273.095 64.6885C253.344 70.4361 236.709 73.3284 235.93 71.173C235.151 68.9992 250.537 62.5885 270.303 56.8593C290.054 51.1117 306.689 48.2195 307.468 50.3749Z" fill="url(#paint30_radial_1338_42245)"/>
<path style="mix-blend-mode:screen" d="M298.784 70.5288C298.034 71.5789 285.308 68.0787 270.348 62.6996C255.388 57.3204 243.881 52.0886 244.63 51.0386C245.38 49.9886 258.106 53.4887 273.066 58.8679C288.027 64.247 299.533 69.4788 298.784 70.5288Z" fill="url(#paint31_radial_1338_42245)"/>
<path style="mix-blend-mode:screen" d="M256.018 82.9638C254.724 82.5032 260.706 72.187 269.361 59.9366C278.017 47.6861 286.085 38.1252 287.378 38.6042C288.671 39.0647 282.69 49.3809 274.034 61.6314C265.379 73.8818 257.311 83.4427 256.018 82.9638Z" fill="url(#paint32_radial_1338_42245)"/>
<path style="mix-blend-mode:screen" d="M560.863 41.6247C561.892 43.6143 547.505 52.9725 528.724 62.5334C509.943 72.0943 493.866 78.2472 492.837 76.2577C491.808 74.2681 506.195 64.9098 524.976 55.349C543.758 45.7881 559.835 39.6536 560.863 41.6247Z" fill="url(#paint33_radial_1338_42245)"/>
<path style="mix-blend-mode:screen" d="M554.809 63.2338C554.206 64.4312 541.186 63.4733 525.755 61.0969C510.31 58.7205 498.289 55.8283 498.892 54.6493C499.494 53.4518 512.515 54.4098 527.945 56.7862C543.39 59.1626 555.411 62.0548 554.809 63.2338Z" fill="url(#paint34_radial_1338_42245)"/>
<path style="mix-blend-mode:screen" d="M514.13 83.9213C512.793 83.7186 517.407 72.3524 524.417 58.5545C531.442 44.7566 538.202 33.722 539.539 33.9246C540.876 34.1273 536.262 45.4935 529.252 59.2914C522.227 73.0893 515.467 84.1239 514.13 83.9213Z" fill="url(#paint35_radial_1338_42245)"/>
<path style="mix-blend-mode:screen" d="M591.473 117.873C591.87 123.639 566.755 131.118 535.38 134.545C503.99 137.971 478.229 136.074 477.832 130.308C477.435 124.542 502.55 117.063 533.925 113.636C565.315 110.21 591.076 112.107 591.473 117.873Z" fill="url(#paint36_radial_1338_42245)"/>
<path style="mix-blend-mode:screen" d="M571.59 162.951C570.105 165.162 552.382 149.559 531.985 128.079C511.587 106.618 496.26 87.4222 497.729 85.2116C499.214 83.001 516.936 98.6043 537.334 120.084C557.732 141.545 573.059 160.741 571.59 162.951Z" fill="url(#paint37_radial_1338_42245)"/>
<path style="mix-blend-mode:screen" d="M503.653 170.374C501.889 168.514 514.337 146.297 531.472 120.728C548.592 95.1584 563.905 75.9445 565.668 77.7867C567.432 79.6473 554.985 101.864 537.849 127.433C520.729 153.003 505.416 172.217 503.653 170.374Z" fill="url(#paint38_radial_1338_42245)"/>
<path style="mix-blend-mode:screen" d="M631.125 178.149C648.745 178.149 663.029 165.686 663.029 150.313C663.029 134.94 648.745 122.478 631.125 122.478C613.505 122.478 599.221 134.94 599.221 150.313C599.221 165.686 613.505 178.149 631.125 178.149Z" fill="url(#paint39_radial_1338_42245)"/>
<path style="mix-blend-mode:screen" d="M701.407 171.14C718.575 166.171 730.257 150 727.498 135.021C724.739 120.042 708.585 111.927 691.417 116.896C674.248 121.865 662.566 138.035 665.325 153.014C668.084 167.993 684.238 176.108 701.407 171.14Z" fill="url(#paint40_radial_1338_42245)"/>
<path style="mix-blend-mode:screen" d="M472.925 122.596C474.784 107.401 451.286 90.2745 420.44 84.3438C389.594 78.4131 363.081 85.9235 361.222 101.119C359.363 116.314 382.861 133.44 413.707 139.371C444.553 145.302 471.066 137.791 472.925 122.596Z" fill="url(#paint41_radial_1338_42245)"/>
<path style="mix-blend-mode:screen" d="M350.967 154.937C350.452 164.332 311.862 168.625 264.792 164.553C217.707 160.464 179.968 149.558 180.483 140.163C180.997 130.768 219.588 126.476 266.658 130.547C313.743 134.636 351.481 145.542 350.967 154.937Z" fill="url(#paint42_radial_1338_42245)"/>
<path style="mix-blend-mode:screen" d="M356.038 44.2953C357.214 53.5983 320.401 68.6857 273.801 77.9887C227.201 87.3101 188.464 87.3285 187.273 78.0255C186.083 68.7225 222.91 53.6351 269.51 44.3321C316.11 35.0291 354.848 34.9923 356.038 44.2953Z" fill="url(#paint43_radial_1338_42245)"/>
<path style="mix-blend-mode:screen" d="M713.302 101.787C714.217 85.2119 689.564 69.5718 658.237 66.8534C626.911 64.1349 600.774 75.3676 599.858 91.9422C598.943 108.517 623.596 124.157 654.923 126.875C686.249 129.594 712.386 118.361 713.302 101.787Z" fill="url(#paint44_radial_1338_42245)"/>
<path style="mix-blend-mode:screen" d="M595.531 203.847C595.017 213.15 580.336 219.469 562.731 217.94C545.125 216.411 531.267 207.624 531.781 198.321C532.296 189.018 546.977 182.699 564.582 184.228C582.187 185.757 596.045 194.544 595.531 203.847Z" fill="url(#paint45_radial_1338_42245)"/>
<path style="mix-blend-mode:screen" d="M839.935 173.691C839.626 179.384 830.647 183.234 819.905 182.294C809.148 181.355 800.698 175.994 801.006 170.302C801.315 164.609 810.294 160.759 821.036 161.699C831.794 162.638 840.244 167.999 839.935 173.691Z" fill="url(#paint46_radial_1338_42245)"/>
<path style="mix-blend-mode:screen" d="M478.878 179.291C478.187 184.928 466.196 187.286 452.073 184.578C437.965 181.87 427.076 175.09 427.766 169.472C428.457 163.853 440.449 161.477 454.571 164.185C468.679 166.893 479.569 173.672 478.878 179.291Z" fill="url(#paint47_radial_1338_42245)"/>
<path style="mix-blend-mode:screen" d="M182.207 139.023C184.067 131.14 169.56 118.814 149.807 111.494C130.053 104.173 112.532 104.629 110.673 112.512C108.814 120.395 123.32 132.721 143.074 140.042C162.827 147.362 180.348 146.906 182.207 139.023Z" fill="url(#paint48_radial_1338_42245)"/>
<path style="mix-blend-mode:screen" d="M1012.23 86.9961C1014.09 79.1128 999.579 66.7875 979.825 59.4666C960.072 52.1458 942.551 52.6018 940.692 60.4851C938.832 68.3684 953.339 80.694 973.092 88.0148C992.846 95.3356 1010.37 94.8794 1012.23 86.9961Z" fill="url(#paint49_radial_1338_42245)"/>
<path style="mix-blend-mode:screen" d="M1048.14 120.43C1050 112.547 1035.49 100.222 1015.74 92.9009C995.986 85.5801 978.465 86.0361 976.606 93.9194C974.746 101.803 989.253 114.128 1009.01 121.449C1028.76 128.77 1046.28 128.314 1048.14 120.43Z" fill="url(#paint50_radial_1338_42245)"/>
<path style="mix-blend-mode:screen" d="M933.561 125.057C933.37 133.273 916.529 139.334 895.941 138.579C875.352 137.824 858.819 130.565 859.01 122.349C859.201 114.133 876.043 108.072 896.631 108.828C917.22 109.583 933.752 116.841 933.561 125.057Z" fill="url(#paint51_radial_1338_42245)"/>
<path style="mix-blend-mode:screen" d="M395.333 177.191C396.273 180.544 390.233 186.273 381.842 189.976C373.451 193.679 365.883 193.973 364.942 190.621C364.002 187.268 370.042 181.539 378.433 177.836C386.824 174.133 394.392 173.838 395.333 177.191Z" fill="url(#paint52_radial_1338_42245)"/>
<path style="mix-blend-mode:screen" d="M385.341 203.958C385.032 209.65 356.596 211.806 321.826 208.803C287.071 205.782 259.135 198.745 259.458 193.052C259.766 187.36 288.203 185.205 322.972 188.208C357.728 191.229 385.664 198.266 385.341 203.958Z" fill="url(#paint53_radial_1338_42245)"/>
<path style="mix-blend-mode:screen" d="M550.755 216.706C550.358 219.912 543.539 221.256 535.516 219.709C527.492 218.161 521.305 214.311 521.702 211.106C522.098 207.901 528.917 206.556 536.941 208.103C544.965 209.651 551.152 213.501 550.755 216.706Z" fill="url(#paint54_radial_1338_42245)"/>
<path style="mix-blend-mode:screen" d="M523.273 205.837C522.244 208.803 508.019 203.884 491.516 194.857C475.013 185.831 462.463 176.086 463.506 173.12C464.549 170.154 478.76 175.072 495.263 184.099C511.766 193.126 524.316 202.871 523.273 205.837Z" fill="url(#paint55_radial_1338_42245)"/>
</g>
<defs>
<linearGradient id="paint0_linear_1338_42245" x1="906.75" y1="38.9178" x2="906.75" y2="380.144" gradientUnits="userSpaceOnUse">
<stop stop-color="white"/>
<stop offset="0.12" stop-color="#E8E8E8"/>
<stop offset="0.36" stop-color="#ADADAD"/>
<stop offset="0.71" stop-color="#515151"/>
<stop offset="1"/>
</linearGradient>
<linearGradient id="paint1_linear_1338_42245" x1="149.632" y1="38.9179" x2="149.632" y2="380.144" gradientUnits="userSpaceOnUse">
<stop stop-color="white"/>
<stop offset="0.12" stop-color="#E8E8E8"/>
<stop offset="0.36" stop-color="#ADADAD"/>
<stop offset="0.71" stop-color="#515151"/>
<stop offset="1"/>
</linearGradient>
<linearGradient id="paint2_linear_1338_42245" x1="124.062" y1="38.8987" x2="124.062" y2="380.144" gradientUnits="userSpaceOnUse">
<stop stop-color="white"/>
<stop offset="0.12" stop-color="#E8E8E8"/>
<stop offset="0.36" stop-color="#ADADAD"/>
<stop offset="0.71" stop-color="#515151"/>
<stop offset="1"/>
</linearGradient>
<linearGradient id="paint3_linear_1338_42245" x1="170.25" y1="38.8991" x2="170.25" y2="380.141" gradientUnits="userSpaceOnUse">
<stop stop-color="white"/>
<stop offset="0.12" stop-color="#E8E8E8"/>
<stop offset="0.36" stop-color="#ADADAD"/>
<stop offset="0.71" stop-color="#515151"/>
<stop offset="1"/>
</linearGradient>
<linearGradient id="paint4_linear_1338_42245" x1="944.312" y1="38.9174" x2="944.312" y2="380.144" gradientUnits="userSpaceOnUse">
<stop stop-color="white"/>
<stop offset="0.12" stop-color="#E8E8E8"/>
<stop offset="0.36" stop-color="#ADADAD"/>
<stop offset="0.71" stop-color="#515151"/>
<stop offset="1"/>
</linearGradient>
<linearGradient id="paint5_linear_1338_42245" x1="1138.55" y1="38.9179" x2="1138.55" y2="380.144" gradientUnits="userSpaceOnUse">
<stop stop-color="white"/>
<stop offset="0.12" stop-color="#E8E8E8"/>
<stop offset="0.36" stop-color="#ADADAD"/>
<stop offset="0.71" stop-color="#515151"/>
<stop offset="1"/>
</linearGradient>
<linearGradient id="paint6_linear_1338_42245" x1="579.199" y1="38.9169" x2="579.199" y2="380.143" gradientUnits="userSpaceOnUse">
<stop stop-color="white"/>
<stop offset="0.12" stop-color="#E8E8E8"/>
<stop offset="0.36" stop-color="#ADADAD"/>
<stop offset="0.71" stop-color="#515151"/>
<stop offset="1"/>
</linearGradient>
<linearGradient id="paint7_linear_1338_42245" x1="791.771" y1="30.387" x2="791.771" y2="385.982" gradientUnits="userSpaceOnUse">
<stop stop-color="white"/>
<stop offset="0.12" stop-color="#E8E8E8"/>
<stop offset="0.36" stop-color="#ADADAD"/>
<stop offset="0.71" stop-color="#515151"/>
<stop offset="1"/>
</linearGradient>
<linearGradient id="paint8_linear_1338_42245" x1="415.093" y1="38.917" x2="415.093" y2="380.143" gradientUnits="userSpaceOnUse">
<stop stop-color="white"/>
<stop offset="0.12" stop-color="#E8E8E8"/>
<stop offset="0.36" stop-color="#ADADAD"/>
<stop offset="0.71" stop-color="#515151"/>
<stop offset="1"/>
</linearGradient>
<linearGradient id="paint9_linear_1338_42245" x1="408.186" y1="38.9172" x2="408.186" y2="380.144" gradientUnits="userSpaceOnUse">
<stop stop-color="white"/>
<stop offset="0.12" stop-color="#E8E8E8"/>
<stop offset="0.36" stop-color="#ADADAD"/>
<stop offset="0.71" stop-color="#515151"/>
<stop offset="1"/>
</linearGradient>
<linearGradient id="paint10_linear_1338_42245" x1="1113.36" y1="38.899" x2="1113.36" y2="380.143" gradientUnits="userSpaceOnUse">
<stop stop-color="white"/>
<stop offset="0.12" stop-color="#E8E8E8"/>
<stop offset="0.36" stop-color="#ADADAD"/>
<stop offset="0.71" stop-color="#515151"/>
<stop offset="1"/>
</linearGradient>
<linearGradient id="paint11_linear_1338_42245" x1="831.141" y1="38.9184" x2="831.141" y2="380.125" gradientUnits="userSpaceOnUse">
<stop stop-color="white"/>
<stop offset="0.12" stop-color="#E8E8E8"/>
<stop offset="0.36" stop-color="#ADADAD"/>
<stop offset="0.71" stop-color="#515151"/>
<stop offset="1"/>
</linearGradient>
<linearGradient id="paint12_linear_1338_42245" x1="763.791" y1="38.8983" x2="763.791" y2="380.143" gradientUnits="userSpaceOnUse">
<stop stop-color="white"/>
<stop offset="0.12" stop-color="#E8E8E8"/>
<stop offset="0.36" stop-color="#ADADAD"/>
<stop offset="0.71" stop-color="#515151"/>
<stop offset="1"/>
</linearGradient>
<linearGradient id="paint13_linear_1338_42245" x1="852.802" y1="38.8986" x2="852.802" y2="380.143" gradientUnits="userSpaceOnUse">
<stop stop-color="white"/>
<stop offset="0.12" stop-color="#E8E8E8"/>
<stop offset="0.36" stop-color="#ADADAD"/>
<stop offset="0.71" stop-color="#515151"/>
<stop offset="1"/>
</linearGradient>
<linearGradient id="paint14_linear_1338_42245" x1="1067.7" y1="38.9161" x2="1067.7" y2="380.143" gradientUnits="userSpaceOnUse">
<stop stop-color="white"/>
<stop offset="0.12" stop-color="#E8E8E8"/>
<stop offset="0.36" stop-color="#ADADAD"/>
<stop offset="0.71" stop-color="#515151"/>
<stop offset="1"/>
</linearGradient>
<radialGradient id="paint15_radial_1338_42245" cx="0" cy="0" r="1" gradientUnits="userSpaceOnUse" gradientTransform="translate(432.732 101.393) rotate(23.9839) scale(48.0073 5.18434)">
<stop offset="0.2" stop-color="#E7E7E7"/>
<stop offset="0.27" stop-color="#BDBDBD"/>
<stop offset="0.37" stop-color="#8B8B8B"/>
<stop offset="0.47" stop-color="#616161"/>
<stop offset="0.58" stop-color="#3D3D3D"/>
<stop offset="0.68" stop-color="#222222"/>
<stop offset="0.78" stop-color="#0F0F0F"/>
<stop offset="0.89" stop-color="#030303"/>
<stop offset="1"/>
</radialGradient>
<radialGradient id="paint16_radial_1338_42245" cx="0" cy="0" r="1" gradientUnits="userSpaceOnUse" gradientTransform="translate(227.006 -154.599) rotate(54.9099) scale(40.8995 2.53086)">
<stop stop-color="#E7E7E7"/>
<stop offset="0.03" stop-color="#CACACA"/>
<stop offset="0.08" stop-color="#A0A0A0"/>
<stop offset="0.13" stop-color="#7A7A7A"/>
<stop offset="0.19" stop-color="#585858"/>
<stop offset="0.25" stop-color="#3D3D3D"/>
<stop offset="0.33" stop-color="#262626"/>
<stop offset="0.41" stop-color="#151515"/>
<stop offset="0.51" stop-color="#080808"/>
<stop offset="0.65" stop-color="#010101"/>
<stop offset="1"/>
</radialGradient>
<radialGradient id="paint17_radial_1338_42245" cx="0" cy="0" r="1" gradientUnits="userSpaceOnUse" gradientTransform="translate(-201.629 298.84) rotate(160.409) scale(30.4956 3.39844)">
<stop stop-color="#E7E7E7"/>
<stop offset="0.03" stop-color="#CACACA"/>
<stop offset="0.08" stop-color="#A0A0A0"/>
<stop offset="0.13" stop-color="#7A7A7A"/>
<stop offset="0.19" stop-color="#585858"/>
<stop offset="0.25" stop-color="#3D3D3D"/>
<stop offset="0.33" stop-color="#262626"/>
<stop offset="0.41" stop-color="#151515"/>
<stop offset="0.51" stop-color="#080808"/>
<stop offset="0.65" stop-color="#010101"/>
<stop offset="1"/>
</radialGradient>
<radialGradient id="paint18_radial_1338_42245" cx="0" cy="0" r="1" gradientUnits="userSpaceOnUse" gradientTransform="translate(189.12 67.6641) rotate(16.883) scale(38.2594 4.26095)">
<stop offset="0.2" stop-color="#E7E7E7"/>
<stop offset="0.27" stop-color="#BDBDBD"/>
<stop offset="0.37" stop-color="#8B8B8B"/>
<stop offset="0.47" stop-color="#616161"/>
<stop offset="0.58" stop-color="#3D3D3D"/>
<stop offset="0.68" stop-color="#222222"/>
<stop offset="0.78" stop-color="#0F0F0F"/>
<stop offset="0.89" stop-color="#030303"/>
<stop offset="1"/>
</radialGradient>
<radialGradient id="paint19_radial_1338_42245" cx="0" cy="0" r="1" gradientUnits="userSpaceOnUse" gradientTransform="translate(64.6474 -64.9796) rotate(49.1469) scale(32.4579 2.10252)">
<stop stop-color="#E7E7E7"/>
<stop offset="0.03" stop-color="#CACACA"/>
<stop offset="0.08" stop-color="#A0A0A0"/>
<stop offset="0.13" stop-color="#7A7A7A"/>
<stop offset="0.19" stop-color="#585858"/>
<stop offset="0.25" stop-color="#3D3D3D"/>
<stop offset="0.33" stop-color="#262626"/>
<stop offset="0.41" stop-color="#151515"/>
<stop offset="0.51" stop-color="#080808"/>
<stop offset="0.65" stop-color="#010101"/>
<stop offset="1"/>
</radialGradient>
<radialGradient id="paint20_radial_1338_42245" cx="0" cy="0" r="1" gradientUnits="userSpaceOnUse" gradientTransform="translate(-376.879 337.648) rotate(153.395) scale(25.1858 2.71292)">
<stop stop-color="#E7E7E7"/>
<stop offset="0.03" stop-color="#CACACA"/>
<stop offset="0.08" stop-color="#A0A0A0"/>
<stop offset="0.13" stop-color="#7A7A7A"/>
<stop offset="0.19" stop-color="#585858"/>
<stop offset="0.25" stop-color="#3D3D3D"/>
<stop offset="0.33" stop-color="#262626"/>
<stop offset="0.41" stop-color="#151515"/>
<stop offset="0.51" stop-color="#080808"/>
<stop offset="0.65" stop-color="#010101"/>
<stop offset="1"/>
</radialGradient>
<radialGradient id="paint21_radial_1338_42245" cx="0" cy="0" r="1" gradientUnits="userSpaceOnUse" gradientTransform="translate(646.514 97.0765) rotate(-8.53877) scale(46.7305 5.32599)">
<stop offset="0.2" stop-color="#E7E7E7"/>
<stop offset="0.27" stop-color="#BDBDBD"/>
<stop offset="0.37" stop-color="#8B8B8B"/>
<stop offset="0.47" stop-color="#616161"/>
<stop offset="0.58" stop-color="#3D3D3D"/>
<stop offset="0.68" stop-color="#222222"/>
<stop offset="0.78" stop-color="#0F0F0F"/>
<stop offset="0.89" stop-color="#030303"/>
<stop offset="1"/>
</radialGradient>
<radialGradient id="paint22_radial_1338_42245" cx="0" cy="0" r="1" gradientUnits="userSpaceOnUse" gradientTransform="translate(501.891 18.526) rotate(27.1622) scale(37.0039 2.7973)">
<stop stop-color="#E7E7E7"/>
<stop offset="0.03" stop-color="#CACACA"/>
<stop offset="0.08" stop-color="#A0A0A0"/>
<stop offset="0.13" stop-color="#7A7A7A"/>
<stop offset="0.19" stop-color="#585858"/>
<stop offset="0.25" stop-color="#3D3D3D"/>
<stop offset="0.33" stop-color="#262626"/>
<stop offset="0.41" stop-color="#151515"/>
<stop offset="0.51" stop-color="#080808"/>
<stop offset="0.65" stop-color="#010101"/>
<stop offset="1"/>
</radialGradient>
<radialGradient id="paint23_radial_1338_42245" cx="0" cy="0" r="1" gradientUnits="userSpaceOnUse" gradientTransform="translate(123.856 698.19) rotate(131.321) scale(33.4979 3.09385)">
<stop stop-color="#E7E7E7"/>
<stop offset="0.03" stop-color="#CACACA"/>
<stop offset="0.08" stop-color="#A0A0A0"/>
<stop offset="0.13" stop-color="#7A7A7A"/>
<stop offset="0.19" stop-color="#585858"/>
<stop offset="0.25" stop-color="#3D3D3D"/>
<stop offset="0.33" stop-color="#262626"/>
<stop offset="0.41" stop-color="#151515"/>
<stop offset="0.51" stop-color="#080808"/>
<stop offset="0.65" stop-color="#010101"/>
<stop offset="1"/>
</radialGradient>
<radialGradient id="paint24_radial_1338_42245" cx="0" cy="0" r="1" gradientUnits="userSpaceOnUse" gradientTransform="translate(854.941 110.426) rotate(17.3443) scale(47.3137 5.26036)">
<stop stop-color="#E7E7E7"/>
<stop offset="0.03" stop-color="#CACACA"/>
<stop offset="0.08" stop-color="#A0A0A0"/>
<stop offset="0.13" stop-color="#7A7A7A"/>
<stop offset="0.19" stop-color="#585858"/>
<stop offset="0.25" stop-color="#3D3D3D"/>
<stop offset="0.33" stop-color="#262626"/>
<stop offset="0.41" stop-color="#151515"/>
<stop offset="0.51" stop-color="#080808"/>
<stop offset="0.65" stop-color="#010101"/>
<stop offset="1"/>
</radialGradient>
<radialGradient id="paint25_radial_1338_42245" cx="0" cy="0" r="1" gradientUnits="userSpaceOnUse" gradientTransform="translate(622.552 -150.347) rotate(49.5236) scale(40.0342 2.58555)">
<stop stop-color="#E7E7E7"/>
<stop offset="0.03" stop-color="#CACACA"/>
<stop offset="0.08" stop-color="#A0A0A0"/>
<stop offset="0.13" stop-color="#7A7A7A"/>
<stop offset="0.19" stop-color="#585858"/>
<stop offset="0.25" stop-color="#3D3D3D"/>
<stop offset="0.33" stop-color="#262626"/>
<stop offset="0.41" stop-color="#151515"/>
<stop offset="0.51" stop-color="#080808"/>
<stop offset="0.65" stop-color="#010101"/>
<stop offset="1"/>
</radialGradient>
<radialGradient id="paint26_radial_1338_42245" cx="0" cy="0" r="1" gradientUnits="userSpaceOnUse" gradientTransform="translate(116.157 460.284) rotate(153.837) scale(30.9809 3.3452)">
<stop stop-color="#E7E7E7"/>
<stop offset="0.03" stop-color="#CACACA"/>
<stop offset="0.08" stop-color="#A0A0A0"/>
<stop offset="0.13" stop-color="#7A7A7A"/>
<stop offset="0.19" stop-color="#585858"/>
<stop offset="0.25" stop-color="#3D3D3D"/>
<stop offset="0.33" stop-color="#262626"/>
<stop offset="0.41" stop-color="#151515"/>
<stop offset="0.51" stop-color="#080808"/>
<stop offset="0.65" stop-color="#010101"/>
<stop offset="1"/>
</radialGradient>
<radialGradient id="paint27_radial_1338_42245" cx="0" cy="0" r="1" gradientUnits="userSpaceOnUse" gradientTransform="translate(886.115 56.5891) rotate(-14.3934) scale(47.0747 5.28705)">
<stop stop-color="#E7E7E7"/>
<stop offset="0.03" stop-color="#CACACA"/>
<stop offset="0.08" stop-color="#A0A0A0"/>
<stop offset="0.13" stop-color="#7A7A7A"/>
<stop offset="0.19" stop-color="#585858"/>
<stop offset="0.25" stop-color="#3D3D3D"/>
<stop offset="0.33" stop-color="#262626"/>
<stop offset="0.41" stop-color="#151515"/>
<stop offset="0.51" stop-color="#080808"/>
<stop offset="0.65" stop-color="#010101"/>
<stop offset="1"/>
</radialGradient>
<radialGradient id="paint28_radial_1338_42245" cx="0" cy="0" r="1" gradientUnits="userSpaceOnUse" gradientTransform="translate(699.946 -23.1038) rotate(21.578) scale(36.4826 2.83726)">
<stop stop-color="#E7E7E7"/>
<stop offset="0.03" stop-color="#CACACA"/>
<stop offset="0.08" stop-color="#A0A0A0"/>
<stop offset="0.13" stop-color="#7A7A7A"/>
<stop offset="0.19" stop-color="#585858"/>
<stop offset="0.25" stop-color="#3D3D3D"/>
<stop offset="0.33" stop-color="#262626"/>
<stop offset="0.41" stop-color="#151515"/>
<stop offset="0.51" stop-color="#080808"/>
<stop offset="0.65" stop-color="#010101"/>
<stop offset="1"/>
</radialGradient>
<radialGradient id="paint29_radial_1338_42245" cx="0" cy="0" r="1" gradientUnits="userSpaceOnUse" gradientTransform="translate(371.045 753.49) rotate(126.684) scale(34.1207 3.03739)">
<stop stop-color="#E7E7E7"/>
<stop offset="0.03" stop-color="#CACACA"/>
<stop offset="0.08" stop-color="#A0A0A0"/>
<stop offset="0.13" stop-color="#7A7A7A"/>
<stop offset="0.19" stop-color="#585858"/>
<stop offset="0.25" stop-color="#3D3D3D"/>
<stop offset="0.33" stop-color="#262626"/>
<stop offset="0.41" stop-color="#151515"/>
<stop offset="0.51" stop-color="#080808"/>
<stop offset="0.65" stop-color="#010101"/>
<stop offset="1"/>
</radialGradient>
<radialGradient id="paint30_radial_1338_42245" cx="0" cy="0" r="1" gradientUnits="userSpaceOnUse" gradientTransform="translate(231.243 72.4342) rotate(-16.2138) scale(37.2134 4.15436)">
<stop stop-color="#E7E7E7"/>
<stop offset="0.03" stop-color="#CACACA"/>
<stop offset="0.08" stop-color="#A0A0A0"/>
<stop offset="0.13" stop-color="#7A7A7A"/>
<stop offset="0.19" stop-color="#585858"/>
<stop offset="0.25" stop-color="#3D3D3D"/>
<stop offset="0.33" stop-color="#262626"/>
<stop offset="0.41" stop-color="#151515"/>
<stop offset="0.51" stop-color="#080808"/>
<stop offset="0.65" stop-color="#010101"/>
<stop offset="1"/>
</radialGradient>
<radialGradient id="paint31_radial_1338_42245" cx="0" cy="0" r="1" gradientUnits="userSpaceOnUse" gradientTransform="translate(276.277 63.2768) rotate(19.8071) scale(28.8863 2.26405)">
<stop stop-color="#E7E7E7"/>
<stop offset="0.03" stop-color="#CACACA"/>
<stop offset="0.08" stop-color="#A0A0A0"/>
<stop offset="0.13" stop-color="#7A7A7A"/>
<stop offset="0.19" stop-color="#585858"/>
<stop offset="0.25" stop-color="#3D3D3D"/>
<stop offset="0.33" stop-color="#262626"/>
<stop offset="0.41" stop-color="#151515"/>
<stop offset="0.51" stop-color="#080808"/>
<stop offset="0.65" stop-color="#010101"/>
<stop offset="1"/>
</radialGradient>
<radialGradient id="paint32_radial_1338_42245" cx="0" cy="0" r="1" gradientUnits="userSpaceOnUse" gradientTransform="translate(-165.001 673.771) rotate(125.261) scale(27.2748 2.40076)">
<stop stop-color="#E7E7E7"/>
<stop offset="0.03" stop-color="#CACACA"/>
<stop offset="0.08" stop-color="#A0A0A0"/>
<stop offset="0.13" stop-color="#7A7A7A"/>
<stop offset="0.19" stop-color="#585858"/>
<stop offset="0.25" stop-color="#3D3D3D"/>
<stop offset="0.33" stop-color="#262626"/>
<stop offset="0.41" stop-color="#151515"/>
<stop offset="0.51" stop-color="#080808"/>
<stop offset="0.65" stop-color="#010101"/>
<stop offset="1"/>
</radialGradient>
<radialGradient id="paint33_radial_1338_42245" cx="0" cy="0" r="1" gradientUnits="userSpaceOnUse" gradientTransform="translate(473.57 86.2903) rotate(-26.9768) scale(38.1366 4.05379)">
<stop stop-color="#E7E7E7"/>
<stop offset="0.03" stop-color="#CACACA"/>
<stop offset="0.08" stop-color="#A0A0A0"/>
<stop offset="0.13" stop-color="#7A7A7A"/>
<stop offset="0.19" stop-color="#585858"/>
<stop offset="0.25" stop-color="#3D3D3D"/>
<stop offset="0.33" stop-color="#262626"/>
<stop offset="0.41" stop-color="#151515"/>
<stop offset="0.51" stop-color="#080808"/>
<stop offset="0.65" stop-color="#010101"/>
<stop offset="1"/>
</radialGradient>
<radialGradient id="paint34_radial_1338_42245" cx="0" cy="0" r="1" gradientUnits="userSpaceOnUse" gradientTransform="translate(532.003 58.6273) rotate(8.72527) scale(28.3959 2.30316)">
<stop stop-color="#E7E7E7"/>
<stop offset="0.03" stop-color="#CACACA"/>
<stop offset="0.08" stop-color="#A0A0A0"/>
<stop offset="0.13" stop-color="#7A7A7A"/>
<stop offset="0.19" stop-color="#585858"/>
<stop offset="0.25" stop-color="#3D3D3D"/>
<stop offset="0.33" stop-color="#262626"/>
<stop offset="0.41" stop-color="#151515"/>
<stop offset="0.51" stop-color="#080808"/>
<stop offset="0.65" stop-color="#010101"/>
<stop offset="1"/>
</radialGradient>
<radialGradient id="paint35_radial_1338_42245" cx="0" cy="0" r="1" gradientUnits="userSpaceOnUse" gradientTransform="translate(133.348 826.08) rotate(116.949) scale(28.1525 2.32591)">
<stop stop-color="#E7E7E7"/>
<stop offset="0.03" stop-color="#CACACA"/>
<stop offset="0.08" stop-color="#A0A0A0"/>
<stop offset="0.13" stop-color="#7A7A7A"/>
<stop offset="0.19" stop-color="#585858"/>
<stop offset="0.25" stop-color="#3D3D3D"/>
<stop offset="0.33" stop-color="#262626"/>
<stop offset="0.41" stop-color="#151515"/>
<stop offset="0.51" stop-color="#080808"/>
<stop offset="0.65" stop-color="#010101"/>
<stop offset="1"/>
</radialGradient>
<radialGradient id="paint36_radial_1338_42245" cx="0" cy="0" r="1" gradientUnits="userSpaceOnUse" gradientTransform="translate(532.868 124.277) rotate(-6.23375) scale(57.1215 10.4317)">
<stop offset="0.2" stop-color="#E7E7E7"/>
<stop offset="0.27" stop-color="#BDBDBD"/>
<stop offset="0.37" stop-color="#8B8B8B"/>
<stop offset="0.47" stop-color="#616161"/>
<stop offset="0.58" stop-color="#3D3D3D"/>
<stop offset="0.68" stop-color="#222222"/>
<stop offset="0.78" stop-color="#0F0F0F"/>
<stop offset="0.89" stop-color="#030303"/>
<stop offset="1"/>
</radialGradient>
<radialGradient id="paint37_radial_1338_42245" cx="0" cy="0" r="1" gradientUnits="userSpaceOnUse" gradientTransform="translate(535.088 127.501) rotate(46.468) scale(53.529 4.67104)">
<stop stop-color="#E7E7E7"/>
<stop offset="0.03" stop-color="#CACACA"/>
<stop offset="0.08" stop-color="#A0A0A0"/>
<stop offset="0.13" stop-color="#7A7A7A"/>
<stop offset="0.19" stop-color="#585858"/>
<stop offset="0.25" stop-color="#3D3D3D"/>
<stop offset="0.33" stop-color="#262626"/>
<stop offset="0.41" stop-color="#151515"/>
<stop offset="0.51" stop-color="#080808"/>
<stop offset="0.65" stop-color="#010101"/>
<stop offset="1"/>
</radialGradient>
<radialGradient id="paint38_radial_1338_42245" cx="0" cy="0" r="1" gradientUnits="userSpaceOnUse" gradientTransform="translate(529.474 122.253) rotate(123.816) scale(55.6274 4.49483)">
<stop stop-color="#E7E7E7"/>
<stop offset="0.03" stop-color="#CACACA"/>
<stop offset="0.08" stop-color="#A0A0A0"/>
<stop offset="0.13" stop-color="#7A7A7A"/>
<stop offset="0.19" stop-color="#585858"/>
<stop offset="0.25" stop-color="#3D3D3D"/>
<stop offset="0.33" stop-color="#262626"/>
<stop offset="0.41" stop-color="#151515"/>
<stop offset="0.51" stop-color="#080808"/>
<stop offset="0.65" stop-color="#010101"/>
<stop offset="1"/>
</radialGradient>
<radialGradient id="paint39_radial_1338_42245" cx="0" cy="0" r="1" gradientUnits="userSpaceOnUse" gradientTransform="translate(635.994 150.313) scale(31.9754 27.8353)">
<stop stop-color="#80CEF7"/>
<stop offset="0.13" stop-color="#436B81"/>
<stop offset="0.18" stop-color="#375769"/>
<stop offset="0.28" stop-color="#263C49"/>
<stop offset="0.38" stop-color="#18262E"/>
<stop offset="0.49" stop-color="#0D1519"/>
<stop offset="0.62" stop-color="#05090B"/>
<stop offset="0.76" stop-color="#010202"/>
<stop offset="1"/>
</radialGradient>
<radialGradient id="paint40_radial_1338_42245" cx="0" cy="0" r="1" gradientUnits="userSpaceOnUse" gradientTransform="translate(700.943 142.631) rotate(-16.1407) scale(32.4343 27.4414)">
<stop stop-color="#80CEF7"/>
<stop offset="0.13" stop-color="#436B81"/>
<stop offset="0.18" stop-color="#375769"/>
<stop offset="0.28" stop-color="#263C49"/>
<stop offset="0.38" stop-color="#18262E"/>
<stop offset="0.49" stop-color="#0D1519"/>
<stop offset="0.62" stop-color="#05090B"/>
<stop offset="0.76" stop-color="#010202"/>
<stop offset="1"/>
</radialGradient>
<radialGradient id="paint41_radial_1338_42245" cx="0" cy="0" r="1" gradientUnits="userSpaceOnUse" gradientTransform="translate(412.703 111.092) rotate(10.8834) scale(56.7701 27.6543)">
<stop stop-color="#80CEF7"/>
<stop offset="0.13" stop-color="#436B81"/>
<stop offset="0.18" stop-color="#375769"/>
<stop offset="0.28" stop-color="#263C49"/>
<stop offset="0.38" stop-color="#18262E"/>
<stop offset="0.49" stop-color="#0D1519"/>
<stop offset="0.62" stop-color="#05090B"/>
<stop offset="0.76" stop-color="#010202"/>
<stop offset="1"/>
</radialGradient>
<radialGradient id="paint42_radial_1338_42245" cx="0" cy="0" r="1" gradientUnits="userSpaceOnUse" gradientTransform="translate(270.208 147.318) rotate(4.94707) scale(85.6187 17.0171)">
<stop stop-color="#80CEF7"/>
<stop offset="0.1" stop-color="#40677D"/>
<stop offset="0.17" stop-color="#2F4C5B"/>
<stop offset="0.24" stop-color="#20343F"/>
<stop offset="0.32" stop-color="#142127"/>
<stop offset="0.41" stop-color="#0B1215"/>
<stop offset="0.52" stop-color="#040709"/>
<stop offset="0.67" stop-color="#010102"/>
<stop offset="1"/>
</radialGradient>
<radialGradient id="paint43_radial_1338_42245" cx="0" cy="0" r="1" gradientUnits="userSpaceOnUse" gradientTransform="translate(276.048 60.75) rotate(-11.3038) scale(86.1065 16.9207)">
<stop stop-color="#80CEF7"/>
<stop offset="0.1" stop-color="#40677D"/>
<stop offset="0.17" stop-color="#2F4C5B"/>
<stop offset="0.24" stop-color="#20343F"/>
<stop offset="0.32" stop-color="#142127"/>
<stop offset="0.41" stop-color="#0B1215"/>
<stop offset="0.52" stop-color="#040709"/>
<stop offset="0.67" stop-color="#010102"/>
<stop offset="1"/>
</radialGradient>
<radialGradient id="paint44_radial_1338_42245" cx="0" cy="0" r="1" gradientUnits="userSpaceOnUse" gradientTransform="translate(656.51 96.8213) rotate(4.95957) scale(56.9526 30.0419)">
<stop stop-color="#80CEF7"/>
<stop offset="0.13" stop-color="#436B81"/>
<stop offset="0.18" stop-color="#375769"/>
<stop offset="0.28" stop-color="#263C49"/>
<stop offset="0.38" stop-color="#18262E"/>
<stop offset="0.49" stop-color="#0D1519"/>
<stop offset="0.62" stop-color="#05090B"/>
<stop offset="0.76" stop-color="#010202"/>
<stop offset="1"/>
</radialGradient>
<radialGradient id="paint45_radial_1338_42245" cx="0" cy="0" r="1" gradientUnits="userSpaceOnUse" gradientTransform="translate(563.567 201.336) rotate(4.95957) scale(31.9814 16.8698)">
<stop stop-color="#80CEF7"/>
<stop offset="0.13" stop-color="#436B81"/>
<stop offset="0.18" stop-color="#375769"/>
<stop offset="0.28" stop-color="#263C49"/>
<stop offset="0.38" stop-color="#18262E"/>
<stop offset="0.49" stop-color="#0D1519"/>
<stop offset="0.62" stop-color="#05090B"/>
<stop offset="0.76" stop-color="#010202"/>
<stop offset="1"/>
</radialGradient>
<radialGradient id="paint46_radial_1338_42245" cx="0" cy="0" r="1" gradientUnits="userSpaceOnUse" gradientTransform="translate(819.131 174.059) rotate(4.95957) scale(19.543 10.3769)">
<stop stop-color="#80CEF7"/>
<stop offset="0.13" stop-color="#436B81"/>
<stop offset="0.18" stop-color="#375769"/>
<stop offset="0.28" stop-color="#263C49"/>
<stop offset="0.38" stop-color="#18262E"/>
<stop offset="0.49" stop-color="#0D1519"/>
<stop offset="0.62" stop-color="#05090B"/>
<stop offset="0.76" stop-color="#010202"/>
<stop offset="1"/>
</radialGradient>
<radialGradient id="paint47_radial_1338_42245" cx="0" cy="0" r="1" gradientUnits="userSpaceOnUse" gradientTransform="translate(458.058 177.436) rotate(10.8834) scale(26.0865 10.3234)">
<stop stop-color="#80CEF7"/>
<stop offset="0.13" stop-color="#436B81"/>
<stop offset="0.18" stop-color="#375769"/>
<stop offset="0.28" stop-color="#263C49"/>
<stop offset="0.38" stop-color="#18262E"/>
<stop offset="0.49" stop-color="#0D1519"/>
<stop offset="0.62" stop-color="#05090B"/>
<stop offset="0.76" stop-color="#010202"/>
<stop offset="1"/>
</radialGradient>
<radialGradient id="paint48_radial_1338_42245" cx="0" cy="0" r="1" gradientUnits="userSpaceOnUse" gradientTransform="translate(150.568 128.8) rotate(20.335) scale(38.199 14.6428)">
<stop stop-color="#80CEF7"/>
<stop offset="0.07" stop-color="#436B81"/>
<stop offset="0.13" stop-color="#375769"/>
<stop offset="0.23" stop-color="#263C49"/>
<stop offset="0.34" stop-color="#18262E"/>
<stop offset="0.46" stop-color="#0D1519"/>
<stop offset="0.59" stop-color="#05090B"/>
<stop offset="0.75" stop-color="#010202"/>
<stop offset="1"/>
</radialGradient>
<radialGradient id="paint49_radial_1338_42245" cx="0" cy="0" r="1" gradientUnits="userSpaceOnUse" gradientTransform="translate(982.509 75.2883) rotate(20.335) scale(38.199 14.6428)">
<stop stop-color="#80CEF7"/>
<stop offset="0.07" stop-color="#436B81"/>
<stop offset="0.13" stop-color="#375769"/>
<stop offset="0.23" stop-color="#263C49"/>
<stop offset="0.34" stop-color="#18262E"/>
<stop offset="0.46" stop-color="#0D1519"/>
<stop offset="0.59" stop-color="#05090B"/>
<stop offset="0.75" stop-color="#010202"/>
<stop offset="1"/>
</radialGradient>
<radialGradient id="paint50_radial_1338_42245" cx="0" cy="0" r="1" gradientUnits="userSpaceOnUse" gradientTransform="translate(1018.49 108.895) rotate(20.335) scale(38.199 14.6427)">
<stop stop-color="#80CEF7"/>
<stop offset="0.07" stop-color="#436B81"/>
<stop offset="0.13" stop-color="#375769"/>
<stop offset="0.23" stop-color="#263C49"/>
<stop offset="0.34" stop-color="#18262E"/>
<stop offset="0.46" stop-color="#0D1519"/>
<stop offset="0.59" stop-color="#05090B"/>
<stop offset="0.75" stop-color="#010202"/>
<stop offset="1"/>
</radialGradient>
<radialGradient id="paint51_radial_1338_42245" cx="0" cy="0" r="1" gradientUnits="userSpaceOnUse" gradientTransform="translate(902.063 124.461) rotate(2.08057) scale(37.3598 14.9716)">
<stop stop-color="#80CEF7"/>
<stop offset="0.07" stop-color="#436B81"/>
<stop offset="0.13" stop-color="#375769"/>
<stop offset="0.23" stop-color="#263C49"/>
<stop offset="0.34" stop-color="#18262E"/>
<stop offset="0.46" stop-color="#0D1519"/>
<stop offset="0.59" stop-color="#05090B"/>
<stop offset="0.75" stop-color="#010202"/>
<stop offset="1"/>
</radialGradient>
<radialGradient id="paint52_radial_1338_42245" cx="0" cy="0" r="1" gradientUnits="userSpaceOnUse" gradientTransform="translate(385.152 184.964) rotate(-23.8424) scale(16.6551 6.28083)">
<stop stop-color="#80CEF7"/>
<stop offset="0.13" stop-color="#436B81"/>
<stop offset="0.18" stop-color="#375769"/>
<stop offset="0.28" stop-color="#263C49"/>
<stop offset="0.38" stop-color="#18262E"/>
<stop offset="0.49" stop-color="#0D1519"/>
<stop offset="0.62" stop-color="#05090B"/>
<stop offset="0.76" stop-color="#010202"/>
<stop offset="1"/>
</radialGradient>
<radialGradient id="paint53_radial_1338_42245" cx="0" cy="0" r="1" gradientUnits="userSpaceOnUse" gradientTransform="translate(325.343 201.809) rotate(4.95957) scale(63.252 10.3769)">
<stop stop-color="#436B81"/>
<stop offset="0.06" stop-color="#375769"/>
<stop offset="0.17" stop-color="#263C49"/>
<stop offset="0.29" stop-color="#18262E"/>
<stop offset="0.42" stop-color="#0D1519"/>
<stop offset="0.56" stop-color="#05090B"/>
<stop offset="0.73" stop-color="#010202"/>
<stop offset="1"/>
</radialGradient>
<radialGradient id="paint54_radial_1338_42245" cx="0" cy="0" r="1" gradientUnits="userSpaceOnUse" gradientTransform="translate(541.114 217.154) rotate(10.8834) scale(14.8335 5.87018)">
<stop stop-color="#436B81"/>
<stop offset="0.06" stop-color="#375769"/>
<stop offset="0.17" stop-color="#263C49"/>
<stop offset="0.29" stop-color="#18262E"/>
<stop offset="0.42" stop-color="#0D1519"/>
<stop offset="0.56" stop-color="#05090B"/>
<stop offset="0.73" stop-color="#010202"/>
<stop offset="1"/>
</radialGradient>
<radialGradient id="paint55_radial_1338_42245" cx="0" cy="0" r="1" gradientUnits="userSpaceOnUse" gradientTransform="translate(493.766 190.495) rotate(28.6965) scale(34.0969 5.6555)">
<stop stop-color="#80CEF7"/>
<stop offset="0.13" stop-color="#436B81"/>
<stop offset="0.18" stop-color="#375769"/>
<stop offset="0.28" stop-color="#263C49"/>
<stop offset="0.38" stop-color="#18262E"/>
<stop offset="0.49" stop-color="#0D1519"/>
<stop offset="0.62" stop-color="#05090B"/>
<stop offset="0.76" stop-color="#010202"/>
<stop offset="1"/>
</radialGradient>
</defs>
</svg>
