<svg  viewBox="0 0 680 564" fill="none" xmlns="http://www.w3.org/2000/svg">
    <g clip-path="url(#clip0_3624_121526)">
    <path fill-rule="evenodd" clip-rule="evenodd" d="M0 14C0 6.26802 6.26801 0 14 0H666.051C673.783 0 680.051 6.26801 680.051 14V419.022C679.912 419.018 679.772 419.015 679.631 419.015C672.238 419.015 666.244 425.079 666.244 432.56C666.244 440.04 672.238 446.104 679.631 446.104C679.772 446.104 679.912 446.102 680.051 446.098V550C680.051 557.732 673.783 564 666.051 564H14C6.26801 564 0 557.732 0 550V446.098C7.19887 445.873 12.9665 439.898 12.9665 432.56C12.9665 425.222 7.19887 419.247 0 419.022V14Z" fill="white"/>
    <rect y="496" width="680" height="67.8491" rx="14.2793" fill="white"/>
    <g opacity="0.5">
    <path d="M650.1 23.9001C646.2 20.0001 639.8 20.0001 635.9 23.9001C632 27.8001 632 34.2001 635.9 38.1001C639.8 42.0001 646.1 42.0001 650 38.1001C653.9 34.2001 654 27.8001 650.1 23.9001ZM645.8 35.2001L643 32.4001L640.2 35.2001L638.8 33.8001L641.6 31.0001L638.8 28.2001L640.2 26.8001L643 29.6001L645.8 26.8001L647.2 28.2001L644.4 31.0001L647.2 33.8001L645.8 35.2001Z" fill="white"/>
    </g>
    </g>
    <defs>
    <clipPath id="clip0_3624_121526">
    <rect width="680" height="564" rx="14" fill="white"/>
    </clipPath>
    </defs>
    </svg>
    