<svg  viewBox="0 0 680 76" fill="none" xmlns="http://www.w3.org/2000/svg">
    <g clip-path="url(#clip0_3624_121531)">
    <path fill-rule="evenodd" clip-rule="evenodd" d="M-41 16.2554C-41 7.41882 -33.8366 0.255371 -25 0.255371H705C713.837 0.255371 721 7.41882 721 16.2554V72.3652C720.052 72.605 719.045 72.7357 718 72.7391C712.369 72.7574 707.788 69.0677 707.77 64.5001L690.154 64.5573L690.154 64.5714L689.529 64.5734C689.546 69.141 684.994 72.8604 679.362 72.8787C673.731 72.897 669.15 69.2073 669.132 64.6397L659.867 64.6698C659.885 69.2374 655.332 72.9568 649.701 72.9751C644.07 72.9934 639.488 69.3037 639.471 64.736L630.196 64.7662C630.213 69.3338 625.661 73.0532 620.029 73.0715C614.398 73.0898 609.817 69.4001 609.799 64.8325L600.524 64.8626C600.542 69.4302 595.989 73.1496 590.358 73.1679C584.727 73.1862 580.145 69.4965 580.128 64.9289L570.853 64.959C570.87 69.5266 566.318 73.246 560.686 73.2643C555.055 73.2826 550.474 69.5929 550.456 65.0253L541.181 65.0554C541.199 69.623 536.646 73.3425 531.015 73.3608C525.384 73.3791 520.802 69.6893 520.784 65.1217L511.51 65.1518C511.527 69.7195 506.974 73.4389 501.343 73.4572C495.712 73.4755 491.131 69.7857 491.113 65.2181L481.838 65.2482C481.856 69.8159 477.303 73.5353 471.672 73.5536C466.041 73.5719 461.459 69.8821 461.442 65.3145L443.825 65.3717L443.827 65.7199L440.872 65.7295C440.89 70.2971 436.337 74.0166 430.706 74.0349C425.074 74.0532 420.493 70.3634 420.475 65.7958L411.21 65.8259C411.228 70.3935 406.675 74.1129 401.044 74.1312C395.413 74.1495 390.832 70.4598 390.814 65.8922L381.539 65.9223C381.557 70.4899 377.004 74.2094 371.373 74.2276C365.741 74.2459 361.16 70.5562 361.142 65.9886L351.867 66.0187C351.885 70.5863 347.332 74.3058 341.701 74.3241C336.07 74.3424 331.488 70.6526 331.471 66.085L322.196 66.1151C322.214 70.6828 317.661 74.4022 312.03 74.4205C306.398 74.4388 301.817 70.749 301.799 66.1814L292.524 66.2115C292.542 70.7792 287.989 74.4986 282.358 74.5169C276.727 74.5352 272.145 70.8454 272.128 66.2778L262.853 66.3079C262.871 70.8756 258.318 74.595 252.687 74.6133C247.055 74.6316 242.474 70.9418 242.456 66.3742L233.181 66.4044C233.199 70.972 228.646 74.6914 223.015 74.7097C219.472 74.7212 216.344 73.2644 214.507 71.0445L214.488 66.1451L196.872 66.2024C196.872 66.3095 196.87 66.4162 196.866 66.5224L195.169 66.5279L195.185 70.7873C193.366 73.0191 190.249 74.4962 186.706 74.5077C181.074 74.526 176.493 70.8363 176.475 66.2687L167.21 66.2988C167.228 70.8664 162.675 74.5858 157.044 74.6041C151.413 74.6224 146.831 70.9327 146.814 66.365L137.539 66.3952C137.557 70.9628 133.004 74.6822 127.373 74.7005C121.741 74.7188 117.16 71.0291 117.142 66.4614L107.867 66.4916C107.885 71.0592 103.332 74.7786 97.7011 74.7969C92.07 74.8152 87.4885 71.1255 87.4708 66.5579L78.1959 66.588C78.2136 71.1556 73.6608 74.875 68.0296 74.8933C62.3985 74.9116 57.817 71.2219 57.7993 66.6543L48.5244 66.6844C48.5421 71.252 43.9893 74.9715 38.3581 74.9898C32.727 75.008 28.1454 71.3183 28.1278 66.7507L18.8529 66.7808C18.8706 71.3484 14.3178 75.0679 8.68661 75.0862C3.05544 75.1045 -1.52607 71.4147 -1.54374 66.8471L-10.8186 66.8772C-10.8009 71.4449 -15.3537 75.1643 -20.9849 75.1826C-26.6161 75.2009 -31.1976 71.5111 -31.2152 66.9435L-41 66.9753V16.2554Z" fill="url(#paint0_linear_3624_121531)"/>
    <g clip-path="url(#clip1_3624_121531)">
    <path d="M654.917 54.2899C654.767 54.2098 655.131 54.1549 655.129 53.9901C655.127 53.7909 654.38 53.5226 654.162 53.4582C653.99 53.4064 653.662 53.3154 653.662 53.3154C653.662 53.3154 653.415 53.102 652.981 52.8494C652.546 52.5952 652.348 52.5246 652.348 52.5246C652.348 52.5246 652.348 52.5246 652.345 52.5246C651.577 52.1747 650.671 51.9723 649.559 52.148C648.725 52.2798 648.435 52.6313 648.367 52.9734C648.367 52.9812 648.367 52.9875 648.363 52.9938C648.363 52.9953 648.363 52.9985 648.363 53C648.247 53.4708 648.513 53.7705 648.513 53.7705C648.513 53.7705 648.138 53.8128 647.961 53.6261C647.784 53.441 647.502 53.3139 647.315 53.4064C647.225 53.4519 647.101 53.5477 647.009 53.692C646.939 53.7375 646.898 53.7815 646.898 53.7815L646.928 53.7956C646.928 53.7956 646.948 53.7752 646.978 53.7501C646.97 53.7658 646.963 53.7815 646.954 53.7971C646.891 53.8364 646.861 53.874 646.858 53.8772L646.889 53.8897C646.889 53.8897 646.904 53.8709 646.933 53.8489C646.922 53.8772 646.915 53.9086 646.906 53.9384C646.845 53.9745 646.817 54.0074 646.817 54.009L646.847 54.0215C646.847 54.0215 646.865 54.0011 646.895 53.9792C646.891 54.0074 646.889 54.0404 646.887 54.0717C646.821 54.1141 646.815 54.1596 646.812 54.1628L646.847 54.1659C646.847 54.1659 646.852 54.1392 646.882 54.1125C646.882 54.1659 646.885 54.2239 646.895 54.2836C646.858 54.2647 646.847 54.2491 646.847 54.2491L646.815 54.2585C646.815 54.2585 646.834 54.2883 646.9 54.3165C646.9 54.3228 646.9 54.3275 646.9 54.3338C646.904 54.3573 646.911 54.3809 646.917 54.4028C646.898 54.3871 646.887 54.3762 646.885 54.3746L646.854 54.3887C646.854 54.3887 646.88 54.4154 646.926 54.4436C646.939 54.4891 646.957 54.5331 646.974 54.5739C646.95 54.5597 646.939 54.5488 646.937 54.5488L646.909 54.5629C646.909 54.5629 646.937 54.588 646.992 54.6147C647.02 54.6711 647.05 54.7245 647.085 54.7716C647.07 54.7653 647.061 54.759 647.061 54.759L647.04 54.7794C647.04 54.7794 647.072 54.7967 647.118 54.8155C647.288 55.0258 647.513 55.1183 647.692 55.0399C647.978 54.9128 648.136 54.6068 648.448 54.6178C648.448 54.6194 648.448 54.6209 648.448 54.6241C648.441 54.6335 648.43 54.6523 648.417 54.6806C648.417 54.6806 648.406 54.6994 648.391 54.7292C648.369 54.7669 648.345 54.8186 648.332 54.8861C648.299 55.0116 648.291 55.1701 648.398 55.2957C648.535 55.5624 648.922 55.8307 649.861 55.9468C650.858 56.0692 651.586 55.9814 652.081 55.8527C652.088 55.8527 652.092 55.8527 652.099 55.8496C652.103 55.8496 652.107 55.8464 652.112 55.8449C652.636 55.7052 652.889 55.5232 652.907 55.5091C652.955 55.4965 653.005 55.4824 653.053 55.4667C653.254 55.4071 653.446 55.3349 653.627 55.2533C653.616 55.2627 653.607 55.269 653.607 55.269C653.607 55.269 654.557 54.8202 654.653 54.7716C654.749 54.7229 655.073 54.5801 655.064 54.4248C655.062 54.373 654.99 54.3338 654.913 54.2946L654.917 54.2899Z" fill="#033345"/>
    <path d="M603.056 32.0645C602.938 32.0018 603.225 31.9578 603.222 31.8291C603.22 31.6722 602.637 31.4635 602.467 31.4133C602.331 31.3725 602.076 31.3019 602.076 31.3019C602.076 31.3019 601.884 31.1356 601.543 30.9363C601.203 30.7386 601.05 30.6821 601.05 30.6821C601.05 30.6821 601.05 30.6821 601.048 30.6821C600.447 30.4091 599.74 30.2506 598.871 30.3887C598.218 30.4923 597.993 30.7653 597.938 31.0336C597.938 31.0399 597.938 31.0446 597.936 31.0493C597.936 31.0493 597.936 31.0524 597.936 31.054C597.844 31.4212 598.054 31.6565 598.054 31.6565C598.054 31.6565 597.759 31.6895 597.622 31.5436C597.484 31.3976 597.264 31.2988 597.115 31.3725C597.045 31.4071 596.949 31.4824 596.877 31.5969C596.823 31.6314 596.79 31.666 596.79 31.6675L596.814 31.6785C596.814 31.6785 596.829 31.6628 596.853 31.6424C596.847 31.655 596.84 31.666 596.836 31.6785C596.786 31.7083 596.761 31.7381 596.759 31.7413L596.783 31.7507C596.783 31.7507 596.796 31.7366 596.818 31.7177C596.81 31.7397 596.805 31.7632 596.799 31.7884C596.751 31.8166 596.729 31.8417 596.729 31.8433L596.753 31.8527C596.753 31.8527 596.766 31.837 596.79 31.8197C596.786 31.8417 596.786 31.8668 596.783 31.8919C596.733 31.9249 596.727 31.9594 596.727 31.9625L596.755 31.9625C596.755 31.9625 596.759 31.9437 596.781 31.9217C596.781 31.9641 596.783 32.008 596.79 32.0551C596.761 32.041 596.753 32.0284 596.753 32.0284L596.727 32.0363C596.727 32.0363 596.742 32.0598 596.792 32.0818C596.792 32.0865 596.792 32.0896 596.792 32.0943C596.796 32.1132 596.801 32.1304 596.805 32.1492C596.79 32.1383 596.781 32.1288 596.781 32.1273L596.757 32.1383C596.757 32.1383 596.777 32.1602 596.814 32.1822C596.825 32.2183 596.838 32.2512 596.851 32.2842C596.831 32.2732 596.823 32.2654 596.823 32.2654L596.801 32.2763C596.801 32.2763 596.823 32.2967 596.866 32.3156C596.888 32.3595 596.912 32.4003 596.938 32.438C596.927 32.4333 596.919 32.4286 596.919 32.4286L596.901 32.4442C596.901 32.4442 596.927 32.4584 596.962 32.4725C597.096 32.6357 597.27 32.7094 597.412 32.6482C597.635 32.5494 597.757 32.3093 598.002 32.3187C598.002 32.3187 598.002 32.3219 598.002 32.3234C597.997 32.3297 597.989 32.3454 597.978 32.3674C597.978 32.3674 597.969 32.383 597.958 32.405C597.941 32.4348 597.923 32.4741 597.912 32.5274C597.886 32.6247 597.879 32.7487 597.965 32.8475C598.072 33.0562 598.375 33.2665 599.109 33.3559C599.888 33.4516 600.458 33.3826 600.845 33.2822C600.849 33.2822 600.853 33.2822 600.858 33.279C600.862 33.279 600.864 33.2759 600.869 33.2759C601.279 33.166 601.476 33.0248 601.491 33.0138C601.528 33.0044 601.567 32.9934 601.607 32.9809C601.764 32.9354 601.912 32.8773 602.056 32.8146C602.048 32.8224 602.041 32.8271 602.041 32.8271C602.041 32.8271 602.783 32.4772 602.858 32.438C602.932 32.3987 603.185 32.2889 603.179 32.1665C603.176 32.1257 603.12 32.0959 603.061 32.0645L603.056 32.0645Z" fill="#033345"/>
    <path d="M656.795 16.6453C656.66 16.5715 656.99 16.5229 656.987 16.3723C656.985 16.1903 656.308 15.9486 656.11 15.889C655.952 15.8419 655.656 15.7603 655.656 15.7603C655.656 15.7603 655.431 15.5673 655.038 15.3366C654.642 15.106 654.463 15.0417 654.463 15.0417C654.463 15.0417 654.463 15.0417 654.461 15.0417C653.765 14.7247 652.944 14.5411 651.933 14.6996C651.175 14.8188 650.913 15.1374 650.852 15.4481C650.852 15.4543 650.852 15.4606 650.848 15.4669C650.848 15.4685 650.848 15.47 650.848 15.4716C650.743 15.8984 650.985 16.1714 650.985 16.1714C650.985 16.1714 650.644 16.2091 650.483 16.0412C650.324 15.8733 650.066 15.7572 649.896 15.8419C649.813 15.8827 649.701 15.9706 649.618 16.1008C649.555 16.1416 649.518 16.1808 649.516 16.1824L649.542 16.195C649.542 16.195 649.559 16.1761 649.588 16.1542C649.581 16.1683 649.572 16.1824 649.566 16.1965C649.507 16.2326 649.481 16.2671 649.479 16.2687L649.507 16.2797C649.507 16.2797 649.52 16.2624 649.546 16.242C649.537 16.2671 649.531 16.2954 649.522 16.3236C649.468 16.3566 649.441 16.3864 649.441 16.3864L649.47 16.3974C649.47 16.3974 649.485 16.3785 649.513 16.3581C649.509 16.3848 649.509 16.4131 649.507 16.4413C649.448 16.479 649.441 16.5198 649.441 16.5245L649.474 16.5245C649.474 16.5245 649.479 16.5025 649.505 16.4774C649.505 16.526 649.507 16.5778 649.516 16.6327C649.483 16.6155 649.472 16.6014 649.472 16.6014L649.444 16.6108C649.444 16.6108 649.461 16.6374 649.52 16.6626C649.52 16.6673 649.52 16.672 649.52 16.6782C649.524 16.7002 649.531 16.7206 649.535 16.741C649.518 16.7269 649.507 16.7175 649.507 16.7159L649.481 16.7285C649.481 16.7285 649.505 16.7536 649.546 16.7787C649.559 16.8195 649.572 16.8603 649.59 16.8979C649.568 16.8854 649.557 16.876 649.557 16.876L649.531 16.8885C649.531 16.8885 649.555 16.912 649.607 16.934C649.631 16.9858 649.66 17.0329 649.693 17.0768C649.679 17.0705 649.671 17.0658 649.671 17.0658L649.651 17.0831C649.651 17.0831 649.679 17.0988 649.723 17.116C649.876 17.3059 650.081 17.3906 650.245 17.3184C650.505 17.2039 650.647 16.9246 650.931 16.9356C650.931 16.9372 650.931 16.9387 650.931 16.9403C650.926 16.9481 650.915 16.9654 650.902 16.9905C650.902 16.9905 650.891 17.0078 650.878 17.0344C650.858 17.069 650.837 17.1145 650.826 17.1757C650.795 17.2886 650.789 17.433 650.887 17.546C651.011 17.7876 651.363 18.0324 652.214 18.136C653.121 18.2474 653.78 18.1673 654.23 18.0512C654.234 18.0512 654.241 18.0512 654.245 18.0481C654.249 18.0481 654.254 18.045 654.258 18.0434C654.734 17.9163 654.963 17.7515 654.979 17.739C655.022 17.728 655.066 17.7154 655.112 17.7013C655.293 17.648 655.468 17.5805 655.634 17.5083C655.625 17.5162 655.616 17.5224 655.616 17.5224C655.616 17.5224 656.476 17.116 656.564 17.0705C656.651 17.0266 656.944 16.8964 656.935 16.7567C656.933 16.7096 656.867 16.6751 656.8 16.6374L656.795 16.6453Z" fill="#033345"/>
    <path d="M637.111 12.5218C637.021 12.4731 637.24 12.4402 637.238 12.3413C637.238 12.2205 636.786 12.0589 636.655 12.0196C636.55 11.9883 636.353 11.9333 636.353 11.9333C636.353 11.9333 636.205 11.8047 635.943 11.6525C635.681 11.5003 635.561 11.4563 635.561 11.4563C635.098 11.2461 634.552 11.1237 633.882 11.2288C633.379 11.3088 633.205 11.5191 633.163 11.7262C633.163 11.7309 633.163 11.7341 633.161 11.7388V11.7419C633.091 12.0259 633.253 12.2064 633.253 12.2064C633.253 12.2064 633.026 12.2315 632.919 12.1201C632.812 12.0087 632.641 11.9318 632.528 11.9883C632.473 12.0149 632.399 12.073 632.344 12.1609C632.303 12.1875 632.277 12.2142 632.277 12.2158L632.294 12.2236C632.294 12.2236 632.305 12.2111 632.325 12.1954C632.32 12.2048 632.316 12.2142 632.312 12.2236C632.272 12.2472 632.255 12.2707 632.253 12.2723L632.272 12.2801C632.272 12.2801 632.281 12.2691 632.299 12.255C632.292 12.2723 632.288 12.2911 632.283 12.3099C632.246 12.3319 632.229 12.3523 632.229 12.3523L632.246 12.3601C632.246 12.3601 632.257 12.3476 632.275 12.335C632.272 12.3523 632.27 12.3727 632.27 12.3899C632.231 12.4151 632.227 12.4417 632.227 12.4449L632.248 12.4449C632.248 12.4449 632.251 12.4307 632.27 12.4135C632.27 12.4464 632.27 12.481 632.277 12.517C632.255 12.5061 632.248 12.4966 632.248 12.4966L632.229 12.5029C632.229 12.5029 632.24 12.5218 632.279 12.5374C632.279 12.5406 632.279 12.5437 632.279 12.5469C632.281 12.561 632.286 12.5751 632.29 12.5892C632.277 12.5798 632.272 12.5735 632.27 12.572L632.253 12.5798C632.253 12.5798 632.268 12.5971 632.296 12.6128C632.305 12.641 632.314 12.6661 632.325 12.6912C632.31 12.6834 632.303 12.6771 632.303 12.6755L632.286 12.6849C632.286 12.6849 632.303 12.7006 632.336 12.7163C632.353 12.7508 632.371 12.7822 632.393 12.8105C632.384 12.8058 632.377 12.8026 632.377 12.8026L632.364 12.8152C632.364 12.8152 632.384 12.8262 632.412 12.8371C632.515 12.9642 632.65 13.0207 632.759 12.9721C632.932 12.8952 633.026 12.71 633.213 12.7179C633.213 12.7179 633.213 12.7195 633.213 12.721C633.209 12.7257 633.203 12.7383 633.194 12.754C633.194 12.754 633.187 12.7665 633.179 12.7838C633.165 12.8058 633.15 12.8371 633.144 12.8779C633.124 12.9533 633.12 13.049 633.183 13.1243C633.266 13.2843 633.5 13.4475 634.065 13.5166C634.665 13.5903 635.104 13.537 635.403 13.4601C635.408 13.4601 635.41 13.4601 635.414 13.4585C635.417 13.4585 635.421 13.457 635.423 13.4554C635.74 13.3706 635.89 13.2624 635.901 13.253C635.93 13.2451 635.96 13.2373 635.991 13.2279C636.111 13.1918 636.227 13.1478 636.336 13.0992C636.329 13.1055 636.325 13.1086 636.325 13.1086C636.325 13.1086 636.897 12.8387 636.956 12.8089C637.015 12.7791 637.209 12.6944 637.203 12.6002C637.203 12.5688 637.157 12.5453 637.113 12.5218L637.111 12.5218Z" fill="#033345"/>
    <path d="M632.144 47.1345C632.019 47.067 632.32 47.0215 632.318 46.885C632.316 46.7186 631.698 46.4974 631.517 46.444C631.373 46.4017 631.102 46.3264 631.102 46.3264C631.102 46.3264 630.897 46.1491 630.537 45.9388C630.176 45.7285 630.012 45.6689 630.012 45.6689C630.012 45.6689 630.012 45.6689 630.01 45.6689C629.375 45.3786 628.624 45.2123 627.7 45.3566C627.008 45.4649 626.77 45.7568 626.711 46.0408C626.711 46.0471 626.711 46.0518 626.709 46.058C626.709 46.0596 626.709 46.0612 626.709 46.0627C626.613 46.4535 626.833 46.7014 626.833 46.7014C626.833 46.7014 626.521 46.7359 626.375 46.5821C626.229 46.4284 625.995 46.3232 625.84 46.4001C625.766 46.4378 625.663 46.5178 625.587 46.637C625.528 46.6747 625.495 46.7108 625.493 46.7124L625.517 46.7233C625.517 46.7233 625.532 46.7061 625.558 46.6857C625.552 46.6982 625.545 46.7108 625.539 46.7249C625.486 46.7579 625.46 46.7892 625.458 46.7908L625.484 46.8002C625.484 46.8002 625.497 46.7845 625.521 46.7657C625.512 46.7892 625.506 46.8144 625.499 46.841C625.449 46.8708 625.425 46.8991 625.425 46.8991L625.451 46.9101C625.451 46.9101 625.467 46.8928 625.491 46.874C625.486 46.8975 625.486 46.9242 625.484 46.9509C625.429 46.9854 625.423 47.023 625.423 47.0262L625.451 47.0262C625.451 47.0262 625.456 47.0058 625.48 46.9838C625.48 47.0293 625.482 47.0764 625.491 47.125C625.46 47.1094 625.451 47.0968 625.451 47.0952L625.425 47.1031C625.425 47.1031 625.44 47.1282 625.495 47.1517C625.495 47.1564 625.495 47.1611 625.495 47.1658C625.499 47.1862 625.504 47.2051 625.508 47.2239C625.491 47.2113 625.484 47.2019 625.482 47.2004L625.458 47.2113C625.458 47.2113 625.48 47.2333 625.519 47.2568C625.53 47.2945 625.543 47.3306 625.558 47.3651C625.539 47.3541 625.528 47.3447 625.528 47.3447L625.504 47.3573C625.504 47.3573 625.525 47.3792 625.574 47.3996C625.595 47.4467 625.622 47.4907 625.65 47.5299C625.637 47.5236 625.63 47.5205 625.63 47.5189L625.613 47.5346C625.613 47.5346 625.639 47.5487 625.678 47.5644C625.818 47.7386 626.006 47.8155 626.154 47.7496C626.392 47.6444 626.521 47.3902 626.781 47.3996C626.781 47.4012 626.781 47.4028 626.781 47.4043C626.777 47.4122 626.766 47.4279 626.755 47.4514C626.755 47.4514 626.746 47.4671 626.733 47.4922C626.715 47.5236 626.696 47.566 626.685 47.6225C626.657 47.726 626.65 47.8578 626.739 47.9614C626.853 48.1826 627.174 48.4054 627.953 48.5012C628.781 48.6032 629.384 48.5294 629.794 48.4243C629.798 48.4243 629.803 48.4243 629.807 48.4211C629.812 48.4211 629.816 48.418 629.818 48.4164C630.253 48.3003 630.462 48.1497 630.478 48.1387C630.517 48.1277 630.558 48.1167 630.6 48.1042C630.766 48.0555 630.925 47.9943 631.076 47.9284C631.067 47.9363 631.061 47.941 631.061 47.941C631.061 47.941 631.847 47.5691 631.927 47.5283C632.006 47.4875 632.275 47.3698 632.268 47.2412C632.266 47.1972 632.207 47.1658 632.144 47.1329V47.1345Z" fill="#033345"/>
    <path d="M616.281 36.7013C616.187 36.6511 616.415 36.6165 616.412 36.5146C616.412 36.3906 615.947 36.2243 615.812 36.1835C615.705 36.1521 615.5 36.0956 615.5 36.0956C615.5 36.0956 615.347 35.9622 615.076 35.8053C614.805 35.6468 614.683 35.6029 614.683 35.6029C614.205 35.3848 613.642 35.2593 612.949 35.3691C612.43 35.4507 612.251 35.6688 612.207 35.8822C612.207 35.8869 612.207 35.89 612.205 35.8948V35.8979C612.133 36.1913 612.299 36.378 612.299 36.378C612.299 36.378 612.065 36.4047 611.956 36.2886C611.847 36.1725 611.67 36.094 611.554 36.1521C611.497 36.1803 611.421 36.24 611.364 36.3294C611.321 36.3576 611.294 36.3843 611.294 36.3859L611.314 36.3937C611.314 36.3937 611.327 36.3812 611.345 36.3655C611.34 36.3749 611.336 36.3843 611.329 36.3953C611.29 36.4188 611.27 36.4439 611.268 36.4455L611.288 36.4534C611.288 36.4534 611.297 36.4424 611.316 36.4283C611.31 36.4455 611.305 36.4643 611.301 36.4847C611.264 36.5067 611.246 36.5271 611.244 36.5287L611.264 36.5365C611.264 36.5365 611.275 36.524 611.294 36.5098C611.29 36.5271 611.29 36.5475 611.29 36.5679C611.249 36.5946 611.244 36.6228 611.244 36.6244L611.266 36.6244C611.266 36.6244 611.27 36.6103 611.288 36.593C611.288 36.626 611.288 36.662 611.294 36.6997C611.273 36.6887 611.264 36.6777 611.264 36.6777L611.244 36.684C611.244 36.684 611.255 36.7028 611.297 36.7201C611.297 36.7232 611.297 36.7264 611.297 36.7311C611.299 36.7452 611.303 36.7609 611.307 36.775C611.294 36.7656 611.288 36.7593 611.288 36.7578L611.268 36.7656C611.268 36.7656 611.283 36.7829 611.314 36.8001C611.323 36.8284 611.334 36.8551 611.345 36.8817C611.329 36.8723 611.323 36.866 611.323 36.866L611.305 36.8755C611.305 36.8755 611.323 36.8911 611.358 36.9068C611.375 36.9429 611.395 36.9743 611.417 37.0041C611.408 36.9994 611.401 36.9963 611.401 36.9963L611.388 37.0088C611.388 37.0088 611.408 37.0198 611.438 37.0308C611.543 37.161 611.685 37.2191 611.797 37.1704C611.973 37.092 612.072 36.9006 612.266 36.9084L612.266 36.9115C612.262 36.9162 612.255 36.9288 612.246 36.9461C612.246 36.9461 612.24 36.9586 612.231 36.9759C612.218 36.9994 612.203 37.0308 612.194 37.0732C612.174 37.1516 612.168 37.2489 612.235 37.3274C612.321 37.4937 612.561 37.66 613.146 37.7322C613.766 37.8075 614.22 37.7542 614.528 37.6741C614.532 37.6741 614.535 37.6741 614.539 37.6726C614.541 37.6726 614.546 37.671 614.548 37.6694C614.875 37.5816 615.03 37.4701 615.043 37.4607C615.074 37.4529 615.104 37.4435 615.135 37.4341C615.26 37.398 615.38 37.3509 615.493 37.3023C615.487 37.3085 615.482 37.3117 615.482 37.3117C615.482 37.3117 616.072 37.0324 616.133 37.0025C616.192 36.9712 616.393 36.8833 616.388 36.7876C616.388 36.7546 616.343 36.7311 616.294 36.706L616.281 36.7013Z" fill="#033345"/>
    <path d="M622.77 7.49378C622.668 7.43886 622.914 7.40277 622.914 7.2898C622.914 7.15485 622.408 6.97283 622.259 6.9289C622.141 6.89438 621.921 6.83318 621.921 6.83318C621.921 6.83318 621.753 6.68882 621.46 6.51779C621.165 6.34675 621.032 6.29811 621.032 6.29811C621.032 6.29811 621.032 6.29811 621.03 6.29811C620.51 6.06118 619.897 5.92466 619.144 6.04391C618.578 6.13335 618.384 6.37029 618.336 6.60252C618.336 6.60723 618.336 6.61194 618.334 6.61664C618.334 6.61664 618.334 6.61978 618.334 6.62135C618.255 6.93988 618.436 7.14387 618.436 7.14387C618.436 7.14387 618.181 7.17211 618.063 7.04658C617.943 6.92105 617.753 6.83475 617.626 6.89752C617.565 6.92733 617.482 6.99323 617.421 7.09052C617.373 7.12033 617.344 7.15014 617.344 7.15171L617.364 7.16113C617.364 7.16113 617.377 7.14701 617.399 7.12975C617.392 7.14073 617.388 7.15014 617.384 7.16113C617.34 7.1878 617.32 7.21291 617.318 7.21605L617.34 7.22389C617.34 7.22389 617.351 7.21134 617.371 7.19565C617.364 7.21448 617.357 7.23645 617.353 7.25684C617.312 7.28038 617.292 7.30392 617.292 7.30392L617.314 7.31176C617.314 7.31176 617.327 7.29764 617.347 7.28352C617.342 7.30235 617.342 7.32432 617.342 7.34628C617.299 7.37453 617.292 7.40591 617.292 7.40748L617.316 7.40748C617.316 7.40748 617.32 7.39179 617.34 7.37296C617.34 7.40905 617.34 7.44828 617.349 7.48907C617.325 7.47652 617.316 7.46554 617.316 7.46554L617.294 7.47181C617.294 7.47181 617.307 7.49221 617.351 7.51104C617.351 7.51575 617.351 7.51889 617.351 7.52203C617.353 7.53772 617.357 7.55341 617.362 7.5691C617.349 7.55968 617.342 7.55184 617.34 7.55027L617.32 7.55968C617.32 7.55968 617.338 7.57851 617.371 7.59734C617.379 7.62873 617.39 7.65854 617.403 7.68521C617.388 7.6758 617.379 7.66795 617.379 7.66795L617.36 7.67737C617.36 7.67737 617.379 7.69463 617.416 7.71189C617.436 7.75112 617.456 7.78564 617.48 7.81859C617.469 7.81388 617.462 7.81074 617.462 7.81074L617.447 7.82487C617.447 7.82487 617.469 7.83742 617.499 7.8484C617.613 7.98962 617.766 8.05396 617.888 8.00061C618.082 7.91431 618.187 7.70718 618.399 7.71503C618.399 7.71503 618.399 7.71817 618.399 7.71973C618.395 7.72601 618.388 7.73856 618.377 7.75739C618.377 7.75739 618.368 7.76995 618.36 7.79035C618.344 7.81545 618.329 7.84997 618.32 7.89548C618.299 7.98021 618.292 8.08691 618.366 8.17164C618.46 8.35209 618.722 8.53411 619.358 8.61256C620.032 8.69573 620.526 8.6361 620.86 8.5498C620.864 8.5498 620.868 8.5498 620.871 8.54823C620.873 8.54823 620.877 8.54509 620.879 8.54509C621.235 8.45094 621.406 8.32698 621.417 8.31757C621.449 8.30815 621.482 8.30031 621.517 8.28933C621.652 8.2501 621.783 8.19989 621.906 8.14497C621.899 8.15124 621.893 8.15595 621.893 8.15595C621.893 8.15595 622.534 7.85311 622.6 7.81859C622.665 7.78564 622.884 7.68835 622.877 7.58479C622.877 7.5487 622.827 7.52359 622.777 7.49692L622.77 7.49378Z" fill="#033345"/>
    <path d="M627.862 18.1108C627.691 18.0198 628.104 17.957 628.102 17.7703C628.097 17.5428 627.252 17.24 627.006 17.1662C626.809 17.1082 626.438 17.0046 626.438 17.0046C626.438 17.0046 626.158 16.7629 625.663 16.4742C625.169 16.1871 624.944 16.1055 624.944 16.1055C624.944 16.1055 624.942 16.1055 624.94 16.1055C624.069 15.7085 623.04 15.4794 621.778 15.6787C620.831 15.8277 620.503 16.2263 620.425 16.6154C620.422 16.6233 620.422 16.6311 620.42 16.639C620.42 16.6406 620.42 16.6437 620.42 16.6453C620.287 17.1788 620.593 17.5208 620.593 17.5208C620.593 17.5208 620.165 17.5695 619.966 17.3576C619.765 17.1474 619.446 17.003 619.233 17.1082C619.13 17.1584 618.99 17.2682 618.888 17.433C618.809 17.4847 618.761 17.5334 618.761 17.535L618.796 17.5506C618.796 17.5506 618.818 17.5271 618.853 17.4989C618.844 17.5161 618.835 17.5334 618.826 17.5522C618.754 17.5961 618.719 17.6401 618.715 17.6432L618.75 17.6573C618.75 17.6573 618.767 17.6369 618.8 17.6103C618.789 17.6432 618.781 17.6777 618.772 17.7123C618.704 17.7531 618.671 17.7907 618.669 17.7923L618.704 17.8064C618.704 17.8064 618.724 17.7829 618.759 17.7578C618.752 17.7907 618.752 17.8268 618.75 17.8629C618.676 17.91 618.667 17.9618 618.667 17.9665L618.706 17.9696C618.706 17.9696 618.713 17.9398 618.746 17.9084C618.746 17.9696 618.75 18.0355 618.759 18.103C618.717 18.081 618.704 18.0637 618.704 18.0637L618.667 18.0747C618.667 18.0747 618.689 18.1092 618.763 18.1406C618.763 18.1469 618.763 18.1532 618.763 18.1595C618.77 18.1861 618.776 18.2128 618.783 18.2379C618.761 18.2207 618.748 18.2081 618.748 18.2065L618.713 18.2222C618.713 18.2222 618.743 18.2536 618.796 18.285C618.811 18.3368 618.831 18.387 618.85 18.4341C618.824 18.4184 618.809 18.4058 618.809 18.4058L618.776 18.4231C618.776 18.4231 618.807 18.4529 618.87 18.4811C618.901 18.5455 618.938 18.6051 618.975 18.66C618.957 18.6522 618.946 18.6459 618.946 18.6459L618.922 18.6679C618.922 18.6679 618.96 18.6883 619.012 18.7087C619.204 18.9472 619.46 19.0523 619.665 18.9628C619.99 18.8201 620.167 18.4701 620.521 18.4827C620.521 18.4843 620.521 18.4874 620.519 18.489C620.512 18.4984 620.499 18.5204 620.484 18.5517C620.484 18.5517 620.471 18.5737 620.455 18.6067C620.431 18.649 620.403 18.7071 620.39 18.784C620.353 18.9252 620.342 19.1056 620.464 19.2484C620.621 19.5513 621.06 19.8572 622.126 19.9875C623.259 20.1256 624.084 20.0267 624.645 19.8808C624.652 19.8808 624.658 19.8792 624.665 19.8776C624.671 19.8776 624.676 19.8729 624.68 19.8714C625.276 19.7129 625.562 19.5073 625.582 19.4916C625.637 19.4775 625.693 19.4618 625.748 19.443C625.975 19.3755 626.193 19.2924 626.399 19.2014C626.388 19.2123 626.377 19.2186 626.377 19.2186C626.377 19.2186 627.453 18.7102 627.562 18.6537C627.672 18.5972 628.038 18.4372 628.027 18.2599C628.023 18.2003 627.942 18.1579 627.857 18.1108L627.862 18.1108Z" fill="#033345"/>
    <path d="M600.182 40.0765C599.99 39.9729 600.455 39.9039 600.451 39.6936C600.447 39.4394 599.499 39.0989 599.222 39.0158C599.001 38.9499 598.584 38.8353 598.584 38.8353C598.584 38.8353 598.27 38.5639 597.717 38.2422C597.163 37.919 596.914 37.8295 596.914 37.8295C596.914 37.8295 596.912 37.8295 596.909 37.8295C595.933 37.3839 594.78 37.1281 593.363 37.3509C592.302 37.5188 591.933 37.9645 591.846 38.4007C591.844 38.4101 591.844 38.4179 591.842 38.4274C591.842 38.4305 591.842 38.4321 591.842 38.4352C591.693 39.0346 592.034 39.4159 592.034 39.4159C592.034 39.4159 591.556 39.4692 591.331 39.2339C591.106 38.9969 590.748 38.8369 590.507 38.9546C590.392 39.0111 590.237 39.135 590.119 39.3186C590.029 39.3767 589.977 39.4316 589.977 39.4332L590.014 39.4504C590.014 39.4504 590.038 39.4237 590.079 39.3924C590.069 39.4112 590.06 39.4316 590.051 39.452C589.97 39.5022 589.931 39.5508 589.927 39.554L589.966 39.5697C589.966 39.5697 589.986 39.5461 590.023 39.5163C590.01 39.5524 590.001 39.5916 589.99 39.6309C589.914 39.6764 589.876 39.7187 589.876 39.7203L589.916 39.736C589.916 39.736 589.938 39.7093 589.977 39.6811C589.97 39.7172 589.97 39.7595 589.966 39.7988C589.883 39.8521 589.874 39.9102 589.872 39.9149L589.916 39.918C589.916 39.918 589.922 39.8851 589.959 39.8505C589.959 39.9196 589.964 39.9918 589.975 40.0687C589.929 40.0451 589.914 40.0247 589.914 40.0247L589.872 40.0373C589.872 40.0373 589.896 40.0765 589.979 40.111C589.979 40.1189 589.979 40.1251 589.981 40.133C589.988 40.1628 589.994 40.1926 590.003 40.2209C589.977 40.202 589.964 40.1879 589.964 40.1863L589.927 40.2036C589.927 40.2036 589.959 40.2381 590.018 40.2742C590.036 40.3323 590.058 40.3872 590.079 40.4405C590.049 40.4233 590.034 40.4091 590.034 40.4091L589.997 40.428C589.997 40.428 590.031 40.4609 590.104 40.4923C590.138 40.5645 590.178 40.632 590.221 40.6916C590.202 40.6822 590.191 40.6759 590.191 40.6759L590.162 40.701C590.162 40.701 590.204 40.7245 590.263 40.7465C590.479 41.0133 590.765 41.1325 590.994 41.0305C591.359 40.8689 591.558 40.4798 591.955 40.4939C591.955 40.497 591.955 40.4986 591.953 40.5017C591.946 40.5127 591.931 40.5378 591.914 40.5723C591.914 40.5723 591.898 40.5974 591.881 40.6351C591.852 40.6822 591.824 40.7481 591.807 40.8344C591.765 40.9929 591.754 41.1953 591.892 41.3553C592.069 41.6943 592.56 42.0363 593.754 42.1838C595.023 42.3392 595.949 42.2278 596.58 42.0646C596.586 42.0646 596.595 42.063 596.601 42.0614C596.608 42.0599 596.612 42.0567 596.619 42.0552C597.287 41.8763 597.608 41.6456 597.63 41.6284C597.691 41.6127 597.754 41.5938 597.818 41.575C598.071 41.4997 598.318 41.4071 598.549 41.3051C598.536 41.3177 598.525 41.3255 598.525 41.3255C598.525 41.3255 599.733 40.7544 599.855 40.6916C599.977 40.6288 600.388 40.4484 600.377 40.2507C600.372 40.1832 600.281 40.1361 600.187 40.0843L600.182 40.0765Z" fill="#033345"/>
    <path d="M612.808 26.9916C612.697 26.932 612.966 26.8912 612.963 26.7704C612.963 26.6229 612.413 26.4268 612.252 26.3781C612.125 26.3405 611.883 26.273 611.883 26.273C611.883 26.273 611.701 26.1161 611.38 25.9294C611.059 25.7426 610.915 25.6908 610.915 25.6908C610.915 25.6908 610.915 25.6908 610.913 25.6908C610.348 25.4335 609.682 25.2844 608.863 25.4147C608.249 25.512 608.035 25.7693 607.985 26.0219C607.985 26.0266 607.985 26.0313 607.983 26.0376C607.983 26.0376 607.983 26.0408 607.983 26.0423C607.898 26.3891 608.094 26.6104 608.094 26.6104C608.094 26.6104 607.817 26.6417 607.688 26.5052C607.559 26.3687 607.35 26.2746 607.212 26.3436C607.145 26.3766 607.055 26.4472 606.987 26.5539C606.935 26.5868 606.904 26.6198 606.904 26.6198L606.926 26.6292C606.926 26.6292 606.941 26.6135 606.963 26.5962C606.957 26.6072 606.952 26.6182 606.946 26.6308C606.898 26.659 606.876 26.6872 606.874 26.6904L606.896 26.6998C606.896 26.6998 606.907 26.6857 606.928 26.67C606.922 26.6904 606.915 26.7139 606.909 26.7359C606.865 26.7626 606.843 26.7861 606.843 26.7877L606.865 26.7971C606.865 26.7971 606.878 26.7814 606.9 26.7657C606.896 26.7877 606.896 26.8112 606.893 26.8332C606.845 26.8646 606.839 26.8975 606.839 26.9006L606.865 26.9006C606.865 26.9006 606.869 26.8834 606.891 26.863C606.891 26.9022 606.891 26.9446 606.9 26.9885C606.874 26.9744 606.865 26.9634 606.865 26.9634L606.841 26.9713C606.841 26.9713 606.854 26.9932 606.902 27.0136C606.902 27.0183 606.902 27.0215 606.902 27.0262C606.907 27.0434 606.911 27.0607 606.915 27.078C606.9 27.067 606.893 27.0591 606.891 27.0576L606.869 27.067C606.869 27.067 606.889 27.0874 606.924 27.1078C606.935 27.1407 606.946 27.1737 606.959 27.2035C606.941 27.1925 606.933 27.1847 606.933 27.1847L606.911 27.1956C606.911 27.1956 606.931 27.2145 606.972 27.2333C606.992 27.2757 607.016 27.3133 607.04 27.3494C607.029 27.3447 607.022 27.34 607.022 27.34L607.007 27.3541C607.007 27.3541 607.031 27.3667 607.066 27.3808C607.19 27.5346 607.356 27.6036 607.49 27.5455C607.699 27.453 607.815 27.227 608.044 27.2349C608.044 27.2349 608.044 27.238 608.044 27.2396C608.04 27.2458 608.031 27.26 608.02 27.2804C608.02 27.2804 608.011 27.2945 608 27.3165C607.985 27.3447 607.968 27.3824 607.957 27.431C607.933 27.5236 607.926 27.6397 608.005 27.7323C608.107 27.9284 608.391 28.1261 609.081 28.2109C609.815 28.3003 610.35 28.236 610.715 28.1418C610.719 28.1418 610.723 28.1418 610.728 28.1402C610.732 28.1402 610.734 28.1371 610.739 28.1371C611.125 28.0335 611.311 27.9002 611.324 27.8908C611.359 27.8813 611.396 27.8719 611.431 27.8594C611.577 27.8154 611.719 27.7621 611.854 27.7025C611.848 27.7087 611.841 27.7134 611.841 27.7134C611.841 27.7134 612.54 27.3839 612.61 27.3478C612.68 27.3118 612.918 27.2066 612.911 27.0921C612.909 27.0528 612.856 27.0262 612.8 26.9964L612.808 26.9916Z" fill="#033345"/>
    <path d="M668.271 8.48738C668.18 8.43874 668.402 8.40422 668.4 8.30379C668.4 8.1814 667.942 8.01821 667.809 7.97899C667.704 7.9476 667.503 7.89269 667.503 7.89269C667.503 7.89269 667.352 7.76245 667.086 7.60711C666.819 7.45176 666.699 7.40783 666.699 7.40783C666.23 7.19443 665.675 7.07047 664.996 7.17717C664.485 7.25719 664.308 7.47216 664.267 7.68085C664.267 7.68556 664.267 7.6887 664.265 7.69341V7.69655C664.193 7.98369 664.356 8.16728 664.356 8.16728C664.356 8.16728 664.127 8.19239 664.018 8.07941C663.911 7.96643 663.739 7.88798 663.623 7.94447C663.568 7.97114 663.492 8.03077 663.437 8.11864C663.394 8.14688 663.37 8.17356 663.37 8.17356L663.387 8.1814C663.387 8.1814 663.398 8.16885 663.418 8.15316C663.413 8.16257 663.409 8.17199 663.404 8.1814C663.365 8.20494 663.346 8.22848 663.346 8.23005L663.365 8.23789C663.365 8.23789 663.374 8.22691 663.391 8.21279C663.385 8.23005 663.38 8.24888 663.376 8.2677C663.339 8.28967 663.322 8.31007 663.322 8.31007L663.341 8.31792C663.341 8.31792 663.352 8.30536 663.37 8.29124C663.367 8.3085 663.365 8.3289 663.365 8.34773C663.326 8.37284 663.322 8.40108 663.319 8.40265L663.341 8.40265C663.341 8.40265 663.343 8.38853 663.363 8.37127C663.363 8.40422 663.363 8.43874 663.37 8.4764C663.348 8.46541 663.341 8.45443 663.339 8.45443L663.319 8.46071C663.319 8.46071 663.33 8.47954 663.372 8.4968C663.372 8.49993 663.372 8.50307 663.372 8.50778C663.374 8.5219 663.378 8.53602 663.383 8.55015C663.37 8.54073 663.365 8.53446 663.363 8.53289L663.346 8.54073C663.346 8.54073 663.361 8.55799 663.389 8.57525C663.398 8.6035 663.407 8.63017 663.418 8.65528C663.402 8.64743 663.396 8.63959 663.396 8.63959L663.378 8.649C663.378 8.649 663.396 8.66469 663.429 8.68038C663.446 8.7149 663.463 8.74786 663.485 8.7761C663.477 8.77139 663.47 8.76825 663.47 8.76825L663.457 8.78081C663.457 8.78081 663.477 8.79179 663.505 8.80277C663.608 8.93144 663.747 8.98793 663.856 8.93929C664.031 8.8624 664.127 8.67411 664.317 8.68038V8.68352C664.313 8.68823 664.306 8.70078 664.298 8.71804C664.298 8.71804 664.291 8.7306 664.282 8.74786C664.269 8.77139 664.254 8.80277 664.247 8.84357C664.228 8.92046 664.221 9.01617 664.289 9.09306C664.374 9.25625 664.61 9.42101 665.184 9.49162C665.793 9.56694 666.239 9.51202 666.542 9.43513C666.546 9.43513 666.549 9.43513 666.553 9.43356C666.555 9.43356 666.56 9.43199 666.562 9.43042C666.883 9.34412 667.038 9.23428 667.049 9.22487C667.079 9.21702 667.108 9.20918 667.138 9.19976C667.26 9.16367 667.378 9.11817 667.49 9.06952C667.483 9.0758 667.479 9.07894 667.479 9.07894C667.479 9.07894 668.06 8.80434 668.119 8.77453C668.178 8.74472 668.374 8.65685 668.37 8.5627C668.37 8.53132 668.324 8.50778 668.278 8.48267L668.271 8.48738Z" fill="#033345"/>
    <path d="M610.993 44.4845C610.853 44.4092 611.192 44.3589 611.19 44.2067C611.187 44.0216 610.497 43.7737 610.294 43.714C610.135 43.667 609.832 43.5822 609.832 43.5822C609.832 43.5822 609.602 43.3845 609.2 43.1507C608.799 42.9169 608.615 42.8495 608.615 42.8495C608.615 42.8495 608.615 42.8495 608.613 42.8495C607.904 42.5262 607.065 42.3395 606.034 42.5011C605.262 42.6235 604.995 42.9483 604.932 43.2637C604.932 43.27 604.932 43.2763 604.927 43.2825C604.927 43.2841 604.927 43.2857 604.927 43.2872C604.82 43.7219 605.067 44.0012 605.067 44.0012C605.067 44.0012 604.72 44.0404 604.556 43.8678C604.393 43.6952 604.133 43.5791 603.958 43.6638C603.875 43.7046 603.761 43.7941 603.676 43.929C603.611 43.9714 603.574 44.0122 603.572 44.0122L603.6 44.0247C603.6 44.0247 603.617 44.0059 603.646 43.9824C603.639 43.9965 603.63 44.0106 603.624 44.0263C603.565 44.0624 603.537 44.0969 603.534 44.1L603.563 44.111C603.563 44.111 603.578 44.0938 603.604 44.0734C603.596 44.1 603.587 44.1283 603.58 44.1565C603.524 44.1895 603.497 44.2209 603.497 44.2209L603.526 44.2318C603.526 44.2318 603.543 44.213 603.569 44.1926C603.565 44.2193 603.565 44.2491 603.563 44.2773C603.502 44.3166 603.495 44.3574 603.495 44.3621L603.528 44.3621C603.528 44.3621 603.532 44.3401 603.561 44.315C603.561 44.3652 603.563 44.4186 603.572 44.4735C603.539 44.4562 603.528 44.4421 603.528 44.4405L603.497 44.45C603.497 44.45 603.515 44.4782 603.576 44.5033C603.576 44.508 603.576 44.5127 603.576 44.519C603.58 44.541 603.587 44.5629 603.591 44.5833C603.574 44.5692 603.563 44.5598 603.563 44.5582L603.534 44.5708C603.534 44.5708 603.558 44.5959 603.602 44.6226C603.615 44.6649 603.63 44.7057 603.646 44.7434C603.624 44.7308 603.613 44.7198 603.613 44.7198L603.587 44.734C603.587 44.734 603.613 44.7575 603.663 44.781C603.689 44.8344 603.718 44.883 603.748 44.927C603.735 44.9207 603.727 44.916 603.727 44.916L603.707 44.9348C603.707 44.9348 603.737 44.9521 603.779 44.9678C603.936 45.1623 604.144 45.2486 604.312 45.1749C604.576 45.0572 604.72 44.7732 605.01 44.7842C605.01 44.7857 605.01 44.7873 605.01 44.7889C605.006 44.7967 604.995 44.8156 604.982 44.8407C604.982 44.8407 604.971 44.8595 604.958 44.8862C604.938 44.9207 604.917 44.9678 604.903 45.0305C604.873 45.1466 604.864 45.2926 604.965 45.4087C605.093 45.655 605.449 45.9045 606.318 46.0112C607.242 46.1242 607.914 46.0426 608.373 45.9249C608.377 45.9249 608.384 45.9249 608.388 45.9218C608.393 45.9218 608.397 45.9186 608.401 45.9171C608.886 45.7868 609.12 45.6189 609.137 45.6064C609.183 45.5938 609.227 45.5813 609.273 45.5672C609.458 45.5122 609.635 45.4448 609.803 45.371C609.794 45.3804 609.786 45.3851 609.786 45.3851C609.786 45.3851 610.663 44.9709 610.753 44.9254C610.842 44.8799 611.142 44.7481 611.133 44.6053C611.131 44.5567 611.063 44.5221 610.993 44.4845Z" fill="#033345"/>
    </g>
    <path d="M497.039 23.5505C496.211 20.5157 495.35 17.408 495.089 14.3246C495.055 13.92 494.125 13.7662 494.023 14.2194C493.785 15.3443 493.003 15.927 492.061 16.3883C492.095 16.1536 492.141 15.9108 492.209 15.6761C492.651 14.1304 494.511 12.0586 492.379 10.699C490.746 9.65505 487.537 9.99495 485.644 10.351C483.047 10.8366 480.655 11.9049 478.965 13.394C476.879 15.2229 476.153 17.5699 474.52 19.585C474.135 20.0625 473.625 20.54 473.976 21.1065C474.18 21.4383 474.577 21.6406 475.019 21.8267C475.881 23.1378 476.879 24.5702 478.308 25.3876C479.033 25.8084 479.906 25.9865 480.779 26.1807C482.537 26.5692 483.943 27.0062 485.326 27.8964C485.768 28.1796 486.369 27.8316 486.12 27.4594C485.712 26.8524 485.19 26.2373 484.544 25.8003C486.551 26.1888 488.671 27.3784 490.689 27.2247C493.15 27.0304 493.785 25.4281 493.569 23.9066C493.456 23.0488 493.195 22.199 492.923 21.3573C494.17 21.8834 495.157 22.806 495.962 23.8742C496.291 24.3193 497.164 23.9956 497.05 23.5505H497.039Z" fill="#033345"/>
    <g clip-path="url(#clip2_3624_121531)">
    <path opacity="0.66" d="M521.98 41.7224C520.071 41.4115 518.245 42.5551 517.9 44.2725C517.556 45.9936 518.82 47.6407 520.728 47.9516C522.636 48.2625 524.463 47.1188 524.808 45.4014C525.152 43.6803 523.888 42.0333 521.98 41.7224ZM520.798 47.6074C519.103 47.3298 517.974 45.8641 518.282 44.3355C518.59 42.8068 520.215 41.789 521.91 42.0666C523.605 42.3442 524.734 43.8099 524.426 45.3385C524.118 46.8671 522.493 47.885 520.798 47.6074Z" fill="#FFFEFE"/>
    <path opacity="0.66" d="M521.721 43.5949C521.623 44.0945 521.089 44.4277 520.539 44.3351C519.985 44.2463 519.616 43.7651 519.718 43.2655C519.817 42.7658 520.35 42.4327 520.904 42.5252C521.458 42.614 521.828 43.0952 521.725 43.5912L521.721 43.5949Z" fill="#FFFEFE"/>
    <path opacity="0.66" d="M510.145 21.6356C511.188 22.9903 513.252 23.3271 514.754 22.387C516.256 21.4469 516.63 19.5851 515.587 18.2305C514.545 16.8758 512.481 16.539 510.979 17.4791C509.477 18.4192 509.103 20.281 510.145 21.6356ZM515.288 18.4192C516.215 19.6258 515.883 21.2803 514.545 22.1168C513.207 22.9533 511.373 22.6535 510.445 21.4469C509.518 20.2403 509.85 18.5858 511.188 17.7493C512.526 16.9128 514.36 17.2126 515.288 18.4192Z" fill="#FFFEFE"/>
    <path opacity="0.66" d="M511.705 20.5434C512.14 20.2695 512.739 20.3695 513.043 20.7618C513.346 21.1542 513.236 21.6945 512.801 21.9684C512.366 22.2423 511.766 22.1424 511.463 21.7501C511.159 21.3577 511.27 20.8173 511.705 20.5434Z" fill="#FFFEFE"/>
    <path opacity="0.66" d="M521.797 6.81227C522.643 7.91525 524.321 8.18914 525.544 7.42298C526.767 6.66052 527.071 5.1467 526.221 4.04372C525.376 2.94075 523.697 2.66685 522.474 3.43301C521.251 4.19548 520.948 5.70929 521.797 6.81227ZM525.975 4.19918C526.73 5.18001 526.459 6.52357 525.372 7.20461C524.284 7.88564 522.794 7.64136 522.039 6.66052C521.284 5.67968 521.555 4.33612 522.643 3.65509C523.73 2.97406 525.22 3.21834 525.975 4.19918Z" fill="#FFFEFE"/>
    <path opacity="0.66" d="M523.064 5.92418C523.417 5.7021 523.906 5.78353 524.152 6.10184C524.398 6.42015 524.308 6.8606 523.955 7.08267C523.602 7.30475 523.114 7.22332 522.868 6.90501C522.621 6.5867 522.712 6.14625 523.064 5.92418Z" fill="#FFFEFE"/>
    <path opacity="0.66" d="M550.554 27.3022C549.512 25.9476 547.448 25.6108 545.945 26.5509C544.443 27.491 544.07 29.3527 545.112 30.7074C546.155 32.0621 548.219 32.3989 549.721 31.4588C551.223 30.5186 551.597 28.6569 550.554 27.3022ZM550.255 27.491C551.182 28.6976 550.85 30.3521 549.512 31.1886C548.174 32.0251 546.339 31.7253 545.412 30.5186C544.484 29.312 544.817 27.6576 546.155 26.8211C547.493 25.9846 549.327 26.2844 550.255 27.491Z" fill="#FFFEFE"/>
    <path opacity="0.66" d="M548.682 29.9415C548.379 29.5492 547.779 29.4492 547.344 29.7231C546.909 29.997 546.799 30.5374 547.102 30.9297C547.406 31.3221 548.005 31.422 548.44 31.1481C548.875 30.8742 548.986 30.3338 548.682 29.9415Z" fill="#FFFEFE"/>
    <path opacity="0.66" d="M538.954 18.8928C538.375 18.1378 537.226 17.949 536.389 18.4746C535.552 18.9965 535.342 20.0328 535.925 20.7879C536.504 21.543 537.653 21.7317 538.49 21.2061C539.327 20.6843 539.537 19.6479 538.954 18.8928ZM538.786 18.9965C539.303 19.6664 539.118 20.588 538.371 21.0544C537.628 21.5207 536.606 21.3542 536.089 20.6806C535.572 20.0106 535.757 19.089 536.504 18.6227C537.246 18.1563 538.268 18.3229 538.786 18.9965Z" fill="#FFFEFE"/>
    <path opacity="0.66" d="M537.91 20.3621C537.742 20.1437 537.409 20.0882 537.163 20.2399C536.917 20.3917 536.859 20.6915 537.028 20.9136C537.196 21.1319 537.528 21.1875 537.775 21.0357C538.021 20.884 538.078 20.5842 537.91 20.3621Z" fill="#FFFEFE"/>
    <path opacity="0.66" d="M554.004 20.0217C553.713 19.6442 553.138 19.5517 552.72 19.8108C552.301 20.0699 552.199 20.5917 552.486 20.9693C552.777 21.3468 553.352 21.4393 553.77 21.1802C554.189 20.9174 554.292 20.3993 554.004 20.0217ZM553.922 20.0736C554.181 20.4104 554.086 20.8693 553.717 21.1025C553.344 21.3357 552.835 21.2506 552.576 20.9174C552.318 20.5806 552.412 20.1217 552.781 19.8885C553.151 19.6553 553.664 19.7404 553.922 20.0736Z" fill="#FFFEFE"/>
    <path opacity="0.66" d="M553.488 20.7583C553.402 20.6472 553.237 20.6213 553.114 20.6991C552.991 20.7769 552.962 20.925 553.049 21.0362C553.135 21.1473 553.299 21.1732 553.422 21.0954C553.545 21.0176 553.574 20.8695 553.488 20.7583Z" fill="#FFFEFE"/>
    </g>
    <path d="M542.887 33.445C542.938 33.8889 543.166 34.3227 543.382 34.7161C543.56 35.0389 543.813 35.4324 544.143 35.7653C546.998 42.3026 559.039 43.1197 565.484 46.5598C565.725 46.691 566.106 46.6204 566.207 46.3883C566.93 44.6128 566.461 42.8271 565.091 41.5258C568.44 42.8877 570.851 45.4098 573.021 47.8713C573.325 48.2143 573.947 47.8007 573.655 47.4577C572.259 45.8133 570.851 44.0983 571.752 42.1008C572.564 40.2849 574.771 39.5383 576.954 39.0138C577.169 38.9633 577.385 38.9129 577.614 38.8624C577.702 38.8423 577.804 38.8221 577.893 38.8019C577.893 38.8019 577.969 38.7817 578.007 38.7716C578.502 38.6405 578.223 38.0957 577.753 38.126C577.753 38.126 577.753 38.1159 577.753 38.1058C575.038 38.7716 572.297 39.1247 569.443 39.0541C567.933 39.0238 566.423 39.266 568.237 37.8839C569.202 37.1575 570.331 36.7237 571.587 36.4009C572.056 36.2798 571.853 35.7451 571.435 35.7048C567.362 35.3315 565.535 32.6884 562.553 30.8926C560.726 29.8031 558.556 29.2079 556.298 29.0465C551.527 28.7035 546.846 30.2974 543.103 32.5673C543.065 32.5673 543.027 32.5976 543.014 32.6278C542.925 32.6884 542.824 32.7388 542.735 32.7993C542.43 32.991 542.595 33.3542 542.887 33.445Z" fill="#033345"/>
    </g>
    <defs>
    <linearGradient id="paint0_linear_3624_121531" x1="340" y1="-4.14974" x2="340" y2="77.8967" gradientUnits="userSpaceOnUse">
    <stop offset="0.16" stop-color="#279CC8"/>
    <stop offset="0.82" stop-color="#155C77"/>
    </linearGradient>
    <clipPath id="clip0_3624_121531">
    <rect width="680" height="76" fill="white"/>
    </clipPath>
    <clipPath id="clip1_3624_121531">
    <rect width="78.5302" height="50" fill="white" transform="translate(589.869 6)"/>
    </clipPath>
    <clipPath id="clip2_3624_121531">
    <rect width="44.6194" height="45" fill="white" transform="translate(509.554 3)"/>
    </clipPath>
    </defs>
    </svg>
    