<svg  viewBox="0 0 680 76" fill="none" xmlns="http://www.w3.org/2000/svg">
    <g clip-path="url(#clip0_3624_121870)">
    <path fill-rule="evenodd" clip-rule="evenodd" d="M-41 16C-41 7.16344 -33.8366 0 -25 0H705C713.837 0 721 7.16344 721 16V73.2524C720.052 73.4862 719.045 73.6136 718.001 73.6169C712.369 73.6348 707.788 70.0363 707.77 65.5816L690.154 65.6375L690.154 65.6512L689.534 65.6531C689.552 70.1078 684.999 73.7352 679.368 73.7531C673.736 73.7709 669.155 70.1724 669.137 65.7178L659.872 65.7471C659.89 70.2018 655.337 73.8292 649.706 73.8471C644.074 73.8649 639.493 70.2664 639.475 65.8118L630.2 65.8412C630.218 70.2958 625.665 73.9233 620.033 73.9411C614.402 73.959 609.82 70.3605 609.803 65.9058L600.528 65.9352C600.545 70.3899 595.992 74.0173 590.361 74.0351C584.73 74.053 580.148 70.4545 580.131 65.9998L570.856 66.0292C570.873 70.4839 566.32 74.1113 560.689 74.1292C555.058 74.147 550.476 70.5485 550.458 66.0939L541.183 66.1232C541.201 70.5779 536.648 74.2053 531.017 74.2232C525.385 74.241 520.804 70.6425 520.786 66.1879L511.511 66.2173C511.529 70.6719 506.976 74.2994 501.345 74.3172C495.713 74.3351 491.132 70.7366 491.114 66.2819L481.839 66.3113C481.857 70.766 477.304 74.3934 471.672 74.4112C466.041 74.4291 461.46 70.8306 461.442 66.3759L443.825 66.4318L443.827 66.7713L440.878 66.7806C440.895 71.2353 436.342 74.8627 430.711 74.8806C425.08 74.8984 420.498 71.2999 420.48 66.8453L411.215 66.8746C411.233 71.3293 406.68 74.9567 401.049 74.9746C395.418 74.9924 390.836 71.3939 390.818 66.9393L381.543 66.9687C381.561 71.4233 377.008 75.0508 371.377 75.0686C365.745 75.0865 361.164 71.488 361.146 67.0333L351.871 67.0627C351.889 71.5174 347.336 75.1448 341.704 75.1626C336.073 75.1805 331.492 71.582 331.474 67.1273L322.199 67.1567C322.216 71.6114 317.664 75.2388 312.032 75.2567C306.401 75.2745 301.819 71.676 301.802 67.2214L292.527 67.2507C292.544 71.7054 287.991 75.3328 282.36 75.3507C276.729 75.3685 272.147 71.7701 272.13 67.3154L262.854 67.3448C262.872 71.7994 258.319 75.4269 252.688 75.4447C247.057 75.4626 242.475 71.8641 242.457 67.4094L233.182 67.4388C233.2 71.8935 228.647 75.5209 223.016 75.5387C219.476 75.55 216.35 74.1321 214.513 71.9708L214.494 67.186L196.878 67.2418C196.878 67.3463 196.876 67.4503 196.871 67.5539L195.169 67.5593L195.185 71.72C193.365 73.8929 190.251 75.3306 186.711 75.3418C181.08 75.3596 176.498 71.7611 176.48 67.3065L167.215 67.3358C167.233 71.7905 162.68 75.4179 157.049 75.4358C151.417 75.4536 146.836 71.8551 146.818 67.4005L137.543 67.4298C137.561 71.8845 133.008 75.5119 127.377 75.5298C121.745 75.5476 117.164 71.9492 117.146 67.4945L107.871 67.5239C107.889 71.9785 103.336 75.606 97.7044 75.6238C92.0731 75.6417 87.4915 72.0432 87.4739 67.5885L78.1989 67.6179C78.2165 72.0726 73.6635 75.7 68.0322 75.7178C62.4009 75.7357 57.8194 72.1372 57.8017 67.6825L48.5267 67.7119C48.5443 72.1666 43.9913 75.794 38.36 75.8119C32.7287 75.8297 28.1472 72.2312 28.1295 67.7766L18.8545 67.806C18.8721 72.2606 14.3191 75.8881 8.68781 75.9059C3.05652 75.9237 -1.52504 72.3253 -1.54265 67.8706L-10.8177 67.9C-10.8001 72.3547 -15.3531 75.9821 -20.9844 75.9999C-26.6157 76.0178 -31.1972 72.4193 -31.2148 67.9646L-41 67.9956V16Z" fill="url(#paint0_linear_3624_121870)"/>
    <path d="M658.373 -22.4924C658.373 -22.4924 664.97 6.64806 689.653 19.1414L687.714 21.8907C687.714 21.8907 660.641 19.6931 649.527 -3.59396L647.878 0.313581C647.878 0.313581 655.379 28.8921 682.439 30.4089" stroke="#1A2333" stroke-width="0.615111" stroke-miterlimit="10"/>
    <path d="M668.054 -0.711627L667.036 0.265625L667.427 0.738386L668.444 -0.238866L668.054 -0.711627Z" fill="#1A2333"/>
    <path d="M666.457 0.298327C666.114 0.632224 666.034 1.14226 666.281 1.43683C666.528 1.7314 667.004 1.69814 667.349 1.3623C667.692 1.0284 667.772 0.518366 667.525 0.223795C667.278 -0.0707753 666.802 -0.0375133 666.457 0.298327Z" fill="white"/>
    <path opacity="0.15" d="M665.059 0.0173546C664.137 0.9164 663.924 2.28142 664.583 3.06748C665.241 3.85353 666.521 3.76201 667.442 2.86296C668.363 1.96392 668.577 0.598892 667.918 -0.187163C667.26 -0.973218 665.98 -0.881691 665.059 0.0173546Z" fill="white"/>
    <path d="M673.66 6.46991L672.717 7.52466L673.157 7.94526L674.1 6.89051L673.66 6.46991Z" fill="#1A2333"/>
    <path d="M672.131 7.61291C671.811 7.97398 671.778 8.47701 672.055 8.7387C672.333 9.0004 672.815 8.91925 673.134 8.55818C673.454 8.19711 673.487 7.69409 673.21 7.43239C672.933 7.1707 672.45 7.25184 672.131 7.61291Z" fill="white"/>
    <path opacity="0.15" d="M670.687 7.47898C669.832 8.44683 669.737 9.7978 670.478 10.496C671.219 11.1943 672.513 10.9779 673.368 10.0101C674.223 9.04224 674.318 7.69127 673.577 6.99304C672.836 6.2948 671.542 6.51114 670.687 7.47898Z" fill="white"/>
    <path d="M679.82 12.5623L679.012 13.7227L679.524 14.0523L680.331 12.8919L679.82 12.5623Z" fill="#1A2333"/>
    <path d="M678.428 13.9031C678.153 14.2993 678.191 14.7852 678.513 14.9908C678.835 15.1964 679.317 15.0417 679.592 14.6456C679.868 14.2494 679.829 13.7635 679.508 13.5579C679.186 13.3523 678.704 13.507 678.428 13.9031Z" fill="white"/>
    <path opacity="0.15" d="M678.603 17.0663C679.772 16.723 680.667 15.5199 680.601 14.3792C680.536 13.2384 679.535 12.5919 678.365 12.9353C677.196 13.2786 676.301 14.4817 676.367 15.6224C676.432 16.7632 677.433 17.4096 678.603 17.0663Z" fill="white"/>
    <path d="M649.084 3.09426L647.941 3.89062L648.22 4.45613L649.363 3.65976L649.084 3.09426Z" fill="#1A2333"/>
    <path d="M647.394 3.80331C647.011 4.07688 646.844 4.58383 647.022 4.93526C647.199 5.28589 647.654 5.34797 648.038 5.07245C648.421 4.79888 648.588 4.29194 648.409 3.9405C648.232 3.58988 647.778 3.52779 647.394 3.80331Z" fill="white"/>
    <path opacity="0.15" d="M646.13 3.22452C645.102 3.96095 644.654 5.31954 645.129 6.25924C645.603 7.19894 646.821 7.36301 647.849 6.62658C648.876 5.89015 649.324 4.53156 648.85 3.59186C648.375 2.65216 647.158 2.48809 646.13 3.22452Z" fill="white"/>
    <path d="M652.125 9.26166L651.013 10.1106L651.323 10.6525L652.435 9.80353L652.125 9.26166Z" fill="#1A2333"/>
    <path d="M650.454 10.0579C650.081 10.3493 649.937 10.8602 650.134 11.1955C650.33 11.5308 650.794 11.5671 651.167 11.2757C651.54 10.9843 651.684 10.4734 651.487 10.1382C651.29 9.80289 650.826 9.76653 650.454 10.0579Z" fill="white"/>
    <path opacity="0.15" d="M649.098 13.279C650.085 13.6066 651.331 12.9383 651.882 11.7863C652.433 10.6343 652.08 9.4349 651.093 9.10731C650.107 8.77972 648.86 9.44803 648.309 10.6C647.758 11.752 648.111 12.9514 649.098 13.279Z" fill="white"/>
    <path d="M655.642 14.682L654.595 15.6235L654.963 16.1174L656.01 15.1759L655.642 14.682Z" fill="#1A2333"/>
    <path d="M654.018 15.6275C653.664 15.951 653.567 16.4603 653.798 16.7672C654.031 17.0748 654.504 17.0604 654.858 16.7369C655.212 16.4134 655.309 15.904 655.078 15.5972C654.845 15.2895 654.372 15.304 654.018 15.6275Z" fill="white"/>
    <path opacity="0.15" d="M654.741 18.3743C655.749 17.5862 656.128 16.2285 655.587 15.3418C655.046 14.4551 653.79 14.3751 652.783 15.1632C651.775 15.9512 651.396 17.3089 651.937 18.1956C652.478 19.0823 653.734 19.1623 654.741 18.3743Z" fill="white"/>
    <path d="M659.868 19.621L658.903 20.655L659.33 21.0906L660.295 20.0566L659.868 19.621Z" fill="#1A2333"/>
    <path d="M658.317 20.7323C657.991 21.0854 657.944 21.5912 658.212 21.8638C658.48 22.1337 658.962 22.0676 659.288 21.7126C659.615 21.3577 659.662 20.8537 659.392 20.5831C659.124 20.3132 658.642 20.3793 658.316 20.7343L658.317 20.7323Z" fill="white"/>
    <path opacity="0.15" d="M656.884 20.5525C656.009 21.5003 655.882 22.8582 656.6 23.5803C657.317 24.3045 658.61 24.1207 659.483 23.1721C660.358 22.2243 660.485 20.8665 659.767 20.1443C659.05 19.4202 657.757 19.6039 656.884 20.5525Z" fill="white"/>
    <path d="M664.861 23.8837L664.023 25.0242L664.521 25.3734L665.359 24.2329L664.861 23.8837Z" fill="#1A2333"/>
    <path d="M663.435 25.1781C663.151 25.5673 663.174 26.0581 663.487 26.2745C663.8 26.4909 664.283 26.3521 664.567 25.9628C664.851 25.5736 664.828 25.0828 664.515 24.8664C664.202 24.65 663.719 24.7888 663.435 25.1781Z" fill="white"/>
    <path opacity="0.15" d="M661.951 25.229C661.188 26.2712 661.246 27.5878 662.084 28.1674C662.919 28.7481 664.216 28.3733 664.979 27.3283C665.742 26.2861 665.683 24.9695 664.845 24.3899C664.01 23.8092 662.713 24.184 661.951 25.229Z" fill="white"/>
    <path d="M670.392 27.0157L669.649 28.2151L670.189 28.502L670.932 27.3026L670.392 27.0157Z" fill="#1A2333"/>
    <path d="M669.073 28.4348C668.82 28.8424 668.89 29.3187 669.228 29.4971C669.566 29.6755 670.046 29.4894 670.299 29.0818C670.551 28.6743 670.482 28.198 670.144 28.0196C669.806 27.8412 669.326 28.0273 669.073 28.4348Z" fill="white"/>
    <path opacity="0.15" d="M667.566 28.6428C666.887 29.7376 667.071 31.0109 667.976 31.487C668.88 31.9631 670.166 31.4634 670.844 30.3705C671.521 29.2777 671.339 28.0025 670.434 27.5264C669.528 27.0495 668.243 27.55 667.566 28.6428Z" fill="white"/>
    <path d="M677.511 29.5062L676.897 29.3625L676.382 30.6528L676.995 30.7965L677.511 29.5062Z" fill="#1A2333"/>
    <path d="M675.832 30.9759C675.654 31.4109 675.82 31.8395 676.205 31.9299C676.587 32.0215 677.043 31.7421 677.221 31.3044C677.399 30.8694 677.234 30.4408 676.849 30.3504C676.467 30.2588 676.01 30.5382 675.832 30.9759Z" fill="white"/>
    <path opacity="0.15" d="M674.325 31.5143C673.846 32.6823 674.291 33.8252 675.317 34.0682C676.342 34.3104 677.561 33.5587 678.04 32.3887C678.519 31.2208 678.074 30.0779 677.048 29.8348C676.023 29.5926 674.804 30.3444 674.325 31.5143Z" fill="white"/>
    <path d="M654.046 3.29334L653.035 4.27881L653.431 4.74644L654.441 3.76098L654.046 3.29334Z" fill="#1A2333"/>
    <path d="M652.46 4.31233C652.119 4.6498 652.043 5.15948 652.293 5.44817C652.544 5.73687 653.021 5.70162 653.362 5.36139C653.703 5.02116 653.779 4.51424 653.529 4.22555C653.278 3.93686 652.801 3.9721 652.46 4.31233Z" fill="white"/>
    <path opacity="0.15" d="M651.583 7.80477C652.653 7.91936 653.823 6.95705 654.198 5.65538C654.573 4.35372 654.009 3.20562 652.94 3.09103C651.87 2.97644 650.699 3.93875 650.325 5.24041C649.95 6.54208 650.513 7.69018 651.583 7.80477Z" fill="white"/>
    <path d="M659.84 9.57582L658.942 10.6707L659.409 11.06L660.307 9.96517L659.84 9.57582Z" fill="#1A2333"/>
    <path d="M658.358 10.7833C658.054 11.1572 658.045 11.6575 658.339 11.8995C658.632 12.1416 659.117 12.0343 659.422 11.6604C659.726 11.2866 659.735 10.7863 659.441 10.5442C659.148 10.3022 658.662 10.4095 658.358 10.7833Z" fill="white"/>
    <path opacity="0.15" d="M656.889 10.73C656.074 11.733 656.048 13.0703 656.832 13.7169C657.617 14.3635 658.914 14.0753 659.729 13.0723C660.545 12.0693 660.571 10.7319 659.786 10.0854C659.002 9.4388 657.705 9.72701 656.889 10.73Z" fill="white"/>
    <path d="M666.946 14.6674L666.2 15.8647L666.738 16.154L667.484 14.9566L666.946 14.6674Z" fill="#1A2333"/>
    <path d="M665.623 16.0801C665.369 16.4868 665.436 16.9623 665.775 17.1435C666.113 17.3247 666.591 17.1397 666.846 16.7311C667.1 16.3244 667.033 15.8489 666.694 15.6677C666.356 15.4865 665.878 15.6715 665.623 16.0801Z" fill="white"/>
    <path opacity="0.15" d="M664.116 16.285C663.434 17.378 663.614 18.6514 664.516 19.1341C665.42 19.6149 666.703 19.1192 667.387 18.027C668.069 16.934 667.89 15.6606 666.987 15.1779C666.083 14.6972 664.8 15.1928 664.116 16.285Z" fill="white"/>
    <path d="M675.221 18.578L674.632 18.3813L674.031 19.6445L674.62 19.8411L675.221 18.578Z" fill="#1A2333"/>
    <path d="M673.465 19.9314C673.259 20.3599 673.39 20.8068 673.759 20.9299C674.129 21.0531 674.595 20.8066 674.801 20.3781C675.007 19.9497 674.876 19.5028 674.506 19.3796C674.137 19.2565 673.671 19.503 673.465 19.9314Z" fill="white"/>
    <path opacity="0.15" d="M671.957 20.3509C671.404 21.4988 671.756 22.6938 672.744 23.0215C673.732 23.3492 674.979 22.6858 675.532 21.5378C676.085 20.3898 675.734 19.1948 674.746 18.8671C673.758 18.5394 672.51 19.2029 671.957 20.3509Z" fill="white"/>
    <path opacity="0.15" d="M680.294 23.1338C679.811 24.3019 680.251 25.4478 681.274 25.6939C682.298 25.9408 683.519 25.1927 684 24.0266C684.483 22.8585 684.043 21.7126 683.02 21.4665C681.996 21.2196 680.775 21.9677 680.294 23.1338Z" fill="white"/>
    <path d="M601.272 50.4548C601.272 50.4548 601.247 50.4727 601.2 50.5058C601.153 50.5402 601.083 50.5926 600.992 50.6587C600.814 50.7937 600.559 50.9962 600.245 51.2635C599.934 51.5335 599.562 51.8655 599.157 52.2636C598.756 52.6632 598.305 53.1205 597.851 53.644C597.393 54.1648 596.913 54.742 596.442 55.3743C595.964 56.0025 595.5 56.6872 595.04 57.4077C594.82 57.7714 594.586 58.1379 594.375 58.5208C594.267 58.7109 594.159 58.9024 594.049 59.0953C593.948 59.2909 593.845 59.4865 593.741 59.6849C593.529 60.0775 593.348 60.4853 593.151 60.889C592.96 61.2954 592.79 61.7114 592.608 62.1233C592.446 62.5407 592.277 62.9582 592.124 63.377C591.98 63.7985 591.824 64.2159 591.694 64.6361C591.569 65.0577 591.43 65.4723 591.32 65.8884C591.213 66.3044 591.098 66.715 591.002 67.1214C590.911 67.5291 590.823 67.93 590.736 68.3227C590.664 68.718 590.595 69.1038 590.526 69.4799C590.451 69.856 590.415 70.2252 590.362 70.5806C590.314 70.936 590.261 71.2804 590.234 71.6124C590.168 72.2751 590.104 72.884 590.083 73.424C590.053 73.964 590.018 74.4352 590.02 74.8237C590.006 75.6007 590 76.0443 590 76.0443L592.499 75.9699C592.499 75.9699 592.475 75.5469 592.433 74.8072C592.405 74.4366 592.404 73.9875 592.394 73.4709C592.375 72.9542 592.394 72.3715 592.41 71.7364C592.411 71.4182 592.438 71.0876 592.46 70.7459C592.486 70.4043 592.494 70.0488 592.54 69.6865C592.577 69.3228 592.618 68.9509 592.657 68.5693C592.711 68.189 592.768 67.8019 592.826 67.4065C592.888 67.0125 592.971 66.6144 593.043 66.2094C593.119 65.8044 593.223 65.4007 593.312 64.9888C593.407 64.5783 593.527 64.1705 593.634 63.7572C593.751 63.3467 593.885 62.9375 594.01 62.527C594.156 62.1219 594.29 61.7114 594.445 61.3105C594.606 60.911 594.751 60.5074 594.928 60.1175C595.014 59.9219 595.098 59.7263 595.183 59.532C595.273 59.3405 595.364 59.149 595.455 58.9603C595.63 58.5787 595.831 58.2122 596.017 57.8472C596.41 57.1253 596.81 56.4351 597.229 55.8C597.64 55.1608 598.063 54.5725 598.471 54.0408C598.876 53.5063 599.281 53.0379 599.643 52.6246C600.009 52.214 600.347 51.8696 600.631 51.59C600.917 51.3131 601.15 51.1023 601.311 50.9618C601.392 50.8943 601.453 50.8419 601.495 50.8061C601.538 50.7717 601.56 50.7538 601.56 50.7538L601.272 50.4507V50.4548Z" fill="#655C99"/>
    <path d="M598.186 42.2014C598.983 42.426 599.646 42.7001 600.194 43.0101L599.027 43.1354C598.567 42.5114 598.186 42.2014 598.186 42.2014Z" fill="#655C99"/>
    <path d="M599.955 51.1395C599.595 50.4217 599.132 49.7632 598.614 49.1612L599.233 48.2685L598.259 48.7672C597.594 48.0618 596.861 47.446 596.138 46.9198L596.696 46.1263L595.916 46.7586C593.976 45.392 592.19 44.6867 592.19 44.6867C601.008 44.1273 600.506 49.4326 600.434 49.9616C600.735 48.1528 600.561 46.6691 600.203 45.4995L601.374 44.8547L600.059 45.0751C599.794 44.3505 599.465 43.765 599.157 43.3173L600.228 43.0266C603.665 44.9911 602.523 48.3635 601.851 49.7549C603.102 48.3704 605.624 46.4762 609.139 48.1886C609.139 48.1886 608.675 48.2588 607.957 48.4007L607.218 48.2189L607.569 48.4793C606.868 48.6253 605.997 48.8278 605.102 49.0854C611.253 47.7243 610.797 53.4525 610.797 53.4525C610.531 52.9152 610.169 52.4826 609.744 52.1355L609.828 51.4274L609.576 52.006C608.931 51.5293 608.16 51.2304 607.363 51.0513L607.735 49.4367L607.08 50.9934C606.214 50.8281 605.331 50.7937 604.559 50.8171L604.209 49.861L604.04 50.8419C602.962 50.9108 602.202 51.072 602.202 51.072C612.924 52.991 606.89 60.7209 606.89 60.7209C606.976 59.7469 606.861 58.8376 606.618 58.0014L607.049 57.2589L606.458 57.5137C606.227 56.8731 605.922 56.2794 605.58 55.738L606.935 54.286L605.399 55.4611C605.009 54.8852 604.584 54.3741 604.168 53.9347L604.948 52.5254L603.843 53.604C602.837 52.6108 601.971 52.0625 601.971 52.0625C606.413 55.8565 600.861 60.1106 600.861 60.1106C601.107 59.2358 601.266 58.4519 601.364 57.7466L602.28 57.5289L601.386 57.5868C601.461 56.9889 601.489 56.4516 601.483 55.968L602.748 55.5038L601.479 55.7366C601.45 55.0189 601.343 54.4279 601.197 53.9484L602.035 53.4098L601.13 53.7432C600.705 52.5185 600.052 52.0942 600.052 52.0942C599.453 52.0983 598.843 52.1396 598.24 52.2057L598.071 51.5748L597.856 52.2512C597.315 52.3201 596.782 52.4083 596.268 52.5088L595.988 51.2717L595.896 52.5832C595.348 52.6962 594.83 52.8215 594.35 52.9455L594.147 51.9963L594.19 52.9869C592.576 53.4153 591.463 53.8355 591.463 53.8355C593.71 47.7712 599.953 51.1381 599.953 51.1381L599.955 51.1395Z" fill="#655C99"/>
    <path d="M639.55 42.7042C639.55 42.7042 639.583 42.7277 639.645 42.7713C639.707 42.8166 639.799 42.8855 639.919 42.9726C640.153 43.1503 640.489 43.417 640.902 43.7688C641.312 44.1243 641.802 44.5614 642.335 45.0856C642.863 45.6115 643.456 46.2137 644.055 46.9029C644.658 47.5885 645.29 48.3484 645.909 49.1809C646.539 50.008 647.15 50.9094 647.755 51.8579C648.045 52.3367 648.353 52.8192 648.631 53.3234C648.773 53.5737 648.915 53.8258 649.059 54.0797C649.193 54.3373 649.329 54.5948 649.465 54.856C649.745 55.3729 649.983 55.9097 650.242 56.4412C650.494 56.9762 650.718 57.5239 650.957 58.0662C651.171 58.6158 651.393 59.1653 651.594 59.7167C651.784 60.2717 651.989 60.8212 652.16 61.3744C652.325 61.9294 652.508 62.4753 652.652 63.0231C652.794 63.5708 652.944 64.1113 653.072 64.6463C653.191 65.1832 653.306 65.711 653.422 66.2279C653.516 66.7484 653.607 67.2563 653.697 67.7514C653.796 68.2465 653.844 68.7326 653.913 69.2005C653.977 69.6685 654.047 70.1219 654.082 70.559C654.169 71.4314 654.253 72.2331 654.282 72.944C654.321 73.655 654.366 74.2753 654.364 74.7868C654.383 75.8097 654.391 76.3937 654.391 76.3937L651.101 76.2958C651.101 76.2958 651.131 75.7389 651.187 74.765C651.224 74.2771 651.226 73.6858 651.238 73.0057C651.263 72.3256 651.238 71.5584 651.218 70.7222C651.216 70.3033 651.181 69.868 651.152 69.4182C651.117 68.9684 651.107 68.5005 651.047 68.0235C650.998 67.5446 650.944 67.0549 650.893 66.5525C650.821 66.052 650.747 65.5423 650.67 65.0218C650.588 64.5031 650.479 63.9789 650.384 63.4457C650.284 62.9124 650.148 62.381 650.031 61.8387C649.905 61.2982 649.747 60.7614 649.607 60.2173C649.452 59.6768 649.275 59.1381 649.111 58.5976C648.919 58.0644 648.742 57.5239 648.539 56.9961C648.327 56.4702 648.135 55.9388 647.903 55.4255C647.79 55.1679 647.679 54.9104 647.567 54.6547C647.448 54.4026 647.329 54.1504 647.209 53.902C646.979 53.3996 646.713 52.9171 646.469 52.4365C645.952 51.4861 645.425 50.5775 644.874 49.7413C644.333 48.8998 643.775 48.1253 643.238 47.4252C642.705 46.7215 642.172 46.1049 641.695 45.5608C641.213 45.0203 640.769 44.5668 640.394 44.1987C640.018 43.8341 639.711 43.5566 639.499 43.3716C639.392 43.2827 639.312 43.2138 639.256 43.1667C639.201 43.1213 639.172 43.0977 639.172 43.0977L639.55 42.6987V42.7042Z" fill="#655C99"/>
    <path d="M643.612 31.8379C642.563 32.1335 641.69 32.4945 640.968 32.9025L642.505 33.0676C643.11 32.246 643.612 31.8379 643.612 31.8379Z" fill="#655C99"/>
    <path d="M641.285 43.6047C641.758 42.6598 642.367 41.7928 643.05 41.0002L642.235 39.825L643.517 40.4815C644.392 39.5529 645.357 38.7422 646.31 38.0493L645.575 37.0047L646.602 37.8371C649.155 36.038 651.507 35.1093 651.507 35.1093C639.898 34.373 640.558 41.3575 640.653 42.054C640.258 39.6726 640.486 37.7193 640.957 36.1794L639.416 35.3306L641.147 35.6208C641.496 34.6668 641.929 33.896 642.334 33.3065L640.924 32.9238C636.399 35.5102 637.904 39.9501 638.789 41.7819C637.14 39.9592 633.821 37.4653 629.193 39.7198C629.193 39.7198 629.804 39.8123 630.749 39.9991L631.722 39.7597L631.259 40.1025C632.183 40.2947 633.329 40.5613 634.508 40.9005C626.409 39.1085 627.01 46.6499 627.01 46.6499C627.36 45.9426 627.837 45.3731 628.397 44.916L628.286 43.9838L628.617 44.7455C629.467 44.118 630.481 43.7244 631.531 43.4886L631.041 41.363L631.903 43.4125C633.043 43.1948 634.206 43.1495 635.222 43.1803L635.683 41.9216L635.906 43.213C637.325 43.3036 638.326 43.5158 638.326 43.5158C624.209 46.0423 632.154 56.219 632.154 56.219C632.041 54.9367 632.191 53.7397 632.512 52.6388L631.944 51.6612L632.722 51.9967C633.027 51.1533 633.428 50.3716 633.879 49.6589L632.095 47.7472L634.117 49.2943C634.63 48.5362 635.19 47.8633 635.737 47.2847L634.71 45.4293L636.165 46.8494C637.49 45.5418 638.63 44.8199 638.63 44.8199C632.782 49.8148 640.091 55.4155 640.091 55.4155C639.768 54.2638 639.558 53.2318 639.428 52.3032L638.223 52.0167L639.4 52.0928C639.301 51.3057 639.264 50.5984 639.272 49.9617L637.607 49.3505L639.278 49.657C639.315 48.7121 639.457 47.934 639.649 47.3029L638.546 46.5937L639.737 47.0326C640.297 45.4202 641.157 44.8616 641.157 44.8616C641.945 44.8671 642.748 44.9215 643.542 45.0085L643.764 44.1778L644.048 45.0684C644.76 45.1591 645.462 45.2751 646.139 45.4075L646.507 43.7788L646.628 45.5055C647.349 45.6542 648.032 45.8192 648.664 45.9825L648.931 44.7328L648.873 46.0369C650.999 46.601 652.464 47.1541 652.464 47.1541C649.505 39.1702 641.287 43.6029 641.287 43.6029L641.285 43.6047Z" fill="#655C99"/>
    <path d="M562.822 17.0368C563.258 14.4807 564.522 12.4508 566.599 10.947C567.989 9.9417 569.558 9.38556 571.308 9.26791C573.058 9.15027 574.738 9.45187 576.346 10.177C577.953 10.8957 579.272 11.9267 580.312 13.27C581.834 15.2337 582.451 17.3855 582.17 19.7192C581.883 22.0571 580.61 24.0422 578.342 25.6849C576.123 27.2913 573.693 27.9523 571.056 27.6635C568.412 27.379 566.283 26.1876 564.654 24.0871C562.988 21.9374 562.38 19.593 562.824 17.039L562.822 17.0368Z" fill="#9D9D9D"/>
    <g opacity="0.4">
    <path d="M580.311 13.2706C579.271 11.9273 577.952 10.8984 576.346 10.1776C575.682 9.87812 575.005 9.65566 574.316 9.49951C574.352 9.51448 574.387 9.52732 574.423 9.54443C575.879 10.1968 577.074 11.1316 578.016 12.3487C579.397 14.1305 579.957 16.0792 579.7 18.1946C579.57 19.262 579.211 20.2502 578.622 21.1572C578.587 21.1251 578.549 21.0952 578.512 21.0631C578.145 20.7829 577.733 20.6759 577.279 20.7422C576.826 20.8064 576.452 21.0224 576.155 21.3861C575.852 21.7583 575.73 22.1433 575.79 22.5454C575.848 22.9304 576.038 23.2513 576.357 23.508C576.315 23.5401 576.273 23.5722 576.23 23.6042C574.219 25.0609 572.015 25.6598 569.623 25.3989C569.451 25.3796 569.28 25.3561 569.112 25.3283C569.112 25.3283 569.112 25.3283 569.112 25.3262C569.263 25.1401 569.327 24.9262 569.302 24.6823C569.278 24.4385 569.165 24.2395 568.959 24.0834C568.758 23.9294 568.535 23.8716 568.287 23.908C568.039 23.9443 567.835 24.0599 567.672 24.2588C567.506 24.462 567.439 24.6716 567.472 24.8919C567.472 24.8962 567.472 24.8983 567.475 24.9005C566.041 24.3679 564.824 23.4524 563.817 22.154C563.501 21.7454 563.228 21.3262 562.996 20.9027C563.313 22.0085 563.859 23.0695 564.647 24.0877C566.275 26.1882 568.404 27.3818 571.048 27.6641C573.686 27.9529 576.118 27.2919 578.335 25.6855C580.605 24.0427 581.877 22.0577 582.163 19.7198C582.444 17.3861 581.827 15.2364 580.304 13.2706H580.311Z" fill="#655C99"/>
    <path d="M573.243 16.3999C573.119 17.108 573.29 17.7582 573.75 18.355C574.201 18.9368 574.792 19.2684 575.525 19.3475C576.257 19.4267 576.93 19.2448 577.545 18.7978C578.173 18.3422 578.527 17.7924 578.607 17.1443C578.684 16.4983 578.514 15.9015 578.091 15.3561C577.804 14.9839 577.439 14.6973 576.992 14.4983C576.545 14.2973 576.08 14.2139 575.595 14.2459C575.111 14.278 574.675 14.432 574.29 14.7122C573.715 15.1294 573.363 15.6919 573.243 16.3999Z" fill="#655C99"/>
    <path d="M571.863 13.5505C572.098 13.7302 572.366 13.8457 572.666 13.897C572.967 13.9484 573.262 13.927 573.549 13.8329C573.837 13.7388 574.072 13.5783 574.257 13.3495C574.534 13.0093 574.651 12.6158 574.607 12.1708C574.563 11.7259 574.355 11.3602 573.979 11.0735C573.611 10.7933 573.2 10.6864 572.746 10.7527C572.293 10.8168 571.919 11.0329 571.622 11.3965C571.319 11.7687 571.197 12.1537 571.257 12.5559C571.317 12.958 571.52 13.2896 571.863 13.5527V13.5505Z" fill="#655C99"/>
    <path d="M570.569 23.8908C570.857 24.1112 571.184 24.2523 571.552 24.3144C571.921 24.3785 572.282 24.3507 572.631 24.2352C572.983 24.1197 573.271 23.9229 573.499 23.6448C573.837 23.2277 573.981 22.7486 573.928 22.2031C573.875 21.6577 573.618 21.2128 573.158 20.8598C572.707 20.5155 572.207 20.385 571.649 20.4663C571.094 20.5454 570.636 20.8085 570.273 21.2534C569.901 21.709 569.753 22.1796 569.826 22.6716C569.899 23.1636 570.147 23.57 570.567 23.8908H570.569Z" fill="#655C99"/>
    <path d="M570.782 19.3258C570.91 19.4242 571.056 19.4862 571.22 19.514C571.386 19.5419 571.545 19.5312 571.702 19.4777C571.859 19.4263 571.988 19.3386 572.089 19.2146C572.24 19.0285 572.304 18.8146 572.28 18.5707C572.255 18.3269 572.142 18.128 571.937 17.9718C571.735 17.8178 571.512 17.76 571.264 17.7964C571.016 17.8328 570.813 17.9483 570.649 18.1472C570.483 18.3504 570.417 18.56 570.45 18.7804C570.483 18.9985 570.594 19.1804 570.782 19.3237V19.3258Z" fill="#655C99"/>
    <path d="M565.55 22.8877C565.616 22.939 565.692 22.9711 565.778 22.9861C565.864 23.001 565.946 22.9946 566.028 22.9668C566.11 22.939 566.176 22.8941 566.227 22.8299C566.305 22.7337 566.338 22.6224 566.327 22.4962C566.313 22.37 566.256 22.2673 566.15 22.1861C566.046 22.1069 565.931 22.077 565.802 22.0962C565.674 22.1155 565.568 22.1754 565.484 22.278C565.397 22.3829 565.364 22.4919 565.38 22.6053C565.397 22.7187 565.453 22.8128 565.55 22.8855V22.8877Z" fill="#655C99"/>
    </g>
    </g>
    <defs>
    <linearGradient id="paint0_linear_3624_121870" x1="340" y1="0" x2="340" y2="78.64" gradientUnits="userSpaceOnUse">
    <stop offset="0.11" stop-color="#463F6B"/>
    <stop offset="0.44" stop-color="#3B3365"/>
    <stop offset="0.91" stop-color="#312A59"/>
    </linearGradient>
    <clipPath id="clip0_3624_121870">
    <path d="M0 14C0 6.26801 6.26801 0 14 0H666C673.732 0 680 6.26801 680 14V76H0V14Z" fill="white"/>
    </clipPath>
    </defs>
    </svg>
    