<svg width="248" height="302" viewBox="0 0 248 302" fill="none" xmlns="http://www.w3.org/2000/svg">
<g clip-path="url(#clip0_1348_42611)">
<rect width="248" height="302" rx="17.5693" fill="url(#paint0_linear_1348_42611)"/>
<path d="M51.7545 245.294C53.0224 250.121 51.614 255.247 50.2091 260.136C49.63 262.14 49.3833 264.857 51.4084 265.636C53.8482 266.576 56.2229 263.406 58.906 263.382C60.3863 263.911 60.9037 265.605 60.8866 267.099C60.8729 268.593 60.5165 270.147 61.0065 271.552C61.1436 271.942 61.3526 272.322 61.7056 272.559C62.9289 273.381 64.5531 272.015 65.4509 270.81C69.8302 264.921 74.1718 259.007 78.4654 253.066" fill="#2A295E"/>
<path d="M51.6485 245.307C51.7479 249.331 51.3881 253.003 50.3532 256.967C49.7672 259.209 48.5645 261.785 49.2464 264.088C49.6542 265.469 50.6959 266.433 52.2858 266.515C56.0997 266.713 58.9164 260.623 59.941 268.687C60.1329 270.202 59.5401 272.289 61.2295 273.287C62.6858 274.148 64.2449 273.226 65.3517 272.204C67.884 269.868 69.7481 266.461 71.7562 263.732C74.2713 260.304 76.7865 256.903 78.6712 253.149C78.7877 252.918 78.4587 252.775 78.2908 252.948C73.4284 257.846 69.8852 263.677 65.6944 269.046C64.7075 270.306 63.1073 272.806 61.6783 270.373C61.1575 269.484 61.7674 267.489 61.6064 266.445C61.4076 265.147 60.8045 263.391 59.3311 262.883C58.5464 262.613 57.6897 262.865 56.8947 263.124C55.9695 263.425 55.2054 264.137 54.2905 264.423C50.4868 265.618 50.7267 261.092 51.2784 259.005C52.4435 254.527 53.7216 249.626 51.8541 245.261C51.8095 245.154 51.6451 245.2 51.6451 245.313L51.6485 245.307Z" fill="#2A295E"/>
<path d="M137.831 283.958C139.811 274.327 134.301 263.646 128.445 252.424C122.578 241.19 116.373 229.421 116.876 217.453C117.061 213.1 118.967 208.914 120.978 204.908C122.503 201.866 126.108 195.697 122.613 195.414C117.887 195.028 116.4 202.444 113.265 205.945C112.579 206.712 111.86 207.506 110.88 207.892C109.283 208.528 107.511 207.908 106 207.226C101.892 205.371 98.0674 203.007 94.6374 200.223C93.4277 199.241 92.1976 198.082 92.0297 196.579C91.7966 194.556 93.5134 192.804 94.8738 191.161C96.803 188.831 101.326 185.165 99.0029 183.313C93.2256 178.71 88.1644 193.589 81.4344 197.635C74.2007 202.009 64.3525 199.992 55.7687 200.33C44.68 200.759 33.6427 201.994 22.7904 203.98C20.217 204.452 17.5476 205.018 15.5122 206.545C14.9433 206.974 14.4225 207.494 14.1758 208.133C13.4151 210.107 15.4642 211.96 17.2529 213.243C31.172 223.251 42.6034 236.18 50.2483 250.967C52.9348 256.163 55.3369 261.8 59.7025 265.764C61.6865 265.961 63.7665 265.824 65.7814 265.706C74.8209 265.183 84.0558 265.402 92.4957 268.088C100.261 270.561 106.994 275.024 114.163 278.665C121.324 282.306 137.327 289.634 137.831 283.961V283.958Z" fill="#2A295E"/>
<path d="M61.2279 256.811C60.4432 260.02 59.7784 262.977 57.6059 265.73C55.3374 268.608 52.0341 270.722 48.3299 271.924C41.576 274.117 32.3479 274.138 27.6911 268.556C23.9252 264.042 22.8663 258.195 18.6721 253.9C14.4779 249.605 8.15565 247.256 1.90541 247.804C-5.03359 248.412 -11.301 252.875 -13.9875 258.521C-14.1006 258.758 -13.7339 258.971 -13.5866 258.731C-10.1359 253.127 -3.6081 249.416 3.69071 249.553C11.0615 249.69 17.0924 253.714 20.3649 259.4C23.0754 264.112 24.8401 269.907 30.2851 272.788C36.2132 275.927 44.7662 275.085 50.7731 272.569C54.2135 271.13 57.1981 268.882 59.2644 266.038C61.1765 263.403 62.6568 259.954 61.7967 256.808C61.7282 256.562 61.2861 256.553 61.2245 256.808L61.2279 256.811Z" fill="#2A295E"/>
<path d="M13.0269 147.589C13.548 149.625 12.9691 151.788 12.3917 153.85C12.1537 154.696 12.0523 155.842 12.8846 156.17C13.8874 156.567 14.8635 155.23 15.9663 155.219C16.5747 155.443 16.7874 156.157 16.7803 156.788C16.7747 157.418 16.6282 158.073 16.8296 158.666C16.886 158.831 16.9719 158.991 17.117 159.091C17.6198 159.438 18.2874 158.861 18.6564 158.353C20.4563 155.869 22.2408 153.374 24.0056 150.868" fill="#35336C"/>
<path d="M12.983 147.594C13.0239 149.292 12.876 150.841 12.4506 152.513C12.2098 153.459 11.7154 154.546 11.9957 155.517C12.1633 156.1 12.5915 156.507 13.245 156.542C14.8126 156.625 15.9703 154.056 16.3914 157.458C16.4703 158.097 16.2266 158.977 16.921 159.398C17.5196 159.761 18.1604 159.373 18.6153 158.941C19.6561 157.956 20.4223 156.518 21.2477 155.367C22.2814 153.921 23.3152 152.486 24.0899 150.903C24.1378 150.805 24.0025 150.745 23.9335 150.818C21.935 152.884 20.4787 155.344 18.7562 157.609C18.3505 158.141 17.6928 159.195 17.1055 158.169C16.8914 157.794 17.1421 156.952 17.0759 156.512C16.9942 155.964 16.7463 155.224 16.1407 155.009C15.8182 154.895 15.4661 155.002 15.1393 155.111C14.759 155.238 14.445 155.538 14.0689 155.659C12.5056 156.163 12.6042 154.253 12.8309 153.373C13.3098 151.484 13.8351 149.417 13.0675 147.575C13.0492 147.53 12.9816 147.549 12.9816 147.597L12.983 147.594Z" fill="#35336C"/>
<path d="M48.4032 163.9C49.2172 159.838 46.9525 155.332 44.5455 150.598C42.1343 145.858 39.5836 140.893 39.7906 135.845C39.8667 134.008 40.6498 132.242 41.4765 130.552C42.1033 129.269 43.5849 126.666 42.1483 126.547C40.2061 126.384 39.5949 129.513 38.3062 130.99C38.0245 131.313 37.7287 131.648 37.3259 131.811C36.6696 132.079 35.9414 131.818 35.3203 131.53C33.6316 130.747 32.0598 129.75 30.65 128.576C30.1528 128.161 29.6472 127.672 29.5782 127.038C29.4824 126.185 30.188 125.446 30.7471 124.753C31.5401 123.77 33.3992 122.223 32.4443 121.442C30.0697 119.5 27.9894 125.777 25.2233 127.484C22.2501 129.329 18.2023 128.478 14.6742 128.621C10.1165 128.802 5.58001 129.323 1.11952 130.161C0.0617981 130.36 -1.03536 130.598 -1.87197 131.243C-2.10577 131.424 -2.31985 131.643 -2.42125 131.912C-2.73392 132.745 -1.89169 133.527 -1.15649 134.068C4.56453 138.291 9.26303 143.745 12.4052 149.983C13.5094 152.175 14.4967 154.553 16.2911 156.225C17.1066 156.308 17.9615 156.251 18.7896 156.201C22.505 155.98 26.3007 156.072 29.7697 157.205C32.9612 158.249 35.7287 160.131 38.6752 161.668C41.6188 163.204 48.1961 166.295 48.4032 163.902V163.9Z" fill="#35336C"/>
<path d="M16.9149 152.449C16.5924 153.803 16.3191 155.05 15.4262 156.211C14.4938 157.426 13.1361 158.317 11.6136 158.824C8.83758 159.75 5.04469 159.759 3.13064 157.404C1.58278 155.499 1.14758 153.033 -0.576332 151.221C-2.30024 149.409 -4.89879 148.418 -7.46775 148.649C-10.3198 148.906 -12.8958 150.788 -14 153.17C-14.0465 153.27 -13.8958 153.36 -13.8352 153.259C-12.417 150.895 -9.73391 149.329 -6.73396 149.387C-3.70444 149.445 -1.22562 151.142 0.119431 153.541C1.23349 155.529 1.95883 157.973 4.19682 159.189C6.6334 160.513 10.1488 160.158 12.6178 159.096C14.0319 158.489 15.2586 157.541 16.1079 156.341C16.8938 155.23 17.5022 153.774 17.1487 152.448C17.1205 152.344 16.9388 152.34 16.9135 152.448L16.9149 152.449Z" fill="#35336C"/>
<g clip-path="url(#clip1_1348_42611)">
<path d="M194.072 282.366C193.83 282.187 194.416 282.061 194.412 281.693C194.407 281.244 193.213 280.647 192.865 280.503C192.587 280.386 192.064 280.184 192.064 280.184C192.064 280.184 191.671 279.708 190.973 279.138C190.276 278.573 189.963 278.411 189.963 278.411C189.963 278.411 189.963 278.411 189.959 278.411C188.729 277.63 187.28 277.176 185.501 277.571C184.164 277.868 183.704 278.649 183.592 279.417C183.592 279.435 183.592 279.448 183.587 279.461C183.587 279.461 183.587 279.47 183.587 279.475C183.4 280.525 183.829 281.199 183.829 281.199C183.829 281.199 183.225 281.293 182.943 280.876C182.662 280.458 182.21 280.175 181.906 280.386C181.763 280.485 181.566 280.701 181.419 281.028C181.307 281.127 181.24 281.226 181.24 281.23L181.289 281.262C181.289 281.262 181.32 281.217 181.37 281.158C181.356 281.194 181.343 281.226 181.334 281.262C181.231 281.347 181.182 281.432 181.177 281.441L181.227 281.468C181.227 281.468 181.253 281.428 181.298 281.374C181.28 281.437 181.271 281.504 181.258 281.576C181.16 281.657 181.115 281.729 181.115 281.733L181.164 281.76C181.164 281.76 181.191 281.715 181.24 281.666C181.231 281.729 181.231 281.8 181.227 281.872C181.124 281.967 181.11 282.065 181.11 282.074H181.168C181.168 282.074 181.177 282.02 181.222 281.958C181.222 282.079 181.227 282.205 181.24 282.339C181.182 282.299 181.164 282.263 181.164 282.263L181.11 282.285C181.11 282.285 181.142 282.353 181.244 282.416C181.244 282.429 181.244 282.438 181.244 282.451C181.253 282.505 181.262 282.555 181.271 282.609C181.24 282.577 181.222 282.55 181.222 282.546L181.173 282.577C181.173 282.577 181.213 282.64 181.289 282.703C181.312 282.806 181.338 282.9 181.365 282.995C181.325 282.963 181.307 282.941 181.307 282.941L181.262 282.972C181.262 282.972 181.307 283.031 181.396 283.084C181.441 283.21 181.49 283.327 181.544 283.435C181.522 283.421 181.504 283.408 181.504 283.408L181.468 283.453C181.468 283.453 181.522 283.493 181.593 283.533C181.866 284 182.224 284.211 182.514 284.036C182.97 283.753 183.221 283.066 183.721 283.093C183.721 283.093 183.721 283.102 183.721 283.107C183.712 283.125 183.695 283.17 183.672 283.233C183.672 283.233 183.654 283.277 183.632 283.34C183.596 283.426 183.56 283.538 183.538 283.69C183.484 283.969 183.471 284.323 183.645 284.606C183.865 285.203 184.486 285.805 185.988 286.061C187.584 286.335 188.751 286.137 189.543 285.85C189.552 285.85 189.561 285.85 189.57 285.841C189.578 285.841 189.583 285.832 189.592 285.832C190.432 285.518 190.835 285.114 190.866 285.082C190.942 285.055 191.023 285.024 191.103 284.988C191.425 284.858 191.729 284.692 192.024 284.512C192.006 284.534 191.993 284.548 191.993 284.548C191.993 284.548 193.513 283.547 193.665 283.435C193.817 283.322 194.336 283.008 194.322 282.658C194.318 282.541 194.202 282.456 194.081 282.366H194.072Z" fill="#2A295E"/>
<path d="M221.153 295.632C220.96 295.489 221.425 295.39 221.421 295.098C221.421 294.743 220.468 294.268 220.191 294.151C219.972 294.061 219.552 293.899 219.552 293.899C219.552 293.899 219.239 293.518 218.685 293.069C218.13 292.615 217.88 292.49 217.88 292.49C216.901 291.866 215.747 291.507 214.33 291.821C213.266 292.054 212.899 292.678 212.81 293.289C212.81 293.302 212.81 293.311 212.805 293.325V293.334C212.658 294.173 212.997 294.707 212.997 294.707C212.997 294.707 212.519 294.784 212.295 294.452C212.072 294.119 211.71 293.895 211.473 294.061C211.357 294.142 211.2 294.312 211.084 294.568C210.994 294.649 210.941 294.725 210.941 294.73L210.981 294.752C210.981 294.752 211.008 294.716 211.044 294.672C211.035 294.698 211.026 294.725 211.012 294.757C210.932 294.824 210.892 294.896 210.887 294.901L210.927 294.923C210.927 294.923 210.945 294.892 210.985 294.851C210.972 294.901 210.963 294.954 210.954 295.013C210.878 295.076 210.842 295.134 210.838 295.138L210.878 295.161C210.878 295.161 210.9 295.125 210.941 295.085C210.932 295.134 210.932 295.192 210.932 295.251C210.847 295.327 210.838 295.408 210.838 295.412H210.883C210.883 295.412 210.892 295.372 210.927 295.323C210.927 295.417 210.927 295.52 210.941 295.628C210.896 295.596 210.878 295.565 210.878 295.565L210.838 295.583C210.838 295.583 210.86 295.637 210.945 295.686C210.945 295.695 210.945 295.704 210.945 295.718C210.95 295.758 210.959 295.803 210.968 295.843C210.941 295.816 210.927 295.798 210.927 295.794L210.887 295.816C210.887 295.816 210.918 295.866 210.981 295.915C210.999 295.996 211.021 296.072 211.044 296.149C211.012 296.122 210.999 296.104 210.999 296.104L210.963 296.131C210.963 296.131 210.999 296.175 211.07 296.22C211.106 296.324 211.146 296.413 211.191 296.499C211.173 296.485 211.16 296.476 211.16 296.476L211.133 296.512C211.133 296.512 211.173 296.544 211.236 296.575C211.45 296.948 211.741 297.114 211.969 296.975C212.331 296.75 212.532 296.202 212.93 296.225V296.234C212.921 296.247 212.908 296.283 212.89 296.333C212.89 296.333 212.877 296.369 212.859 296.418C212.832 296.485 212.801 296.575 212.783 296.696C212.743 296.921 212.729 297.199 212.868 297.424C213.042 297.899 213.534 298.375 214.732 298.582C216.002 298.797 216.932 298.645 217.562 298.416C217.571 298.416 217.576 298.416 217.585 298.411C217.589 298.411 217.598 298.407 217.603 298.402C218.273 298.151 218.591 297.832 218.617 297.805C218.68 297.783 218.743 297.756 218.805 297.729C219.06 297.626 219.306 297.491 219.539 297.352C219.525 297.37 219.516 297.379 219.516 297.379C219.516 297.379 220.723 296.58 220.849 296.494C220.969 296.404 221.381 296.153 221.372 295.879C221.372 295.785 221.278 295.718 221.179 295.646L221.153 295.632Z" fill="#2A295E"/>
<path d="M234.44 212.067C234.23 211.91 234.736 211.807 234.736 211.483C234.736 211.097 233.698 210.577 233.394 210.451C233.153 210.352 232.701 210.177 232.701 210.177C232.701 210.177 232.357 209.764 231.758 209.275C231.154 208.785 230.882 208.646 230.882 208.646C230.882 208.646 230.882 208.646 230.877 208.646C229.813 207.968 228.557 207.578 227.014 207.919C225.856 208.175 225.458 208.853 225.36 209.517C225.36 209.531 225.36 209.544 225.355 209.558C225.355 209.558 225.355 209.567 225.355 209.571C225.194 210.482 225.565 211.066 225.565 211.066C225.565 211.066 225.042 211.147 224.801 210.788C224.555 210.428 224.166 210.182 223.907 210.361C223.782 210.446 223.612 210.635 223.486 210.913C223.388 210.999 223.33 211.084 223.33 211.088L223.37 211.115C223.37 211.115 223.397 211.075 223.442 211.026C223.428 211.057 223.419 211.084 223.41 211.115C223.321 211.192 223.281 211.263 223.276 211.272L223.321 211.295C223.321 211.295 223.343 211.259 223.384 211.214C223.37 211.268 223.357 211.331 223.348 211.389C223.263 211.457 223.223 211.524 223.223 211.524L223.267 211.546C223.267 211.546 223.294 211.506 223.334 211.466C223.325 211.519 223.325 211.582 223.325 211.645C223.236 211.726 223.223 211.816 223.223 211.82H223.272C223.272 211.82 223.281 211.775 223.321 211.721C223.321 211.825 223.321 211.937 223.339 212.054C223.29 212.018 223.272 211.986 223.272 211.986L223.227 212.004C223.227 212.004 223.254 212.063 223.343 212.116C223.343 212.13 223.343 212.139 223.343 212.148C223.348 212.193 223.357 212.238 223.366 212.283C223.339 212.256 223.325 212.233 223.321 212.229L223.281 212.256C223.281 212.256 223.317 212.31 223.384 212.363C223.401 212.453 223.424 212.538 223.451 212.615C223.419 212.588 223.401 212.565 223.401 212.565L223.361 212.592C223.361 212.592 223.402 212.642 223.478 212.691C223.518 212.803 223.558 212.902 223.607 212.996C223.585 212.983 223.571 212.974 223.571 212.974L223.54 213.014C223.54 213.014 223.585 213.05 223.647 213.082C223.88 213.486 224.193 213.67 224.443 213.517C224.841 213.27 225.056 212.678 225.489 212.7C225.489 212.7 225.489 212.709 225.489 212.714C225.481 212.732 225.467 212.767 225.445 212.821C225.445 212.821 225.427 212.857 225.409 212.916C225.378 212.987 225.346 213.086 225.329 213.216C225.284 213.459 225.27 213.764 225.422 214.006C225.615 214.523 226.151 215.044 227.452 215.268C228.834 215.506 229.844 215.335 230.528 215.088C230.537 215.088 230.546 215.088 230.551 215.084C230.555 215.084 230.564 215.075 230.569 215.075C231.297 214.806 231.646 214.451 231.668 214.424C231.735 214.397 231.803 214.375 231.874 214.343C232.151 214.231 232.42 214.087 232.67 213.93C232.657 213.948 232.643 213.962 232.643 213.962C232.643 213.962 233.958 213.095 234.092 212.996C234.226 212.902 234.673 212.624 234.66 212.327C234.66 212.224 234.557 212.152 234.454 212.076L234.44 212.067Z" fill="#2A295E"/>
<path d="M244.867 242.442C244.518 242.182 245.363 242.002 245.358 241.468C245.349 240.817 243.619 239.951 243.114 239.74C242.712 239.573 241.951 239.277 241.951 239.277C241.951 239.277 241.379 238.586 240.364 237.76C239.354 236.938 238.893 236.705 238.893 236.705C238.893 236.705 238.889 236.705 238.884 236.705C237.1 235.569 234.995 234.913 232.41 235.484C230.47 235.91 229.799 237.05 229.638 238.164C229.634 238.186 229.634 238.209 229.629 238.231C229.629 238.236 229.629 238.245 229.629 238.249C229.357 239.775 229.983 240.754 229.983 240.754C229.983 240.754 229.106 240.893 228.699 240.287C228.288 239.686 227.635 239.273 227.197 239.573C226.987 239.717 226.701 240.031 226.491 240.503C226.33 240.651 226.231 240.79 226.231 240.795L226.303 240.839C226.303 240.839 226.348 240.772 226.419 240.691C226.401 240.741 226.383 240.79 226.365 240.844C226.218 240.97 226.146 241.095 226.137 241.104L226.209 241.145C226.209 241.145 226.245 241.086 226.312 241.01C226.289 241.104 226.272 241.203 226.254 241.302C226.115 241.419 226.048 241.526 226.044 241.531L226.115 241.571C226.115 241.571 226.155 241.504 226.227 241.432C226.213 241.526 226.213 241.63 226.209 241.733C226.057 241.868 226.039 242.016 226.039 242.029L226.12 242.038C226.12 242.038 226.133 241.953 226.2 241.863C226.2 242.038 226.209 242.227 226.227 242.42C226.142 242.357 226.115 242.307 226.115 242.307L226.039 242.339C226.039 242.339 226.084 242.438 226.236 242.527C226.236 242.545 226.236 242.563 226.236 242.581C226.249 242.658 226.263 242.734 226.276 242.806C226.231 242.756 226.204 242.72 226.204 242.716L226.133 242.761C226.133 242.761 226.196 242.851 226.303 242.94C226.334 243.089 226.374 243.232 226.415 243.367C226.361 243.322 226.33 243.286 226.33 243.286L226.263 243.336C226.263 243.336 226.325 243.421 226.455 243.502C226.517 243.686 226.593 243.856 226.669 244.013C226.634 243.991 226.611 243.973 226.611 243.973L226.562 244.036C226.562 244.036 226.638 244.094 226.745 244.153C227.139 244.835 227.662 245.136 228.082 244.88C228.749 244.471 229.111 243.47 229.835 243.506C229.835 243.511 229.835 243.52 229.83 243.524C229.817 243.551 229.79 243.614 229.759 243.704C229.759 243.704 229.732 243.767 229.701 243.861C229.652 243.982 229.594 244.148 229.567 244.368C229.491 244.772 229.468 245.288 229.719 245.697C230.041 246.563 230.939 247.439 233.121 247.811C235.442 248.207 237.132 247.924 238.281 247.506C238.294 247.506 238.308 247.502 238.321 247.497C238.334 247.497 238.343 247.484 238.352 247.479C239.573 247.026 240.159 246.438 240.199 246.393C240.311 246.352 240.427 246.308 240.539 246.254C241.004 246.061 241.451 245.823 241.871 245.562C241.849 245.594 241.826 245.612 241.826 245.612C241.826 245.612 244.03 244.157 244.254 243.995C244.478 243.834 245.229 243.376 245.206 242.869C245.197 242.698 245.032 242.577 244.858 242.442H244.867Z" fill="#2A295E"/>
<path d="M188.188 305.289C187.795 304.993 188.747 304.795 188.738 304.193C188.729 303.466 186.789 302.492 186.221 302.254C185.77 302.065 184.916 301.738 184.916 301.738C184.916 301.738 184.272 300.961 183.141 300.041C182.005 299.116 181.495 298.86 181.495 298.86C181.495 298.86 181.491 298.86 181.486 298.86C179.488 297.585 177.127 296.853 174.225 297.491C172.052 297.971 171.297 299.246 171.118 300.494C171.114 300.521 171.114 300.544 171.109 300.571C171.109 300.579 171.109 300.584 171.109 300.593C170.805 302.308 171.502 303.399 171.502 303.399C171.502 303.399 170.523 303.551 170.063 302.878C169.602 302.2 168.869 301.742 168.377 302.079C168.14 302.241 167.823 302.595 167.581 303.12C167.398 303.287 167.291 303.444 167.291 303.448L167.367 303.498C167.367 303.498 167.416 303.421 167.501 303.331C167.479 303.385 167.461 303.444 167.443 303.502C167.277 303.646 167.197 303.785 167.188 303.794L167.268 303.839C167.268 303.839 167.309 303.771 167.385 303.686C167.358 303.789 167.34 303.902 167.318 304.014C167.161 304.144 167.085 304.265 167.085 304.27L167.166 304.315C167.166 304.315 167.21 304.238 167.291 304.158C167.277 304.261 167.277 304.382 167.268 304.494C167.099 304.647 167.081 304.813 167.076 304.826L167.166 304.835C167.166 304.835 167.179 304.741 167.255 304.642C167.255 304.84 167.264 305.046 167.286 305.266C167.192 305.199 167.161 305.141 167.161 305.141L167.076 305.177C167.076 305.177 167.125 305.289 167.295 305.388C167.295 305.41 167.295 305.428 167.3 305.45C167.313 305.536 167.327 305.621 167.344 305.702C167.291 305.648 167.264 305.608 167.264 305.603L167.188 305.652C167.188 305.652 167.255 305.751 167.376 305.854C167.411 306.021 167.456 306.178 167.501 306.33C167.438 306.281 167.407 306.241 167.407 306.241L167.331 306.294C167.331 306.294 167.403 306.389 167.55 306.479C167.622 306.685 167.702 306.878 167.792 307.049C167.751 307.022 167.729 307.004 167.729 307.004L167.671 307.076C167.671 307.076 167.756 307.143 167.876 307.206C168.319 307.969 168.905 308.31 169.374 308.018C170.121 307.556 170.528 306.443 171.342 306.483C171.342 306.492 171.342 306.496 171.337 306.505C171.324 306.537 171.292 306.609 171.257 306.707C171.257 306.707 171.225 306.779 171.19 306.887C171.131 307.022 171.073 307.21 171.037 307.457C170.953 307.911 170.93 308.49 171.212 308.948C171.574 309.917 172.58 310.896 175.026 311.318C177.623 311.762 179.519 311.444 180.811 310.977C180.825 310.977 180.842 310.972 180.856 310.968C180.869 310.963 180.878 310.954 180.892 310.95C182.26 310.438 182.917 309.778 182.962 309.729C183.087 309.684 183.217 309.63 183.346 309.576C183.865 309.361 184.37 309.096 184.844 308.804C184.817 308.84 184.795 308.862 184.795 308.862C184.795 308.862 187.267 307.228 187.518 307.049C187.768 306.869 188.609 306.353 188.586 305.787C188.577 305.594 188.39 305.459 188.197 305.311L188.188 305.289Z" fill="#2A295E"/>
<path d="M214.044 267.852C213.816 267.681 214.366 267.565 214.362 267.219C214.362 266.797 213.235 266.236 212.904 266.097C212.645 265.989 212.148 265.796 212.148 265.796C212.148 265.796 211.777 265.347 211.12 264.813C210.463 264.278 210.168 264.13 210.168 264.13C210.168 264.13 210.168 264.13 210.163 264.13C209.005 263.394 207.642 262.968 205.965 263.34C204.709 263.619 204.27 264.355 204.168 265.078C204.168 265.091 204.168 265.104 204.163 265.122C204.163 265.122 204.163 265.131 204.163 265.136C203.989 266.128 204.391 266.761 204.391 266.761C204.391 266.761 203.823 266.851 203.56 266.46C203.296 266.07 202.867 265.8 202.585 265.998C202.446 266.092 202.263 266.294 202.124 266.599C202.017 266.694 201.954 266.788 201.954 266.788L201.999 266.815C201.999 266.815 202.03 266.77 202.075 266.721C202.062 266.752 202.053 266.784 202.039 266.819C201.941 266.9 201.896 266.981 201.892 266.99L201.937 267.017C201.937 267.017 201.959 266.977 202.004 266.932C201.99 266.99 201.977 267.057 201.963 267.12C201.874 267.197 201.829 267.264 201.829 267.268L201.874 267.295C201.874 267.295 201.901 267.25 201.946 267.206C201.937 267.268 201.937 267.336 201.932 267.399C201.834 267.488 201.82 267.583 201.82 267.592H201.874C201.874 267.592 201.883 267.542 201.928 267.484C201.928 267.596 201.928 267.717 201.946 267.843C201.892 267.803 201.874 267.771 201.874 267.771L201.825 267.794C201.825 267.794 201.852 267.856 201.95 267.915C201.95 267.928 201.95 267.937 201.95 267.951C201.959 268 201.968 268.05 201.977 268.099C201.946 268.067 201.932 268.045 201.928 268.041L201.883 268.067C201.883 268.067 201.923 268.126 201.995 268.184C202.017 268.278 202.039 268.373 202.066 268.458C202.03 268.427 202.013 268.404 202.013 268.404L201.968 268.436C201.968 268.436 202.008 268.489 202.093 268.543C202.133 268.665 202.182 268.772 202.232 268.876C202.209 268.862 202.196 268.849 202.196 268.849L202.165 268.889C202.165 268.889 202.214 268.925 202.285 268.965C202.54 269.405 202.88 269.603 203.153 269.437C203.582 269.172 203.819 268.525 204.288 268.548C204.288 268.548 204.288 268.557 204.288 268.561C204.279 268.579 204.261 268.62 204.239 268.678C204.239 268.678 204.221 268.718 204.199 268.781C204.168 268.862 204.132 268.97 204.109 269.109C204.06 269.374 204.047 269.706 204.208 269.971C204.418 270.532 204.999 271.098 206.412 271.34C207.914 271.596 209.01 271.412 209.756 271.143C209.765 271.143 209.774 271.143 209.783 271.138C209.792 271.138 209.797 271.129 209.806 271.129C210.597 270.833 210.977 270.451 211.004 270.424C211.075 270.397 211.151 270.371 211.223 270.335C211.522 270.209 211.813 270.056 212.09 269.886C212.077 269.904 212.063 269.917 212.063 269.917C212.063 269.917 213.494 268.974 213.637 268.871C213.78 268.768 214.268 268.467 214.254 268.139C214.25 268.027 214.142 267.951 214.026 267.865L214.044 267.852Z" fill="#2A295E"/>
</g>
</g>
<defs>
<linearGradient id="paint0_linear_1348_42611" x1="44.8332" y1="-18.2439" x2="182.221" y2="359.262" gradientUnits="userSpaceOnUse">
<stop offset="0.162156" stop-color="#22306C"/>
<stop offset="0.62" stop-color="#0A1234"/>
</linearGradient>
<clipPath id="clip0_1348_42611">
<rect width="248" height="302" rx="17.5693" fill="white"/>
</clipPath>
<clipPath id="clip1_1348_42611">
<rect width="160.805" height="143.054" fill="white" transform="translate(167.07 207.793)"/>
</clipPath>
</defs>
</svg>
