<svg xmlns="http://www.w3.org/2000/svg" width="24" height="24" viewBox="0 0 24 24" fill="none">
    <path fill-rule="evenodd" clip-rule="evenodd" d="M16.2414 21.0011C14.9432 20.9533 11.264 20.4449 7.41092 16.5927C3.55871 12.7396 3.05115 9.06135 3.00247 7.76225C2.93035 5.7825 4.44671 3.85955 6.19837 3.10858C6.40931 3.0175 6.6403 2.98282 6.86869 3.00795C7.09707 3.03308 7.31499 3.11716 7.50108 3.25193C8.94351 4.3031 9.9388 5.89339 10.7934 7.1438C10.9815 7.41853 11.0619 7.75283 11.0193 8.08301C10.9768 8.41319 10.8142 8.71618 10.5627 8.93423L8.80378 10.2405C8.7188 10.3019 8.65899 10.392 8.63544 10.4942C8.6119 10.5963 8.62622 10.7035 8.67576 10.7959C9.07424 11.5198 9.78283 12.598 10.5942 13.4094C11.4056 14.2208 12.5352 14.9762 13.3096 15.4198C13.4067 15.4743 13.521 15.4895 13.629 15.4624C13.737 15.4352 13.8304 15.3677 13.8902 15.2737L15.0351 13.5311C15.2456 13.2515 15.5561 13.0642 15.9016 13.0084C16.2471 12.9526 16.6008 13.0326 16.8886 13.2318C18.1571 14.1099 19.6374 15.088 20.721 16.4755C20.8667 16.6629 20.9594 16.886 20.9894 17.1215C21.0194 17.3571 20.9855 17.5963 20.8914 17.8142C20.1368 19.5749 18.2274 21.0742 16.2414 21.0011Z" fill="white"/>
  </svg>