<svg xmlns="http://www.w3.org/2000/svg" width="24" height="24" viewBox="0 0 24 24" fill="none">
    <path d="M7.20114 3.59998C6.56462 3.59998 5.95417 3.85283 5.50409 4.30292C5.054 4.75301 4.80114 5.36346 4.80114 5.99998V11.1072C5.18354 10.9712 5.58354 10.8796 6.00114 10.8324V5.99998C6.00114 5.68172 6.12757 5.37649 6.35261 5.15145C6.57766 4.9264 6.88288 4.79998 7.20114 4.79998H15.6011C15.9194 4.79998 16.2246 4.9264 16.4497 5.15145C16.6747 5.37649 16.8011 5.68172 16.8011 5.99998V19.2H12.1463L13.3463 20.4H18.0011C18.9559 20.4 19.8716 20.0207 20.5467 19.3456C21.2219 18.6704 21.6011 17.7548 21.6011 16.8V14.4H18.0011V5.99998C18.0011 5.36346 17.7483 4.75301 17.2982 4.30292C16.8481 3.85283 16.2377 3.59998 15.6011 3.59998H7.20114ZM9.99594 12H13.8011C13.9603 12 14.1129 11.9368 14.2254 11.8242C14.3379 11.7117 14.4011 11.5591 14.4011 11.4C14.4011 11.2408 14.3379 11.0882 14.2254 10.9757C14.1129 10.8632 13.9603 10.8 13.8011 10.8H9.00114C8.88993 10.7999 8.78088 10.8307 8.68616 10.8889C8.59145 10.9472 8.51479 11.0307 8.46474 11.13C9.02394 11.3364 9.54114 11.6316 9.99594 12ZM18.0011 19.2V15.6H20.4011V16.8C20.4011 17.4365 20.1483 18.0469 19.6982 18.497C19.2481 18.9471 18.6377 19.2 18.0011 19.2ZM9.00114 7.19998C8.84201 7.19998 8.6894 7.26319 8.57688 7.37571C8.46436 7.48823 8.40114 7.64085 8.40114 7.79998C8.40114 7.95911 8.46436 8.11172 8.57688 8.22424C8.6894 8.33676 8.84201 8.39998 9.00114 8.39998H13.8011C13.9603 8.39998 14.1129 8.33676 14.2254 8.22424C14.3379 8.11172 14.4011 7.95911 14.4011 7.79998C14.4011 7.64085 14.3379 7.48823 14.2254 7.37571C14.1129 7.26319 13.9603 7.19998 13.8011 7.19998H9.00114ZM6.60114 20.4C7.54434 20.4 8.41554 20.088 9.11634 19.5636L12.1763 22.6236C12.232 22.6794 12.2982 22.7236 12.371 22.7538C12.4438 22.7841 12.5219 22.7997 12.6007 22.7997C12.6796 22.7998 12.7576 22.7843 12.8305 22.7542C12.9033 22.7241 12.9696 22.6799 13.0253 22.6242C13.0811 22.5685 13.1254 22.5023 13.1556 22.4295C13.1858 22.3567 13.2014 22.2786 13.2015 22.1998C13.2015 22.121 13.1861 22.0429 13.1559 21.97C13.1258 21.8972 13.0816 21.831 13.0259 21.7752L9.96594 18.7152C10.5324 17.9577 10.8265 17.0312 10.8008 16.0858C10.7751 15.1403 10.431 14.2312 9.82421 13.5056C9.21745 12.7801 8.38356 12.2806 7.45755 12.088C6.53154 11.8954 5.56764 12.021 4.72191 12.4445C3.87618 12.8679 3.19814 13.5645 2.79759 14.4213C2.39703 15.2781 2.2974 16.245 2.51484 17.1655C2.73227 18.086 3.25404 18.9062 3.99566 19.4932C4.73727 20.0802 5.65532 20.3997 6.60114 20.4ZM6.60114 19.2C5.80549 19.2 5.04243 18.8839 4.47982 18.3213C3.91721 17.7587 3.60114 16.9956 3.60114 16.2C3.60114 15.4043 3.91721 14.6413 4.47982 14.0787C5.04243 13.516 5.80549 13.2 6.60114 13.2C7.39679 13.2 8.15985 13.516 8.72246 14.0787C9.28507 14.6413 9.60114 15.4043 9.60114 16.2C9.60114 16.9956 9.28507 17.7587 8.72246 18.3213C8.15985 18.8839 7.39679 19.2 6.60114 19.2Z" fill="white"/>
  </svg>