<svg xmlns="http://www.w3.org/2000/svg" width="30" height="30" viewBox="0 0 30 30" fill="none">
    <path d="M24.3744 18.125C24.2054 18.1044 24.0338 18.1226 23.8728 18.1781C23.7117 18.2336 23.5654 18.3251 23.445 18.4455C23.3245 18.566 23.2331 18.7123 23.1775 18.8733C23.122 19.0343 23.1038 19.2059 23.1244 19.375C23.1244 20.2125 21.8744 20.2125 21.8744 19.375V16.5L23.9994 15.875C24.8994 15.45 25.5119 14.6 25.6244 13.625C25.6244 6.875 20.8744 2.5 14.9994 2.5C9.12445 2.5 4.37445 6.875 4.37445 13.625C4.44945 14.625 5.07445 15.5 5.99945 15.875L8.12445 16.5V19.375C8.12445 19.5408 8.0586 19.6997 7.94139 19.8169C7.82418 19.9342 7.66521 20 7.49945 20C7.33369 20 7.17472 19.9342 7.05751 19.8169C6.9403 19.6997 6.87445 19.5408 6.87445 19.375C6.89505 19.2059 6.87689 19.0343 6.82136 18.8733C6.76582 18.7123 6.67436 18.566 6.55391 18.4455C6.43346 18.3251 6.28718 18.2336 6.12614 18.1781C5.96511 18.1226 5.79354 18.1044 5.62445 18.125C5.45536 18.1044 5.28379 18.1226 5.12276 18.1781C4.96172 18.2336 4.81543 18.3251 4.69498 18.4455C4.57453 18.566 4.48308 18.7123 4.42754 18.8733C4.37201 19.0343 4.35385 19.2059 4.37445 19.375C4.35561 19.7904 4.42355 20.2051 4.57393 20.5928C4.72431 20.9805 4.95383 21.3326 5.24786 21.6266C5.54188 21.9206 5.89396 22.1501 6.28163 22.3005C6.6693 22.4509 7.08406 22.5188 7.49945 22.5C9.26195 22.575 10.6994 21.1375 10.6244 19.375V17.125H11.8744V24.25C11.8744 25.0875 10.6244 25.0875 10.6244 24.25C10.645 24.0809 10.6269 23.9093 10.5714 23.7483C10.5158 23.5873 10.4244 23.441 10.3039 23.3205C10.1835 23.2001 10.0372 23.1086 9.87614 23.0531C9.71511 22.9976 9.54354 22.9794 9.37445 23C9.20536 22.9794 9.03379 22.9976 8.87276 23.0531C8.71172 23.1086 8.56543 23.2001 8.44498 23.3205C8.32453 23.441 8.23308 23.5873 8.17754 23.7483C8.12201 23.9093 8.10385 24.0809 8.12445 24.25C8.08845 24.6752 8.14358 25.1032 8.28616 25.5054C8.42874 25.9076 8.65548 26.2748 8.95126 26.5824C9.24703 26.89 9.60502 27.131 10.0013 27.2892C10.3976 27.4474 10.8232 27.5193 11.2494 27.5C13.0119 27.575 14.4494 26.1375 14.3744 24.375V17.5H15.6244V24.375C15.6056 24.7904 15.6735 25.2051 15.8239 25.5928C15.9743 25.9805 16.2038 26.3326 16.4979 26.6266C16.7919 26.9206 17.144 27.1501 17.5316 27.3005C17.9193 27.4509 18.3341 27.5188 18.7494 27.5C20.5119 27.575 21.9494 26.1375 21.8744 24.375C21.8744 22.7125 19.3744 22.7125 19.3744 24.375C19.3744 25.2125 18.1244 25.2125 18.1244 24.375V17.25H19.3744V19.5C19.3744 21.2 20.7869 22.575 22.4994 22.5C24.2619 22.575 25.6994 21.1375 25.6244 19.375C25.645 19.2059 25.6269 19.0343 25.5714 18.8733C25.5158 18.7123 25.4244 18.566 25.3039 18.4455C25.1835 18.3251 25.0372 18.2336 24.8761 18.1781C24.7151 18.1226 24.5435 18.1044 24.3744 18.125ZM13.2494 5.875C12.3166 6.07917 11.4357 6.47305 10.6616 7.03215C9.88741 7.59126 9.23655 8.30364 8.74945 9.125C8.53695 9.375 8.12445 9.4625 7.87445 9.25C7.74376 9.14916 7.65758 9.0013 7.63423 8.83789C7.61089 8.67448 7.65223 8.5084 7.74945 8.375C8.94843 6.4929 10.8302 5.14876 12.9994 4.625C13.3369 4.6 13.6369 4.8125 13.7494 5.125C13.8244 5.4625 13.5994 5.8125 13.2494 5.875Z" fill="white"/>
    </svg>