<svg xmlns="http://www.w3.org/2000/svg" width="29" height="22" viewBox="0 0 29 22" fill="none">
    <g clip-path="url(#clip0_2632_3272)">
    <path d="M5.25319 21.7169V20.2802C5.25319 19.7294 4.91787 19.3703 4.34312 19.3703C4.0558 19.3703 3.74448 19.466 3.52894 19.7774C3.36139 19.5139 3.12195 19.3703 2.76275 19.3703C2.5232 19.3703 2.28388 19.442 2.09222 19.7055V19.4182H1.58936V21.7169H2.09222V20.4478C2.09222 20.0408 2.30777 19.8491 2.64308 19.8491C2.97818 19.8491 3.14595 20.0647 3.14595 20.4478V21.7169H3.64882V20.4478C3.64882 20.0408 3.88814 19.8491 4.19946 19.8491C4.53478 19.8491 4.70233 20.0647 4.70233 20.4478V21.7169H5.25319ZM12.7003 19.4182H11.8862V18.7237H11.3834V19.4182H10.9284V19.873H11.3833V20.9268C11.3833 21.4536 11.5988 21.7648 12.1736 21.7648C12.3891 21.7648 12.6284 21.6931 12.7962 21.5973L12.6524 21.1662C12.5088 21.262 12.3412 21.286 12.2214 21.286C11.982 21.286 11.8862 21.1423 11.8862 20.9028V19.873H12.7003V19.4182ZM16.9628 19.3702C16.6755 19.3702 16.4839 19.5139 16.3641 19.7055V19.4182H15.8613V21.7169H16.3641V20.4239C16.3641 20.0408 16.5317 19.8252 16.843 19.8252C16.9388 19.8252 17.0586 19.8492 17.1543 19.8731L17.298 19.3943C17.2022 19.3703 17.0586 19.3703 16.9628 19.3703M10.5213 19.6098C10.2817 19.4422 9.94654 19.3704 9.58734 19.3704C9.01269 19.3704 8.6296 19.6577 8.6296 20.1127C8.6296 20.4959 8.91692 20.7113 9.41979 20.7832L9.65922 20.8072C9.92265 20.855 10.0663 20.9269 10.0663 21.0466C10.0663 21.2142 9.87477 21.334 9.53945 21.334C9.20413 21.334 8.94081 21.2142 8.77315 21.0945L8.53372 21.4776C8.79715 21.6692 9.15635 21.7649 9.51545 21.7649C10.186 21.7649 10.5692 21.4537 10.5692 21.0226C10.5692 20.6155 10.2579 20.4 9.77888 20.3282L9.53945 20.3042C9.3239 20.2802 9.15635 20.2324 9.15635 20.0888C9.15635 19.9211 9.3239 19.8254 9.58734 19.8254C9.87477 19.8254 10.1621 19.945 10.3057 20.0169L10.5213 19.6098ZM23.8833 19.3704C23.5958 19.3704 23.4043 19.514 23.2845 19.7056V19.4183H22.7816V21.717H23.2845V20.424C23.2845 20.0409 23.4522 19.8254 23.7634 19.8254C23.8593 19.8254 23.979 19.8494 24.0748 19.8732L24.2185 19.3944C24.1227 19.3704 23.979 19.3704 23.8833 19.3704ZM17.4657 20.5677C17.4657 21.2621 17.9445 21.7649 18.6869 21.7649C19.0221 21.7649 19.2616 21.6932 19.501 21.5016L19.2616 21.0945C19.07 21.2382 18.8785 21.31 18.6629 21.31C18.2558 21.31 17.9685 21.0226 17.9685 20.5677C17.9685 20.1367 18.2558 19.8492 18.6629 19.8254C18.8785 19.8254 19.07 19.8971 19.2616 20.0409L19.501 19.6338C19.2616 19.4422 19.0221 19.3704 18.6869 19.3704C17.9445 19.3704 17.4657 19.8732 17.4657 20.5677ZM22.1112 20.5677V19.4183H21.6084V19.7056C21.4407 19.4901 21.2013 19.3704 20.8899 19.3704C20.2434 19.3704 19.7406 19.8732 19.7406 20.5677C19.7406 21.2621 20.2434 21.7649 20.8899 21.7649C21.2252 21.7649 21.4647 21.6453 21.6084 21.4297V21.717H22.1112V20.5677ZM20.2673 20.5677C20.2673 20.1606 20.5307 19.8254 20.9617 19.8254C21.3688 19.8254 21.6562 20.1367 21.6562 20.5677C21.6562 20.9747 21.3688 21.31 20.9617 21.31C20.5307 21.286 20.2673 20.9747 20.2673 20.5677ZM14.2569 19.3704C13.5864 19.3704 13.1074 19.8492 13.1074 20.5677C13.1074 21.2861 13.5863 21.7649 14.2808 21.7649C14.616 21.7649 14.9513 21.6692 15.2148 21.4537L14.9752 21.0945C14.7837 21.2382 14.5442 21.334 14.3048 21.334C13.9935 21.334 13.6822 21.1903 13.6103 20.7831H15.3105V20.5917C15.3345 19.8492 14.9035 19.3704 14.2569 19.3704ZM14.2568 19.8014C14.568 19.8014 14.7837 19.993 14.8314 20.3522H13.6342C13.682 20.0409 13.8976 19.8014 14.2568 19.8014ZM26.7327 20.5677V18.5083H26.2298V19.7056C26.0622 19.4901 25.8227 19.3704 25.5114 19.3704C24.8649 19.3704 24.362 19.8732 24.362 20.5677C24.362 21.2621 24.8649 21.7649 25.5114 21.7649C25.8467 21.7649 26.0862 21.6453 26.2298 21.4297V21.717H26.7327V20.5677ZM24.8889 20.5677C24.8889 20.1606 25.1522 19.8254 25.5833 19.8254C25.9904 19.8254 26.2777 20.1367 26.2777 20.5677C26.2777 20.9747 25.9904 21.31 25.5833 21.31C25.1522 21.286 24.8889 20.9747 24.8889 20.5677ZM8.07863 20.5677V19.4183H7.57576V19.7056C7.4081 19.4901 7.16867 19.3704 6.85735 19.3704C6.21082 19.3704 5.70795 19.8732 5.70795 20.5677C5.70795 21.2621 6.21082 21.7649 6.85735 21.7649C7.19267 21.7649 7.4321 21.6453 7.57576 21.4297V21.717H8.07863V20.5677ZM6.21082 20.5677C6.21082 20.1606 6.47425 19.8254 6.90523 19.8254C7.31233 19.8254 7.59976 20.1367 7.59976 20.5677C7.59976 20.9747 7.31233 21.31 6.90523 21.31C6.47425 21.286 6.21082 20.9747 6.21082 20.5677Z" fill="black"/>
    <path d="M10.3545 1.96143H17.8975V15.5149H10.3545V1.96143Z" fill="#FF5F00"/>
    <path d="M10.8328 8.73829C10.8328 5.98453 12.1259 3.54197 14.1134 1.96148C12.6528 0.81209 10.809 0.117676 8.79749 0.117676C4.03203 0.117676 0.176758 3.97295 0.176758 8.73829C0.176758 13.5036 4.03203 17.3589 8.79738 17.3589C10.8088 17.3589 12.6527 16.6645 14.1134 15.515C12.1259 13.9585 10.8328 11.4921 10.8328 8.73829Z" fill="#EB001B"/>
    <path d="M28.0738 8.73829C28.0738 13.5035 24.2185 17.3589 19.4532 17.3589C17.4417 17.3589 15.5979 16.6645 14.1372 15.515C16.1487 13.9346 17.4178 11.4921 17.4178 8.73829C17.4178 5.98453 16.1247 3.54197 14.1372 1.96148C15.5978 0.81209 17.4417 0.117676 19.4532 0.117676C24.2185 0.117676 28.0738 3.99695 28.0738 8.73829Z" fill="#F79E1B"/>
    </g>
    <defs>
    <clipPath id="clip0_2632_3272">
    <rect width="27.9249" height="21.7073" fill="white" transform="translate(0.17627 0.117676)"/>
    </clipPath>
    </defs>
    </svg>