<svg xmlns="http://www.w3.org/2000/svg" width="21" height="17" viewBox="0 0 21 17" fill="none">
    <path fill-rule="evenodd" clip-rule="evenodd" d="M1.36387 1.61388C0.375 2.60163 0.375 4.1935 0.375 7.375V9.625C0.375 12.8065 0.375 14.3984 1.36387 15.3861C2.35162 16.375 3.9435 16.375 7.125 16.375H13.875C17.0565 16.375 18.6484 16.375 19.6361 15.3861C20.625 14.3984 20.625 12.8065 20.625 9.625V7.375C20.625 4.1935 20.625 2.60163 19.6361 1.61388C18.6484 0.625 17.0565 0.625 13.875 0.625H7.125C3.9435 0.625 2.35162 0.625 1.36387 1.61388ZM4.37437 4.189C4.12613 4.02341 3.82228 3.96321 3.52965 4.02165C3.23702 4.08009 2.97959 4.25238 2.814 4.50062C2.64841 4.74887 2.58821 5.05272 2.64665 5.34535C2.70509 5.63798 2.87738 5.89541 3.12563 6.061L9.25237 10.1447C9.62188 10.391 10.056 10.5223 10.5 10.5223C10.944 10.5223 11.3781 10.391 11.7476 10.1447L17.8744 6.061C18.1226 5.89541 18.2949 5.63798 18.3534 5.34535C18.4118 5.05272 18.3516 4.74887 18.186 4.50062C18.0204 4.25238 17.763 4.08009 17.4704 4.02165C17.1777 3.96321 16.8739 4.02341 16.6256 4.189L10.5 8.27275L4.37437 4.189Z" fill="white"/>
  </svg>