<svg xmlns="http://www.w3.org/2000/svg" width="30" height="30" viewBox="0 0 30 30" fill="none">
    <g clip-path="url(#clip0_5038_7733)">
      <path d="M19.6553 15C19.6545 12.7772 20.2424 10.5938 21.3592 8.67188L21.8057 7.89492C20.8697 7.67219 19.9161 7.532 18.9557 7.47598C17.6701 6.48574 15.7541 5.31094 13.5451 4.93711L12.1875 4.6875L12.9709 8.31211C10.5293 9.14062 8.37539 10.8234 6.9498 11.9812C6.67402 11.7504 6.38535 11.5248 6.08379 11.3045C3.75703 9.60527 1.24395 9.44121 1.13848 9.43535L0 9.375L0.156445 10.5064C0.173437 10.6236 0.554297 13.1273 2.01094 14.99C0.554297 16.8533 0.175781 19.3553 0.156445 19.4742L0 20.625L1.13848 20.5453C1.24395 20.5395 3.75703 20.376 6.08379 18.6762C6.37988 18.4602 6.66426 18.2381 6.93691 18.01C8.36484 19.1719 10.5193 20.8576 12.9639 21.6861L12.1875 25.3125L13.5451 25.0652C15.7418 24.6938 17.6514 23.5184 18.9357 22.527C19.9096 22.4706 20.8766 22.3289 21.8256 22.1033L21.3621 21.3311C20.244 19.4085 19.6551 17.2241 19.6553 15Z" fill="white"/>
      <path d="M29.2733 12.993C28.9306 12.4141 28.3042 11.534 27.27 10.6328C26.1935 9.70565 24.9643 8.97214 23.6372 8.46484L22.9827 9.60918C22.0326 11.2452 21.5317 13.1033 21.5308 14.9953C21.5298 16.8872 22.0289 18.7458 22.9774 20.3828L23.6659 21.5295C24.9792 21.0283 26.1965 20.3051 27.2647 19.3914C29.1245 17.7813 30.0005 15.7615 30.0005 14.9998C30.0005 14.2785 29.5317 13.433 29.2733 12.993ZM24.3755 14.9998C24.1901 14.9998 24.0088 14.9448 23.8546 14.8418C23.7005 14.7388 23.5803 14.5924 23.5093 14.4211C23.4384 14.2498 23.4198 14.0613 23.456 13.8794C23.4922 13.6976 23.5815 13.5305 23.7126 13.3994C23.8437 13.2683 24.0107 13.179 24.1926 13.1428C24.3744 13.1066 24.5629 13.1252 24.7343 13.1962C24.9056 13.2671 25.052 13.3873 25.155 13.5415C25.258 13.6956 25.313 13.8769 25.313 14.0623C25.313 14.3109 25.2142 14.5494 25.0384 14.7252C24.8626 14.901 24.6241 14.9998 24.3755 14.9998Z" fill="white"/>
    </g>
    <defs>
      <clipPath id="clip0_5038_7733">
        <rect width="30" height="30" fill="white"/>
      </clipPath>
    </defs>
  </svg>