<svg xmlns="http://www.w3.org/2000/svg" width="24" height="24" viewBox="0 0 24 24" fill="none">
    <path d="M20.002 2.99182C19.6645 3.12213 19.3364 3.4212 19.0645 3.76338C19.2802 4.68213 18.8489 5.67635 18.5067 6.38885C19.4161 6.36073 20.9911 6.68416 21.713 6.28104C22.5755 5.79823 23.3536 4.11495 23.1098 3.29463C22.2286 3.07198 20.752 2.7401 20.002 2.99182ZM13.0036 3.39307L12.9239 3.9837C13.5005 4.11963 14.0208 4.33057 14.5036 4.66338C14.5786 4.13838 14.7145 3.67901 15.0802 3.3837C14.3911 3.33682 13.6692 3.34151 13.0036 3.39307ZM22.0645 3.48682C21.4036 3.86182 20.7567 4.12901 20.452 4.53682C20.152 4.27432 19.9598 3.97432 20.0489 3.55713C20.7098 3.2712 21.4177 3.33682 22.0645 3.48682ZM12.1411 3.48682C11.6348 3.55245 11.1333 3.6462 10.6317 3.77276C11.138 3.77745 11.6583 3.7962 12.0895 3.84307L12.1411 3.48682ZM15.5723 4.07745C15.1833 4.87479 15.427 5.41854 15.7411 6.04198C16.1536 5.33885 16.5145 4.58838 16.8192 3.80557C16.3973 3.7212 15.8536 3.78213 15.5723 4.07745ZM17.7333 3.78682C15.0005 11.2592 7.44891 15.5342 0.84375 15.0326C0.9 16.7482 3.67688 16.0217 4.68516 15.8342C7.13016 15.3654 10.2848 14.2873 12.5442 12.3373C14.3583 10.7764 16.027 8.9201 17.1473 7.12479C17.4942 6.35604 18.502 4.92635 18.2723 4.04463C18.1973 3.8337 17.9395 3.8337 17.7333 3.78682ZM9.21141 4.69666C9.71297 4.97323 10.1442 5.31541 10.5567 5.64354C10.7161 5.30135 10.9598 4.95916 11.3208 4.63057C10.6317 4.60245 9.84422 4.63995 9.21141 4.69666ZM12.5677 4.76698C11.7005 5.26385 11.3723 5.71385 11.2364 6.18729C11.7098 6.65604 12.2255 7.3076 12.6473 7.88416C12.6052 6.77323 13.5755 5.81698 14.3723 5.63416C13.852 5.14666 13.2989 4.91698 12.5677 4.76698ZM7.81453 5.04823C7.74891 5.64823 7.68328 6.25291 7.76766 6.8201C8.26453 6.32791 8.97703 6.04666 9.58641 5.96698C9.03797 5.55448 8.49422 5.20291 7.81453 5.04823ZM6.91453 5.52635C6.34266 6.20604 5.85047 7.0076 5.42391 7.78573C5.85984 7.58416 6.37547 7.43885 7.03172 7.40604C6.84891 6.75916 6.86297 6.11698 6.91453 5.52635ZM13.9036 6.73573C13.2989 7.28885 13.5005 8.2076 13.6552 8.86385C14.3536 8.10916 14.9864 7.27948 15.5348 6.38885C14.9911 6.39823 14.3208 6.41229 13.9036 6.73573ZM7.96922 7.92635C7.94578 8.78416 8.18016 9.81541 8.47078 10.6357C9.19266 9.08885 10.4161 8.27791 11.977 8.40448C11.5739 7.86073 11.0958 7.25604 10.6927 6.83885C9.53953 6.7451 8.55984 6.8951 7.96922 7.92635ZM4.95516 6.89041C4.43109 7.37323 3.96141 7.87948 3.54375 8.39979C3.72094 8.41854 3.89766 8.4701 4.06875 8.54979C4.32984 8.03885 4.62422 7.46698 4.95516 6.89041ZM7.12547 8.23573C5.81297 8.25916 5.30672 8.76073 4.62422 9.3701C4.39594 10.331 4.31484 11.2826 4.38375 12.206C5.21297 11.1514 6.45984 10.5514 7.67391 10.9264C7.38797 10.1295 7.15359 9.16385 7.12547 8.23573ZM10.2473 9.64666C9.56297 10.1295 9.10359 11.0154 8.95828 12.0279L8.89266 12.4685C10.3786 11.7139 11.7755 10.7248 13.013 9.5201C12.0567 9.1451 11.0583 9.08416 10.2473 9.64666ZM2.76094 9.47791C2.26078 10.2467 1.86469 11.0389 1.56422 11.8357C2.39859 11.6201 3.13828 12.0935 3.57938 12.6607C3.45187 11.5732 3.51703 10.4529 3.76734 9.33729C3.41109 9.13573 3.03938 9.27635 2.76094 9.47791ZM16.6692 9.32323C16.2567 9.87166 15.8161 10.406 15.352 10.917C15.6802 11.7279 15.638 12.6748 15.2817 13.392C14.8411 14.2779 14.1098 14.9717 13.552 16.242C13.3177 16.7998 13.0223 19.1717 13.7208 19.2092C15.9333 17.9389 18.4223 14.9857 18.5489 12.5342C18.2395 11.217 17.5036 10.2607 16.6692 9.32323ZM6.04734 11.8498C5.37703 12.1826 4.74891 12.9232 4.41984 13.992C5.82234 13.7389 7.22859 13.2795 8.57391 12.6279C7.80047 11.8217 6.99422 11.3764 6.04734 11.8498ZM1.95 12.6045C1.1325 12.8014 1.05281 13.481 0.942188 14.1889C1.74516 14.2498 2.56547 14.231 3.39094 14.142C3.20813 13.4482 2.67797 12.6092 1.95 12.6045ZM6.75047 16.1951C6.30047 16.3264 5.85984 16.4435 5.42859 16.542C5.05359 17.217 4.46813 18.1404 4.37953 18.9232C4.41422 19.7201 4.61484 20.4185 4.87547 21.0982C7.04578 19.5654 7.30359 18.0326 6.75047 16.1951Z" fill="white"/>
  </svg>