<svg xmlns="http://www.w3.org/2000/svg" width="24" height="19" viewBox="0 0 24 19" fill="none">
  <g clip-path="url(#clip0_2723_35790)">
    <path d="M23.25 16.7493C23.1842 16.9481 23.1387 17.1565 23.0492 17.344C22.5876 18.3107 21.8021 18.7502 20.7428 18.7494C16.9063 18.7462 13.0698 18.7481 9.23336 18.7481C7.23492 18.7481 5.23647 18.7449 3.23804 18.7497C2.41891 18.7517 1.73636 18.472 1.22942 17.8159C0.916218 17.4105 0.75269 16.9484 0.751878 16.4331C0.750909 15.818 0.750713 15.203 0.751838 14.588C0.75248 14.2367 0.917752 14.0683 1.26979 14.0475C1.56085 14.0303 1.86021 14.0451 2.14086 13.9804C3.0176 13.7786 3.63236 12.9286 3.55749 12.0671C3.47356 11.1014 2.75915 10.3848 1.81411 10.3232C1.62442 10.3108 1.4334 10.3191 1.2436 10.3078C0.917756 10.2883 0.752913 10.1126 0.75205 9.78765C0.750378 9.15801 0.748182 8.52833 0.75259 7.89871C0.760676 6.74376 1.69744 5.73466 2.8475 5.62736C2.98305 5.61471 3.11874 5.57054 3.24747 5.52252C8.08902 3.71647 12.9297 1.90815 17.7707 0.100429C18.5879 -0.204746 19.4052 0.183251 19.688 1.01471C20.1883 2.48605 20.686 3.95831 21.1823 5.43103C21.2237 5.55389 21.2689 5.63986 21.4174 5.67713C22.3969 5.92313 22.9945 6.5465 23.2114 7.53405C23.2173 7.56064 23.2368 7.58421 23.25 7.60919V9.9821C23.1221 10.2319 22.9152 10.329 22.6395 10.3133C22.4868 10.3046 22.3325 10.3133 22.1795 10.3233C21.4032 10.3739 20.7414 10.9019 20.5236 11.6407C20.2998 12.4001 20.5669 13.1975 21.1893 13.6722C21.6165 13.9979 22.1041 14.0705 22.6178 14.0458C22.8977 14.0323 23.118 14.1155 23.25 14.3764C23.25 15.1674 23.25 15.9583 23.25 16.7493ZM1.71684 9.35328C3.37107 9.41006 4.48386 10.7317 4.50351 12.1108C4.51315 12.7866 4.3197 13.3958 3.89592 13.9227C3.3373 14.6172 2.60169 14.9702 1.69548 15.0022C1.69548 15.3009 1.69068 15.5854 1.69683 15.8698C1.70298 16.1546 1.68213 16.4472 1.73991 16.7223C1.87726 17.3764 2.4504 17.8015 3.15549 17.803C4.79558 17.8065 6.43569 17.8042 8.07579 17.8036C8.12492 17.8036 8.17404 17.7959 8.24906 17.7896C8.24906 17.6284 8.23912 17.4751 8.25119 17.3236C8.27412 17.0359 8.47041 16.8576 8.73739 16.8667C9.00315 16.8758 9.18262 17.0708 9.18756 17.359C9.19002 17.5028 9.18798 17.6466 9.18798 17.8042C9.30246 17.8042 9.38912 17.8042 9.47578 17.8042C12.734 17.8042 15.9922 17.8042 19.2505 17.8041C19.7923 17.8041 20.3342 17.8093 20.8759 17.8026C21.5678 17.7941 22.1854 17.342 22.2633 16.6931C22.3298 16.1393 22.277 15.5711 22.277 15.0091C20.5928 14.9523 19.4893 13.5857 19.4935 12.1715C19.4977 10.7461 20.6269 9.40627 22.3057 9.35118C22.3057 8.92966 22.3079 8.50674 22.3053 8.08385C22.2994 7.1283 21.7242 6.5547 20.771 6.55456C16.9929 6.554 13.2148 6.55433 9.43672 6.55433H9.18805C9.18805 6.7043 9.1886 6.82748 9.18794 6.95065C9.18618 7.2793 9.02107 7.47896 8.74176 7.49099C8.45225 7.50347 8.25995 7.30524 8.24587 6.9733C8.24012 6.83769 8.24492 6.70163 8.24492 6.55898C6.47535 6.55898 4.74036 6.54221 3.00598 6.56755C2.34812 6.57716 1.77304 7.1095 1.72563 7.71669C1.68367 8.25395 1.71684 8.79707 1.71684 9.35328ZM20.2092 5.59509C20.2132 5.5602 20.2197 5.54445 20.2156 5.53231C19.7343 4.10935 19.2548 2.68574 18.7676 1.26477C18.6729 0.988442 18.4312 0.88515 18.1508 0.971772C18.0881 0.991126 18.0269 1.01527 17.9654 1.03823C14.4128 2.36494 10.8602 3.69167 7.30765 5.01866C6.82711 5.19815 6.34707 5.379 5.8668 5.55922C5.86946 5.57118 5.87213 5.58314 5.87479 5.59509H20.2092Z" fill="#1E2B62"/>
    <path d="M9.1877 10.2013C9.1877 10.4571 9.19032 10.7129 9.187 10.9687C9.18336 11.2482 8.99464 11.4533 8.73623 11.4656C8.48768 11.4775 8.26029 11.2788 8.25302 11.0014C8.23905 10.4683 8.23869 9.93443 8.25138 9.40133C8.25836 9.1078 8.48131 8.91409 8.74701 8.93026C9.00365 8.94588 9.18435 9.15029 9.18719 9.43395C9.18975 9.68972 9.18773 9.94553 9.1877 10.2013Z" fill="#1E2B62"/>
    <path d="M9.18809 14.1668C9.18809 14.4226 9.1907 14.6784 9.18739 14.9341C9.18378 15.2131 8.99392 15.4175 8.73624 15.4268C8.48661 15.4359 8.26414 15.2548 8.257 14.9877C8.24219 14.4331 8.24213 13.8774 8.25884 13.3229C8.26672 13.0615 8.50702 12.874 8.74792 12.8931C9.00107 12.9131 9.18303 13.11 9.18717 13.3777C9.19125 13.6407 9.18806 13.9038 9.18809 14.1668Z" fill="#1E2B62"/>
  </g>
  <defs>
    <clipPath id="clip0_2723_35790">
      <rect width="22.5" height="18.7529" fill="white" transform="translate(0.75 -0.00317383)"/>
    </clipPath>
  </defs>
</svg>