<svg xmlns="http://www.w3.org/2000/svg" width="45" height="20" viewBox="0 0 45 20" fill="none">
    <g clip-path="url(#clip0_2632_3269)">
    <path d="M17.5806 3.19085L11.843 16.8785H8.09985L5.27632 5.95447C5.10513 5.28325 4.95637 5.03623 4.43545 4.7524C3.58397 4.28986 2.17786 3.85727 0.941895 3.58817L1.02526 3.19085H7.05168C7.81859 3.19085 8.50916 3.7015 8.68479 4.58567L10.1767 12.5069L13.8599 3.19085H17.5806ZM22.6409 3.19085L19.7131 16.8785H16.1716L19.0997 3.19085H22.6409ZM32.2471 12.4095C32.2619 8.79769 27.253 8.59723 27.2857 6.98347C27.2976 6.49285 27.765 5.97056 28.788 5.83704C29.2947 5.77147 30.6946 5.71926 32.2803 6.44988L32.9007 3.54555C32.0487 3.23741 30.9523 2.94092 29.5884 2.94092C26.0877 2.94092 23.6252 4.80034 23.6055 7.46501C23.5826 9.43604 25.3644 10.5345 26.7045 11.191C28.0847 11.8614 28.5476 12.2923 28.5413 12.8914C28.5314 13.8098 27.4389 14.2164 26.4232 14.2315C24.6422 14.2597 23.6098 13.7501 22.7862 13.3665L22.1434 16.367C22.9719 16.7467 24.4989 17.0766 26.0805 17.0934C29.8021 17.0934 32.2362 15.2552 32.2471 12.4095ZM41.4912 16.8787H44.7654L41.9049 3.19085H38.884C38.2027 3.19085 37.6301 3.58629 37.376 4.19417L32.0624 16.8785H35.7811L36.5187 14.8339H41.062L41.4912 16.8787ZM37.5385 12.0292L39.403 6.88897L40.4741 12.0292H37.5385Z" fill="#1A1F71"/>
    </g>
    <defs>
    <clipPath id="clip0_2632_3269">
    <rect width="43.8235" height="19.5152" fill="white" transform="translate(0.941406 0.293945)"/>
    </clipPath>
    </defs>
    </svg>